<svg xmlns="http://www.w3.org/2000/svg" viewBox="0 0 117.091 113.205"><defs><style>.a{fill:#eec5a3;}.b{fill:#ffcc58;}.c{fill:#b0ce6a;}.d{fill:#61a2d8;}.e{fill:#95a0ac;}.f{fill:#c1c7d1;}</style></defs><path d="M142.41,106.708c-1.937,9.442-3.44,18.82-10.433,26.447,1.706,0,3.051-.024,4.394,0a5.645,5.645,0,0,1,.112,11.289c-2.043.053-4.089.01-6.188.086a6.212,6.212,0,0,1,3.87,3.875,5.659,5.659,0,0,1-1.145,5.46,5.715,5.715,0,0,1,.024,7.518l.52.849A5.614,5.614,0,0,1,129,170.831a74.427,74.427,0,0,1-8.02-.048,8.818,8.818,0,0,1-3.411-1.367c-.533-.3-.833-.5-1.425-.166a13.09,13.09,0,0,1-6.563,1.609c-6.491-.013-12.982-.028-19.473,0a36.337,36.337,0,0,1-16.714-3.876,1.993,1.993,0,0,0-1.98-.138,3.223,3.223,0,0,1-1.379.226c-2.4.021-4.8.028-7.2,0a3.744,3.744,0,0,1-3.925-3.939q-.024-11.133,0-22.267a3.75,3.75,0,0,1,3.92-3.943c2.4-.023,4.8-.006,7.2,0,.236,0,.522-.064.7.043,1.476.889,2.64-.06,3.941-.537,3.048-1.119,6.145-2.1,9.3-3.167-.077-.111-.306-.441-.536-.77-2.745-3.92-5.859-7.637-8.157-11.8a37.456,37.456,0,0,1-4.082-27.3A32.075,32.075,0,0,1,98.885,69.275c1.716-.158,3.443-.195,5.282-.294v8.189l7.562-.793V61.522h4.389c.315,0,.632-.024.944,0,1.444.132,2.614.049,3.365-1.615a4.015,4.015,0,0,1,3.609-2.126c6.965-.341,13.734.4,20.039,3.7A36.319,36.319,0,0,1,156.228,71.9c2.11,2.77,4.5,5.328,6.826,7.931a2.118,2.118,0,0,0,1.415.525c2.6.048,5.193-.015,7.789.027a3.678,3.678,0,0,1,3.705,3.669q.058,9.484,0,18.968a3.7,3.7,0,0,1-3.77,3.73q-3.775.057-7.553,0a3.708,3.708,0,0,1-3.395-2.158,6.121,6.121,0,0,0-1-1.418c-1.954-1.993-3.955-3.939-5.91-5.929a5.858,5.858,0,0,0-4.323-1.813c-1.371-.015-2.741-.191-4.209-.3v7.78H111.829V91.682c-1.085,0-2.089-.029-3.09.005a7.791,7.791,0,0,1-6.937-3.277,1.545,1.545,0,0,0-1.065-.476c-1.335-.056-2.675-.043-4.011-.016a3.762,3.762,0,1,0-.039,7.524c2.469.037,4.939.008,7.5.008v11.257ZM92.924,148.261a4.474,4.474,0,0,1,.488-.048c3.613.144,6.113-1.337,7.306-4.859a1.662,1.662,0,0,1,1.15-.748c2.509-.46,5.032-.842,7.55-1.256,1.526-.251,2.388-1.125,2.319-2.334-.073-1.286-1.051-2.06-2.657-2.062-6.564-.005-13.129-.024-19.693.007A32.415,32.415,0,0,0,74.874,140.5a1.285,1.285,0,0,0-.851,1.333q.044,10.183,0,20.365a1.118,1.118,0,0,0,.781,1.25c2.425.89,4.792,1.993,7.278,2.652,5.936,1.575,12.033.806,18.068.918.055,0,.112-.09.226-.187-3.036-3.127-3.966-6.943-3.742-11.152.068-1.274.011-2.554.011-3.752h-3.72Zm11.4-15.145c1.8,0,3.522-.015,5.242,0a6.018,6.018,0,0,1,6,5.248,5.95,5.95,0,0,1-4.739,6.609,47.778,47.778,0,0,1-5.572.92c-1.508.136-2.088,1.033-2.6,2.3,4.239,0,8.366.014,12.493-.026a1.331,1.331,0,0,0,.966-.587,6.036,6.036,0,0,1,4.443-3.157,1.209,1.209,0,0,0,.8-.632,42.2,42.2,0,0,1,8.3-13.706c4.783-5.581,6.787-12.336,7.92-19.436H104.348v3.614c1.258,0,2.432-.009,3.607,0A7.577,7.577,0,1,1,108,129.419c-1.207.013-2.415,0-3.676,0Zm11.288-34H141.9v-5c-.434-.174-.872-.345-1.307-.525a25.65,25.65,0,0,1-12.837-11.15,6.361,6.361,0,0,1,5.434-9.655,4.272,4.272,0,0,0,.587-.1l.11-.342a41.037,41.037,0,0,0-4.027-2.086c-2.226-.873-4.567-1.46-6.779-2.363a15.185,15.185,0,0,1-2.836-1.979c-.267-.192-.524-.542-.8-.555-1.244-.06-2.493-.026-3.882-.026V80.412c-2.579,0-5.013-.026-7.447.008a3.752,3.752,0,0,0-3.843,3.667,3.8,3.8,0,0,0,3.854,3.782c.59.017,1.18,0,1.77,0h5.716ZM100.346,73.087c-16.016.609-29.364,16.52-25.694,33.563h25.68V99.26c-1.29,0-2.5.014-3.717,0a7.576,7.576,0,0,1,.056-15.152c1.209-.013,2.417,0,3.675,0Zm60.178,25.139.329-.219c0-4.669.019-9.339-.026-14.008a2.325,2.325,0,0,0-.6-1.507,63.148,63.148,0,0,1-7.47-8.778,28.841,28.841,0,0,0-10.421-8.838c-5.467-2.842-11.335-3.549-17.39-3.336-.878.031-1.618.238-1.761,1.184s.508,1.37,1.34,1.641c2.277.74,4.563,1.461,6.8,2.3a15.04,15.04,0,0,1,9.827,10.9,3.052,3.052,0,0,0,2.632,2.527,15.157,15.157,0,0,0,2.571.242c1.044.039,2.09.009,3.13.009v3.743a43.819,43.819,0,0,1-5.484-.04,10.267,10.267,0,0,1-7.967-5.6c-.93-1.688-2.632-2.262-4.049-1.452s-1.668,2.361-.562,4.073a21.877,21.877,0,0,0,18.435,10.541,10.146,10.146,0,0,1,7.446,3.214C158.372,95.965,159.451,97.092,160.524,98.226ZM75.392,110.62a7.036,7.036,0,0,0,.25,1.07c1.071,2.6,1.855,5.386,3.313,7.754,2.38,3.864,5.312,7.385,7.8,11.191a4.917,4.917,0,0,0,5.088,2.534c2.8-.232,5.633-.054,8.594-.054v-7.541c2.534,0,4.925.012,7.316,0a3.832,3.832,0,0,0,3.721-2.385,3.719,3.719,0,0,0-3.56-5.061c-2.462-.045-4.926-.009-7.53-.009V110.62ZM70.13,163.208V140.8H62.788v22.4ZM172.1,84.288h-7.313v18.559H172.1Zm-71.38,75.306a9.223,9.223,0,0,0,5.758,6.753,8.947,8.947,0,0,0,8.632-.987,1.1,1.1,0,0,0,.381-.539c.4-1.163.781-2.334,1.266-3.8-.373-.342-.952-1.337-1.557-1.353C110.421,159.537,105.631,159.594,100.725,159.594Zm-.193-3.846h1.319c3.929,0,7.861-.083,11.786.042,1.539.049,2.641-.225,3.195-1.746.026-.07.034-.147,0,.009-.429-2.042-1.783-2.084-3.326-2.049-3.456.078-6.914.025-10.372.025h-2.6Zm24.454-3.774c1.179,0,2.359.02,3.538-.006a1.863,1.863,0,1,0,.021-3.7q-3.538-.037-7.077,0a1.863,1.863,0,1,0-.021,3.7C122.626,152,123.806,151.974,124.986,151.975Zm.066,3.829c-1.219,0-2.438-.025-3.656.007a1.855,1.855,0,1,0,.005,3.694q3.6.044,7.195,0a1.855,1.855,0,1,0-.005-3.694C127.412,155.779,126.232,155.8,125.052,155.8Zm-.057,11.251c1.179,0,2.36.021,3.538-.006a1.863,1.863,0,1,0,0-3.7q-3.538-.036-7.077,0a1.863,1.863,0,1,0,0,3.7C122.635,167.076,123.815,167.055,124.995,167.055Zm1.912-26.39c3.248,0,6.193.014,9.138-.007a1.87,1.87,0,1,0-.031-3.7c-2.043-.019-4.087-.024-6.13.013a1.354,1.354,0,0,0-.98.408C128.229,138.37,127.647,139.427,126.907,140.664Z" transform="translate(-58.9 -57.71)"/><path class="a" d="M125.862,320.842v3.671h3.72c0,1.2.057,2.478-.011,3.752-.224,4.209.706,8.025,3.742,11.152-.114.1-.171.188-.226.187-6.035-.112-12.131.657-18.068-.918-2.485-.66-4.853-1.762-7.278-2.653a1.118,1.118,0,0,1-.781-1.25q.039-10.183,0-20.365a1.285,1.285,0,0,1,.851-1.333,32.414,32.414,0,0,1,14.513-3.544c6.564-.031,13.129-.013,19.693-.007,1.607,0,2.584.775,2.657,2.062.069,1.209-.793,2.083-2.319,2.334-2.518.414-5.041.8-7.55,1.256a1.662,1.662,0,0,0-1.15.748c-1.193,3.522-3.693,5-7.306,4.859A4.484,4.484,0,0,0,125.862,320.842Z" transform="translate(-91.839 -230.291)"/><path class="b" d="M199.623,248.428v-3.694c1.26,0,2.468.011,3.676,0a7.577,7.577,0,1,0-.042-15.153c-1.175-.011-2.349,0-3.607,0v-3.614h33.228c-1.133,7.1-3.137,13.855-7.92,19.436a42.2,42.2,0,0,0-8.3,13.706,1.209,1.209,0,0,1-.8.632,6.037,6.037,0,0,0-4.443,3.157,1.331,1.331,0,0,1-.966.587c-4.127.04-8.254.026-12.493.026.511-1.265,1.091-2.162,2.6-2.3a47.781,47.781,0,0,0,5.572-.92,5.95,5.95,0,0,0,4.739-6.609,6.018,6.018,0,0,0-6-5.248C203.145,248.412,201.423,248.428,199.623,248.428Z" transform="translate(-154.203 -173.022)"/><path class="b" d="M214.427,115.705V104.459h-5.716c-.59,0-1.18.013-1.77,0a3.8,3.8,0,0,1-3.854-3.782,3.752,3.752,0,0,1,3.843-3.667c2.434-.034,4.869-.008,7.447-.008V81.92c1.389,0,2.637-.034,3.882.026.274.014.531.363.8.555a15.185,15.185,0,0,0,2.836,1.979c2.212.9,4.553,1.49,6.779,2.363a41.039,41.039,0,0,1,4.027,2.086l-.11.342a4.274,4.274,0,0,1-.587.1,6.361,6.361,0,0,0-5.434,9.655,25.65,25.65,0,0,0,12.837,11.15c.435.18.873.351,1.307.525v5Z" transform="translate(-157.718 -74.296)"/><path class="b" d="M133.32,106.581V117.6c-1.258,0-2.467-.011-3.675,0a7.576,7.576,0,0,0-.056,15.152c1.213.016,2.426,0,3.717,0v7.39h-25.68C103.956,123.1,117.3,107.19,133.32,106.581Z" transform="translate(-91.874 -91.204)"/><path class="a" d="M300.505,106.491c-1.073-1.134-2.153-2.261-3.217-3.4a10.146,10.146,0,0,0-7.446-3.214,21.876,21.876,0,0,1-18.435-10.541c-1.106-1.712-.861-3.259.562-4.073s3.119-.236,4.049,1.452a10.267,10.267,0,0,0,7.967,5.6,43.817,43.817,0,0,0,5.484.04V88.609c-1.039,0-2.086.03-3.129-.009a15.155,15.155,0,0,1-2.571-.242,3.052,3.052,0,0,1-2.632-2.527,15.04,15.04,0,0,0-9.827-10.9c-2.24-.84-4.527-1.561-6.8-2.3-.833-.271-1.486-.689-1.34-1.641s.884-1.153,1.761-1.184c6.055-.213,11.923.494,17.39,3.336a28.842,28.842,0,0,1,10.421,8.838,63.145,63.145,0,0,0,7.47,8.778,2.325,2.325,0,0,1,.6,1.507c.045,4.669.026,9.338.026,14.008Z" transform="translate(-198.881 -65.975)"/><path class="b" d="M111.314,225.865H136.3v7.493c2.6,0,5.067-.036,7.53.009a3.719,3.719,0,0,1,3.56,5.061,3.832,3.832,0,0,1-3.721,2.385c-2.391.016-4.783,0-7.316,0v7.541c-2.96,0-5.794-.177-8.594.054a4.917,4.917,0,0,1-5.088-2.534c-2.483-3.806-5.415-7.327-7.8-11.191-1.459-2.368-2.242-5.151-3.313-7.754A7.035,7.035,0,0,1,111.314,225.865Z" transform="translate(-94.822 -172.955)"/><path class="c" d="M78.6,344.2H71.255v-22.4H78.6Z" transform="translate(-67.368 -238.699)"/><path class="d" d="M402.752,142.179v18.559h-7.313V142.179Z" transform="translate(-289.547 -115.601)"/><path class="e" d="M191.825,381.484c4.906,0,9.7-.057,14.482.072.6.016,1.183,1.011,1.557,1.353-.486,1.468-.863,2.639-1.266,3.8a1.1,1.1,0,0,1-.381.539,8.947,8.947,0,0,1-8.632.987A9.223,9.223,0,0,1,191.825,381.484Z" transform="translate(-150 -279.6)"/><path class="f" d="M191.211,361.12V357.4h2.6c3.458,0,6.916.054,10.372-.025,1.543-.035,2.9.007,3.326,2.049.034-.156.026-.079,0-.009-.554,1.521-1.656,1.795-3.195,1.746-3.925-.125-7.857-.042-11.786-.042Z" transform="translate(-149.579 -263.081)"/><path class="a" d="M256.7,349.186c-1.18,0-2.36.021-3.539-.006a1.863,1.863,0,1,1,.021-3.7q3.538-.036,7.077,0a1.863,1.863,0,1,1-.021,3.7C259.06,349.206,257.88,349.186,256.7,349.186Z" transform="translate(-190.615 -254.921)"/><path class="a" d="M256.769,369.445c1.18,0,2.36-.024,3.539.007a1.855,1.855,0,1,1,.005,3.694q-3.6.045-7.195,0a1.855,1.855,0,1,1-.005-3.694C254.331,369.421,255.55,369.446,256.769,369.445Z" transform="translate(-190.617 -271.352)"/><path class="a" d="M256.709,397.114c-1.18,0-2.36.021-3.538-.006a1.863,1.863,0,1,1,0-3.7q3.538-.035,7.077,0a1.863,1.863,0,1,1,0,3.7C259.069,397.135,257.889,397.114,256.709,397.114Z" transform="translate(-190.615 -287.769)"/><path class="a" d="M275.036,313.243c.739-1.238,1.322-2.294,2-3.286a1.353,1.353,0,0,1,.979-.408c2.043-.037,4.087-.032,6.13-.013a1.87,1.87,0,1,1,.031,3.7C281.229,313.257,278.284,313.243,275.036,313.243Z" transform="translate(-207.029 -230.289)"/></svg>