<svg xmlns="http://www.w3.org/2000/svg" viewBox="0 0 92.461 92.456"><defs><style>.a{fill:#e5e8ec;}.b{fill:#fbd670;}.c{fill:#fee9a6;}.d{fill:#cbd0d8;}.e{fill:#ce9d76;}.f{fill:#fe816e;}.g{fill:#69d5f3;}</style></defs><g transform="translate(-63.996 -64.76)"><path d="M156.437,109.772q0,17.282.02,34.564c0,.772-.176.96-.952.954-5.372-.039-10.745-.006-16.117-.039-.7,0-.866.163-.858.859.04,3.447,0,6.894.033,10.341.005.613-.161.764-.764.759q-5.217-.044-10.434,0c-.616.005-.762-.166-.757-.766.029-3.478,0-6.956.03-10.434.006-.62-.172-.76-.768-.755-3.478.028-6.956,0-10.434.03-.623.006-.758-.177-.753-.77.028-3.447-.01-6.895.034-10.341.009-.717-.193-.848-.869-.846q-14.068.036-28.135,0c-.717,0-.848.194-.845.869.026,7.36,0,14.72.037,22.08,0,.8-.211.951-.966.941q-5.077-.067-10.154,0c-.725.01-.844-.205-.842-.874.025-7.36,0-14.72.037-22.08,0-.8-.219-.954-.969-.937-2.39.052-4.782,0-7.173.033-.606.009-.846-.078-.841-.777q.049-8.2,0-16.4c0-.643.206-.756.782-.741,1.459.038,2.921-.038,4.377.033.743.036.837-.227.835-.881-.022-8.26,0-16.521-.035-24.781,0-.74.2-.99.914-1.117,2.349-.416,4.676-.958,7.029-1.351.854-.143,1.081-.452,1.046-1.3-.075-1.829.018-3.665-.043-5.5-.025-.751.21-.895.916-.893,11.3.022,22.608,0,33.911.039.84,0,1.037-.216.988-1.014-.072-1.176-.037-2.359-.012-3.539a4.293,4.293,0,0,1,4.383-4.359,2.743,2.743,0,0,0,3.193-2.081c.425-1.186,1.131-2.269,1.666-3.419a.788.788,0,0,1,.842-.528q10.76.02,21.521,0a.859.859,0,0,1,.908.577c.761,1.592,1.583,3.156,2.343,4.749a.96.96,0,0,0,1.054.664,9.135,9.135,0,0,1,2.134.066,4.453,4.453,0,0,1,3.687,4.671Q156.442,92.63,156.437,109.772Z"/><path class="a" d="M315.28,135.546q0,16.4.017,32.792c0,.736-.115.987-.93.979-4.409-.048-8.819-.033-13.228-.01-.576,0-.793-.1-.783-.743.042-2.483.035-4.968,0-7.452-.007-.585.116-.787.749-.777,2.484.04,4.968,0,7.452.03.594.008.774-.132.771-.755q-.04-8.2,0-16.4c0-.727-.277-.764-.857-.763-9.347.015-18.694,0-28.04.03-.772,0-.957-.177-.955-.953q.041-19.376.02-38.753c0-1.59.459-2.052,2.041-2.052h31.674c1.593,0,2.061.46,2.061,2.032Q315.281,119.151,315.28,135.546Z" transform="translate(-161.824 -27.006)"/><path class="b" d="M135.851,140.509c0-1.178.035-2.172-.013-3.161-.029-.6.137-.781.758-.773,2.949.034,5.9.015,8.846.015,7.45,0,14.9.009,22.349-.016.674,0,.881.13.875.849q-.058,6.611,0,13.223c.005.683-.144.874-.854.87-5.4-.034-10.8,0-16.2-.036-.689,0-.871.153-.867.857.033,5.4,0,10.8.036,16.2,0,.695-.159.894-.862.864-1.425-.061-2.857-.063-4.282,0-.716.032-.855-.191-.853-.871.024-9.312,0-18.624.037-27.936,0-.855-.228-1.023-1.056-1.054A26.819,26.819,0,0,0,135.851,140.509Z" transform="translate(-53.948 -53.93)"/><path class="c" d="M114.85,173.847c0,4.191-.01,8.383.012,12.575,0,.574-.1.79-.743.786-2.25-.014-2.251.015-2.251-2.247,0-5.93-.012-11.861.016-17.791,0-.68-.136-.886-.851-.87q-3.631.077-7.265,0c-.693-.013-.867.157-.863.858.031,6.365,0,12.73.038,19.095,0,.776-.18.978-.957.956-2.044-.058-2.045-.017-2.045-2.082,0-7.017.009-14.034-.014-21.051,0-.71.089-1.048.923-1.2,4.112-.76,8.206-1.622,12.306-2.448.03-.006.06-.016.09-.022,1.508-.273,1.6-.2,1.6,1.333Z" transform="translate(-26.985 -71.734)"/><path class="c" d="M215.148,208.432c2.266,0,4.532.016,6.8-.012.524-.006.672.138.669.666q-.031,6.8,0,13.6c0,.524-.138.671-.666.669q-6.8-.031-13.595,0c-.524,0-.672-.138-.669-.666q.031-6.8,0-13.6c0-.524.137-.676.666-.67C210.616,208.448,212.882,208.432,215.148,208.432Z" transform="translate(-107.905 -107.883)"/><path class="d" d="M138.49,292.21c3.962-3.967,7.775-7.78,11.579-11.6a1.038,1.038,0,0,1,.815-.327q4.975.013,9.957.005c.092.337-.206.431-.355.581q-5.416,5.436-10.849,10.855c-.234.233-.424.5-.837.5C145.43,292.2,142.06,292.21,138.49,292.21Z" transform="translate(-55.943 -161.848)"/><path class="d" d="M257.426,280.275c-3.964,3.967-7.779,7.779-11.579,11.6a1.136,1.136,0,0,1-.91.325q-4.929-.01-9.866,0c-.1-.336.2-.429.353-.579q5.415-5.437,10.849-10.855c.233-.233.422-.5.835-.5C250.478,280.282,253.849,280.275,257.426,280.275Z" transform="translate(-128.457 -161.839)"/><path class="e" d="M111.905,350.5c0-3.2.021-6.4-.017-9.6-.008-.672.194-.828.833-.807,1.489.047,2.981.035,4.471,0,.511-.01.689.121.687.663q-.027,9.783,0,19.565c0,.543-.176.673-.687.663-1.49-.03-2.982-.043-4.471,0-.638.02-.84-.136-.833-.807C111.926,356.957,111.905,353.727,111.905,350.5Z" transform="translate(-35.966 -206.765)"/><path class="e" d="M333.376,350.525c0,3.23-.014,6.46.013,9.689.005.595-.136.8-.762.781q-2.234-.07-4.471,0c-.638.021-.756-.2-.755-.787q.028-9.69,0-19.379c0-.56.122-.751.714-.734q2.281.067,4.564,0c.6-.018.712.192.708.741C333.364,344.065,333.376,347.3,333.376,350.525Z" transform="translate(-197.808 -206.766)"/><path class="d" d="M90.3,280.274c-3.994,3.994-7.831,7.832-11.671,11.665a5.452,5.452,0,0,1-2.5.217c-.173-.14-.11-.341-.11-.518,0-3.6,0-7.2-.012-10.8,0-.452.136-.571.577-.569C81.076,280.28,85.572,280.274,90.3,280.274Z" transform="translate(-9.017 -161.837)"/><path class="d" d="M329.845,292.072l9.056-9.029c.659-.658,1.3-1.34,1.984-1.966.392-.356.629-.9,1.3-.942,1.97-.11,1.969-.13,1.969,1.871q0,4.656,0,9.312c0,.393.109.772-.561.768C339.1,292.058,334.6,292.072,329.845,292.072Z" transform="translate(-199.644 -161.71)"/><path class="a" d="M283.92,349.062c-1.241,0-2.483-.021-3.724.01-.5.013-.7-.084-.69-.644.031-2.545.026-5.09,0-7.635,0-.5.084-.7.644-.69,2.544.031,5.09.026,7.634,0,.5,0,.7.084.69.644-.031,2.545-.038,5.09,0,7.634.01.621-.214.7-.744.687C286.466,349.039,285.193,349.062,283.92,349.062Z" transform="translate(-161.841 -206.774)"/><path class="c" d="M329.278,79.706H307.324c.455-.924.891-1.8,1.316-2.679.159-.329.447-.273.719-.274q8.929,0,17.857-.009a.786.786,0,0,1,.858.511C328.433,78.066,328.852,78.849,329.278,79.706Z" transform="translate(-182.731 -9)"/><path class="f" d="M102.945,291.98c1.106-1.075,2.222-2.139,3.316-3.226q3.992-3.971,7.958-7.968a1.6,1.6,0,0,1,1.3-.536c1.237.038,2.476.012,3.712.012.1.312-.159.4-.29.532q-5.453,5.471-10.913,10.936a1.416,1.416,0,0,1-1.137.469c-1.268-.032-2.538-.011-3.807-.011Z" transform="translate(-29.25 -161.825)"/><path class="f" d="M215.436,280.25c-3.961,3.97-7.772,7.787-11.578,11.61a.938.938,0,0,1-.727.321c-1.358-.013-2.715-.006-4.124-.006.071-.356.322-.5.5-.681q5.325-5.337,10.65-10.672a1.681,1.681,0,0,1,1.37-.587C212.762,280.284,214,280.25,215.436,280.25Z" transform="translate(-101.389 -161.814)"/><path class="f" d="M294.01,292.207l11.563-11.555a.937.937,0,0,1,.7-.377c1.386.016,2.771.007,4.353.007-.283.3-.437.468-.6.631q-5.363,5.364-10.718,10.736a1.69,1.69,0,0,1-1.376.572C296.707,292.176,295.475,292.207,294.01,292.207Z" transform="translate(-172.733 -161.844)"/><path class="g" d="M126.86,205.449c0,2.7-.024,5.4.017,8.095.01.665-.18.815-.822.807-2.176-.026-2.176,0-2.176-2.134,0-4.993.014-9.987-.016-14.98,0-.664.179-.815.822-.807,2.176.026,2.176,0,2.176,2.134Z" transform="translate(-44.957 -98.879)"/><path d="M306.489,112.639c4.657,0,9.314.017,13.971-.018.7-.005.872.166.858.861-.047,2.452-.04,4.905,0,7.357.009.618-.169.759-.768.757q-14.157-.029-28.314,0c-.61,0-.77-.158-.762-.764q.053-3.725,0-7.451c-.009-.618.169-.761.768-.758C296.989,112.65,301.739,112.639,306.489,112.639Z" transform="translate(-170.826 -35.942)"/><path d="M306.289,217.372c-4.657,0-9.314-.017-13.971.018-.7,0-.874-.16-.861-.859.048-2.452.04-4.905,0-7.357-.009-.614.163-.761.766-.76q14.158.03,28.315,0c.606,0,.773.151.764.761q-.054,3.725,0,7.451c.009.614-.163.763-.766.76C315.789,217.36,311.039,217.372,306.289,217.372Z" transform="translate(-170.815 -107.879)"/><path d="M306.393,160.528c4.688,0,9.376.016,14.064-.018.69,0,.878.152.864.856-.049,2.452-.04,4.905,0,7.357.009.609-.155.764-.763.762q-14.157-.03-28.315,0c-.6,0-.776-.144-.767-.759q.055-3.725,0-7.451c-.009-.609.155-.766.763-.763C296.954,160.54,301.673,160.528,306.393,160.528Z" transform="translate(-170.827 -71.905)"/><path d="M224.126,157.516c-1.272,0-2.544-.027-3.814.013-.544.017-.663-.171-.658-.681q.036-3.814,0-7.629c-.006-.542.171-.663.681-.658q3.814.036,7.629,0c.542-.006.663.171.658.681q-.036,3.814,0,7.629c.006.542-.17.671-.681.658C226.67,157.494,225.4,157.516,224.126,157.516Z" transform="translate(-116.893 -62.931)"/><path d="M228.618,224.888c0,1.3-.018,2.607.01,3.909.01.453-.136.571-.577.568q-3.909-.028-7.819,0c-.452,0-.571-.135-.568-.577q.028-3.909,0-7.819c0-.452.135-.571.576-.568q3.91.028,7.819,0c.453,0,.577.135.568.577C228.6,222.281,228.618,223.584,228.618,224.888Z" transform="translate(-116.901 -116.882)"/><path class="g" d="M377.907,127.63h-.65c-2.487,0-2.477,0-2.249-2.513.032-.356.126-.477.484-.474q2.508.021,5.016,0c.358,0,.452.118.484.474.229,2.514.238,2.513-2.249,2.513Z" transform="translate(-233.488 -44.97)"/><path class="g" d="M342.151,124.4c.248,0,.5-.014.743,0,.7.048,1.759-.316,2.014.15.354.646.111,1.615.141,2.446.013.36-.194.387-.469.386-1.672,0-3.344-.01-5.015,0-.35,0-.458-.1-.492-.466-.239-2.522-.249-2.521,2.242-2.521Z" transform="translate(-206.498 -44.724)"/><path class="g" d="M306.245,124.4c.248,0,.5-.014.743,0,.7.049,1.758-.317,2.014.151.354.646.11,1.616.139,2.447.012.363-.2.384-.472.383-1.672,0-3.344-.01-5.015,0-.353,0-.455-.108-.489-.469-.235-2.519-.245-2.518,2.245-2.518Z" transform="translate(-179.534 -44.724)"/><path class="g" d="M306.241,223.386c-.8,0-1.611-.02-2.415.008-.41.014-.5-.13-.527-.527-.147-2.463-.158-2.462,2.3-2.462,1.022,0,2.044.025,3.065-.011.492-.017.609.144.621.623.059,2.369.075,2.369-2.3,2.369Z" transform="translate(-179.669 -116.875)"/><path class="g" d="M342.094,220.441h.743c2.489,0,2.479,0,2.246,2.516-.033.359-.133.474-.487.471q-2.508-.021-5.016,0c-.361,0-.45-.124-.481-.477-.224-2.511-.234-2.511,2.252-2.511Z" transform="translate(-206.524 -116.911)"/><path class="g" d="M378.176,223.383c-.774,0-1.55-.032-2.321.011-.509.028-.6-.165-.612-.633-.057-2.36-.071-2.36,2.311-2.36,1.022,0,2.044.028,3.064-.012.509-.02.6.166.612.634.057,2.36.071,2.359-2.311,2.359Z" transform="translate(-233.725 -116.872)"/><path class="g" d="M306.314,175.518c-.279,0-.558.016-.836,0-.7-.048-1.757.318-2.014-.152-.353-.647-.109-1.616-.137-2.447-.012-.364.2-.382.473-.381,1.672,0,3.344.01,5.015,0,.355,0,.454.111.488.471.233,2.517.243,2.516-2.246,2.516Z" transform="translate(-179.688 -80.932)"/><path class="g" d="M342.084,175.517h-.743c-2.487,0-2.477,0-2.249-2.513.032-.356.126-.477.484-.474q2.508.021,5.015,0c.358,0,.452.118.484.474.228,2.514.238,2.513-2.249,2.513Z" transform="translate(-206.516 -80.932)"/><path class="g" d="M378.176,175.5c-.774,0-1.55-.032-2.321.011-.513.029-.6-.172-.608-.636-.056-2.357-.07-2.357,2.313-2.357.991,0,1.982.022,2.972-.009.483-.015.7.063.706.634.043,2.357.066,2.357-2.318,2.357Z" transform="translate(-233.727 -80.916)"/><path class="g" d="M234.656,162.158c0,1.406,0,1.406-1.391,1.406-1.591,0-1.591,0-1.591-1.576,0-1.406,0-1.406,1.39-1.406C234.656,160.582,234.656,160.582,234.656,162.158Z" transform="translate(-125.921 -71.959)"/><path class="g" d="M233.184,232.413c1.472,0,1.472,0,1.472,1.509,0,1.472,0,1.472-1.509,1.472-1.472,0-1.472,0-1.472-1.509C231.675,232.413,231.675,232.413,233.184,232.413Z" transform="translate(-125.921 -125.902)"/></g></svg>