<svg xmlns="http://www.w3.org/2000/svg" viewBox="0 0 208.875 193.839"><defs><style>.a{fill:#fff;}.b{fill:#f05c5d;}.c{fill:#221f1f;}.d{fill:#a5d06a;}.e{fill:#7cd0f5;}.f{fill:#f4c76d;}</style></defs><path class="a" d="M1220.691,1813.563h-13.056c-9.011,0-16.318-6.779-16.318-15.144V1669.048c0-8.362,7.306-15.144,16.318-15.144h168.079c9.011,0,16.318,6.781,16.318,15.144v129.372c0,8.365-7.307,15.144-16.318,15.144H1220.691Z" transform="translate(-1187.237 -1650.118)"/><path class="b" d="M1375.714,1653.9H1207.635c-9.011,0-16.318,6.781-16.318,15.144v12.116h200.714v-12.116C1392.031,1660.686,1384.725,1653.9,1375.714,1653.9Z" transform="translate(-1187.237 -1650.118)"/><path class="c" d="M1192.721,1662.429H1386.5" transform="translate(-1184.151 -1631.383)"/><rect class="d" width="26.109" height="41.645" transform="translate(22.847 148.41)"/><rect class="e" width="26.109" height="51.489" transform="translate(114.228 138.566)"/><rect class="f" width="26.109" height="83.506" transform="translate(68.537 106.549)"/><rect class="b" width="26.109" height="89.158" transform="translate(159.919 100.896)"/><ellipse class="f" cx="10.607" cy="9.843" rx="10.607" ry="9.843" transform="translate(68.688 55.253)"/><ellipse class="e" cx="10.607" cy="9.843" rx="10.607" ry="9.843" transform="translate(116.296 100.328)"/><ellipse class="b" cx="10.607" cy="9.843" rx="10.607" ry="9.843" transform="translate(162.367 55.253)"/><ellipse class="d" cx="10.607" cy="9.843" rx="10.607" ry="9.843" transform="translate(25.025 96.705)"/><path d="M1384.67,1819.491c7.854,0,14.246-5.928,14.246-13.219V1671.65c0-10.437-9.152-18.93-20.4-18.93H1210.439c-11.247,0-20.4,8.493-20.4,18.93v134.622c0,7.291,6.392,13.219,14.245,13.219h4.522v19.5h-14.687a3.8,3.8,0,1,0,0,7.571h200.714a3.8,3.8,0,1,0,0-7.571h-14.687v-19.5Zm-174.231-159.2h168.079c6.747,0,12.237,5.1,12.237,11.358v8.33H1198.611c-.138,0-.275.006-.409.02v-8.349C1198.2,1665.389,1203.692,1660.292,1210.439,1660.292Zm6.53,178.7v-34.071h17.948v34.071Zm45.688,0v-75.932h17.952v75.932Zm45.691,0v-43.917H1326.3v43.917Zm45.692,0v-40.793a4.092,4.092,0,0,0-8.161,0v40.793h-11.422v-47.7a3.941,3.941,0,0,0-4.08-3.786h-26.109a3.94,3.94,0,0,0-4.077,3.786v47.7h-11.425v-79.718a3.94,3.94,0,0,0-4.077-3.786H1258.58a3.941,3.941,0,0,0-4.081,3.786v79.718h-11.422V1801.13a3.943,3.943,0,0,0-4.08-3.786h-26.109a3.94,3.94,0,0,0-4.08,3.786v10.789h-4.522a5.885,5.885,0,0,1-6.085-5.646V1687.533c.134.013.271.019.409.019h192.145v118.72a5.885,5.885,0,0,1-6.085,5.646h-4.521v-58.3a3.941,3.941,0,0,0-4.08-3.786h-26.109a3.943,3.943,0,0,0-4.081,3.786v19.119a4.092,4.092,0,0,0,8.161,0V1757.4h17.949v81.585Z" transform="translate(-1190.041 -1652.72)"/><path d="M1221.176,1664.555h92.173a3.8,3.8,0,1,0,0-7.572h-92.173a3.8,3.8,0,1,0,0,7.572Z" transform="translate(-1130.583 -1643.351)"/><path d="M1206.114,1664.555a4.29,4.29,0,0,0,2.885-1.109,3.6,3.6,0,0,0,0-5.353,4.305,4.305,0,0,0-5.769,0,3.594,3.594,0,0,0,0,5.353A4.278,4.278,0,0,0,1206.114,1664.555Z" transform="translate(-1163.684 -1643.351)"/><path d="M1201.008,1664.555a4.276,4.276,0,0,0,2.884-1.109,3.593,3.593,0,0,0,0-5.353,4.3,4.3,0,0,0-5.769,0,3.6,3.6,0,0,0,0,5.353A4.29,4.29,0,0,0,1201.008,1664.555Z" transform="translate(-1174.899 -1643.351)"/><path d="M1211.217,1664.555a4.286,4.286,0,0,0,2.884-1.109,3.6,3.6,0,0,0,0-5.353,4.3,4.3,0,0,0-5.768,0,3.593,3.593,0,0,0,0,5.353A4.275,4.275,0,0,0,1211.217,1664.555Z" transform="translate(-1152.47 -1643.351)"/><path d="M1242.856,1693.288a4.251,4.251,0,0,0-2.884,1.11,3.591,3.591,0,0,0,0,5.352,4.3,4.3,0,0,0,5.768,0,3.592,3.592,0,0,0,0-5.352A4.247,4.247,0,0,0,1242.856,1693.288Z" transform="translate(-1082.938 -1563.565)"/><path d="M1348.621,1696.074c8.1,0,14.684-6.114,14.684-13.631s-6.588-13.629-14.684-13.629-14.687,6.114-14.687,13.629a12.929,12.929,0,0,0,2.8,8l-27.1,25.146a15.658,15.658,0,0,0-13.542-.307l-28.3-26.256a12.8,12.8,0,0,0,1.829-6.581c0-7.515-6.59-13.629-14.687-13.629s-14.687,6.114-14.687,13.629a12.832,12.832,0,0,0,2.2,7.166l-24.091,22.354a15.484,15.484,0,0,0-7.086-1.7c-8.1,0-14.687,6.114-14.687,13.632s6.587,13.629,14.687,13.629,14.684-6.114,14.684-13.629a12.781,12.781,0,0,0-1.829-6.578l24.379-22.626a15.652,15.652,0,0,0,13.517-.316l28.021,26a12.827,12.827,0,0,0-2.184,7.141c0,7.518,6.587,13.632,14.684,13.632s14.687-6.114,14.687-13.632a12.8,12.8,0,0,0-1.829-6.578l27.826-25.822A15.567,15.567,0,0,0,1348.621,1696.074Zm0-19.687a6.075,6.075,0,1,1-6.53,6.057A6.313,6.313,0,0,1,1348.621,1676.387Zm-137.343,53.567a6.073,6.073,0,1,1,6.527-6.056A6.314,6.314,0,0,1,1211.278,1729.954Zm43.665-41.451a6.075,6.075,0,1,1,6.527-6.059A6.314,6.314,0,0,1,1254.942,1688.5Zm47.607,45.075a6.075,6.075,0,1,1,6.53-6.056A6.314,6.314,0,0,1,1302.549,1733.577Z" transform="translate(-1175.647 -1617.348)"/><path d="M1210.867,1675.213a4.28,4.28,0,0,0,2.884-1.109,3.593,3.593,0,0,0,0-5.353,4.3,4.3,0,0,0-5.771,0,3.6,3.6,0,0,0,0,5.353A4.282,4.282,0,0,0,1210.867,1675.213Z" transform="translate(-1153.239 -1619.928)"/><path d="M1199.991,1675.213h19.582a3.8,3.8,0,1,0,0-7.573h-19.582a3.8,3.8,0,1,0,0,7.573Z" transform="translate(-1177.143 -1619.928)"/><path d="M1219.573,1680.9a3.8,3.8,0,1,0,0-7.572h-19.582a3.8,3.8,0,1,0,0,7.572Z" transform="translate(-1177.143 -1607.439)"/></svg>