<svg xmlns="http://www.w3.org/2000/svg" viewBox="0 0 113.286 113.261"><defs><style>.a{fill:#010101;}.b{fill:#181818;}.c{fill:#fed98e;}.d{fill:#edf9fe;}.e{fill:#fe7a78;}.f{fill:#fe7b79;}.g{fill:#fe7a79;}.h{fill:#90ddf4;}</style></defs><path d="M58.261,154.754a16.183,16.183,0,0,1,10.345-12.415c5.476-2.194,10.627-1.066,15.312,2.366a13.71,13.71,0,0,1,4.061,4.75,1.4,1.4,0,0,0,1.186.786,10.877,10.877,0,0,1,9.129,7.787c.206.618.421.629.923.442a6.9,6.9,0,0,0,4.427-6.3c.015-2.36-.017-4.72.017-7.08.009-.589-.166-.768-.739-.723-3.555.278-3.623-1.105-3.919-3.646-.158-1.353-.4-2.7-.507-4.056-.073-.885-.348-1.2-1.318-1.174-2.763.087-5.53.033-8.3.03a7.087,7.087,0,0,1-5.477-11.869q5.421-6.35,10.877-12.67a2.06,2.06,0,0,0,.536-1.779c-.488-4.021-1.333-8.008-1.353-12.075C93.4,83.044,98.57,71.326,109.39,62.2a43.976,43.976,0,0,1,3.684-2.629,2.658,2.658,0,0,1,3.26-.014,41.5,41.5,0,0,1,16.29,19.676,43.915,43.915,0,0,1,2.768,24.158c-.312,1.964-.486,3.949-.8,5.913a1.866,1.866,0,0,0,.541,1.669q5.46,6.316,10.872,12.674a7,7,0,0,1,.677,8.768,6.828,6.828,0,0,1-5.8,3.1q-4.479.058-8.96-.007c-.661-.009-.862.172-.934.823-.21,1.9-.507,3.8-.765,5.695-.226,1.665-.963,2.333-2.61,2.353-1.84.022-1.84.022-1.84,1.813,0,2.065-.02,4.13.007,6.2a6.926,6.926,0,0,0,4.512,6.129c.5.164.655.035.826-.478a10.919,10.919,0,0,1,9.122-7.8,1.357,1.357,0,0,0,1.14-.672c6.368-10.889,21.02-11.058,27.679-.364,5.821,9.348-.307,19.767-9.147,22.39-.893.265-1.81.451-2.716.673h-.442a1.2,1.2,0,0,0-1.106,0H124.007a2.2,2.2,0,0,1-1.82-2.315c.373-1.786,1.151-2.41,3.12-2.414,6.527-.014,13.055,0,19.582-.005,3.466,0,6.933.009,10.4,0a11.247,11.247,0,0,0,11.21-9.4,8.8,8.8,0,0,0-1.389-6.235c-3.112-5.116-9.169-7.767-15.382-4.324a13.809,13.809,0,0,0-3.026,2.559c-.39.394-.326.67.164.932A10.07,10.07,0,0,1,149.538,153a2.538,2.538,0,0,1,.327,3.492,2.393,2.393,0,0,1-3.626.205,6.6,6.6,0,0,0-6.159-1.58,6.024,6.024,0,0,0-4.633,5.568c-.172,2.086-1.3,3.32-3.939,2.966a11.821,11.821,0,0,1-10.476-12.107c.072-1.878-.016-3.762.023-5.642.019-.9-.314-1.24-1.227-1.23q-5.144.05-10.289,0c-.871-.007-1.177.34-1.166,1.181.027,1.954-.038,3.911.017,5.864a11.808,11.808,0,0,1-10.647,11.953c-2.3.274-3.442-.594-3.713-2.829A6.354,6.354,0,0,0,83.5,156.473c-.976.784-1.954,1.342-3.211.611a2.428,2.428,0,0,1-.723-3.706,9.17,9.17,0,0,1,2.558-2.085c1.022-.644,1.034-.728.167-1.611-3.123-3.182-6.881-4.52-11.181-3.182a11.254,11.254,0,0,0-8.157,9.068c-.636,3.4.744,6.323,3.183,8.677a11.6,11.6,0,0,0,8.425,3.3c9.809-.038,19.619-.018,29.428-.011,2.083,0,2.862.592,3.253,2.4a2.2,2.2,0,0,1-1.82,2.335H73.773a1.691,1.691,0,0,0-1.328,0h-.664c-4.729-.474-8.29-2.934-11.061-6.634a12.781,12.781,0,0,1-2.659-6.866v-2.877C58.328,155.544,58.038,155.1,58.261,154.754Z" transform="translate(-58.061 -59.003)"/><path class="a" d="M244.357,430.769h-1.328a2.185,2.185,0,0,1-1.818-2.282c.321-1.588,1.21-2.435,2.528-2.409,1.284.025,2.118.844,2.436,2.389A2.189,2.189,0,0,1,244.357,430.769Z" transform="translate(-187.041 -317.509)"/><path class="b" d="M106.694,441.324a.983.983,0,0,1,1.328,0Z" transform="translate(-92.31 -328.064)"/><path class="b" d="M388.019,441.352a.744.744,0,0,1,1.106,0Z" transform="translate(-290.428 -328.092)"/><path class="c" d="M132.977,373.272H127.51c-.327-1.5-1.1-2.242-2.3-2.211-1.164.03-1.878.751-2.189,2.211h-5.468c-.369-1.682-1.021-2.215-2.753-2.215q-14.992,0-29.984-.007A11.7,11.7,0,0,1,73.42,362.6c-1.122-4.042.378-7.317,3.13-10.13a11.288,11.288,0,0,1,17.057.726c.537.652.65.988-.287,1.356a8.254,8.254,0,0,0-2.7,1.887,2.236,2.236,0,0,0-.269,3.164,2.163,2.163,0,0,0,3.242.084,6.664,6.664,0,0,1,11.3,4.272c.151,2.075.97,2.781,3.063,2.641a11.454,11.454,0,0,0,10.67-11.325c.013-2.25.041-4.5-.019-6.749-.022-.8.234-.957.984-.949,3.761.04,7.524.054,11.285-.008.926-.015,1.064.3,1.046,1.112-.049,2.249-.034,4.5-.014,6.749a11.442,11.442,0,0,0,11.042,11.183c1.736.046,2.56-.733,2.685-2.48a6.636,6.636,0,0,1,10.993-4.7,2.776,2.776,0,0,0,2.046.922,2.208,2.208,0,0,0,1.438-3.714,11.568,11.568,0,0,0-3.833-2.557,11.618,11.618,0,0,1,7.471-4.936c7.2-1.523,12.966,4.635,13.69,9.869.555,4.015-2.068,8.613-6.193,10.732a12.313,12.313,0,0,1-5.754,1.31q-14.881-.021-29.763-.005C134,371.057,133.337,371.6,132.977,373.272Z" transform="translate(-68.614 -262.222)"/><path class="d" d="M209.442,173.1c-3.872,0-7.744-.015-11.616.014-.67.005-.919-.131-1.015-.872-1.267-9.717-2.623-19.422-3.872-29.14a39.421,39.421,0,0,1,4.4-23.834.994.994,0,0,1,1.019-.621q11.118.025,22.237,0a.988.988,0,0,1,1,.654,39.649,39.649,0,0,1,4.334,24.166q-1.622,12.048-3.2,24.1c-.209,1.57-.476,3.135-.619,4.711-.062.682-.286.843-.938.838C217.26,173.087,213.351,173.1,209.442,173.1Z" transform="translate(-152.81 -101.005)"/><path class="e" d="M161.974,251.908c.536,4.005,1.022,7.648,1.51,11.29.137,1.021.265,2.043.426,3.06.083.521-.051.709-.618.7-2.835-.029-5.672.035-8.505-.035-2.088-.051-3.415-2.369-2.15-3.953C155.593,259.273,158.736,255.721,161.974,251.908Z" transform="translate(-124.317 -194.853)"/><path class="e" d="M309.286,252.432c3.093,3.62,6.116,7.132,9.1,10.674a2.36,2.36,0,0,1,.282,2.7,2.537,2.537,0,0,1-2.387,1.5c-2.8.015-5.6-.014-8.4.023-.651.009-.72-.246-.647-.779.556-4.045,1.087-8.094,1.654-12.137A5.131,5.131,0,0,1,309.286,252.432Z" transform="translate(-233.526 -195.222)"/><path class="f" d="M221.365,317.685c3.576,0,7.153.025,10.729-.018.862-.01,1.29.061,1.009,1.1a16.6,16.6,0,0,0-.339,2.627c-.054.523-.255.734-.837.731q-10.618-.034-21.236,0c-.583,0-.783-.209-.837-.732a16.479,16.479,0,0,0-.339-2.627c-.284-1.045.153-1.109,1.011-1.1C214.139,317.709,217.752,317.685,221.365,317.685Z" transform="translate(-164.659 -241.162)"/><path class="g" d="M219.612,83.83a35.554,35.554,0,0,1,8.3-8c.3-.2.531-.449.963-.151a35.893,35.893,0,0,1,8.464,8.148Z" transform="translate(-171.831 -70.651)"/><path d="M223.262,153.125a11.062,11.062,0,1,1-11.062,11A11.09,11.09,0,0,1,223.262,153.125Z" transform="translate(-166.611 -125.287)"/><path class="h" d="M240.435,174.683a6.636,6.636,0,1,1-6.623-6.594A6.657,6.657,0,0,1,240.435,174.683Z" transform="translate(-177.149 -135.825)"/></svg>