<svg xmlns="http://www.w3.org/2000/svg" viewBox="0 0 103.851 94.107"><defs><style>.a{fill:#525a61;}.b{fill:#3b4145;}.c{fill:#fed664;}.d{fill:#feb651;}</style></defs><g transform="translate(-37.471 -55.761)"><path class="a" d="M89.405,149.824c-2.534.012-5.068.033-7.6.034-9.5,0-18.994.023-28.49-.006a15.584,15.584,0,0,1-15.056-10.817c-.3-.911-.526-1.848-.786-2.773V132c.35-.208.282-.6.337-.9a16.165,16.165,0,0,1,2.008-5.164Q57.69,94.971,75.579,64.014a15.432,15.432,0,0,1,13.827-8.253c.379.419.284.941.3,1.434a32.2,32.2,0,0,0,.162,4.7c-.162.4-.535.367-.859.39a9.442,9.442,0,0,0-7.869,5.145q-10.4,18.116-20.871,36.19Q52.9,116.407,45.518,129.178c-2.449,4.248-1.707,9.087,1.855,12a9.043,9.043,0,0,0,5.9,2.1q34.278,0,68.556-.009c.068,0,.135.005.2.008.837.024,1.672-.041,2.506-.021.427.01.881-.04,1.213.335-.135.472-.549.438-.9.48a11.334,11.334,0,0,1-1.314.025H91.954c-.371,0-.743.021-1.113,0-.83-.048-1.141.34-1.119,1.15.03,1.112.018,2.226,0,3.339A1.649,1.649,0,0,1,89.405,149.824Z"/><path class="b" d="M241.726,149.824c0-1.654.051-3.309-.026-4.959-.043-.917.265-1.122,1.141-1.119,9.111.031,18.222.019,27.333.019,2.261,0,4.522,0,6.783-.006.36,0,.747.114,1.073-.153.447-.457,1.067-.381,1.61-.471a9.159,9.159,0,0,0,7.462-9.279,9.277,9.277,0,0,0-1.317-4.426q-7.343-12.729-14.7-25.453-7.012-12.16-14.028-24.317c-2.324-4.041-4.672-8.068-6.988-12.113a9.424,9.424,0,0,0-5.411-4.761c-.807-.389-1.774-.276-2.537-.8-.413-.245-.413-.637-.41-1.056.014-1.722.009-3.443.01-5.165a15.3,15.3,0,0,1,13.712,8.079q18.046,31.126,35.975,62.321A15.6,15.6,0,0,1,283.084,149a14.307,14.307,0,0,1-4.864.85q-18.1.008-36.193.006A2.763,2.763,0,0,1,241.726,149.824Z" transform="translate(-152.32)"/><path class="c" d="M108.052,80.239a6.786,6.786,0,0,1,2.647.6,8.755,8.755,0,0,1,4.4,4.391c5.562,11.2,11.233,22.345,16.745,33.569,4.663,9.495,9.432,18.936,14.129,28.413a10.564,10.564,0,0,1-.1,10.479c-1.262,2.2-3,3.921-5.764,4.095-.743.011-1.486.033-2.228.033q-32.944.01-65.888.019c-4,0-7.075-1.595-8.935-5.184a8.521,8.521,0,0,1-.038-8.358c2.685-4.879,5.51-9.681,8.293-14.506Q85.146,109.8,98.984,85.805c1.662-2.893,3.9-4.877,7.254-5.437C106.833,80.268,107.447,80.279,108.052,80.239Z" transform="translate(-18.247 -18.257)"/><path class="d" d="M283.2,163.564c4.019-1.062,6.1-3.876,6.805-7.782a10.34,10.34,0,0,0-1.105-6.558c-4.008-8-8.063-15.973-11.987-24.012-5.909-12.1-12.044-24.092-17.99-36.175-1.248-2.536-2.532-4.983-5.125-6.418a9.248,9.248,0,0,1,5.443,4.7q3.511,6.1,7.031,12.191,14.3,24.772,28.6,49.543c2.624,4.545,1.8,9.395-2.182,12.611a9.576,9.576,0,0,1-5.635,1.977Z" transform="translate(-161.35 -20.031)"/><path class="a" d="M226.6,181.166c-3.205.121-5.451-2.193-5.454-5.672q-.016-13.586,0-27.172a8.379,8.379,0,0,1,.125-1.307,5.009,5.009,0,0,1,5.322-4.36,1.658,1.658,0,0,1,.8,1.339,17.5,17.5,0,0,1,.334,3.119q-.009,14.8,0,29.6a17.173,17.173,0,0,1-.332,3.119A1.606,1.606,0,0,1,226.6,181.166Z" transform="translate(-136.992 -64.807)"/><path class="b" d="M242.613,181.177a7.829,7.829,0,0,0,.781-3.812q.055-15.444,0-30.889a7.83,7.83,0,0,0-.785-3.811c2.937.021,5.03,2.357,5.034,5.672q.015,13.577,0,27.153a8.507,8.507,0,0,1-.175,1.708A5.059,5.059,0,0,1,242.613,181.177Z" transform="translate(-153.001 -64.818)"/><path class="a" d="M226.926,329.518a5,5,0,0,1-5.391-3.589,4.933,4.933,0,0,1,1.221-5.145,4.673,4.673,0,0,1,4.59-1.473,32.681,32.681,0,0,1,.444,6.32A7.828,7.828,0,0,1,226.926,329.518Z" transform="translate(-137.089 -196.473)"/><path class="b" d="M243.512,329.891a22.96,22.96,0,0,0,.583-6.3,13.491,13.491,0,0,0-.445-3.065c-.1-.372-.3-.723.283-.838a5.139,5.139,0,0,1-.42,10.207Z" transform="translate(-153.675 -196.846)"/></g></svg>