<svg xmlns="http://www.w3.org/2000/svg" viewBox="0 0 449.35 89.947"><defs><style>.a,.b{fill:#343434;}.b{font-size:29px;font-family:Helvetica-Bold, Helvetica;font-weight:700;}.c{fill:#f29a36;}.d{fill:#eaeaea;}.e{fill:#2a8b2c;}</style></defs><g transform="translate(-54.008 -134.504)"><g transform="translate(74.122 154.618)"><g transform="translate(0 0)"><path class="a" d="M185.7,239.767a1.433,1.433,0,0,0-1.433,1.434v.128h-3.434a18.661,18.661,0,0,0-1.772-6.6l2.973-1.718.064.111a1.433,1.433,0,1,0,2.482-1.434l-1.563-2.7a1.434,1.434,0,1,0-2.482,1.434l.064.111-2.974,1.719a18.616,18.616,0,0,0-4.84-4.825l1.721-2.983.111.064a1.433,1.433,0,1,0,1.433-2.483l-2.705-1.561a1.433,1.433,0,1,0-1.433,2.483l.111.064-1.721,2.983a18.619,18.619,0,0,0-6.6-1.775v-3.435h.128a1.434,1.434,0,0,0,0-2.867h-3.124a1.434,1.434,0,0,0,0,2.867h.128v3.434a18.665,18.665,0,0,0-6.6,1.772l-1.718-2.973.111-.064a1.434,1.434,0,0,0-1.434-2.482l-2.7,1.563a1.433,1.433,0,0,0,1.434,2.482l.111-.064,1.718,2.974a18.623,18.623,0,0,0-4.825,4.841l-2.983-1.721.064-.111A1.434,1.434,0,1,0,141.523,229l-1.561,2.705a1.434,1.434,0,0,0,2.484,1.433l.064-.111,2.983,1.721a18.623,18.623,0,0,0-1.775,6.6h-3.435v-.128a1.434,1.434,0,1,0-2.867,0v3.124a1.434,1.434,0,0,0,2.867,0v-.128h3.434a18.664,18.664,0,0,0,1.772,6.6l-2.973,1.718-.064-.111a1.433,1.433,0,1,0-2.482,1.434l1.563,2.7a1.433,1.433,0,0,0,2.482-1.434l-.064-.111,2.974-1.719a18.623,18.623,0,0,0,4.841,4.825l-1.721,2.983-.111-.064a1.433,1.433,0,1,0-1.433,2.483l2.705,1.561a1.433,1.433,0,1,0,1.433-2.483l-.111-.064,1.721-2.983a18.62,18.62,0,0,0,6.6,1.775v3.435h-.128a1.434,1.434,0,0,0,0,2.867h3.124a1.434,1.434,0,0,0,0-2.867h-.128v-3.434a18.661,18.661,0,0,0,6.6-1.772l1.718,2.973-.111.064a1.434,1.434,0,0,0,1.435,2.483l2.7-1.563a1.433,1.433,0,0,0-1.434-2.482l-.111.064-1.718-2.974a18.621,18.621,0,0,0,4.825-4.84L180.609,255l-.064.111a1.433,1.433,0,1,0,2.483,1.433l1.561-2.705a1.433,1.433,0,1,0-2.483-1.433l-.064.111-2.983-1.721a18.619,18.619,0,0,0,1.775-6.6h3.435v.128a1.434,1.434,0,0,0,2.867,0V241.2a1.433,1.433,0,0,0-1.433-1.433Zm-19.344,18.212a15.746,15.746,0,1,1,11.127-19.289A15.764,15.764,0,0,1,166.357,257.979Z" transform="translate(-137.416 -217.911)"/></g><g transform="translate(20.641 13.045)"><circle class="a" cx="1.434" cy="1.434" r="1.434"/></g><g transform="translate(26.212 33.807)"><circle class="a" cx="1.434" cy="1.434" r="1.434"/></g><g transform="translate(21.256 27.188)"><circle class="a" cx="1.434" cy="1.434" r="1.434"/></g><g transform="translate(27.188 25.596)"><circle class="a" cx="1.434" cy="1.434" r="1.434"/></g><g transform="translate(25.596 19.664)"><circle class="a" cx="1.434" cy="1.434" r="1.434"/></g><g transform="translate(19.664 21.256)"><circle class="a" cx="1.434" cy="1.434" r="1.434"/></g><g transform="translate(33.808 20.641)"><circle class="a" cx="1.434" cy="1.434" r="1.434"/></g><g transform="translate(13.045 26.212)"><circle class="a" cx="1.434" cy="1.434" r="1.434"/></g><g transform="translate(28.797 14.116)"><circle class="a" cx="1.434" cy="1.434" r="1.434"/></g><g transform="translate(18.055 32.737)"><circle class="a" cx="1.434" cy="1.434" r="1.434"/></g><g transform="translate(32.737 28.798)"><circle class="a" cx="1.434" cy="1.434" r="1.434"/></g><g transform="translate(14.116 18.056)"><circle class="a" cx="1.434" cy="1.434" r="1.434"/></g></g><g transform="translate(96.579 134.504)"><g transform="translate(0 12.456)"><circle class="a" cx="2.403" cy="2.403" r="2.403"/></g><g transform="translate(1.782 0)"><path class="a" d="M238.532,149.964a.6.6,0,0,1-.6-.6v-7.387a.6.6,0,0,1,.6-.6h3.78V135.1a.6.6,0,0,1,1.2,0v6.871a.6.6,0,0,1-.6.6h-3.78v6.786A.6.6,0,0,1,238.532,149.964Z" transform="translate(-237.931 -134.504)"/></g></g><g transform="translate(79.613 138.269)"><g transform="translate(1.909 12.726)"><circle class="a" cx="2.403" cy="2.403" r="2.403"/></g><g transform="translate(0 0)"><path class="a" d="M164.481,165.855a.6.6,0,0,1-.521-.3l-3.693-6.4a.6.6,0,0,1,.22-.82l3.273-1.89-3.135-5.431a.6.6,0,0,1,1.04-.6l3.436,5.951a.6.6,0,0,1-.22.821l-3.273,1.89L165,164.953a.6.6,0,0,1-.52.9Z" transform="translate(-160.187 -150.115)"/></g></g><g transform="translate(62.133 152.914)"><g transform="translate(8.366 9.104)"><circle class="a" cx="2.403" cy="2.403" r="2.403"/></g><g transform="translate(0 0)"><path class="a" d="M98.459,222.97a.6.6,0,0,1-.3-.081l-6.4-3.693a.6.6,0,0,1-.22-.82l1.89-3.273L88,211.967a.6.6,0,0,1,.6-1.041l5.951,3.436a.6.6,0,0,1,.22.82l-1.89,3.273,5.877,3.393a.6.6,0,0,1-.3,1.121Z" transform="translate(-87.701 -210.846)"/></g></g><g transform="translate(54.008 174.516)"><g transform="translate(12.457 2.558)"><circle class="a" cx="2.403" cy="2.403" r="2.403"/></g><g transform="translate(0 0)"><path class="a" d="M68.867,306.009H61.48a.6.6,0,0,1-.6-.6v-3.78H54.609a.6.6,0,1,1,0-1.2H61.48a.6.6,0,0,1,.6.6v3.78h6.786a.6.6,0,1,1,0,1.2Z" transform="translate(-54.008 -300.427)"/></g></g><g transform="translate(57.773 192.132)"><g transform="translate(12.727 0)"><circle class="a" cx="2.403" cy="2.403" r="2.403"/></g><g transform="translate(0 1.719)"><path class="a" d="M78.36,385.6a.6.6,0,0,1-.52-.3l-1.89-3.273-5.431,3.135a.6.6,0,0,1-.6-1.041l5.951-3.436a.6.6,0,0,1,.821.22l1.89,3.273,5.877-3.393a.6.6,0,1,1,.6,1.04l-6.4,3.694A.6.6,0,0,1,78.36,385.6Z" transform="translate(-69.619 -380.604)"/></g></g><g transform="translate(72.418 203.154)"><g transform="translate(9.104)"><circle class="a" cx="2.403" cy="2.403" r="2.403"/></g><g transform="translate(0 1.812)"><path class="a" d="M130.951,438.057a.6.6,0,0,1-.519-.9l3.436-5.951a.6.6,0,0,1,.82-.22l3.273,1.89L141.354,427a.6.6,0,0,1,1.041.6L138.7,434a.6.6,0,0,1-.82.22l-3.273-1.89-3.135,5.431A.6.6,0,0,1,130.951,438.057Z" transform="translate(-130.351 -426.697)"/></g></g><g transform="translate(94.02 207.189)"><g transform="translate(2.559)"><circle class="a" cx="2.403" cy="2.403" r="2.403"/></g><g transform="translate(0 1.802)"><path class="a" d="M220.532,458.847a.6.6,0,0,1-.6-.6v-6.871a.6.6,0,0,1,.6-.6h3.78v-6.786a.6.6,0,1,1,1.2,0v7.387a.6.6,0,0,1-.6.6h-3.78v6.271A.6.6,0,0,1,220.532,458.847Z" transform="translate(-219.931 -443.387)"/></g></g><g transform="translate(111.636 203.154)"><g transform="translate(0)"><circle class="a" cx="2.403" cy="2.403" r="2.403"/></g><g transform="translate(1.719 1.792)"><path class="a" d="M304.146,442.355a.6.6,0,0,1-.521-.3l-3.436-5.951a.6.6,0,0,1,.22-.821l3.273-1.89-3.393-5.877a.6.6,0,0,1,1.041-.6l3.693,6.4a.6.6,0,0,1-.22.82l-3.273,1.89,3.135,5.431a.6.6,0,0,1-.52.9Z" transform="translate(-300.109 -426.615)"/></g></g><g transform="translate(122.658 192.132)"><g transform="translate(0 0)"><circle class="a" cx="2.403" cy="2.403" r="2.403"/></g><g transform="translate(1.812 1.785)"><path class="a" d="M356.96,393a.6.6,0,0,1-.3-.081l-5.951-3.436a.6.6,0,0,1-.22-.82l1.89-3.273L346.5,382a.6.6,0,0,1,.6-1.04l6.4,3.693a.6.6,0,0,1,.22.82l-1.89,3.273,5.43,3.135a.6.6,0,0,1-.3,1.121Z" transform="translate(-346.202 -380.877)"/></g></g><g transform="translate(126.693 177.075)"><g transform="translate(0 0)"><circle class="a" cx="2.403" cy="2.403" r="2.403"/></g><g transform="translate(1.802 1.782)"><path class="a" d="M377.75,324.009h-6.871a.6.6,0,0,1-.6-.6v-3.78h-6.786a.6.6,0,0,1,0-1.2h7.387a.6.6,0,0,1,.6.6v3.78h6.271a.6.6,0,1,1,0,1.2Z" transform="translate(-362.891 -318.427)"/></g></g><g transform="translate(122.658 160.109)"><g transform="translate(0 1.909)"><circle class="a" cx="2.403" cy="2.403" r="2.403"/></g><g transform="translate(1.792)"><path class="a" d="M355.308,245.678a.6.6,0,0,1-.521-.3L352.9,242.1l-5.877,3.393a.6.6,0,0,1-.6-1.04l6.4-3.694a.6.6,0,0,1,.82.22l1.89,3.273,5.431-3.135a.6.6,0,0,1,.6,1.041l-5.951,3.436A.6.6,0,0,1,355.308,245.678Z" transform="translate(-346.12 -240.683)"/></g></g><g transform="translate(111.636 142.629)"><g transform="translate(0 8.366)"><circle class="a" cx="2.403" cy="2.403" r="2.403"/></g><g transform="translate(1.785)"><path class="a" d="M300.981,179.557a.6.6,0,0,1-.52-.9l3.693-6.4a.6.6,0,0,1,.821-.22l3.273,1.89,3.135-5.431a.6.6,0,1,1,1.04.6l-3.436,5.951a.6.6,0,0,1-.821.22l-3.273-1.89-3.393,5.877A.6.6,0,0,1,300.981,179.557Z" transform="translate(-300.381 -168.197)"/></g></g><text class="b" transform="translate(175.358 174.492)"><tspan x="0" y="0">Wastewater Intelligence</tspan><tspan x="0" y="34">Network</tspan></text><g transform="translate(153.721 136.133)"><rect class="c" width="28.896" height="3.453" transform="translate(3.453 0) rotate(90)"/><rect class="d" width="28.896" height="3.453" transform="translate(3.453 28.896) rotate(90)"/><rect class="e" width="28.896" height="3.453" transform="translate(3.453 57.792) rotate(90)"/></g></g></svg>