<svg width="170" height="86" viewBox="0 0 170 86" fill="none" xmlns="http://www.w3.org/2000/svg">
<path d="M70.2388 35.7476C70.2388 38.2566 70.2014 40.7663 70.2489 43.2744C70.2999 45.9668 69.0181 47.7982 66.6722 48.9622C63.3565 50.6074 58.8788 49.9635 56.3259 47.5003C55.729 46.9497 55.2549 46.2804 54.9344 45.5358C54.614 44.7911 54.4542 43.9878 54.4655 43.1778C54.4746 37.9685 54.4716 32.7592 54.4566 27.5499C54.4546 27.0332 54.5627 26.8758 55.1116 26.8785C59.9467 26.902 64.7818 26.9025 69.617 26.8802C70.1304 26.8781 70.2546 27.0234 70.2502 27.5191C70.2263 30.2618 70.2388 33.0048 70.2388 35.7476Z" fill="#0088CE"/>
<path d="M129.753 23.2734C132.486 23.3581 135.879 23.9891 138.595 26.6027C138.875 26.8721 138.931 27.0198 138.615 27.3224C137.443 28.4425 136.308 29.6001 135.155 30.7394C135.006 30.8863 134.922 31.1101 134.613 30.8289C130.505 27.0972 124.24 28.8577 122.833 34.1946C121.971 37.4677 122.568 40.4713 125.286 42.7515C127.487 44.5975 130.505 44.6691 133.196 43.083C133.752 42.7631 134.269 42.3815 134.738 41.9454C134.969 41.7258 135.126 41.7051 135.367 41.9339C136.557 43.0646 137.748 44.1939 138.967 45.2936C139.304 45.5975 139.076 45.7735 138.917 45.9749C137.921 47.2395 136.589 48.2011 135.072 48.7508C130.159 50.5604 125.402 50.3599 121.028 47.3024C117.911 45.1241 116.385 41.9287 115.859 38.2533C115.44 35.6734 115.824 33.0276 116.959 30.671C118.094 28.3144 119.926 26.3599 122.209 25.0697C124.278 23.9092 126.527 23.374 129.753 23.2734Z" fill="#0088CE"/>
<path d="M51.3668 38.3815C51.3668 42.0126 51.3567 45.6438 51.3787 49.2747C51.3817 49.7668 51.2311 49.8709 50.7634 49.8679C47.5997 49.848 44.436 49.848 41.2721 49.868C40.8058 49.8709 40.65 49.7671 40.6492 49.2758C40.6426 44.7303 40.6096 40.1849 40.5831 35.6395C40.5672 32.9211 40.5605 30.2027 40.5213 27.4846C40.5145 27.0134 40.6294 26.8763 41.119 26.88C44.2827 26.9034 47.4464 26.9035 50.6103 26.8802C51.0982 26.8767 51.2158 27.0146 51.2133 27.4861C51.194 31.1178 51.2027 34.7497 51.2027 38.3815L51.3668 38.3815Z" fill="#0088CE"/>
<path d="M81.0523 26.9702C81.5555 27.8766 90.8923 49.3313 91.0084 49.8578H90.567C84.4501 49.8578 78.3332 49.8614 72.2164 49.8686C71.6711 49.8701 71.6177 49.7523 71.816 49.2729C74.8187 42.0171 77.8129 34.7579 80.7986 27.4952C80.8687 27.3251 80.9585 27.1631 81.0523 26.9702Z" fill="#0088CE"/>
<path d="M38.2704 49.8579H35.8524C30.7205 49.8579 25.5886 49.8604 20.4567 49.8653C20.0426 49.8663 19.8533 49.8009 19.853 49.3217C19.8487 41.9484 19.8338 34.5751 19.8081 27.2018C19.8172 27.103 19.8314 27.0046 19.8506 26.9072L38.2704 49.8579Z" fill="#0088CE"/>
<path d="M143.711 35.7266C141.921 35.7853 140.172 35.1878 138.796 34.0476C138.068 33.4181 138.066 33.413 138.731 32.7603C139.354 32.1483 139.999 31.5574 140.605 30.9295C140.868 30.6574 140.982 30.6807 141.215 30.9735C141.591 31.5119 142.138 31.9087 142.768 32.0997C143.398 32.2906 144.074 32.2647 144.687 32.026C145.111 31.8978 145.477 31.6293 145.726 31.265C145.975 30.9008 146.091 30.4628 146.055 30.0239C146.053 29.6157 145.91 29.2205 145.651 28.9044C145.391 28.5884 145.031 28.3706 144.629 28.2876C143.781 28.0727 142.916 27.9259 142.044 27.8486C141.7 27.7991 141.568 27.6883 141.582 27.3346C141.607 26.7193 141.605 26.1018 141.583 25.4862C141.57 25.1226 141.673 24.9652 142.071 24.9256C142.69 24.9126 143.308 24.8627 143.921 24.7763C145.257 24.4827 145.92 23.5665 145.589 22.4107C145.302 21.4109 143.948 20.839 142.829 21.2466C142.276 21.4332 141.818 21.8288 141.554 22.3482C141.404 22.6462 141.288 22.6487 141.054 22.4289C140.334 21.7627 139.532 21.1887 138.669 20.72C138.254 20.4902 138.229 20.3151 138.533 19.9586C139.782 18.4992 141.453 17.9289 143.281 17.742C144.803 17.5997 146.333 17.9266 147.663 18.6786C148.667 19.2465 149.408 20.1828 149.728 21.2874C150.048 22.392 149.921 23.5773 149.375 24.5901C149.029 25.2072 148.498 25.702 147.857 26.006C147.518 26.1715 147.506 26.3011 147.83 26.5148C148.459 26.9194 149.024 27.4149 149.506 27.9849C149.917 28.4643 150.193 29.0431 150.308 29.6628C150.422 30.2826 150.37 30.9213 150.157 31.5147C149.435 33.8862 147.734 35.1228 145.369 35.5826C144.824 35.6935 144.267 35.7418 143.711 35.7266Z" fill="#8CC53F"/>
<path d="M45.8933 24.8509C44.3125 24.8509 42.7311 24.8268 41.1512 24.8644C40.6193 24.8771 40.4959 24.6946 40.523 24.2132C40.5587 23.5783 40.5471 22.9394 40.5288 22.303C40.488 21.5556 40.6617 20.8121 41.0295 20.1593C41.3973 19.5065 41.9441 18.9713 42.6061 18.6162C43.6906 17.9886 44.9344 17.6871 46.1874 17.7479C47.4403 17.8088 48.6488 18.2295 49.6668 18.9592C50.1751 19.3331 50.5895 19.8192 50.8775 20.3793C51.1655 20.9395 51.3191 21.5584 51.3265 22.1876C51.347 22.9088 51.3133 23.6317 51.3376 24.3527C51.3507 24.7391 51.2235 24.864 50.8279 24.8592C49.1833 24.8394 47.5382 24.8509 45.8933 24.8509Z" fill="#0088CE"/>
<path d="M104.86 33.8702C104.86 38.992 104.86 44.1138 104.861 49.2355C104.861 49.5745 104.94 49.8819 104.371 49.8824C103.814 49.883 103.821 49.628 103.821 49.2273C103.828 38.9412 103.829 28.6551 103.826 18.3691C103.826 18.0301 103.747 17.7227 104.315 17.7222C104.872 17.7216 104.866 17.9766 104.866 18.3773C104.857 23.5416 104.856 28.7059 104.86 33.8702Z" fill="#050505"/>
<path d="M41.1305 59.9071C41.0944 59.7012 41.0054 59.508 40.872 59.3466C40.7386 59.1851 40.5654 59.0609 40.3693 58.986C40.1733 58.9111 39.9611 58.8881 39.7534 58.9193C39.5458 58.9504 39.3498 59.0346 39.1846 59.1637C38.8232 59.415 38.4987 59.7154 38.2207 60.056C37.48 58.5469 36.6701 58.5265 35.1807 60.0292C35.4929 59.1049 34.9565 59.1561 34.4336 59.1915C34.3911 59.1965 34.3481 59.1962 34.3056 59.1909C33.7943 59.0997 33.6261 59.2668 33.6346 59.8194C33.6709 62.177 33.65 64.5354 33.65 66.8936C33.65 68.0097 33.6507 67.9815 34.7896 68.0085C35.2745 68.02 35.3332 67.8394 35.3285 67.4248C35.3075 65.5343 35.3193 63.6434 35.3193 61.7527C35.3193 61.0071 35.6424 60.4239 36.0724 60.5055C36.7931 60.6423 36.6122 61.2697 36.6172 61.7453C36.6351 63.4447 36.6242 65.1443 36.6242 66.8439C36.6242 68.008 36.6245 67.9884 37.7757 68.0057C38.1883 68.0119 38.3087 67.9103 38.3037 67.4878C38.2799 65.4699 38.2972 63.4515 38.2903 61.4333C38.2765 61.3218 38.286 61.2087 38.318 61.1009C38.3501 60.9932 38.404 60.8931 38.4765 60.807C38.549 60.7209 38.6385 60.6505 38.7394 60.6002C38.8403 60.5499 38.9506 60.5209 39.0633 60.5148C39.5913 60.4818 39.5915 60.9717 39.5957 61.3554C39.6158 63.2025 39.6303 65.0497 39.6392 66.897C39.6451 68.0017 39.6414 67.9706 40.7294 68.0092C41.2259 68.0268 41.3286 67.8789 41.3222 67.4109C41.295 65.4568 41.3182 63.5021 41.306 61.5477C41.3231 60.9954 41.2641 60.4434 41.1305 59.9071Z" fill="white"/>
<path d="M124 63.7747C123.591 63.771 123.436 63.8611 123.46 64.2941C123.532 64.8865 123.475 65.4872 123.295 66.0562C123.25 66.1931 123.175 66.3181 123.074 66.4218C122.974 66.5255 122.851 66.6053 122.715 66.6551C122.58 66.7049 122.434 66.7235 122.29 66.7094C122.146 66.6953 122.007 66.649 121.884 66.5739C121.704 66.4563 121.559 66.2927 121.465 66.1001C121.37 65.9076 121.329 65.6933 121.347 65.4797C121.333 64.2701 121.342 63.0603 121.342 61.8506C121.269 60.7269 121.274 59.5994 121.358 58.4765C121.439 57.7755 121.82 57.4142 122.412 57.4269C122.971 57.439 123.327 57.7931 123.405 58.4665C123.454 58.8869 123.452 59.3134 123.47 59.7372C123.477 59.9061 123.447 60.0889 123.713 60.0853C124.14 60.0795 124.568 60.0816 124.996 60.0855C125.153 60.0869 125.224 60.0273 125.227 59.8638C125.25 58.7483 125.229 57.6345 124.457 56.724C123.671 55.7968 122.617 55.7338 121.524 55.9645C120.348 56.2128 119.86 57.1008 119.698 58.166C119.365 60.3402 119.581 62.5331 119.552 64.7178C119.552 65.2281 119.622 65.736 119.759 66.2278C120.137 67.6708 120.92 68.2554 122.439 68.2502C123.054 68.2869 123.661 68.0968 124.144 67.7162C124.627 67.3356 124.952 66.7912 125.058 66.187C125.148 65.8157 125.202 65.4369 125.22 65.0556C125.283 63.769 125.274 63.7861 124 63.7747Z" fill="white"/>
<path d="M67.4553 60.0975C68.8215 60.098 68.8239 60.119 68.7176 58.7451C68.6985 58.534 68.6639 58.3246 68.614 58.1186C68.2405 56.4882 67.3176 55.8103 65.5673 55.8748C64.2649 55.9228 63.4146 56.7442 63.197 58.2648C62.8885 60.4199 63.0913 62.5903 63.0678 64.754C63.0697 65.2642 63.1426 65.7717 63.2844 66.2619C63.6759 67.6979 64.4448 68.2596 65.9887 68.2504C66.5931 68.2789 67.1875 68.0883 67.6616 67.7139C68.1357 67.3396 68.4574 66.8068 68.5671 66.2143C68.6589 65.8435 68.7146 65.4648 68.7334 65.0833C68.8049 63.7317 68.7968 63.7434 67.4127 63.776C67.0825 63.7838 66.9704 63.8631 66.9755 64.2023C66.9944 64.7327 66.967 65.2638 66.8937 65.7894C66.8844 65.9448 66.838 66.0956 66.7584 66.2295C66.6788 66.3634 66.5682 66.4764 66.4359 66.5592C66.3035 66.642 66.1533 66.6922 65.9975 66.7056C65.8418 66.7189 65.6851 66.6951 65.5405 66.6361C65.321 66.5453 65.1367 66.3864 65.0151 66.1831C64.8934 65.9797 64.8408 65.7428 64.8652 65.5073C64.843 64.3618 64.858 63.2156 64.858 62.0697C64.7837 60.8821 64.7873 59.6911 64.8688 58.504C64.9458 57.7957 65.3116 57.4287 65.898 57.4271C66.4828 57.4255 66.8411 57.7887 66.9238 58.5024C66.9711 58.8601 66.9887 59.2212 66.9766 59.5818C66.9581 59.9471 67.0303 60.0972 67.4553 60.0975Z" fill="white"/>
<path d="M23.9708 63.7795C23.6392 63.7647 23.5874 63.9044 23.5861 64.1889C23.5987 64.7193 23.5712 65.2499 23.5039 65.7763C23.4957 65.937 23.448 66.0932 23.3649 66.2312C23.2819 66.3693 23.166 66.4849 23.0276 66.568C22.8891 66.651 22.7323 66.6989 22.5709 66.7075C22.4095 66.7161 22.2485 66.6851 22.1019 66.6172C21.8972 66.5204 21.7272 66.3634 21.6149 66.1674C21.5027 65.9714 21.4536 65.7458 21.4743 65.5211C21.4535 64.2905 21.4672 63.0593 21.4672 61.8284C21.3937 60.7259 21.3963 59.6197 21.4749 58.5176C21.5523 57.8064 21.9092 57.436 22.4925 57.4273C23.0816 57.4185 23.4446 57.7787 23.5309 58.4891C23.5854 58.8245 23.6027 59.1649 23.5824 59.504C23.5332 59.9851 23.6947 60.1109 24.1785 60.0981C25.402 60.0658 25.4074 60.0917 25.3335 58.886C25.3154 58.6111 25.2744 58.3381 25.2109 58.0699C24.8431 56.4899 23.9119 55.8173 22.1891 55.875C20.8831 55.9187 20.0584 56.745 19.7985 58.2505C19.536 59.771 19.6904 61.303 19.6625 62.8295C19.598 63.8904 19.6502 64.9551 19.8184 66.0047C20.176 67.7666 21.5202 68.617 23.2815 68.1834C24.5382 67.8739 25.2997 66.8301 25.3254 65.1604C25.3524 63.4127 25.6921 63.8569 23.9708 63.7795Z" fill="white"/>
<path d="M47.5411 62.1036C47.5426 61.5724 47.4879 61.0425 47.3778 60.5228C47.3088 60.0529 47.0621 59.627 46.6881 59.3321C46.3142 59.0373 45.8412 58.8958 45.3659 58.9366C43.6361 58.9181 42.7715 59.7342 42.5804 61.5949C43.2956 61.5472 44.1972 62.0182 44.4072 60.7732C44.461 60.4542 44.8376 60.3199 45.1938 60.37C45.3773 60.3964 45.5437 60.4917 45.6588 60.6365C45.7739 60.7812 45.8289 60.9643 45.8125 61.1482C45.8231 61.5056 46.134 61.9649 45.6107 62.2211C45.0112 62.4989 44.4423 62.8377 43.913 63.2322C43.3653 63.6113 42.9413 64.142 42.6937 64.7586C42.4461 65.3753 42.3857 66.0507 42.52 66.7012C42.5449 66.919 42.6139 67.1296 42.7228 67.3202C42.8317 67.5108 42.9782 67.6775 43.1535 67.8102C43.3288 67.9429 43.5293 68.0389 43.7429 68.0925C43.9565 68.146 44.1788 68.1559 44.3964 68.1217C44.9803 68.0324 45.5061 67.7195 45.8617 67.2498C45.9074 67.3653 45.9325 67.4428 45.9679 67.5153C46.0485 67.6803 45.8914 67.9928 46.2414 67.9902C46.7082 67.9867 47.1749 67.9634 47.641 67.937C47.6533 67.8608 47.6554 67.7833 47.6474 67.7065C47.4144 65.8427 47.5833 63.9711 47.5411 62.1036ZM45.863 65.6219C45.832 65.8726 45.7134 66.1045 45.5279 66.277C45.3425 66.4494 45.102 66.5514 44.8486 66.5651C44.2642 66.5215 44.1323 66.0884 44.1415 65.6172C44.1623 64.55 44.9181 64.0565 45.8672 63.5565C45.8672 64.3236 45.8799 64.9731 45.863 65.6219V65.6219Z" fill="white"/>
<path d="M139.971 58.9368C139.464 58.9393 138.974 59.1242 138.593 59.4575C138.212 59.7908 137.965 60.25 137.898 60.7504C137.766 61.6532 137.719 62.5664 137.758 63.4779C137.715 64.4316 137.767 65.3873 137.912 66.3309C137.983 66.8312 138.233 67.2889 138.618 67.6186C139.002 67.9483 139.494 68.1274 140.002 68.1226C141.685 68.1585 142.581 67.2888 142.692 65.5877C142.731 64.9801 142.611 64.7643 141.93 64.7753C141.276 64.7859 141.004 64.9374 141.11 65.5957C141.121 65.7018 141.112 65.8089 141.084 65.9119C140.987 66.3644 140.784 66.7149 140.245 66.6957C139.704 66.6766 139.504 66.311 139.47 65.8523C139.429 65.3029 139.461 64.7484 139.427 64.1983C139.405 63.8594 139.522 63.7685 139.855 63.7772C140.709 63.7996 141.564 63.7847 142.418 63.7847C142.607 63.7847 142.801 63.8283 142.797 63.5178C142.861 62.5215 142.773 61.5212 142.534 60.5515C142.142 59.3586 141.374 58.8787 139.971 58.9368ZM140.22 62.3816C139.895 62.322 139.371 62.6309 139.417 61.8487C139.484 60.7199 139.639 60.3636 140.279 60.3611C140.891 60.3589 141.122 60.7521 141.124 61.7945C141.124 62.3816 141.124 62.3816 140.22 62.3816Z" fill="white"/>
<path d="M58.1763 60.4997C57.7804 59.3345 56.9685 58.8564 55.5725 58.9381C55.0768 58.9541 54.6027 59.1437 54.2338 59.4735C53.8648 59.8033 53.6245 60.2522 53.5554 60.741C53.4218 61.6437 53.3746 62.5569 53.4143 63.4685C53.371 64.4222 53.4223 65.3778 53.5672 66.3215C53.628 66.7569 53.8246 67.1622 54.1294 67.4801C54.4342 67.7981 54.8316 68.0127 55.2656 68.0936C56.9777 68.4199 58.2135 67.4536 58.3242 65.7237C58.383 64.8053 58.3817 64.8354 57.4686 64.794C56.9428 64.7702 56.6552 64.8627 56.773 65.4597C56.7904 65.608 56.7795 65.7582 56.7407 65.9024C56.6499 66.3546 56.4501 66.7093 55.9103 66.6961C55.3702 66.6828 55.1636 66.3217 55.1267 65.862C55.0843 65.3342 55.1215 64.8002 55.0818 64.272C55.0531 63.8893 55.1552 63.7568 55.5654 63.7743C56.397 63.8096 57.2311 63.7861 58.0642 63.7838C58.245 63.7833 58.455 63.8448 58.4519 63.5277C58.5231 62.5102 58.4301 61.4879 58.1763 60.4997ZM55.9148 62.3971C55.6025 62.2808 55.0355 62.6781 55.0747 61.8725C55.1298 60.7401 55.2831 60.3791 55.9115 60.3615C56.5457 60.3438 56.7315 60.7507 56.7964 61.8339C56.8466 62.671 56.2693 62.2936 55.9149 62.3971H55.9148Z" fill="white"/>
<path d="M72.1875 58.9368C71.6803 58.9393 71.1911 59.1242 70.8101 59.4575C70.4291 59.7908 70.1821 60.25 70.1144 60.7504C69.9825 61.6533 69.9358 62.5664 69.9751 63.4779C69.9321 64.4317 69.9837 65.3873 70.1292 66.331C70.1995 66.8312 70.4502 67.2889 70.8347 67.6186C71.2191 67.9483 71.7109 68.1275 72.2183 68.1226C73.9022 68.1586 74.798 67.2889 74.9087 65.5878C74.9483 64.9802 74.8282 64.7643 74.1468 64.7754C73.4929 64.7859 73.2205 64.9374 73.3272 65.5957C73.3377 65.7018 73.3289 65.8089 73.3012 65.9119C73.2043 66.3645 73.0003 66.715 72.4614 66.6958C71.9213 66.6766 71.7205 66.311 71.6864 65.8523C71.6456 65.303 71.6778 64.7485 71.6435 64.1984C71.6223 63.8596 71.7391 63.7686 72.0716 63.7773C72.9255 63.7996 73.7803 63.7847 74.6348 63.7847C74.8237 63.7847 75.018 63.8283 75.0134 63.5179C75.0783 62.5216 74.9899 61.5213 74.7512 60.5516C74.3592 59.3588 73.5911 58.8788 72.1875 58.9368ZM72.4426 62.3846C72.1271 62.3091 71.5875 62.6488 71.634 61.8549C71.7002 60.7254 71.8534 60.3678 72.4897 60.3613C73.1034 60.3549 73.2825 60.753 73.3579 61.7871C73.4194 62.63 72.8604 62.3334 72.4426 62.3846Z" fill="white"/>
<path d="M96.1137 60.3476C95.6829 59.2717 94.8819 58.8414 93.5343 58.94C93.0571 58.9454 92.5979 59.122 92.2408 59.4372C91.8838 59.7524 91.6528 60.1851 91.5903 60.6561C91.2796 62.5647 91.2845 64.5111 91.6047 66.4182C91.7993 67.5476 92.6172 68.0781 93.7495 68.1313C95.4064 68.2093 96.4793 67.0711 96.3414 65.0497C96.3341 64.9428 96.3369 64.8162 96.1987 64.8149C95.7554 64.7675 95.3077 64.7832 94.869 64.8618C94.6466 64.9267 94.8263 65.3617 94.7683 65.6237C94.7377 65.8325 94.6936 66.039 94.6362 66.2421C94.5899 66.3737 94.504 66.4878 94.3902 66.5691C94.2764 66.6504 94.1402 66.6948 94.0001 66.6964C93.8618 66.7242 93.7181 66.7069 93.5903 66.6471C93.4626 66.5873 93.3576 66.4882 93.2908 66.3643C92.9884 65.5871 92.9424 64.7341 93.1594 63.9291C93.2412 63.5541 94.0356 63.8644 94.5005 63.7869C94.5856 63.7794 94.6712 63.7787 94.7564 63.785C95.205 63.785 95.6536 63.7863 96.1022 63.7843C96.2663 63.7836 96.4533 63.8312 96.4502 63.5537C96.4382 62.474 96.5281 61.3829 96.1137 60.3476ZM93.8831 62.3845C93.5595 62.3155 93.0267 62.6414 93.0731 61.8527C93.1395 60.7235 93.2937 60.3664 93.9313 60.3616C94.5444 60.3569 94.7235 60.754 94.7965 61.7901C94.8558 62.631 94.2961 62.3331 93.8831 62.3845Z" fill="white"/>
<path d="M81.2783 61.4736C81.2864 60.9636 81.2258 60.4548 81.0981 59.9608C81.0531 59.7463 80.9558 59.5461 80.8147 59.3779C80.6735 59.2098 80.493 59.0788 80.2889 58.9967C80.0848 58.9145 79.8636 58.8837 79.6447 58.9069C79.4258 58.9301 79.2161 59.0067 79.034 59.1298C78.6381 59.4034 78.2714 59.7166 77.9396 60.0646C78.1695 59.1657 77.6922 59.1124 77.101 59.1911C77.0586 59.1979 77.0153 59.1978 76.9729 59.1907C76.479 59.0925 76.383 59.3103 76.3879 59.7744C76.413 62.1555 76.3995 64.537 76.3995 66.9183C76.3995 68.0043 76.4007 67.9714 77.5015 68.0097C78.0158 68.0275 78.0844 67.8443 78.079 67.3973C78.0553 65.4415 78.0672 63.4852 78.0698 61.5291C78.0594 61.4034 78.074 61.2769 78.1128 61.1569C78.1516 61.0369 78.2137 60.9256 78.2957 60.8295C78.3777 60.7334 78.478 60.6543 78.5907 60.5967C78.7034 60.5392 78.8264 60.5043 78.9527 60.4942C79.5702 60.5138 79.5209 61.0254 79.5977 61.4254C79.6172 61.5944 79.6208 61.7649 79.6087 61.9346C79.6091 63.593 79.6092 65.2515 79.609 66.91C79.609 68.0032 79.61 67.9728 80.7025 68.0089C81.2012 68.0253 81.2959 67.8685 81.2897 67.4057C81.2628 65.4286 81.278 63.451 81.2783 61.4736Z" fill="white"/>
<path d="M107.708 58.9364C107.168 58.8889 106.631 59.049 106.206 59.3837C105.782 59.7185 105.502 60.2025 105.425 60.7361C105.209 61.64 105.355 62.5564 105.296 63.4848C105.363 64.3963 105.207 65.3334 105.415 66.2603C105.688 67.4756 106.399 68.0972 107.578 68.1225C109.07 68.1546 109.908 67.6533 110.125 66.3564C110.433 64.4878 110.434 62.5819 110.129 60.7128C109.932 59.4768 109.074 58.9284 107.708 58.9364ZM108.599 65.7536C108.589 66.2329 108.423 66.6949 107.789 66.6966C107.278 66.6981 106.994 66.3614 106.979 65.6903C106.962 64.97 106.975 64.249 106.975 63.5283C106.975 62.8288 106.97 62.1292 106.977 61.4298C106.982 60.9108 107.081 60.4364 107.724 60.3651C108.235 60.3085 108.58 60.6203 108.598 61.3037C108.638 62.7861 108.631 64.2708 108.599 65.7536Z" fill="white"/>
<path d="M148.15 65.4646C147.986 64.5588 147.52 63.7342 146.829 63.123C146.265 62.6663 145.798 62.1016 145.457 61.4622C145.282 61.0279 145.257 60.5855 145.784 60.4048C146.303 60.2268 146.574 60.5299 146.678 61.0292C146.71 61.1808 146.652 61.4346 146.857 61.4627C147.256 61.5501 147.673 61.5048 148.044 61.3338C148.282 61.1934 148.086 60.822 148.028 60.5737C147.754 59.3838 146.888 58.8155 145.593 58.9402C144.527 59.0429 143.886 59.82 143.836 61.0056C143.786 62.1837 144.443 62.9973 145.199 63.7733C145.664 64.1812 146.078 64.6423 146.434 65.1471C146.57 65.3264 146.647 65.5427 146.656 65.7671C146.664 65.9914 146.604 66.213 146.482 66.4019C146.416 66.514 146.316 66.6021 146.196 66.6535C146.077 66.7048 145.944 66.7166 145.817 66.6871C145.296 66.5669 145.211 66.1332 145.175 65.7018C145.147 65.3708 145.003 65.2669 144.685 65.3296C144.456 65.3811 144.222 65.4087 143.987 65.4121C143.711 65.4085 143.675 65.5484 143.69 65.7689C143.765 66.8754 144.232 68.1822 145.96 68.1226C147.411 68.119 148.348 66.9753 148.15 65.4646Z" fill="white"/>
<path d="M103.396 56.1296C103.289 56.1302 103.182 56.1252 103.076 56.1322C102.729 56.1106 102.387 56.2267 102.126 56.4552C101.865 56.6837 101.706 57.0059 101.683 57.3511C101.597 57.8112 101.574 58.2805 101.613 58.7468C101.633 59.1142 101.506 59.253 101.15 59.1911C100.761 59.1234 100.594 59.264 100.658 59.6676C100.683 59.8363 100.683 60.0076 100.659 60.1764C100.616 60.5094 100.739 60.6579 101.079 60.5943C101.562 60.504 101.618 60.7483 101.613 61.1609C101.592 63.0518 101.604 64.9431 101.604 66.8343C101.604 68.0269 101.604 68.0112 102.822 68.0047C103.184 68.0028 103.29 67.9082 103.282 67.5466C103.258 66.4634 103.273 65.3794 103.273 64.2956C103.273 63.2332 103.294 62.1701 103.263 61.1086C103.251 60.6847 103.379 60.5204 103.796 60.5955C104.189 60.6663 104.348 60.5168 104.283 60.1182C104.259 59.9708 104.259 59.8206 104.283 59.6732C104.344 59.2836 104.204 59.1294 103.8 59.1839C103.644 59.205 103.377 59.2779 103.329 59.114C103.224 58.7249 103.224 58.3155 103.328 57.9264C103.401 57.6233 103.651 57.5734 103.922 57.543C104.085 57.5248 104.293 57.6203 104.352 57.3073C104.539 56.3114 104.404 56.1252 103.396 56.1296Z" fill="white"/>
<path d="M132.888 66.6991C132.064 66.5872 131.996 66.5244 131.99 65.669C131.981 64.2046 132.013 62.7396 131.974 61.2762C131.96 60.7413 132.065 60.4772 132.652 60.5931C133.034 60.6686 133.211 60.5209 133.147 60.1156C133.123 59.9472 133.123 59.7761 133.147 59.6075C133.193 59.2626 133.041 59.1314 132.716 59.1942C132.079 59.3173 131.889 59.0423 131.981 58.4465C132.022 58.1768 131.95 57.8893 131.995 57.6211C132.104 56.9779 131.824 56.8472 131.229 56.8815C130.321 56.9338 130.318 56.895 130.318 57.7758C130.318 58.0941 130.297 58.4142 130.324 58.7303C130.353 59.0788 130.249 59.2577 129.873 59.1914C129.164 59.0665 129.348 59.577 129.335 59.9411C129.323 60.2931 129.236 60.7093 129.841 60.5956C130.249 60.519 130.34 60.7063 130.327 61.0881C130.298 61.936 130.318 62.7856 130.318 63.6345H130.339C130.339 64.4832 130.306 65.3334 130.346 66.1802C130.419 67.7166 131.068 68.2568 132.609 68.1168C132.811 68.0984 133.11 68.1267 133.142 67.8825C133.17 67.5045 133.16 67.1247 133.113 66.7485C133.112 66.7269 132.967 66.7099 132.888 66.6991Z" fill="white"/>
<path d="M52.2806 66.9837C52.3355 66.7766 52.2275 66.668 52.0017 66.6976C51.2359 66.798 51.107 66.3261 51.1085 65.7241C51.1122 64.1961 51.1279 62.6676 51.0979 61.1402C51.0892 60.6961 51.2024 60.506 51.6534 60.5959C52.2497 60.7148 52.295 60.3887 52.2765 59.9163C52.2588 59.4664 52.3112 59.043 51.6364 59.1894C51.1619 59.2925 51.0688 59.0486 51.1012 58.6293C51.137 58.1651 51.1065 57.6961 51.1106 57.2292C51.1121 57.0472 51.1002 56.9296 50.8574 56.8877C49.6496 56.6792 49.4401 56.8398 49.4401 58.0386C49.4287 58.2718 49.4303 58.5054 49.4449 58.7384C49.4857 59.0997 49.3502 59.2598 48.9866 59.19C48.3275 59.0635 48.4547 59.5254 48.4576 59.8855C48.4605 60.2366 48.3075 60.7135 48.9708 60.5942C49.395 60.5179 49.4587 60.7297 49.448 61.0962C49.4231 61.9444 49.44 62.7938 49.4401 63.6427C49.4401 64.3218 49.4365 65.001 49.4412 65.6801C49.4142 66.2322 49.5037 66.7838 49.7038 67.2994C50.0126 67.9885 51.1005 68.3768 51.9892 68.0737C52.5753 67.8738 52.1838 67.3493 52.2806 66.9837Z" fill="white"/>
<path d="M85.7977 66.6995C84.9247 66.5612 84.8801 66.5214 84.8753 65.6291C84.8674 64.1436 84.8943 62.6575 84.8607 61.1727C84.8499 60.7008 84.9648 60.5009 85.4489 60.5948C85.9334 60.6888 86.1113 60.4855 86.0322 60.0122C86.013 59.8646 86.0126 59.7151 86.0308 59.5674C86.0539 59.3122 85.9874 59.1289 85.6901 59.1954C84.8476 59.3838 84.8044 58.8907 84.8699 58.28C84.8902 58.0912 84.8562 57.8966 84.8762 57.7077C84.9396 57.1086 84.8532 56.6695 84.1784 56.8951C83.2038 56.8951 83.2038 56.8951 83.2038 57.7516C83.1889 58.0696 83.1912 58.3882 83.2107 58.706C83.2536 59.1013 83.1136 59.264 82.7186 59.191C82.2642 59.107 82.1695 59.3425 82.2164 59.7264C82.235 59.8741 82.2349 60.0236 82.2161 60.1712C82.1716 60.5036 82.2994 60.6572 82.6376 60.5933C83.1497 60.4965 83.2194 60.7453 83.2142 61.1911C83.1947 62.846 83.1827 64.5024 83.2337 66.1562C83.2814 67.7024 83.8713 68.2001 85.4062 68.1219C85.6356 68.1102 85.9652 68.1374 86.0138 67.9024C86.062 67.5263 86.062 67.1455 86.0137 66.7694C86.0075 66.6595 85.8743 66.7116 85.7977 66.6995Z" fill="white"/>
<path d="M28.4077 62.062V57.2149C28.4077 56.1246 28.4067 56.1533 27.3168 56.1166C26.833 56.1003 26.7234 56.2308 26.7266 56.7055C26.7497 60.0854 26.7389 63.4657 26.7389 66.8459C26.7389 68.0086 26.7393 67.9874 27.8943 68.0061C28.3155 68.0129 28.4233 67.8975 28.4178 67.483C28.3942 65.6762 28.4077 63.869 28.4077 62.062Z" fill="white"/>
<path d="M115.391 59.3904C115.442 58.868 115.183 58.9111 114.816 59.0023C114.295 59.2002 113.838 59.5359 113.495 59.9731C113.704 59.2337 113.344 59.1206 112.797 59.1901C112.691 59.2048 112.583 59.2046 112.477 59.1895C112.063 59.1236 111.946 59.281 111.95 59.7012C111.971 62.121 111.96 64.5411 111.96 66.9611C111.96 68.0012 111.961 67.976 113.038 68.0071C113.504 68.0206 113.651 67.9187 113.643 67.424C113.612 65.5353 113.619 63.6456 113.642 61.7567C113.654 60.8583 113.982 60.584 114.871 60.6183C115.039 60.6248 115.207 60.6472 115.381 60.6626C115.422 60.2397 115.426 59.814 115.391 59.3904Z" fill="white"/>
<path d="M90.2168 58.9604C89.9069 59.0316 89.6145 59.1642 89.3571 59.3503C89.0997 59.5363 88.8826 59.7721 88.7186 60.0434C89.0104 59.0333 88.3933 59.1787 87.8837 59.1916C87.8412 59.1959 87.7983 59.1956 87.7558 59.1907C87.2628 59.0927 87.1666 59.3097 87.1716 59.7733C87.1968 62.1293 87.1832 64.4858 87.1832 66.8421C87.1832 68.0122 87.1834 67.9914 88.3336 68.0061C88.7544 68.0114 88.8682 67.8963 88.8626 67.4788C88.8391 65.6959 88.8498 63.9126 88.8535 62.1295C88.8564 60.7638 89.1261 60.5253 90.4828 60.6651C90.5249 60.6635 90.5665 60.6562 90.6067 60.6436C90.6067 60.1588 90.6017 59.6742 90.6085 59.1897C90.613 58.8719 90.4073 58.9266 90.2168 58.9604Z" fill="white"/>
<path d="M31.8737 63.5382V60.2858C31.8737 59.1874 31.873 59.2125 30.7918 59.1799C30.3274 59.166 30.1847 59.2645 30.1911 59.7584C30.2219 62.1389 30.205 64.5199 30.205 66.9007C30.205 68.0068 30.2052 67.9887 31.3512 68.0047C31.7548 68.0104 31.8955 67.9249 31.8851 67.4919C31.8536 66.1746 31.8737 64.8562 31.8737 63.5382Z" fill="white"/>
<path d="M128.285 63.6577C128.285 62.5523 128.285 61.4469 128.285 60.3415C128.285 59.1785 128.285 59.1994 127.131 59.1809C126.711 59.1742 126.603 59.2876 126.607 59.7032C126.627 62.0838 126.617 64.4648 126.617 66.8456C126.617 68.0258 126.617 68.0097 127.836 68.0049C128.198 68.0035 128.3 67.908 128.294 67.5477C128.272 66.2513 128.285 64.9544 128.285 63.6577Z" fill="white"/>
<path d="M136.117 60.3425C136.117 59.1618 136.117 59.1776 134.898 59.1824C134.537 59.1838 134.433 59.277 134.439 59.6387C134.461 60.9563 134.448 62.2745 134.448 63.5924V66.8448C134.448 68.0086 134.448 67.988 135.602 68.0062C136.02 68.0128 136.13 67.9023 136.127 67.485C136.106 65.1043 136.117 62.7233 136.117 60.3425Z" fill="white"/>
<path d="M135.146 57.8087C136.11 57.7167 136.117 57.7887 136.117 57.0327C136.117 56.1299 136.117 56.1299 135.176 56.1299C134.768 56.0677 134.303 56.0454 134.439 56.8232C134.519 57.2794 134.193 57.8995 135.146 57.8087Z" fill="white"/>
<path d="M127.567 56.108C126.625 56.2068 126.617 56.1296 126.621 56.902C126.619 57.3568 126.416 57.8775 127.271 57.8079C128.28 57.7255 128.292 57.7893 128.283 57.0766C128.277 56.5961 128.503 56.0099 127.567 56.108Z" fill="white"/>
<path d="M31.1769 56.1226C30.7152 56.1919 30.0933 55.8765 30.1848 56.8236C30.2773 57.7813 30.2049 57.7882 30.9655 57.7883C31.8741 57.7883 31.8741 57.7883 31.8741 56.8026C31.9838 56.3437 31.8503 56.0215 31.1769 56.1226Z" fill="white"/>
</svg>
