<svg width="159" height="63" viewBox="0 0 159 63" fill="none" xmlns="http://www.w3.org/2000/svg">
<path fill-rule="evenodd" clip-rule="evenodd" d="M31 13L56 43.9675L31.0892 44L31 13Z" fill="#0080C8"/>
<path fill-rule="evenodd" clip-rule="evenodd" d="M78 13H99.9964V35.5388C100.141 40.105 95.8742 43.8228 89.7005 43.9944C83.6572 44.1613 78.28 40.601 78 35.5388V13Z" fill="#0080C8"/>
<path fill-rule="evenodd" clip-rule="evenodd" d="M114.617 13L128 44H102L114.617 13Z" fill="#0080C8"/>
<path fill-rule="evenodd" clip-rule="evenodd" d="M59 13H72.7985L73 44H59.2015L59 13Z" fill="#0080C8"/>
<path fill-rule="evenodd" clip-rule="evenodd" d="M72.9865 10H59.0022V6.07068C58.9077 2.79869 61.8234 0.125581 65.7514 0.0038552C69.5984 -0.113002 72.8245 2.43838 73 6.07068L72.9865 10Z" fill="#0080C8"/>
<path fill-rule="evenodd" clip-rule="evenodd" d="M154.975 60.6171L156.277 60.5005V60.5704C156.258 60.8671 156.319 61.1636 156.454 61.4283C156.555 61.5958 156.731 61.704 156.926 61.7188C157.12 61.7336 157.31 61.6532 157.435 61.5029C157.565 61.3392 157.631 61.1337 157.621 60.9248C157.612 60.6641 157.528 60.4117 157.38 60.1974C157.107 59.8121 156.795 59.4559 156.449 59.1344C156.022 58.7426 155.658 58.2865 155.371 57.7824C155.209 57.4304 155.129 57.0462 155.138 56.6588C155.083 56.1317 155.269 55.6079 155.644 55.2345C156.019 54.8611 156.543 54.6785 157.068 54.7379C157.582 54.7137 158.081 54.9144 158.435 55.2881C158.793 55.7169 158.989 56.2582 158.989 56.8173L157.701 56.9199C157.708 56.65 157.649 56.3825 157.528 56.1413C157.434 55.9759 157.253 55.8797 157.063 55.8942C156.892 55.8754 156.721 55.9354 156.598 56.0573C156.484 56.1935 156.427 56.3693 156.44 56.5469C156.44 56.9525 156.742 57.456 157.37 58.0481L157.417 58.0994C157.91 58.5284 158.334 59.0299 158.677 59.5867C158.891 59.9799 159.001 60.4211 158.998 60.8688C159.022 61.4212 158.825 61.9603 158.449 62.3654C157.623 63.1342 156.345 63.1342 155.519 62.3654C155.14 61.8699 154.948 61.2551 154.98 60.631L154.975 60.6171ZM151.483 62.8176V54.8545H152.855V55.9082C153.015 55.565 153.258 55.267 153.561 55.041C153.861 54.8508 154.207 54.7461 154.561 54.7379V56.3324C154.467 56.3075 154.37 56.2889 154.273 56.2765C154.166 56.2765 154.041 56.2765 153.892 56.2765C153.614 56.2437 153.338 56.3522 153.157 56.5655C152.984 56.913 152.911 57.3024 152.948 57.6891V62.8176H151.483ZM148.413 62.8176V54.8545H149.869V62.8037L148.413 62.8176ZM148.413 53.6096V52.1131H149.869V53.6096H148.413ZM145.4 58.7382C144.941 58.9412 144.529 59.2382 144.191 59.61C143.94 59.9091 143.804 60.2873 143.805 60.6777C143.793 60.9092 143.857 61.1382 143.986 61.3304C144.09 61.4855 144.265 61.5782 144.451 61.5775C144.619 61.5736 144.781 61.5183 144.916 61.419C145.098 61.2935 145.256 61.1355 145.381 60.9527L145.4 58.7382ZM145.576 62.8363L145.428 62.0344C145.245 62.3038 145.007 62.531 144.73 62.7011C144.48 62.8469 144.196 62.9241 143.907 62.9249C143.469 62.9457 143.047 62.7592 142.768 62.4214C142.466 62.0341 142.314 61.5506 142.34 61.06C142.329 60.3294 142.587 59.6205 143.065 59.0692C143.719 58.3828 144.512 57.8454 145.39 57.4933V57.0597C145.412 56.7823 145.35 56.5047 145.214 56.2625C145.087 56.088 144.879 55.9925 144.665 56.0107C144.435 56.0025 144.214 56.1068 144.074 56.2905C143.913 56.5136 143.831 56.7844 143.842 57.0597H142.447C142.45 56.4291 142.696 55.8242 143.135 55.372C143.594 54.9547 144.2 54.7382 144.818 54.7706C145.412 54.7142 145.997 54.9466 146.39 55.3953C146.758 56.0142 146.921 56.734 146.855 57.4514V61.1019C146.855 61.4656 146.855 61.7919 146.888 62.0763C146.908 62.3322 146.947 62.5863 147.004 62.8363H145.576ZM139.303 62.8363V56.0807H138.433V54.8545H139.303V53.8474C139.251 53.3423 139.379 52.8349 139.666 52.4161C140.019 52.1051 140.487 51.9578 140.954 52.0105H141.726V53.2134H141.405C141.222 53.1891 141.037 53.2491 140.903 53.3765C140.792 53.5802 140.745 53.8125 140.768 54.0432V54.8545H141.698V56.0807H140.768V62.8037L139.303 62.8363ZM135.48 62.8363V56.0807H134.61V54.8545H135.48V53.8474C135.428 53.3423 135.556 52.8349 135.843 52.4161C136.196 52.1051 136.664 51.9578 137.131 52.0105H137.908V53.2134H137.582C137.399 53.1891 137.214 53.2491 137.08 53.3765C136.969 53.5802 136.922 53.8125 136.945 54.0432V54.8545H137.875V56.0807H136.945V62.8037L135.48 62.8363ZM128.625 62.8363L130.192 52.1131H132.243L133.88 62.8363H132.276L132.006 60.6777H130.43L130.174 62.8363H128.625ZM130.574 59.251H131.857L131.271 53.0362H131.192L130.574 59.251ZM120.343 62.8363V54.8545H121.738V55.8289C121.978 55.5154 122.264 55.239 122.584 55.0083C122.814 54.8433 123.087 54.7493 123.37 54.7379C123.791 54.7005 124.197 54.9091 124.412 55.2741C124.663 55.8765 124.768 56.53 124.719 57.181V62.8037H123.24V57.1203C123.26 56.8532 123.212 56.5853 123.1 56.3417C123.007 56.1763 122.823 56.0841 122.635 56.1086C122.485 56.1179 122.341 56.1714 122.221 56.2625C122.059 56.3739 121.919 56.5146 121.807 56.6774V62.8037L120.343 62.8363ZM117.371 58.7382C116.913 58.9412 116.503 59.2382 116.166 59.61C115.914 59.9079 115.777 60.2868 115.78 60.6777C115.767 60.9086 115.829 61.1376 115.957 61.3304C116.062 61.4842 116.236 61.5765 116.422 61.5775C116.589 61.5725 116.751 61.5172 116.887 61.419C117.069 61.2925 117.226 61.1346 117.352 60.9527L117.371 58.7382ZM117.552 62.8363L117.399 62.0344C117.218 62.3058 116.98 62.5335 116.701 62.7011C116.451 62.8475 116.167 62.9247 115.878 62.9249C115.437 62.9401 115.014 62.7488 114.734 62.4074C114.434 62.0197 114.283 61.5361 114.311 61.046C114.3 60.3163 114.557 59.6081 115.032 59.0552C115.687 58.3709 116.479 57.8338 117.357 57.4793V57.0457C117.38 56.7688 117.32 56.4912 117.185 56.2485C117.058 56.0747 116.85 55.9794 116.636 55.9967C116.404 55.9886 116.183 56.0927 116.041 56.2765C115.884 56.5016 115.802 56.7711 115.808 57.0457H114.413C114.42 56.416 114.667 55.8126 115.101 55.358C115.56 54.9407 116.166 54.7242 116.785 54.7566C117.38 54.6987 117.967 54.9312 118.361 55.3813C118.729 56.0003 118.892 56.72 118.826 57.4374V61.0879C118.826 61.4516 118.826 61.778 118.864 62.0624C118.881 62.3185 118.92 62.5727 118.98 62.8223L117.552 62.8363ZM108.898 52.1131H110.367V55.5818C110.551 55.3337 110.778 55.1205 111.037 54.9524C111.252 54.8226 111.497 54.7534 111.748 54.7519C112.199 54.73 112.625 54.9596 112.855 55.3487C113.138 55.9159 113.264 56.5483 113.223 57.181V60.4166C113.264 61.0738 113.146 61.7313 112.878 62.3328C112.67 62.7294 112.251 62.9693 111.804 62.9482C111.542 62.9475 111.284 62.8749 111.06 62.7384C110.795 62.5699 110.56 62.357 110.367 62.109V62.8176H108.898V52.1131ZM110.367 56.5003V61.1625C110.492 61.2873 110.633 61.3955 110.786 61.4842C110.899 61.5498 111.027 61.5852 111.158 61.5868C111.365 61.5983 111.555 61.4709 111.623 61.2744C111.73 60.8656 111.773 60.4424 111.748 60.0203V57.4187C111.77 57.0748 111.719 56.7301 111.599 56.407C111.521 56.2208 111.336 56.1022 111.134 56.1086C111.012 56.1122 110.892 56.1458 110.786 56.2065C110.633 56.281 110.491 56.375 110.362 56.4863L110.367 56.5003ZM104.968 62.8176V54.8545H106.34V55.9082C106.5 55.565 106.743 55.267 107.047 55.041C107.346 54.8502 107.692 54.7454 108.046 54.7379V56.3464C107.952 56.3211 107.855 56.3024 107.758 56.2905C107.656 56.2905 107.526 56.2905 107.377 56.2905C107.099 56.2586 106.824 56.3669 106.642 56.5795C106.469 56.927 106.396 57.3163 106.433 57.7031V62.8316L104.968 62.8176ZM98.364 59.4701V52.0991H99.9452V59.8897C99.9165 60.3215 99.9882 60.7539 100.154 61.1532C100.285 61.402 100.549 61.5501 100.829 61.5309C101.109 61.5484 101.374 61.401 101.508 61.1532C101.674 60.7539 101.746 60.3215 101.717 59.8897V52.0991H103.28V59.4561C103.28 60.7429 103.092 61.6552 102.717 62.1929C102.222 62.7086 101.538 63 100.824 63C100.11 63 99.4267 62.7086 98.9314 62.1929C98.55 61.6521 98.3593 60.7429 98.3593 59.4561L98.364 59.4701ZM91.8951 62.8176V56.0807H91.0254V54.8545H91.8951V53.8474C91.8427 53.3423 91.9713 52.8349 92.2578 52.4161C92.6111 52.1051 93.0788 51.9578 93.546 52.0105H94.318V53.2134H93.9971C93.8137 53.1891 93.6292 53.2491 93.4949 53.3765C93.3842 53.5802 93.3372 53.8125 93.36 54.0432V54.8545H94.2901V56.0807H93.36V62.8037L91.8951 62.8176ZM88.5281 57.0877C88.5506 56.8022 88.4874 56.5164 88.3467 56.2671C88.2138 56.09 87.9997 55.9933 87.7793 56.0107C87.5559 55.9909 87.338 56.0878 87.2027 56.2671C87.0619 56.5164 86.9988 56.8022 87.0213 57.0877V60.6171C87.0006 60.9039 87.0636 61.1907 87.2027 61.4423C87.3466 61.6083 87.5553 61.7036 87.7747 61.7036C87.9941 61.7036 88.2027 61.6083 88.3467 61.4423C88.4857 61.1907 88.5487 60.9039 88.5281 60.6171V57.0877ZM90.0069 57.5772V60.1368C90.0665 60.8908 89.8751 61.6434 89.4628 62.2768C88.5216 63.1899 87.0277 63.1899 86.0865 62.2768C85.6683 61.6403 85.472 60.8829 85.5285 60.1229V57.5633C85.4717 56.811 85.6629 56.0608 86.0726 55.4279C87.0092 54.5081 88.5076 54.5081 89.4442 55.4279C89.8611 56.0581 90.0574 56.8092 90.0023 57.5633L90.0069 57.5772ZM81.3429 60.0343V60.5005C81.3841 61.1556 81.1727 61.8015 80.7523 62.3048C80.3202 62.7506 79.7157 62.9856 79.0967 62.9482C78.4748 62.9916 77.8703 62.7311 77.4737 62.2489C77.0727 61.616 76.8852 60.8707 76.9389 60.1229V57.5633C76.8789 56.81 77.0721 56.0584 77.4876 55.4279C77.9136 54.9401 78.5453 54.684 79.1897 54.7379C79.8474 54.6945 80.4818 54.9897 80.8732 55.5212C81.2945 56.2408 81.489 57.0712 81.4313 57.9036V59.1018H78.4177V60.6031C78.3971 60.89 78.4601 61.1767 78.5991 61.4283C78.734 61.6087 78.9516 61.7072 79.1758 61.6894C79.3972 61.7066 79.6118 61.6079 79.7432 61.4283C79.8822 61.1767 79.9452 60.89 79.9245 60.6031V60.0343H81.3429ZM78.4177 57.0737V57.8616H79.9245V57.0737C79.9471 56.7882 79.8839 56.5024 79.7432 56.2532C79.6108 56.0753 79.3964 55.9784 79.1758 55.9967C78.9523 55.9769 78.7344 56.0738 78.5991 56.2532C78.4503 56.4999 78.379 56.7858 78.3945 57.0737H78.4177ZM73.4277 60.3933V56.0946H72.5534V54.8545H73.4044V52.7192H74.8833V54.8545H75.9343V56.0946H74.8833V60.4772C74.8557 60.7939 74.9002 61.1127 75.0135 61.4096C75.1203 61.5576 75.2974 61.6375 75.4786 61.6194C75.6107 61.6186 75.7426 61.6108 75.8739 61.5961H75.9529V62.7943C75.8205 62.8363 75.6853 62.869 75.5483 62.8922C75.4131 62.9149 75.2762 62.9258 75.1391 62.9249C74.624 62.987 74.1114 62.7918 73.7672 62.4027C73.53 62.053 73.4044 61.3817 73.4044 60.3933H73.4277ZM71.5768 54.8545V62.8037H70.2095V61.8292C69.9747 62.1324 69.6937 62.3967 69.3771 62.6125C69.1383 62.7729 68.8597 62.8633 68.5725 62.8736C68.1549 62.9153 67.7497 62.7167 67.5261 62.3607C67.2786 61.7721 67.175 61.1327 67.2238 60.4958V54.8545H68.7027V60.5425C68.6849 60.8076 68.7312 61.0731 68.8376 61.3164C68.9321 61.48 69.1158 61.5703 69.3027 61.5448C69.4519 61.5389 69.5959 61.4885 69.7165 61.4003C69.8769 61.2846 70.0169 61.1428 70.1304 60.9807V54.8545H71.5768ZM63.7173 60.3933V56.0946H62.8663V54.8545H63.7173V52.7192H65.1962V54.8545H66.2472V56.0946H65.1962V60.4772C65.1694 60.7943 65.2155 61.1133 65.3311 61.4096C65.4372 61.5583 65.6148 61.6385 65.7961 61.6194C65.9282 61.6184 66.0601 61.6107 66.1914 61.5961H66.2705V62.7943C66.1379 62.8358 66.0027 62.8685 65.8659 62.8922C65.7307 62.9149 65.5937 62.9258 65.4566 62.9249C64.9416 62.987 64.4289 62.7918 64.0847 62.4027C63.8429 62.053 63.7173 61.3817 63.7173 60.3933ZM60.4154 62.8037V54.8545H61.8757V62.8037H60.4154ZM60.4154 53.5957V52.0991H61.8757V53.5957H60.4154ZM56.7647 60.3933V56.0946H55.9137V54.8545H56.7647V52.7192H58.2483V54.8545H59.2946V56.0946H58.2483V60.4772C58.2206 60.7939 58.2652 61.1127 58.3785 61.4096C58.4846 61.5583 58.6622 61.6385 58.8435 61.6194C58.9756 61.6184 59.1076 61.6107 59.2388 61.5961H59.3179V62.7943C59.1853 62.8358 59.0501 62.8685 58.9133 62.8922C58.7781 62.9149 58.6411 62.9258 58.504 62.9249C57.9812 62.995 57.4579 62.7992 57.1089 62.4027C56.8903 62.053 56.7647 61.3817 56.7647 60.3933ZM51.4259 60.6171L52.7234 60.5005V60.5704C52.7051 60.8676 52.7678 61.1641 52.9048 61.4283C53.0087 61.615 53.2077 61.7283 53.421 61.722C53.6014 61.7246 53.7729 61.6438 53.886 61.5029C54.0124 61.3375 54.0766 61.1329 54.0674 60.9248C54.0573 60.6649 53.9752 60.4131 53.8302 60.1974C53.5554 59.8136 53.2439 59.4576 52.9001 59.1344C52.4742 58.7412 52.1104 58.2853 51.8212 57.7824C51.6617 57.4297 51.5823 57.046 51.5887 56.6588C51.5546 56.1358 51.7361 55.6217 52.0909 55.2368C52.4805 54.8815 52.9979 54.7013 53.5233 54.7379C54.0358 54.7131 54.5336 54.9141 54.8859 55.2881C55.2454 55.7159 55.4415 56.2579 55.4393 56.8173L54.1558 56.9199C54.1615 56.6503 54.1025 56.3832 53.9837 56.1413C53.8876 55.9775 53.7077 55.882 53.5186 55.8942C53.3471 55.8761 53.1765 55.936 53.0536 56.0573C52.9424 56.1951 52.8876 56.3701 52.9001 56.5469C52.9001 56.9525 53.2024 57.456 53.8302 58.0481L53.8767 58.0994C54.3695 58.5284 54.7944 59.0299 55.137 59.5867C55.3506 59.9799 55.461 60.4211 55.4579 60.8688C55.4822 61.4212 55.2845 61.9603 54.9092 62.3654C54.5349 62.7488 54.0162 62.9555 53.4814 62.9342C52.9195 62.9713 52.3699 62.758 51.9793 62.3514C51.5947 61.8578 51.3984 61.2428 51.4259 60.6171ZM45.9987 62.8037V54.8545H47.3939V55.8289C47.636 55.5152 47.9228 55.2387 48.2449 55.0083C48.4744 54.8421 48.7479 54.7479 49.0309 54.7379C49.4519 54.7016 49.8566 54.9099 50.0726 55.2741C50.3236 55.8765 50.4288 56.53 50.3795 57.181V62.8037H48.9006V57.1203C48.9203 56.8532 48.8723 56.5853 48.7611 56.3417C48.668 56.1763 48.484 56.0841 48.2961 56.1086C48.1447 56.1183 47.9993 56.1718 47.8775 56.2625C47.7177 56.3754 47.5791 56.5159 47.4683 56.6774V62.8037H45.9987ZM44.3152 62.8037H42.7433V52.0804H44.3245L44.3152 62.8037ZM36.6046 62.8037V52.0804H38.0927V62.8037H36.6046ZM33.591 58.7055C33.1338 58.9097 32.7237 59.2066 32.3865 59.5774C32.1341 59.8752 31.9971 60.2542 32.0005 60.645C31.9876 60.876 32.0496 61.105 32.1772 61.2977C32.2825 61.4516 32.4562 61.5439 32.6423 61.5448C32.8096 61.5398 32.9716 61.4846 33.1073 61.3863C33.2897 61.261 33.4474 61.103 33.5724 60.9201L33.591 58.7055ZM33.7724 62.8037L33.6189 62.0017C33.4386 62.2732 33.2003 62.5009 32.9213 62.6685C32.6716 62.8149 32.3875 62.8921 32.0982 62.8922C31.6613 62.9094 31.2409 62.7236 30.9588 62.3887C30.6606 61.9999 30.5105 61.5172 30.5356 61.0273C30.525 60.2977 30.7814 59.5894 31.2564 59.0365C31.9116 58.3523 32.7041 57.8152 33.5817 57.4607V57.0271C33.6046 56.7501 33.5447 56.4726 33.4096 56.2298C33.2827 56.0561 33.075 55.9608 32.8609 55.9781C32.6293 55.9707 32.4081 56.0746 32.2656 56.2578C32.1084 56.4829 32.027 56.7524 32.0331 57.0271H30.6379C30.6453 56.3973 30.8913 55.7939 31.3262 55.3394C31.785 54.922 32.391 54.7056 33.0097 54.7379C33.6048 54.6801 34.1914 54.9125 34.5862 55.3627C34.9538 55.9816 35.1166 56.7013 35.0513 57.4187V61.0693C35.0513 61.433 35.0513 61.7593 35.0885 62.0437C35.106 62.2998 35.1448 62.5541 35.2047 62.8037H33.7724ZM25.0619 62.8037V54.8545H26.457V55.8289C26.6989 55.5165 26.9839 55.2402 27.3034 55.0083C27.5335 54.8433 27.8067 54.7493 28.0894 54.7379C28.5121 54.6998 28.919 54.9083 29.1358 55.2741C29.3847 55.877 29.4882 56.5303 29.438 57.181V62.8037H27.9592V57.1203C27.9774 56.8537 27.9311 56.5866 27.8243 56.3417C27.7269 56.1809 27.5461 56.0903 27.3592 56.1086C27.2093 56.1184 27.0654 56.1719 26.9453 56.2625C26.783 56.3739 26.6426 56.5146 26.5314 56.6774V62.8037H25.0619ZM22.1041 57.0737C22.1266 56.7882 22.0635 56.5024 21.9227 56.2532C21.7898 56.076 21.5758 55.9793 21.3554 55.9967C21.1319 55.9769 20.914 56.0738 20.7787 56.2532C20.638 56.5024 20.5748 56.7882 20.5973 57.0737V60.6031C20.5767 60.89 20.6397 61.1767 20.7787 61.4283C20.9227 61.5943 21.1313 61.6896 21.3507 61.6896C21.5701 61.6896 21.7788 61.5943 21.9227 61.4283C22.0618 61.1767 22.1248 60.89 22.1041 60.6031V57.0737ZM23.583 57.5633V60.1229C23.6425 60.8769 23.4512 61.6294 23.0389 62.2628C22.0977 63.1759 20.6037 63.1759 19.6626 62.2628C19.2522 61.6285 19.061 60.8767 19.1185 60.1229V57.5633C19.0617 56.811 19.2529 56.0608 19.6626 55.4279C20.5992 54.5081 22.0976 54.5081 23.0342 55.4279C23.4511 56.0581 23.6474 56.8092 23.5923 57.5633H23.583ZM16.1421 62.8037V54.8545H17.6303V62.8037H16.1421ZM16.1421 53.5957V52.0991H17.6303V53.5957H16.1421ZM12.5147 60.3933V56.0946H11.6636V54.8545H12.5147V52.7192H13.9935V54.8545H15.0446V56.0946H13.9935V60.4772C13.9684 60.7938 14.0129 61.1121 14.1238 61.4096C14.2311 61.5568 14.4077 61.6365 14.5888 61.6194C14.7224 61.6186 14.8559 61.6108 14.9888 61.5961H15.0678V62.7943C14.9351 62.8352 14.8 62.8679 14.6632 62.8922C14.5264 62.915 14.388 62.926 14.2493 62.9249C13.7357 62.9862 13.2248 62.7911 12.8821 62.4027C12.6263 62.053 12.5147 61.3817 12.5147 60.3933ZM9.31507 58.7055C8.85587 58.9086 8.44403 59.2055 8.10593 59.5774C7.85569 59.8765 7.71897 60.2546 7.71993 60.645C7.70843 60.8765 7.77207 61.1055 7.9013 61.2977C8.00541 61.4528 8.1799 61.5455 8.36636 61.5448C8.53396 61.5413 8.69638 61.4859 8.83141 61.3863C9.01368 61.2609 9.17133 61.1028 9.29647 60.9201L9.31507 58.7055ZM9.49179 62.8037L9.34298 62.0017C9.16153 62.2722 8.92348 62.4997 8.64539 62.6685C8.39564 62.8149 8.11156 62.8921 7.82224 62.8922C7.38466 62.913 6.96273 62.7266 6.68286 62.3887C6.38116 62.0015 6.22921 61.518 6.255 61.0273C6.24393 60.2968 6.50227 59.5879 6.98049 59.0365C7.63474 58.3512 8.42754 57.8139 9.30577 57.4607V57.0271C9.3287 56.7501 9.2688 56.4726 9.1337 56.2298C9.0068 56.0561 8.79905 55.9608 8.58493 55.9781C8.35286 55.9683 8.13065 56.0728 7.98966 56.2578C7.82846 56.4809 7.74659 56.7518 7.75713 57.0271H6.36197C6.36505 56.3965 6.61175 55.7915 7.05025 55.3394C7.50909 54.922 8.11507 54.7056 8.73375 54.7379C9.32888 54.6801 9.91547 54.9125 10.3103 55.3627C10.6758 55.9825 10.8384 56.7015 10.7753 57.4187V61.0693C10.7753 61.433 10.7753 61.7593 10.8126 62.0437C10.83 62.2998 10.8689 62.5541 10.9288 62.8037H9.49179ZM0 62.8037V52.0804H1.52073L3.91577 60.342C3.78556 59.1065 3.68789 57.8616 3.62279 56.6122C3.55768 55.3627 3.52512 54.1178 3.52512 52.8823V52.0944H4.94355V62.8176H3.61814L0.99987 53.7076C1.12544 55.1668 1.2231 56.6495 1.28821 58.1694C1.35331 59.6893 1.39517 61.2325 1.40912 62.8316L0 62.8037Z" fill="white"/>
</svg>
