<svg xmlns="http://www.w3.org/2000/svg" width="192.486" height="76.128" viewBox="0 0 192.486 76.128"><defs><style>.a{fill:#0080c8;}.a,.b{fill-rule:evenodd;}.b{fill:#fff;}</style></defs><g transform="translate(0)"><path class="a" d="M66.79,26.62l30,37.6-29.89.039Z" transform="translate(-29.204 -11.634)"/><path class="a" d="M167.24,26.62H192.9V53.993c.169,5.546-4.808,10.061-12.009,10.269-7.049.2-13.321-4.121-13.647-10.269Z" transform="translate(-73.101 -11.634)"/><path class="a" d="M232.262,26.69l16.327,37.6H216.87Z" transform="translate(-94.789 -11.665)"/><path class="a" d="M126.83,26.62h17.346l.253,37.642H127.083Z" transform="translate(-55.442 -11.634)"/><path class="a" d="M144.436,11.565h-17.5V7.022c-.118-3.783,3.53-6.874,8.445-7.015,4.814-.135,8.85,2.815,9.07,7.015Z" transform="translate(-55.488 -0.002)"/><path class="b" d="M187.644,122.033l1.576-.141v.084a1.985,1.985,0,0,0,.214,1.036.732.732,0,0,0,1.188.09,1.044,1.044,0,0,0,.225-.7,1.643,1.643,0,0,0-.293-.878,8.307,8.307,0,0,0-1.126-1.284,6.754,6.754,0,0,1-1.306-1.633,3.073,3.073,0,0,1-.281-1.357,2.111,2.111,0,0,1,2.336-2.32,2.146,2.146,0,0,1,1.655.664,2.879,2.879,0,0,1,.67,1.847l-1.56.124a1.965,1.965,0,0,0-.208-.94.6.6,0,0,0-.563-.3.692.692,0,0,0-.563.2.824.824,0,0,0-.191.591,2.864,2.864,0,0,0,1.126,1.813l.056.062a7.822,7.822,0,0,1,1.526,1.8,3.191,3.191,0,0,1,.388,1.548,2.5,2.5,0,0,1-.664,1.807,2.607,2.607,0,0,1-3.547,0,3.176,3.176,0,0,1-.653-2.094m-4.234,2.64v-9.616h1.661v1.272a2.768,2.768,0,0,1,.856-1.047,2.361,2.361,0,0,1,1.21-.366v1.925a2.832,2.832,0,0,0-.349-.068h-.462a1.013,1.013,0,0,0-.89.349,2.5,2.5,0,0,0-.253,1.357v6.193Zm-3.716,0v-9.616h1.762v9.6Zm0-11.119v-1.807h1.762v1.807Zm-3.648,6.193a4.366,4.366,0,0,0-1.464,1.053,2,2,0,0,0-.467,1.289,1.293,1.293,0,0,0,.22.788.676.676,0,0,0,.563.3.991.991,0,0,0,.563-.191,2.176,2.176,0,0,0,.563-.563Zm.214,4.949-.18-.968a2.77,2.77,0,0,1-.844.805,1.993,1.993,0,0,1-1,.27,1.688,1.688,0,0,1-1.379-.608,2.462,2.462,0,0,1-.518-1.644,3.581,3.581,0,0,1,.878-2.4,7.987,7.987,0,0,1,2.815-1.9v-.524a1.691,1.691,0,0,0-.214-.963.744.744,0,0,0-.664-.3.86.86,0,0,0-.715.338,1.485,1.485,0,0,0-.282.929h-1.689a2.945,2.945,0,0,1,.833-2.038,2.817,2.817,0,0,1,2.038-.726,2.253,2.253,0,0,1,1.9.754,4.116,4.116,0,0,1,.563,2.483v4.408a10.816,10.816,0,0,0,.039,1.177,6.16,6.16,0,0,0,.141.918Zm-7.595,0v-8.158h-1.053v-1.481h1.053v-1.216a2.583,2.583,0,0,1,.439-1.728,2.021,2.021,0,0,1,1.559-.49h.935v1.453h-.388a.744.744,0,0,0-.608.2,1.4,1.4,0,0,0-.163.805v.98h1.126v1.481h-1.126v8.118Zm-4.628,0v-8.158H162.99v-1.481h1.053v-1.216a2.583,2.583,0,0,1,.439-1.728,2.021,2.021,0,0,1,1.56-.49h.94v1.453h-.394a.744.744,0,0,0-.608.2,1.4,1.4,0,0,0-.163.805v.98h1.126v1.481h-1.126v8.118Zm-8.3,0,1.9-12.949h2.483l1.982,12.949h-1.942l-.327-2.607h-1.909l-.31,2.607Zm2.359-4.329h1.554l-.709-7.5h-.1Zm-12.386,4.329v-9.639h1.689v1.177a4.914,4.914,0,0,1,1.025-.991,1.754,1.754,0,0,1,.951-.327,1.329,1.329,0,0,1,1.261.647,4.992,4.992,0,0,1,.372,2.3v6.79h-1.79v-6.863a1.922,1.922,0,0,0-.169-.94.562.562,0,0,0-.563-.281.925.925,0,0,0-.5.186,1.927,1.927,0,0,0-.5.5v7.4Zm-3.6-4.949a4.325,4.325,0,0,0-1.458,1.053,1.965,1.965,0,0,0-.467,1.289,1.3,1.3,0,0,0,.214.788.687.687,0,0,0,.563.3,1.013,1.013,0,0,0,.563-.191,2.247,2.247,0,0,0,.563-.563Zm.22,4.949-.186-.968a2.652,2.652,0,0,1-.845.805,1.974,1.974,0,0,1-1,.27,1.717,1.717,0,0,1-1.385-.625,2.456,2.456,0,0,1-.512-1.644,3.6,3.6,0,0,1,.873-2.4,8.092,8.092,0,0,1,2.815-1.9v-.524a1.693,1.693,0,0,0-.208-.963.749.749,0,0,0-.664-.3.872.872,0,0,0-.721.338,1.56,1.56,0,0,0-.281.929h-1.689a3,3,0,0,1,.833-2.038,2.817,2.817,0,0,1,2.038-.726,2.251,2.251,0,0,1,1.909.754,4.125,4.125,0,0,1,.563,2.483V122.6a9.471,9.471,0,0,0,.045,1.177,5.556,5.556,0,0,0,.141.918Zm-10.477-12.949h1.779v4.189a3.138,3.138,0,0,1,.811-.76,1.69,1.69,0,0,1,.861-.242,1.476,1.476,0,0,1,1.34.721,4.311,4.311,0,0,1,.445,2.213v3.907a4.922,4.922,0,0,1-.417,2.314,1.4,1.4,0,0,1-1.3.743,1.746,1.746,0,0,1-.9-.253,3.321,3.321,0,0,1-.839-.76v.856h-1.779Zm1.779,5.3v5.63a2.478,2.478,0,0,0,.507.389.924.924,0,0,0,.45.124.564.564,0,0,0,.563-.377,4.854,4.854,0,0,0,.152-1.514v-3.142a2.979,2.979,0,0,0-.18-1.222.591.591,0,0,0-.563-.36.912.912,0,0,0-.422.118,2.367,2.367,0,0,0-.512.338ZM127.1,124.69v-9.616h1.661v1.272a2.767,2.767,0,0,1,.856-1.047,2.349,2.349,0,0,1,1.21-.366v1.942a2.638,2.638,0,0,0-.349-.068h-.462a1.02,1.02,0,0,0-.89.349,2.5,2.5,0,0,0-.253,1.357v6.193Zm-7.995-4.042v-8.9h1.914v9.408a3.371,3.371,0,0,0,.253,1.526.856.856,0,0,0,.816.456.872.872,0,0,0,.822-.456,3.371,3.371,0,0,0,.253-1.526v-9.408h1.892v8.884a5.983,5.983,0,0,1-.681,3.3,3.181,3.181,0,0,1-4.5.085c-.029-.028-.057-.056-.085-.085a5.914,5.914,0,0,1-.692-3.3Zm-7.831,4.042v-8.135h-1.053v-1.481h1.053v-1.216a2.583,2.583,0,0,1,.439-1.728,2.021,2.021,0,0,1,1.56-.49h.935v1.453h-.388a.744.744,0,0,0-.608.2,1.4,1.4,0,0,0-.163.805v.98h1.126v1.481h-1.126v8.118Zm-4.076-6.919a1.735,1.735,0,0,0-.22-.991.929.929,0,0,0-1.385,0,1.735,1.735,0,0,0-.22.991v4.262a1.793,1.793,0,0,0,.22,1,.918.918,0,0,0,1.295.09.9.9,0,0,0,.09-.09,1.793,1.793,0,0,0,.22-1Zm1.79.591v3.091a4.131,4.131,0,0,1-.659,2.584,2.939,2.939,0,0,1-4.087,0,4.169,4.169,0,0,1-.676-2.6v-3.091a4.159,4.159,0,0,1,.659-2.579,2.916,2.916,0,0,1,4.082,0,4.125,4.125,0,0,1,.676,2.579ZM98.5,121.329v.563a3.089,3.089,0,0,1-.715,2.179,2.579,2.579,0,0,1-2,.777A2.337,2.337,0,0,1,93.82,124a4.225,4.225,0,0,1-.647-2.567v-3.091a4.088,4.088,0,0,1,.664-2.579,2.466,2.466,0,0,1,2.061-.833,2.343,2.343,0,0,1,2.038.946,5,5,0,0,1,.676,2.877V120.2H94.963v1.813a1.793,1.793,0,0,0,.22,1,.794.794,0,0,0,.7.315.777.777,0,0,0,.687-.315,1.793,1.793,0,0,0,.22-1v-.687Zm-3.541-3.575v.951h1.824v-.951a1.735,1.735,0,0,0-.22-.991.778.778,0,0,0-.687-.31.788.788,0,0,0-.7.31,1.735,1.735,0,0,0-.248.991Zm-6.041,4.009v-5.191H87.864v-1.5h1.03V112.5h1.79v2.579h1.272v1.5H90.684v5.292a2.534,2.534,0,0,0,.158,1.126.619.619,0,0,0,.563.253,4.683,4.683,0,0,0,.479-.028h.1v1.447a3.646,3.646,0,0,1-.49.118,2.862,2.862,0,0,1-.5.039,1.914,1.914,0,0,1-1.661-.631,4.69,4.69,0,0,1-.439-2.427Zm-2.241-6.688v9.6H85.026V123.5a4.432,4.432,0,0,1-1.008.946,1.868,1.868,0,0,1-.974.315,1.34,1.34,0,0,1-1.267-.619,4.844,4.844,0,0,1-.366-2.252v-6.812H83.2v6.869a1.994,1.994,0,0,0,.163.935.563.563,0,0,0,.563.276.913.913,0,0,0,.5-.175,2.13,2.13,0,0,0,.5-.507v-7.4Zm-9.515,6.688v-5.191h-1.03v-1.5h1.03V112.5h1.79v2.579h1.272v1.5H78.957v5.292a2.512,2.512,0,0,0,.163,1.126.613.613,0,0,0,.563.253,4.684,4.684,0,0,0,.479-.028h.1v1.447a3.856,3.856,0,0,1-.49.118,2.862,2.862,0,0,1-.5.039,1.914,1.914,0,0,1-1.661-.631A4.619,4.619,0,0,1,77.167,121.763Zm-4,2.911v-9.6h1.768v9.6Zm0-11.119v-1.807h1.768v1.807Zm-4.42,8.209v-5.191h-1.03v-1.5h1.03V112.5h1.8v2.579h1.267v1.5H70.546v5.292a2.534,2.534,0,0,0,.158,1.126.613.613,0,0,0,.563.253,4.684,4.684,0,0,0,.479-.028h.1v1.447a3.857,3.857,0,0,1-.49.118,2.862,2.862,0,0,1-.5.039,1.914,1.914,0,0,1-1.689-.631A5,5,0,0,1,68.75,121.763Zm-6.463.27,1.571-.141v.084a1.981,1.981,0,0,0,.22,1.036.692.692,0,0,0,.625.355.709.709,0,0,0,.563-.265,1.069,1.069,0,0,0,.22-.7,1.69,1.69,0,0,0-.287-.878,8.783,8.783,0,0,0-1.126-1.284,6.917,6.917,0,0,1-1.306-1.633,3.157,3.157,0,0,1-.281-1.357,2.309,2.309,0,0,1,.608-1.717,2.337,2.337,0,0,1,1.734-.6,2.129,2.129,0,0,1,1.65.664,2.848,2.848,0,0,1,.67,1.847l-1.554.124a2.037,2.037,0,0,0-.208-.94.608.608,0,0,0-.563-.3.7.7,0,0,0-.563.2.845.845,0,0,0-.186.591,2.864,2.864,0,0,0,1.126,1.813l.056.062a7.807,7.807,0,0,1,1.526,1.8,3.19,3.19,0,0,1,.388,1.548,2.5,2.5,0,0,1-.664,1.807,2.291,2.291,0,0,1-1.728.687,2.315,2.315,0,0,1-1.818-.7A3.176,3.176,0,0,1,62.287,122.033Zm-6.57,2.641v-9.6h1.689v1.177a4.9,4.9,0,0,1,1.03-.991,1.724,1.724,0,0,1,.951-.327,1.334,1.334,0,0,1,1.261.647,4.992,4.992,0,0,1,.372,2.3v6.79h-1.79v-6.863a1.922,1.922,0,0,0-.169-.94.562.562,0,0,0-.563-.281.949.949,0,0,0-.507.186,2,2,0,0,0-.5.5v7.4Zm-2.038,0h-1.9V111.725H53.69Zm-9.335,0V111.725h1.8v12.949ZM40.7,119.725a4.394,4.394,0,0,0-1.458,1.053,1.965,1.965,0,0,0-.467,1.289,1.3,1.3,0,0,0,.214.788.687.687,0,0,0,.563.3,1.013,1.013,0,0,0,.563-.191,2.176,2.176,0,0,0,.563-.563Zm.22,4.949-.186-.968a2.652,2.652,0,0,1-.845.805,1.975,1.975,0,0,1-1,.27,1.718,1.718,0,0,1-1.379-.608A2.488,2.488,0,0,1,37,122.529a3.6,3.6,0,0,1,.873-2.4,8.092,8.092,0,0,1,2.815-1.9V117.7a1.689,1.689,0,0,0-.208-.963.749.749,0,0,0-.664-.3.878.878,0,0,0-.721.338,1.56,1.56,0,0,0-.282.929H37.12a3,3,0,0,1,.833-2.038,2.817,2.817,0,0,1,2.038-.726,2.251,2.251,0,0,1,1.909.754,4.125,4.125,0,0,1,.563,2.483v4.408a9.471,9.471,0,0,0,.045,1.177,5.552,5.552,0,0,0,.141.918Zm-10.545,0v-9.6h1.689v1.177a5.029,5.029,0,0,1,1.025-.991,1.754,1.754,0,0,1,.951-.327,1.333,1.333,0,0,1,1.267.647,5.013,5.013,0,0,1,.366,2.3v6.79h-1.79v-6.863a2,2,0,0,0-.163-.94.591.591,0,0,0-.563-.281.936.936,0,0,0-.5.186,1.927,1.927,0,0,0-.5.5v7.4Zm-3.581-6.919a1.735,1.735,0,0,0-.22-.991.929.929,0,0,0-1.385,0,1.735,1.735,0,0,0-.22.991v4.262a1.793,1.793,0,0,0,.22,1,.918.918,0,0,0,1.295.09.905.905,0,0,0,.09-.09,1.793,1.793,0,0,0,.22-1Zm1.79.591v3.091a4.131,4.131,0,0,1-.659,2.584,2.939,2.939,0,0,1-4.087,0,4.169,4.169,0,0,1-.659-2.584v-3.091a4.159,4.159,0,0,1,.659-2.579,2.916,2.916,0,0,1,4.082,0,4.125,4.125,0,0,1,.676,2.579Zm-9.008,6.328v-9.6h1.8v9.6Zm0-11.119v-1.807h1.8v1.807Zm-4.391,8.209v-5.191H14.15v-1.5h1.03V112.5h1.79v2.579h1.272v1.5H16.971v5.292a2.627,2.627,0,0,0,.158,1.126.624.624,0,0,0,.563.253,4.64,4.64,0,0,0,.484-.028h.1v1.447a4.05,4.05,0,0,1-.49.118,2.927,2.927,0,0,1-.5.039,1.908,1.908,0,0,1-1.655-.631A4.455,4.455,0,0,1,15.18,121.763Zm-3.873-2.038a4.366,4.366,0,0,0-1.464,1.053,2,2,0,0,0-.467,1.289,1.293,1.293,0,0,0,.22.788.674.674,0,0,0,.563.3.985.985,0,0,0,.563-.191,2.176,2.176,0,0,0,.563-.563Zm.214,4.949-.18-.968a2.707,2.707,0,0,1-.844.805,1.975,1.975,0,0,1-1,.27,1.688,1.688,0,0,1-1.379-.608,2.462,2.462,0,0,1-.518-1.644,3.581,3.581,0,0,1,.878-2.4,8.046,8.046,0,0,1,2.815-1.9V117.7a1.693,1.693,0,0,0-.208-.963.749.749,0,0,0-.664-.3.861.861,0,0,0-.721.338,1.485,1.485,0,0,0-.282.929H7.732a2.945,2.945,0,0,1,.833-2.038,2.817,2.817,0,0,1,2.038-.726,2.251,2.251,0,0,1,1.909.754,4.159,4.159,0,0,1,.563,2.483v4.408a9.472,9.472,0,0,0,.045,1.177,5.553,5.553,0,0,0,.141.918Zm-11.491,0V111.725H1.871l2.9,9.976q-.236-2.238-.355-4.5t-.118-4.5v-.951H6.015V124.69H4.41l-3.17-11c.152,1.762.27,3.553.349,5.388s.129,3.7.146,5.63Z" transform="translate(-0.03 -48.782)"/></g></svg>