<?xml version="1.0" encoding="utf-8"?>
<!-- Generator: Adobe Illustrator 25.4.1, SVG Export Plug-In . SVG Version: 6.00 Build 0)  -->
<svg version="1.1" id="Layer_1" xmlns="http://www.w3.org/2000/svg" xmlns:xlink="http://www.w3.org/1999/xlink" x="0px" y="0px"
	 viewBox="0 0 170 86" style="enable-background:new 0 0 170 86;" xml:space="preserve">
<style type="text/css">
	.st0{fill:#0088CE;}
	.st1{fill:#8CC53F;}
	.st2{fill:#FFFFFF;}
</style>
<path class="st0" d="M70.2,35.7c0,2.5,0,5,0,7.5c0.1,2.7-1.2,4.5-3.6,5.7c-3.3,1.6-7.8,1-10.3-1.5c-0.6-0.6-1.1-1.2-1.4-2
	c-0.3-0.7-0.5-1.5-0.5-2.4c0-5.2,0-10.4,0-15.6c0-0.5,0.1-0.7,0.7-0.7c4.8,0,9.7,0,14.5,0c0.5,0,0.6,0.1,0.6,0.6
	C70.2,30.3,70.2,33,70.2,35.7z"/>
<path class="st0" d="M129.8,23.3c2.7,0.1,6.1,0.7,8.8,3.3c0.3,0.3,0.3,0.4,0,0.7c-1.2,1.1-2.3,2.3-3.5,3.4c-0.1,0.1-0.2,0.4-0.5,0.1
	c-4.1-3.7-10.4-2-11.8,3.4c-0.9,3.3-0.3,6.3,2.5,8.6c2.2,1.8,5.2,1.9,7.9,0.3c0.6-0.3,1.1-0.7,1.5-1.1c0.2-0.2,0.4-0.2,0.6,0
	c1.2,1.1,2.4,2.3,3.6,3.4c0.3,0.3,0.1,0.5,0,0.7c-1,1.3-2.3,2.2-3.8,2.8c-4.9,1.8-9.7,1.6-14-1.4c-3.1-2.2-4.6-5.4-5.2-9
	c-0.4-2.6,0-5.2,1.1-7.6s3-4.3,5.2-5.6C124.3,23.9,126.5,23.4,129.8,23.3z"/>
<path class="st0" d="M51.4,38.4c0,3.6,0,7.3,0,10.9c0,0.5-0.1,0.6-0.6,0.6c-3.2,0-6.3,0-9.5,0c-0.5,0-0.6-0.1-0.6-0.6
	c0-4.5,0-9.1-0.1-13.6c0-2.7,0-5.4-0.1-8.2c0-0.5,0.1-0.6,0.6-0.6c3.2,0,6.3,0,9.5,0c0.5,0,0.6,0.1,0.6,0.6c0,3.6,0,7.3,0,10.9H51.4
	z"/>
<path class="st0" d="M81.1,27c0.5,0.9,9.8,22.4,10,22.9h-0.4c-6.1,0-12.2,0-18.4,0c-0.5,0-0.6-0.1-0.4-0.6c3-7.3,6-14.5,9-21.8
	C80.9,27.3,81,27.2,81.1,27z"/>
<path class="st0" d="M38.3,49.9h-2.4c-5.1,0-10.3,0-15.4,0c-0.4,0-0.6-0.1-0.6-0.5c0-7.4,0-14.7,0-22.1c0-0.1,0-0.2,0-0.3L38.3,49.9
	z"/>
<path class="st1" d="M143.7,35.7c-1.8,0.1-3.5-0.5-4.9-1.7c-0.7-0.6-0.7-0.6-0.1-1.3c0.6-0.6,1.3-1.2,1.9-1.8c0.3-0.3,0.4-0.2,0.6,0
	c0.4,0.5,0.9,0.9,1.6,1.1c0.6,0.2,1.3,0.2,1.9-0.1c0.4-0.1,0.8-0.4,1-0.8c0.2-0.4,0.4-0.8,0.3-1.2c0-0.4-0.1-0.8-0.4-1.1
	c-0.3-0.3-0.6-0.5-1-0.6c-0.8-0.2-1.7-0.4-2.6-0.4c-0.3,0-0.5-0.2-0.5-0.5c0-0.6,0-1.2,0-1.8c0-0.4,0.1-0.5,0.5-0.6
	c0.6,0,1.2-0.1,1.9-0.1c1.3-0.3,2-1.2,1.7-2.4c-0.3-1-1.6-1.6-2.8-1.2c-0.6,0.2-1,0.6-1.3,1.1c-0.1,0.3-0.3,0.3-0.5,0.1
	c-0.7-0.7-1.5-1.2-2.4-1.7c-0.4-0.2-0.4-0.4-0.1-0.8c1.2-1.5,2.9-2,4.7-2.2c1.5-0.1,3.1,0.2,4.4,0.9c1,0.6,1.7,1.5,2.1,2.6
	c0.3,1.1,0.2,2.3-0.4,3.3c-0.3,0.6-0.9,1.1-1.5,1.4c-0.3,0.2-0.4,0.3,0,0.5c0.6,0.4,1.2,0.9,1.7,1.5c0.4,0.5,0.7,1.1,0.8,1.7
	c0.1,0.6,0.1,1.3-0.2,1.9c-0.7,2.4-2.4,3.6-4.8,4.1C144.8,35.7,144.3,35.7,143.7,35.7z"/>
<path class="st0" d="M45.9,24.9c-1.6,0-3.2,0-4.7,0c-0.5,0-0.7-0.2-0.6-0.7c0-0.6,0-1.3,0-1.9c0-0.7,0.1-1.5,0.5-2.1
	c0.4-0.7,0.9-1.2,1.6-1.5c1.1-0.6,2.3-0.9,3.6-0.9c1.3,0.1,2.5,0.5,3.5,1.2c0.5,0.4,0.9,0.9,1.2,1.4c0.3,0.6,0.4,1.2,0.4,1.8
	c0,0.7,0,1.4,0,2.2c0,0.4-0.1,0.5-0.5,0.5C49.2,24.8,47.5,24.9,45.9,24.9z"/>
<path class="st2" d="M104.9,33.9c0,5.1,0,10.2,0,15.4c0,0.3,0.1,0.6-0.5,0.6c-0.6,0-0.6-0.3-0.6-0.7c0-10.3,0-20.6,0-30.9
	c0-0.3-0.1-0.6,0.5-0.6c0.6,0,0.6,0.3,0.6,0.7C104.9,23.5,104.9,28.7,104.9,33.9z"/>
<path class="st2" d="M41.1,59.9c0-0.2-0.1-0.4-0.3-0.6c-0.1-0.2-0.3-0.3-0.5-0.4c-0.2-0.1-0.4-0.1-0.6-0.1c-0.2,0-0.4,0.1-0.6,0.2
	c-0.4,0.3-0.7,0.6-1,0.9c-0.7-1.5-1.6-1.5-3,0c0.3-0.9-0.2-0.9-0.7-0.8c0,0-0.1,0-0.1,0c-0.5-0.1-0.7,0.1-0.7,0.6c0,2.4,0,4.7,0,7.1
	c0,1.1,0,1.1,1.1,1.1c0.5,0,0.5-0.2,0.5-0.6c0-1.9,0-3.8,0-5.7c0-0.7,0.3-1.3,0.8-1.2c0.7,0.1,0.5,0.8,0.5,1.2c0,1.7,0,3.4,0,5.1
	c0,1.2,0,1.1,1.2,1.2c0.4,0,0.5-0.1,0.5-0.5c0-2,0-4,0-6.1c0-0.1,0-0.2,0-0.3c0-0.1,0.1-0.2,0.2-0.3c0.1-0.1,0.2-0.2,0.3-0.2
	c0.1-0.1,0.2-0.1,0.3-0.1c0.5,0,0.5,0.5,0.5,0.8c0,1.8,0,3.7,0,5.5c0,1.1,0,1.1,1.1,1.1c0.5,0,0.6-0.1,0.6-0.6c0-2,0-3.9,0-5.9
	C41.3,61,41.3,60.4,41.1,59.9z"/>
<path class="st2" d="M124,63.8c-0.4,0-0.6,0.1-0.5,0.5c0.1,0.6,0,1.2-0.2,1.8c0,0.1-0.1,0.3-0.2,0.4c-0.1,0.1-0.2,0.2-0.4,0.2
	c-0.1,0-0.3,0.1-0.4,0.1c-0.1,0-0.3-0.1-0.4-0.1c-0.2-0.1-0.3-0.3-0.4-0.5c-0.1-0.2-0.1-0.4-0.1-0.6c0-1.2,0-2.4,0-3.6
	c-0.1-1.1-0.1-2.3,0-3.4c0.1-0.7,0.5-1.1,1.1-1c0.6,0,0.9,0.4,1,1c0,0.4,0,0.8,0.1,1.3c0,0.2,0,0.4,0.2,0.3c0.4,0,0.9,0,1.3,0
	c0.2,0,0.2-0.1,0.2-0.2c0-1.1,0-2.2-0.8-3.1c-0.8-0.9-1.8-1-2.9-0.8c-1.2,0.2-1.7,1.1-1.8,2.2c-0.3,2.2-0.1,4.4-0.1,6.6
	c0,0.5,0.1,1,0.2,1.5c0.4,1.4,1.2,2,2.7,2c0.6,0,1.2-0.2,1.7-0.5c0.5-0.4,0.8-0.9,0.9-1.5c0.1-0.4,0.1-0.8,0.2-1.1
	C125.3,63.8,125.3,63.8,124,63.8z"/>
<path class="st2" d="M67.5,60.1c1.4,0,1.4,0,1.3-1.4c0-0.2-0.1-0.4-0.1-0.6c-0.4-1.6-1.3-2.3-3-2.2c-1.3,0-2.2,0.9-2.4,2.4
	c-0.3,2.2-0.1,4.3-0.1,6.5c0,0.5,0.1,1,0.2,1.5c0.4,1.4,1.2,2,2.7,2c0.6,0,1.2-0.2,1.7-0.5c0.5-0.4,0.8-0.9,0.9-1.5
	c0.1-0.4,0.1-0.7,0.2-1.1c0.1-1.4,0.1-1.3-1.3-1.3c-0.3,0-0.4,0.1-0.4,0.4c0,0.5,0,1.1-0.1,1.6c0,0.2-0.1,0.3-0.1,0.4
	s-0.2,0.2-0.3,0.3c-0.1,0.1-0.3,0.1-0.4,0.1c-0.2,0-0.3,0-0.5-0.1c-0.2-0.1-0.4-0.2-0.5-0.5c-0.1-0.2-0.2-0.4-0.1-0.7
	c0-1.1,0-2.3,0-3.4c-0.1-1.2-0.1-2.4,0-3.6c0.1-0.7,0.4-1.1,1-1.1c0.6,0,0.9,0.4,1,1.1c0,0.4,0.1,0.7,0.1,1.1
	C67,59.9,67,60.1,67.5,60.1z"/>
<path class="st2" d="M24,63.8c-0.3,0-0.4,0.1-0.4,0.4c0,0.5,0,1.1-0.1,1.6c0,0.2-0.1,0.3-0.1,0.5c-0.1,0.1-0.2,0.3-0.3,0.3
	c-0.1,0.1-0.3,0.1-0.5,0.1c-0.2,0-0.3,0-0.5-0.1c-0.2-0.1-0.4-0.3-0.5-0.4c-0.1-0.2-0.2-0.4-0.1-0.6c0-1.2,0-2.5,0-3.7
	c-0.1-1.1-0.1-2.2,0-3.3c0.1-0.7,0.4-1.1,1-1.1c0.6,0,1,0.4,1,1.1c0.1,0.3,0.1,0.7,0.1,1c0,0.5,0.1,0.6,0.6,0.6c1.2,0,1.2,0,1.2-1.2
	c0-0.3-0.1-0.5-0.1-0.8c-0.4-1.6-1.3-2.3-3-2.2c-1.3,0-2.1,0.9-2.4,2.4c-0.3,1.5-0.1,3.1-0.1,4.6c-0.1,1.1,0,2.1,0.2,3.2
	c0.4,1.8,1.7,2.6,3.5,2.2c1.3-0.3,2-1.4,2-3C25.4,63.4,25.7,63.9,24,63.8z"/>
<path class="st2" d="M47.5,62.1c0-0.5-0.1-1.1-0.2-1.6c-0.1-0.5-0.3-0.9-0.7-1.2c-0.4-0.3-0.8-0.4-1.3-0.4c-1.7,0-2.6,0.8-2.8,2.7
	c0.7,0,1.6,0.4,1.8-0.8c0.1-0.3,0.4-0.5,0.8-0.4c0.2,0,0.3,0.1,0.5,0.3c0.1,0.1,0.2,0.3,0.2,0.5c0,0.4,0.3,0.8-0.2,1.1
	c-0.6,0.3-1.2,0.6-1.7,1c-0.5,0.4-1,0.9-1.2,1.5c-0.2,0.6-0.3,1.3-0.2,1.9c0,0.2,0.1,0.4,0.2,0.6c0.1,0.2,0.3,0.4,0.4,0.5
	c0.2,0.1,0.4,0.2,0.6,0.3c0.2,0.1,0.4,0.1,0.7,0c0.6-0.1,1.1-0.4,1.5-0.9c0,0.1,0.1,0.2,0.1,0.3c0.1,0.2-0.1,0.5,0.3,0.5
	c0.5,0,0.9,0,1.4-0.1c0-0.1,0-0.2,0-0.2C47.4,65.8,47.6,64,47.5,62.1z M45.9,65.6c0,0.3-0.1,0.5-0.3,0.7c-0.2,0.2-0.4,0.3-0.7,0.3
	c-0.6,0-0.7-0.5-0.7-0.9c0-1.1,0.8-1.6,1.7-2.1C45.9,64.3,45.9,65,45.9,65.6L45.9,65.6z"/>
<path class="st2" d="M140,58.9c-0.5,0-1,0.2-1.4,0.5c-0.4,0.3-0.6,0.8-0.7,1.3c-0.1,0.9-0.2,1.8-0.1,2.7c0,1,0,1.9,0.2,2.9
	c0.1,0.5,0.3,1,0.7,1.3c0.4,0.3,0.9,0.5,1.4,0.5c1.7,0,2.6-0.8,2.7-2.5c0-0.6-0.1-0.8-0.8-0.8c-0.7,0-0.9,0.2-0.8,0.8
	c0,0.1,0,0.2,0,0.3c-0.1,0.5-0.3,0.8-0.8,0.8c-0.5,0-0.7-0.4-0.8-0.8c0-0.5,0-1.1,0-1.7c0-0.3,0.1-0.4,0.4-0.4c0.9,0,1.7,0,2.6,0
	c0.2,0,0.4,0,0.4-0.3c0.1-1,0-2-0.3-3C142.1,59.4,141.4,58.9,140,58.9z M140.2,62.4c-0.3-0.1-0.8,0.2-0.8-0.5
	c0.1-1.1,0.2-1.5,0.9-1.5c0.6,0,0.8,0.4,0.8,1.4C141.1,62.4,141.1,62.4,140.2,62.4z"/>
<path class="st2" d="M58.2,60.5c-0.4-1.2-1.2-1.6-2.6-1.6c-0.5,0-1,0.2-1.3,0.5c-0.4,0.3-0.6,0.8-0.7,1.3c-0.1,0.9-0.2,1.8-0.1,2.7
	c0,1,0,1.9,0.2,2.9c0.1,0.4,0.3,0.8,0.6,1.2c0.3,0.3,0.7,0.5,1.1,0.6c1.7,0.3,2.9-0.6,3.1-2.4c0.1-0.9,0.1-0.9-0.9-0.9
	c-0.5,0-0.8,0.1-0.7,0.7c0,0.1,0,0.3,0,0.4c-0.1,0.5-0.3,0.8-0.8,0.8c-0.5,0-0.7-0.4-0.8-0.8c0-0.5,0-1.1,0-1.6
	c0-0.4,0.1-0.5,0.5-0.5c0.8,0,1.7,0,2.5,0c0.2,0,0.4,0.1,0.4-0.3C58.5,62.5,58.4,61.5,58.2,60.5z M55.9,62.4
	c-0.3-0.1-0.9,0.3-0.8-0.5c0.1-1.1,0.2-1.5,0.8-1.5c0.6,0,0.8,0.4,0.9,1.5C56.8,62.7,56.3,62.3,55.9,62.4L55.9,62.4z"/>
<path class="st2" d="M72.2,58.9c-0.5,0-1,0.2-1.4,0.5c-0.4,0.3-0.6,0.8-0.7,1.3c-0.1,0.9-0.2,1.8-0.1,2.7c0,1,0,1.9,0.2,2.9
	c0.1,0.5,0.3,1,0.7,1.3c0.4,0.3,0.9,0.5,1.4,0.5c1.7,0,2.6-0.8,2.7-2.5c0-0.6-0.1-0.8-0.8-0.8c-0.7,0-0.9,0.2-0.8,0.8
	c0,0.1,0,0.2,0,0.3c-0.1,0.5-0.3,0.8-0.8,0.8c-0.5,0-0.7-0.4-0.8-0.8c0-0.5,0-1.1,0-1.7c0-0.3,0.1-0.4,0.4-0.4c0.9,0,1.7,0,2.6,0
	c0.2,0,0.4,0,0.4-0.3c0.1-1,0-2-0.3-3C74.4,59.4,73.6,58.9,72.2,58.9z M72.4,62.4c-0.3-0.1-0.9,0.3-0.8-0.5c0.1-1.1,0.2-1.5,0.9-1.5
	c0.6,0,0.8,0.4,0.9,1.4C73.4,62.6,72.9,62.3,72.4,62.4z"/>
<path class="st2" d="M96.1,60.3c-0.4-1.1-1.2-1.5-2.6-1.4c-0.5,0-0.9,0.2-1.3,0.5c-0.4,0.3-0.6,0.7-0.7,1.2c-0.3,1.9-0.3,3.9,0,5.8
	c0.2,1.1,1,1.7,2.1,1.7c1.7,0.1,2.7-1.1,2.6-3.1c0-0.1,0-0.2-0.1-0.2c-0.4,0-0.9,0-1.3,0c-0.2,0.1,0,0.5-0.1,0.8
	c0,0.2-0.1,0.4-0.1,0.6c0,0.1-0.1,0.2-0.2,0.3s-0.2,0.1-0.4,0.1c-0.1,0-0.3,0-0.4,0c-0.1-0.1-0.2-0.2-0.3-0.3
	c-0.3-0.8-0.3-1.6-0.1-2.4c0.1-0.4,0.9-0.1,1.3-0.1c0.1,0,0.2,0,0.3,0c0.4,0,0.9,0,1.3,0c0.2,0,0.4,0,0.3-0.2
	C96.4,62.5,96.5,61.4,96.1,60.3z M93.9,62.4c-0.3-0.1-0.9,0.3-0.8-0.5c0.1-1.1,0.2-1.5,0.9-1.5c0.6,0,0.8,0.4,0.9,1.4
	C94.9,62.6,94.3,62.3,93.9,62.4z"/>
<path class="st2" d="M81.3,61.5c0-0.5-0.1-1-0.2-1.5c0-0.2-0.1-0.4-0.3-0.6c-0.1-0.2-0.3-0.3-0.5-0.4c-0.2-0.1-0.4-0.1-0.6-0.1
	c-0.2,0-0.4,0.1-0.6,0.2c-0.4,0.3-0.8,0.6-1.1,0.9c0.2-0.9-0.2-1-0.8-0.9c0,0-0.1,0-0.1,0c-0.5-0.1-0.6,0.1-0.6,0.6
	c0,2.4,0,4.8,0,7.1c0,1.1,0,1.1,1.1,1.1c0.5,0,0.6-0.2,0.6-0.6c0-2,0-3.9,0-5.9c0-0.1,0-0.3,0-0.4c0-0.1,0.1-0.2,0.2-0.3
	s0.2-0.2,0.3-0.2c0.1-0.1,0.2-0.1,0.4-0.1c0.6,0,0.6,0.5,0.6,0.9c0,0.2,0,0.3,0,0.5c0,1.7,0,3.3,0,5c0,1.1,0,1.1,1.1,1.1
	c0.5,0,0.6-0.1,0.6-0.6C81.3,65.4,81.3,63.5,81.3,61.5z"/>
<path class="st2" d="M107.7,58.9c-0.5,0-1.1,0.1-1.5,0.4c-0.4,0.3-0.7,0.8-0.8,1.4c-0.2,0.9-0.1,1.8-0.1,2.7
	c0.1,0.9-0.1,1.8,0.1,2.8c0.3,1.2,1,1.8,2.2,1.9c1.5,0,2.3-0.5,2.5-1.8c0.3-1.9,0.3-3.8,0-5.6C109.9,59.5,109.1,58.9,107.7,58.9z
	 M108.6,65.8c0,0.5-0.2,0.9-0.8,0.9c-0.5,0-0.8-0.3-0.8-1c0-0.7,0-1.4,0-2.2c0-0.7,0-1.4,0-2.1c0-0.5,0.1-1,0.7-1.1
	c0.5-0.1,0.9,0.3,0.9,0.9C108.6,62.8,108.6,64.3,108.6,65.8z"/>
<path class="st2" d="M148.1,65.5c-0.2-0.9-0.6-1.7-1.3-2.3c-0.6-0.5-1-1-1.4-1.7c-0.2-0.4-0.2-0.9,0.3-1.1c0.5-0.2,0.8,0.1,0.9,0.6
	c0,0.2,0,0.4,0.2,0.4c0.4,0.1,0.8,0,1.2-0.1c0.2-0.1,0-0.5,0-0.8c-0.3-1.2-1.1-1.8-2.4-1.6c-1.1,0.1-1.7,0.9-1.8,2.1
	c-0.1,1.2,0.6,2,1.4,2.8c0.5,0.4,0.9,0.9,1.2,1.4c0.1,0.2,0.2,0.4,0.2,0.6c0,0.2-0.1,0.4-0.2,0.6c-0.1,0.1-0.2,0.2-0.3,0.3
	c-0.1,0.1-0.3,0.1-0.4,0c-0.5-0.1-0.6-0.6-0.6-1c0-0.3-0.2-0.4-0.5-0.4c-0.2,0.1-0.5,0.1-0.7,0.1c-0.3,0-0.3,0.1-0.3,0.4
	c0.1,1.1,0.5,2.4,2.3,2.4C147.4,68.1,148.3,67,148.1,65.5z"/>
<path class="st2" d="M103.4,56.1c-0.1,0-0.2,0-0.3,0c-0.3,0-0.7,0.1-0.9,0.3s-0.4,0.6-0.4,0.9c-0.1,0.5-0.1,0.9-0.1,1.4
	c0,0.4-0.1,0.5-0.5,0.4c-0.4-0.1-0.6,0.1-0.5,0.5c0,0.2,0,0.3,0,0.5c0,0.3,0.1,0.5,0.4,0.4c0.5-0.1,0.5,0.2,0.5,0.6
	c0,1.9,0,3.8,0,5.7c0,1.2,0,1.2,1.2,1.2c0.4,0,0.5-0.1,0.5-0.5c0-1.1,0-2.2,0-3.3c0-1.1,0-2.1,0-3.2c0-0.4,0.1-0.6,0.5-0.5
	c0.4,0.1,0.6-0.1,0.5-0.5c0-0.1,0-0.3,0-0.4c0.1-0.4-0.1-0.5-0.5-0.5c-0.2,0-0.4,0.1-0.5-0.1c-0.1-0.4-0.1-0.8,0-1.2
	c0.1-0.3,0.3-0.4,0.6-0.4c0.2,0,0.4,0.1,0.4-0.2C104.5,56.3,104.4,56.1,103.4,56.1z"/>
<path class="st2" d="M132.9,66.7c-0.8-0.1-0.9-0.2-0.9-1c0-1.5,0-2.9,0-4.4c0-0.5,0.1-0.8,0.7-0.7c0.4,0.1,0.6-0.1,0.5-0.5
	c0-0.2,0-0.3,0-0.5c0-0.3-0.1-0.5-0.4-0.4c-0.6,0.1-0.8-0.2-0.7-0.7c0-0.3,0-0.6,0-0.8c0.1-0.6-0.2-0.8-0.8-0.7
	c-0.9,0.1-0.9,0-0.9,0.9c0,0.3,0,0.6,0,1c0,0.3-0.1,0.5-0.5,0.5c-0.7-0.1-0.5,0.4-0.5,0.7c0,0.4-0.1,0.8,0.5,0.7
	c0.4-0.1,0.5,0.1,0.5,0.5c0,0.8,0,1.7,0,2.5h0c0,0.8,0,1.7,0,2.5c0.1,1.5,0.7,2.1,2.3,1.9c0.2,0,0.5,0,0.5-0.2c0-0.4,0-0.8,0-1.1
	C133.1,66.7,133,66.7,132.9,66.7z"/>
<path class="st2" d="M52.3,67c0.1-0.2-0.1-0.3-0.3-0.3c-0.8,0.1-0.9-0.4-0.9-1c0-1.5,0-3.1,0-4.6c0-0.4,0.1-0.6,0.6-0.5
	c0.6,0.1,0.6-0.2,0.6-0.7c0-0.4,0-0.9-0.6-0.7c-0.5,0.1-0.6-0.1-0.5-0.6c0-0.5,0-0.9,0-1.4c0-0.2,0-0.3-0.3-0.3
	c-1.2-0.2-1.4,0-1.4,1.2c0,0.2,0,0.5,0,0.7c0,0.4-0.1,0.5-0.5,0.5c-0.7-0.1-0.5,0.3-0.5,0.7c0,0.4-0.2,0.8,0.5,0.7
	c0.4-0.1,0.5,0.1,0.5,0.5c0,0.8,0,1.7,0,2.5c0,0.7,0,1.4,0,2c0,0.6,0.1,1.1,0.3,1.6c0.3,0.7,1.4,1.1,2.3,0.8
	C52.6,67.9,52.2,67.3,52.3,67z"/>
<path class="st2" d="M85.8,66.7c-0.9-0.1-0.9-0.2-0.9-1.1c0-1.5,0-3,0-4.5c0-0.5,0.1-0.7,0.6-0.6c0.5,0.1,0.7-0.1,0.6-0.6
	c0-0.1,0-0.3,0-0.4c0-0.3,0-0.4-0.3-0.4c-0.8,0.2-0.9-0.3-0.8-0.9c0-0.2,0-0.4,0-0.6c0.1-0.6,0-1-0.7-0.8c-1,0-1,0-1,0.9
	c0,0.3,0,0.6,0,1c0,0.4-0.1,0.6-0.5,0.5c-0.5-0.1-0.5,0.2-0.5,0.5c0,0.1,0,0.3,0,0.4c0,0.3,0.1,0.5,0.4,0.4c0.5-0.1,0.6,0.2,0.6,0.6
	c0,1.7,0,3.3,0,5c0,1.5,0.6,2,2.2,2c0.2,0,0.6,0,0.6-0.2c0-0.4,0-0.8,0-1.1C86,66.7,85.9,66.7,85.8,66.7z"/>
<path class="st2" d="M28.4,62.1v-4.8c0-1.1,0-1.1-1.1-1.1c-0.5,0-0.6,0.1-0.6,0.6c0,3.4,0,6.8,0,10.1c0,1.2,0,1.1,1.2,1.2
	c0.4,0,0.5-0.1,0.5-0.5C28.4,65.7,28.4,63.9,28.4,62.1z"/>
<path class="st2" d="M115.4,59.4c0.1-0.5-0.2-0.5-0.6-0.4c-0.5,0.2-1,0.5-1.3,1c0.2-0.7-0.2-0.9-0.7-0.8c-0.1,0-0.2,0-0.3,0
	c-0.4-0.1-0.5,0.1-0.5,0.5c0,2.4,0,4.8,0,7.3c0,1,0,1,1.1,1c0.5,0,0.6-0.1,0.6-0.6c0-1.9,0-3.8,0-5.7c0-0.9,0.3-1.2,1.2-1.1
	c0.2,0,0.3,0,0.5,0C115.4,60.2,115.4,59.8,115.4,59.4z"/>
<path class="st2" d="M90.2,59c-0.3,0.1-0.6,0.2-0.9,0.4c-0.3,0.2-0.5,0.4-0.6,0.7c0.3-1-0.3-0.9-0.8-0.9c0,0-0.1,0-0.1,0
	c-0.5-0.1-0.6,0.1-0.6,0.6c0,2.4,0,4.7,0,7.1c0,1.2,0,1.1,1.2,1.2c0.4,0,0.5-0.1,0.5-0.5c0-1.8,0-3.6,0-5.3c0-1.4,0.3-1.6,1.6-1.5
	c0,0,0.1,0,0.1,0c0-0.5,0-1,0-1.5C90.6,58.9,90.4,58.9,90.2,59z"/>
<path class="st2" d="M31.9,63.5v-3.3c0-1.1,0-1.1-1.1-1.1c-0.5,0-0.6,0.1-0.6,0.6c0,2.4,0,4.8,0,7.1c0,1.1,0,1.1,1.1,1.1
	c0.4,0,0.5-0.1,0.5-0.5C31.9,66.2,31.9,64.9,31.9,63.5z"/>
<path class="st2" d="M128.3,63.7c0-1.1,0-2.2,0-3.3c0-1.2,0-1.1-1.2-1.2c-0.4,0-0.5,0.1-0.5,0.5c0,2.4,0,4.8,0,7.1
	c0,1.2,0,1.2,1.2,1.2c0.4,0,0.5-0.1,0.5-0.5C128.3,66.3,128.3,65,128.3,63.7z"/>
<path class="st2" d="M136.1,60.3c0-1.2,0-1.2-1.2-1.2c-0.4,0-0.5,0.1-0.5,0.5c0,1.3,0,2.6,0,4v3.3c0,1.2,0,1.1,1.2,1.2
	c0.4,0,0.5-0.1,0.5-0.5C136.1,65.1,136.1,62.7,136.1,60.3z"/>
<path class="st2" d="M135.1,57.8c1-0.1,1,0,1-0.8c0-0.9,0-0.9-0.9-0.9c-0.4-0.1-0.9-0.1-0.7,0.7C134.5,57.3,134.2,57.9,135.1,57.8z"
	/>
<path class="st2" d="M127.6,56.1c-0.9,0.1-1,0-0.9,0.8c0,0.5-0.2,1,0.7,0.9c1-0.1,1,0,1-0.7C128.3,56.6,128.5,56,127.6,56.1z"/>
<path class="st2" d="M31.2,56.1c-0.5,0.1-1.1-0.2-1,0.7c0.1,1,0,1,0.8,1c0.9,0,0.9,0,0.9-1C32,56.3,31.9,56,31.2,56.1z"/>
</svg>
