<svg xmlns="http://www.w3.org/2000/svg" width="81.101" height="77.89" viewBox="0 0 81.101 77.89"><defs><style>.a{fill:#fff;}.b{fill:#2545a5;}</style></defs><ellipse class="a" cx="40.551" cy="38.945" rx="40.551" ry="38.945" transform="translate(0 0)"/><path class="b" d="M69.242,50.341a14.365,14.365,0,0,1,5.691,5.4,14.838,14.838,0,0,1,2.057,7.736,14.628,14.628,0,0,1-2.434,8.233A16.993,16.993,0,0,1,67.9,77.538a20.079,20.079,0,0,1-9.223,2.14,19.25,19.25,0,0,1-5.623-.855,14.225,14.225,0,0,1-4.731-2.371,3.744,3.744,0,0,1-1.1-1.383,3.918,3.918,0,0,1-.412-1.712,2.476,2.476,0,0,1,.858-1.811,3.085,3.085,0,0,1,2.229-.823,4.9,4.9,0,0,1,2.4.988,10.844,10.844,0,0,0,6.308,2.173,13,13,0,0,0,6-1.383A11.086,11.086,0,0,0,68.9,68.747a9.2,9.2,0,0,0,1.577-5.2,8.647,8.647,0,0,0-2.88-6.782A11.618,11.618,0,0,0,57.07,54.654a32.589,32.589,0,0,0-3.393,1.383q-.823.4-1.611.691a3.94,3.94,0,0,1-1.337.3,3.668,3.668,0,0,1-2.948-1.12,3.826,3.826,0,0,1-.96-2.568l.069-.659,2.468-17.056a2.935,2.935,0,0,1,1.131-1.779,3.511,3.511,0,0,1,2.229-.724h20.16a2.933,2.933,0,0,1,2.16.857,2.863,2.863,0,0,1,.858,2.107,2.756,2.756,0,0,1-.858,2.074,2.994,2.994,0,0,1-2.16.823h-17.9L53.2,50.242a16.247,16.247,0,0,1,3.668-1.316,18.008,18.008,0,0,1,4.286-.528,16.9,16.9,0,0,1,8.091,1.943Z" transform="translate(-20.579 -15.699)"/></svg>