<svg xmlns="http://www.w3.org/2000/svg" width="81.101" height="77.89" viewBox="0 0 81.101 77.89"><defs><style>.a{fill:#fff;}.b{fill:#2545a5;}</style></defs><ellipse class="a" cx="40.551" cy="38.945" rx="40.551" ry="38.945" transform="translate(0 0)"/><path class="b" d="M77.549,61.075a2.71,2.71,0,0,1,.891,2.074,2.606,2.606,0,0,1-.892,2.042,3.192,3.192,0,0,1-2.194.79H71.721V76.057a2.987,2.987,0,0,1-.96,2.238,3.238,3.238,0,0,1-2.331.922,3.119,3.119,0,0,1-2.3-.922,3.039,3.039,0,0,1-.926-2.238V65.981H46.419a3.19,3.19,0,0,1-2.228-.922,2.867,2.867,0,0,1-.994-2.173,3.23,3.23,0,0,1,.754-2.107L65.824,34.372a3.273,3.273,0,0,1,1.2-.922A3.516,3.516,0,0,1,68.5,33.12a3.126,3.126,0,0,1,2.3.922,3.042,3.042,0,0,1,.925,2.238V60.252h3.634a3.119,3.119,0,0,1,2.194.823Zm-25.713-.823H65.207V43.788Z" transform="translate(-21.394 -15.699)"/></svg>