<svg xmlns="http://www.w3.org/2000/svg" width="81.101" height="77.89" viewBox="0 0 81.101 77.89"><defs><style>.a{fill:#fff;}.b{fill:#2545a5;}</style></defs><ellipse class="a" cx="40.551" cy="38.945" rx="40.551" ry="38.945" transform="translate(0 0)"/><path class="b" d="M65.13,34.075a3.057,3.057,0,0,1,.858,2.206V76.058A2.9,2.9,0,0,1,64.959,78.3a3.657,3.657,0,0,1-2.537.922,3.41,3.41,0,0,1-2.468-.922,2.983,2.983,0,0,1-.96-2.238V41.814L52.96,45.3a3.223,3.223,0,0,1-1.715.46,3.074,3.074,0,0,1-2.331-1.021,3.165,3.165,0,0,1-.96-2.206,2.7,2.7,0,0,1,.48-1.515,3.911,3.911,0,0,1,1.234-1.186L60.5,33.581a5.546,5.546,0,0,1,2.4-.461A3.186,3.186,0,0,1,65.13,34.075Z" transform="translate(-20.323 -15.699)"/></svg>