<svg xmlns="http://www.w3.org/2000/svg" width="81.101" height="77.89" viewBox="0 0 81.101 77.89"><defs><style>.a{fill:#fff;}.b{fill:#2545a5;}</style></defs><ellipse class="a" cx="40.551" cy="38.945" rx="40.551" ry="38.945" transform="translate(0 0)"/><path class="b" d="M70.348,51.922a13.439,13.439,0,0,1,4.9,5.1,14.732,14.732,0,0,1,1.783,7.244A15,15,0,0,1,74.77,72.5a14.825,14.825,0,0,1-6.24,5.466,20.827,20.827,0,0,1-9.12,1.909,19.528,19.528,0,0,1-5.314-.724,13.363,13.363,0,0,1-4.423-2.107,3,3,0,0,1-1.851-2.7,3.424,3.424,0,0,1,.926-2.305,2.87,2.87,0,0,1,2.228-1.054,4.319,4.319,0,0,1,2.469.857,10.224,10.224,0,0,0,7.063,2.5,10.69,10.69,0,0,0,4.971-1.186,9.236,9.236,0,0,0,3.669-3.392,9.468,9.468,0,0,0,1.371-5.1,8.124,8.124,0,0,0-2.743-6.585,9.9,9.9,0,0,0-6.583-2.306,15.644,15.644,0,0,0-3.154.462,9.9,9.9,0,0,1-2.263.395,2.567,2.567,0,0,1-1.989-.823,2.951,2.951,0,0,1-.754-2.075,2.672,2.672,0,0,1,.274-1.251,7.1,7.1,0,0,1,.891-1.251L65.857,38.917H50.017a3.04,3.04,0,0,1-2.194-.857,2.8,2.8,0,0,1-.891-2.107,2.6,2.6,0,0,1,.891-2.041,3.184,3.184,0,0,1,2.194-.791H71.89a3.274,3.274,0,0,1,2.469.922,3.1,3.1,0,0,1,.891,2.238,3.51,3.51,0,0,1-1.3,2.438L63.319,50.046a13.368,13.368,0,0,1,7.028,1.876Z" transform="translate(-20.554 -15.7)"/></svg>