<svg xmlns="http://www.w3.org/2000/svg" width="81.101" height="77.89" viewBox="0 0 81.101 77.89"><defs><style>.a{fill:#fff;}.b{fill:#2545a5;}</style></defs><ellipse class="a" cx="40.551" cy="38.945" rx="40.551" ry="38.945" transform="translate(0 0)"/><path class="b" d="M76.661,74.4a2.809,2.809,0,0,1,.891,2.107,2.6,2.6,0,0,1-.891,2.041,3.187,3.187,0,0,1-2.194.791H50.125a3.2,3.2,0,0,1-2.263-.823,2.854,2.854,0,0,1-.891-2.206,3.283,3.283,0,0,1,.96-2.24L63.222,58.136Q69.6,51.616,69.6,46.611a7.828,7.828,0,0,0-2.434-5.893,8.594,8.594,0,0,0-6.206-2.339,9.412,9.412,0,0,0-4.868,1.383,10.376,10.376,0,0,0-3.771,3.952A3.246,3.246,0,0,1,49.714,45.1a3.368,3.368,0,0,1-2.194-.857,2.519,2.519,0,0,1-1.028-1.975,2.793,2.793,0,0,1,.515-1.515,15.023,15.023,0,0,1,1.474-1.844,16.241,16.241,0,0,1,5.76-4.61A15.917,15.917,0,0,1,61.3,32.584a16.779,16.779,0,0,1,7.954,1.778,12.8,12.8,0,0,1,5.177,4.873,13.8,13.8,0,0,1,1.817,7.112q0,7.573-8.5,16.332L57.393,73.544H74.467a3.049,3.049,0,0,1,2.194.857Z" transform="translate(-20.652 -15.821)"/></svg>