<svg xmlns="http://www.w3.org/2000/svg" viewBox="0 0 356.998 86.484"><defs><style>.a{fill:#54bd95;}.b{fill:#7cc9ab;}.c{fill:#a8d9c7;}.d{fill:#fff;}.e{fill:#cde8de;}</style></defs><rect class="a" width="11.897" height="7.36" transform="translate(47.09 1.381)"/><path class="b" d="M625.962,1675.4l-7.337,75.521a5.58,5.58,0,0,0,2.973.843,5.275,5.275,0,0,0,5.162-3.712l8.719-31.536V1675.4Z" transform="translate(-602.268 -1666.655)"/><path class="c" d="M631.446,1675.4l-3.233,59.817-1.141,10.025-.777,2.81a2.268,2.268,0,1,1-4.373,0l-8.719-31.536V1675.4Z" transform="translate(-607.752 -1666.655)"/><path class="d" d="M628.894,1675.4H617.2v20.632l5.849,6.349,5.849-6.349Z" transform="translate(-603.714 -1666.655)"/><path class="e" d="M617.147,1685.615v20.091l5.948,20.091,5.949-20.091v-20.091Z" transform="translate(-603.763 -1656.316)"/><path d="M673.447,1678.412h-2.478v-5.981a1.437,1.437,0,0,0-1.487-1.38h-11.9a1.437,1.437,0,0,0-1.487,1.38v5.981H611.981a1.384,1.384,0,1,0,0,2.76h2.479v39.735a1.332,1.332,0,0,0,.046.344l8.719,31.534a6.963,6.963,0,0,0,13.2,0l8.719-31.534a1.322,1.322,0,0,0,.046-.344v-39.735h28.255a1.384,1.384,0,1,0,0-2.76Zm-14.376-4.6h8.922v4.6h-8.922Zm-16.854,46.924-8.671,31.365a3.925,3.925,0,0,1-7.441,0l-8.673-31.365v-39.562h24.785v39.563Z" transform="translate(-610.494 -1671.051)"/><path d="M616.453,1706.282,622.4,1727.8a1.518,1.518,0,0,0,2.881,0l5.949-21.515a1.246,1.246,0,0,0,.046-.342v-7.055a1.491,1.491,0,0,0-2.973,0v6.88l-4.462,16.136-4.46-16.136v-18.076H628.3v5.676a1.491,1.491,0,0,0,2.973,0v-7.056a1.436,1.436,0,0,0-1.487-1.38h-11.9a1.436,1.436,0,0,0-1.487,1.38v19.631A1.328,1.328,0,0,0,616.453,1706.282Z" transform="translate(-604.512 -1657.01)"/><g transform="translate(73.138)"><rect class="a" width="11.897" height="7.36" transform="translate(47.091 1.381)"/><path class="b" d="M662.318,1675.4l-7.337,75.521a5.588,5.588,0,0,0,2.975.843,5.271,5.271,0,0,0,5.16-3.712l8.719-31.536V1675.4Z" transform="translate(-638.623 -1666.655)"/><path class="c" d="M667.8,1675.4l-3.233,59.817-1.138,10.025-.777,2.81a2.269,2.269,0,1,1-4.375,0l-8.717-31.536V1675.4Z" transform="translate(-644.107 -1666.655)"/><path class="d" d="M665.251,1675.4h-11.7v20.632l5.849,6.349,5.849-6.349Z" transform="translate(-640.069 -1666.655)"/><path class="e" d="M653.5,1685.615v20.091l5.948,20.091,5.948-20.091v-20.091Z" transform="translate(-640.119 -1656.316)"/><path d="M709.8,1678.412h-2.478v-5.981a1.437,1.437,0,0,0-1.487-1.38h-11.9a1.437,1.437,0,0,0-1.487,1.38v5.981H648.337a1.384,1.384,0,1,0,0,2.76h2.478v39.735a1.253,1.253,0,0,0,.048.344l8.717,31.534a6.964,6.964,0,0,0,13.2,0l8.717-31.534a1.322,1.322,0,0,0,.046-.344v-39.735H709.8a1.384,1.384,0,1,0,0-2.76Zm-14.374-4.6h8.922v4.6h-8.922Zm-16.854,46.924L669.9,1752.1a3.926,3.926,0,0,1-7.443,0l-8.67-31.365v-39.562h24.785v39.563Z" transform="translate(-646.85 -1671.051)"/><path d="M652.81,1706.282l5.949,21.515a1.518,1.518,0,0,0,2.881,0l5.949-21.515a1.318,1.318,0,0,0,.046-.342v-7.055a1.491,1.491,0,0,0-2.973,0v6.88L660.2,1721.9l-4.462-16.136v-18.076h8.922v5.676a1.492,1.492,0,0,0,2.975,0v-7.056a1.436,1.436,0,0,0-1.487-1.38h-11.9a1.436,1.436,0,0,0-1.487,1.38v19.631A1.318,1.318,0,0,0,652.81,1706.282Z" transform="translate(-640.867 -1657.01)"/></g><g transform="translate(146.279)"><rect class="a" width="11.897" height="7.36" transform="translate(47.09 1.381)"/><path class="b" d="M698.675,1675.4l-7.337,75.521a5.58,5.58,0,0,0,2.973.843,5.275,5.275,0,0,0,5.162-3.712l8.719-31.536V1675.4Z" transform="translate(-674.981 -1666.655)"/><path class="c" d="M704.159,1675.4l-3.233,59.817-1.141,10.025-.777,2.81a2.268,2.268,0,1,1-4.374,0l-8.719-31.536V1675.4Z" transform="translate(-680.465 -1666.655)"/><path class="d" d="M701.607,1675.4h-11.7v20.632l5.849,6.349,5.849-6.349Z" transform="translate(-676.427 -1666.655)"/><path class="e" d="M689.86,1685.615v20.091l5.948,20.091,5.949-20.091v-20.091Z" transform="translate(-676.476 -1656.316)"/><path d="M746.16,1678.412h-2.479v-5.981a1.437,1.437,0,0,0-1.487-1.38H730.3a1.437,1.437,0,0,0-1.487,1.38v5.981H684.694a1.384,1.384,0,1,0,0,2.76h2.479v39.735a1.327,1.327,0,0,0,.046.344l8.719,31.534a6.963,6.963,0,0,0,13.2,0l8.719-31.534a1.33,1.33,0,0,0,.046-.344v-39.735H746.16a1.384,1.384,0,1,0,0-2.76Zm-14.376-4.6h8.922v4.6h-8.922Zm-16.852,46.924L706.26,1752.1a3.925,3.925,0,0,1-7.441,0l-8.673-31.365v-39.562h24.786v39.563Z" transform="translate(-683.207 -1671.051)"/><path d="M689.168,1706.282l5.947,21.515a1.518,1.518,0,0,0,2.881,0l5.949-21.515a1.242,1.242,0,0,0,.046-.342v-7.055a1.491,1.491,0,0,0-2.973,0v6.88l-4.462,16.136-4.46-16.136v-18.076h8.922v5.676a1.491,1.491,0,0,0,2.973,0v-7.056a1.436,1.436,0,0,0-1.487-1.38h-11.9a1.436,1.436,0,0,0-1.487,1.38v19.631A1.242,1.242,0,0,0,689.168,1706.282Z" transform="translate(-677.224 -1657.01)"/></g><g transform="translate(219.417)"><rect class="a" width="11.897" height="7.36" transform="translate(47.091 1.381)"/><path class="b" d="M735.03,1675.4l-7.335,75.521a5.575,5.575,0,0,0,2.973.843,5.271,5.271,0,0,0,5.16-3.712l8.719-31.536V1675.4Z" transform="translate(-711.336 -1666.655)"/><path class="c" d="M740.514,1675.4l-3.233,59.817-1.139,10.025-.777,2.81a2.269,2.269,0,1,1-4.376,0l-8.717-31.536V1675.4Z" transform="translate(-716.82 -1666.655)"/><path class="d" d="M737.964,1675.4h-11.7v20.632l5.849,6.349,5.849-6.349Z" transform="translate(-712.782 -1666.655)"/><path class="e" d="M726.216,1685.615v20.091l5.948,20.091,5.948-20.091v-20.091Z" transform="translate(-712.832 -1656.316)"/><path d="M782.516,1678.412h-2.478v-5.981a1.437,1.437,0,0,0-1.487-1.38h-11.9a1.437,1.437,0,0,0-1.487,1.38v5.981H721.05a1.384,1.384,0,1,0,0,2.76h2.478v39.735a1.253,1.253,0,0,0,.048.344l8.717,31.534a6.964,6.964,0,0,0,13.205,0l8.717-31.534a1.246,1.246,0,0,0,.046-.344v-39.735h28.255a1.384,1.384,0,1,0,0-2.76Zm-14.374-4.6h8.922v4.6h-8.922Zm-16.854,46.924-8.671,31.365a3.926,3.926,0,0,1-7.443,0l-8.671-31.365v-39.562h24.784v39.563Z" transform="translate(-719.563 -1671.051)"/><path d="M725.523,1706.282l5.949,21.515a1.518,1.518,0,0,0,2.881,0l5.949-21.515a1.328,1.328,0,0,0,.046-.342v-7.055a1.491,1.491,0,0,0-2.973,0v6.88l-4.462,16.136-4.462-16.136v-18.076h8.922v5.676a1.492,1.492,0,0,0,2.975,0v-7.056a1.436,1.436,0,0,0-1.487-1.38h-11.9a1.436,1.436,0,0,0-1.487,1.38v19.631A1.326,1.326,0,0,0,725.523,1706.282Z" transform="translate(-713.58 -1657.01)"/></g><g transform="translate(292.558)"><rect class="a" width="11.897" height="7.36" transform="translate(47.09 1.381)"/><path class="b" d="M771.388,1675.4l-7.337,75.521a5.58,5.58,0,0,0,2.973.843,5.275,5.275,0,0,0,5.162-3.712l8.719-31.536V1675.4Z" transform="translate(-747.694 -1666.655)"/><path class="c" d="M776.872,1675.4l-3.233,59.817-1.141,10.025-.776,2.81a2.268,2.268,0,1,1-4.374,0l-8.719-31.536V1675.4Z" transform="translate(-753.178 -1666.655)"/><path class="d" d="M774.32,1675.4h-11.7v20.632l5.849,6.349,5.849-6.349Z" transform="translate(-749.139 -1666.655)"/><path class="e" d="M762.573,1685.615v20.091l5.948,20.091,5.948-20.091v-20.091Z" transform="translate(-749.189 -1656.316)"/><path d="M818.873,1678.412h-2.478v-5.981a1.437,1.437,0,0,0-1.487-1.38h-11.9a1.437,1.437,0,0,0-1.487,1.38v5.981H757.407a1.384,1.384,0,1,0,0,2.76h2.479v39.735a1.322,1.322,0,0,0,.046.344l8.719,31.534a6.963,6.963,0,0,0,13.2,0l8.719-31.534a1.332,1.332,0,0,0,.046-.344v-39.735h28.255a1.384,1.384,0,1,0,0-2.76Zm-14.376-4.6h8.922v4.6H804.5Zm-16.852,46.924-8.673,31.365a3.925,3.925,0,0,1-7.441,0l-8.673-31.365v-39.562h24.787v39.563Z" transform="translate(-755.92 -1671.051)"/><path d="M761.881,1706.282l5.947,21.515a1.518,1.518,0,0,0,2.881,0l5.949-21.515a1.249,1.249,0,0,0,.046-.342v-7.055a1.491,1.491,0,0,0-2.973,0v6.88l-4.462,16.136-4.46-16.136v-18.076h8.922v5.676a1.491,1.491,0,0,0,2.973,0v-7.056a1.436,1.436,0,0,0-1.486-1.38h-11.9a1.436,1.436,0,0,0-1.487,1.38v19.631A1.242,1.242,0,0,0,761.881,1706.282Z" transform="translate(-749.937 -1657.01)"/></g></svg>