<svg xmlns="http://www.w3.org/2000/svg" viewBox="0 0 174.998 234.861"><defs><style>.a{fill:#05384a;}.b{fill:#084b63;}.c{fill:#409dbd;}.d{fill:#2088af;}.e{fill:#a4dce8;}.f{fill:#c8e9f4;}</style></defs><path class="a" d="M1003.539,1701.66v71.957H986.327l-17.212-81.952Z" transform="translate(-832.849 -1542.503)"/><path class="b" d="M951.873,1688.925l-17.212,20.488v71.957h149.171v-92.445Z" transform="translate(-930.354 -1550.256)"/><g transform="translate(74.037 183.642)"><ellipse class="c" cx="12.115" cy="11.243" rx="12.115" ry="11.243" transform="translate(46.038)"/><ellipse class="c" cx="12.115" cy="11.243" rx="12.115" ry="11.243" transform="translate(0 0.499)"/></g><path class="d" d="M1020.5,1653.7v155.407h-17.212l-40.161-82.951,40.161-72.457Z" transform="translate(-849.807 -1649.95)"/><path class="c" d="M1083.832,1653.7H934.661v155.407h149.171v-40.476l-11.474-42.474,11.474-42.476Z" transform="translate(-930.354 -1649.95)"/><path class="e" d="M980.266,1658.918H964.115v114.931h16.151c8.886,0,16.155-6.749,16.155-14.99v-84.951C996.421,1665.662,989.152,1658.918,980.266,1658.918Z" transform="translate(-847 -1635.179)"/><path class="f" d="M1031.753,1658.918H956.366c-8.882,0-16.151,6.744-16.151,14.99v84.951c0,8.242,7.269,14.99,16.151,14.99h75.387c8.882,0,16.151-6.749,16.151-14.99v-84.951C1047.9,1665.662,1040.635,1658.918,1031.753,1658.918Z" transform="translate(-914.638 -1635.179)"/><path d="M1104.494,1652.719H937.574a3.9,3.9,0,0,0-4.037,3.75v227.362a3.9,3.9,0,0,0,4.037,3.75h166.921a3.9,3.9,0,0,0,4.041-3.75V1656.469A3.9,3.9,0,0,0,1104.494,1652.719Zm-162.88,227.366v-64.96h130.573a3.758,3.758,0,1,0,0-7.5H941.615V1660.215h158.843V1807.63h-12.115a3.758,3.758,0,1,0,0,7.5h12.115v64.96Z" transform="translate(-933.537 -1652.719)"/><path d="M979.918,1699.689c-8.909,0-16.155,6.726-16.155,14.991s7.246,14.994,16.155,14.994,16.151-6.725,16.151-14.994S988.823,1699.689,979.918,1699.689Zm0,22.487c-4.454,0-8.077-3.359-8.077-7.5s3.623-7.5,8.077-7.5,8.078,3.363,8.078,7.5S984.372,1722.176,979.918,1722.176Z" transform="translate(-847.996 -1519.796)"/><path d="M967.968,1699.689c-8.908,0-16.155,6.726-16.155,14.991s7.247,14.994,16.155,14.994,16.155-6.725,16.155-14.994S976.877,1699.689,967.968,1699.689Zm0,22.487c-4.455,0-8.078-3.359-8.078-7.5s3.623-7.5,8.078-7.5,8.078,3.363,8.078,7.5S972.423,1722.176,967.968,1722.176Z" transform="translate(-881.815 -1519.796)"/><path d="M966.143,1702.625H944.607a3.758,3.758,0,1,0,0,7.5h21.536a3.758,3.758,0,1,0,0-7.5Z" transform="translate(-913.645 -1511.487)"/><path d="M1071.082,1761.63v-84.95c0-10.333-9.058-18.741-20.192-18.741H959.352c-11.134,0-20.192,8.407-20.192,18.741v84.95c0,10.329,9.058,18.736,20.192,18.736h91.538C1062.024,1780.366,1071.082,1771.959,1071.082,1761.63Zm-8.078,0c0,6.2-5.431,11.241-12.114,11.241H959.352c-6.68,0-12.114-5.044-12.114-11.241v-84.95c0-6.2,5.435-11.246,12.114-11.246h91.538c6.684,0,12.114,5.045,12.114,11.246Z" transform="translate(-917.624 -1637.95)"/></svg>