<svg xmlns="http://www.w3.org/2000/svg" viewBox="0 0 180.13 215.255"><defs><style>.a{fill:#2aa076;}.b{fill:#54bd95;}.c{fill:#82c7d9;}.d{fill:#a4dce8;}.e{fill:#fff;}.f{fill:#05384a;}</style></defs><path class="a" d="M494.031,1705.258v48.088H480.744l-31-57.248Z" transform="translate(-317.603 -1541.528)"/><path class="b" d="M425.066,1696.1v6.412l-13.287,2.748v48.088h159.44V1696.1Z" transform="translate(-408.078 -1541.528)"/><path class="c" d="M506.51,1651.427v160.3H493.223l-48.718-80.147,48.718-80.148Z" transform="translate(-330.082 -1647.992)"/><rect class="d" width="159.442" height="160.296" transform="translate(3.701 3.435)"/><path class="e" d="M484.411,1780.89c-36.874,0-66.87-27.841-66.87-62.059s30-62.059,66.87-62.059,66.87,27.84,66.87,62.059S521.281,1780.89,484.411,1780.89Z" transform="translate(-394.346 -1635.25)"/><g transform="translate(23.441 177.47)"><ellipse class="f" cx="11.104" cy="10.305" rx="11.104" ry="10.305" transform="translate(111.039)"/><ellipse class="f" cx="11.104" cy="10.305" rx="11.104" ry="10.305"/></g><g transform="translate(48.141 40.074)"><ellipse class="b" cx="9.87" cy="9.16" rx="9.87" ry="9.16" transform="translate(32.053)"/><ellipse class="b" cx="9.87" cy="9.16" rx="9.87" ry="9.16" transform="translate(0 17.175)"/><ellipse class="b" cx="9.87" cy="9.16" rx="9.87" ry="9.16" transform="translate(0 51.524)"/><ellipse class="b" cx="9.87" cy="9.16" rx="9.87" ry="9.16" transform="translate(32.053 68.698)"/><ellipse class="b" cx="9.87" cy="9.16" rx="9.87" ry="9.16" transform="translate(64.106 51.524)"/><ellipse class="b" cx="9.87" cy="9.16" rx="9.87" ry="9.16" transform="translate(64.106 17.175)"/></g><path d="M587.114,1865.666H414.386a3.577,3.577,0,0,1-3.7-3.434V1653.845a3.575,3.575,0,0,1,3.7-3.434H587.114a3.575,3.575,0,0,1,3.7,3.434v208.387A3.577,3.577,0,0,1,587.114,1865.666Zm-169.026-6.872H583.412V1657.282H418.087Z" transform="translate(-410.685 -1650.411)"/><path d="M486.844,1786.351c-38.779,0-70.324-29.274-70.324-65.263s31.545-65.262,70.324-65.262,70.324,29.274,70.324,65.262S525.619,1786.351,486.844,1786.351Zm0-123.657c-34.695,0-62.921,26.2-62.921,58.394s28.226,58.395,62.921,58.395,62.921-26.2,62.921-58.395S521.539,1662.694,486.844,1662.694Z" transform="translate(-396.779 -1637.506)"/><path d="M464.145,1729.333c-8.164,0-14.805-6.165-14.805-13.74s6.641-13.743,14.805-13.743,14.805,6.165,14.805,13.743S472.309,1729.333,464.145,1729.333Zm0-20.611a6.889,6.889,0,1,0,7.4,6.871A7.158,7.158,0,0,0,464.145,1708.723Z" transform="translate(-318.561 -1527.818)"/><path d="M431.325,1729.333c-8.164,0-14.8-6.165-14.8-13.74s6.641-13.743,14.8-13.743,14.805,6.165,14.805,13.743S439.489,1729.333,431.325,1729.333Zm0-20.611a6.889,6.889,0,1,0,7.4,6.871A7.158,7.158,0,0,0,431.325,1708.723Z" transform="translate(-396.779 -1527.818)"/><path d="M475.869,1704.659h-14.8a3.444,3.444,0,1,1,0-6.868h14.8a3.444,3.444,0,1,1,0,6.868Z" transform="translate(-299.441 -1537.494)"/><path d="M557.5,1704.659H414.386a3.444,3.444,0,1,1,0-6.868H557.5a3.444,3.444,0,1,1,0,6.868Z" transform="translate(-410.685 -1537.494)"/><path d="M481.97,1711.769H432.619a3.445,3.445,0,1,1,0-6.871H481.97a3.445,3.445,0,1,1,0,6.871Z" transform="translate(-367.232 -1520.559)"/><path d="M446.868,1686.429c-7.484,0-13.574-5.65-13.574-12.6s6.09-12.592,13.574-12.592,13.57,5.65,13.57,12.592S454.351,1686.429,446.868,1686.429Zm0-18.32a5.74,5.74,0,1,0,6.168,5.724A5.966,5.966,0,0,0,446.868,1668.109Z" transform="translate(-356.803 -1624.6)"/><path d="M437.374,1691.515a14.312,14.312,0,0,1-6.763-1.692,12.683,12.683,0,0,1-6.323-7.65,11.733,11.733,0,0,1,1.353-9.558,13.4,13.4,0,0,1,8.242-5.866,14.413,14.413,0,0,1,10.3,1.259,12.675,12.675,0,0,1,6.323,7.646,11.729,11.729,0,0,1-1.357,9.558,13.38,13.38,0,0,1-8.238,5.867A14.683,14.683,0,0,1,437.374,1691.515Zm.03-18.327a6.627,6.627,0,0,0-1.6.2,6.089,6.089,0,0,0-3.749,2.669,5.337,5.337,0,0,0-.616,4.344,5.766,5.766,0,0,0,2.876,3.475,6.538,6.538,0,0,0,4.679.571,6.08,6.08,0,0,0,3.745-2.666,5.327,5.327,0,0,0,.619-4.343,5.76,5.76,0,0,0-2.876-3.478h0A6.516,6.516,0,0,0,437.4,1673.188Z" transform="translate(-379.386 -1612.506)"/><path d="M437.418,1701.669a14.633,14.633,0,0,1-3.536-.437,13.4,13.4,0,0,1-8.242-5.867,11.731,11.731,0,0,1-1.353-9.558,12.667,12.667,0,0,1,6.323-7.646,14.375,14.375,0,0,1,10.3-1.258,13.4,13.4,0,0,1,8.242,5.867,11.743,11.743,0,0,1,1.353,9.558,12.668,12.668,0,0,1-6.323,7.646A14.309,14.309,0,0,1,437.418,1701.669Zm-.034-18.331a6.477,6.477,0,0,0-3.072.771h0a5.768,5.768,0,0,0-2.876,3.474,5.336,5.336,0,0,0,.616,4.344,6.088,6.088,0,0,0,3.749,2.669,6.541,6.541,0,0,0,4.679-.571,5.777,5.777,0,0,0,2.876-3.479,5.328,5.328,0,0,0-.619-4.344,6.082,6.082,0,0,0-3.745-2.666A6.664,6.664,0,0,0,437.384,1683.339Z" transform="translate(-379.386 -1588.311)"/><path d="M446.868,1706.734c-7.484,0-13.574-5.649-13.574-12.592s6.09-12.6,13.574-12.6,13.57,5.65,13.57,12.6S454.351,1706.734,446.868,1706.734Zm0-18.317a5.741,5.741,0,1,0,6.168,5.725A5.967,5.967,0,0,0,446.868,1688.417Z" transform="translate(-356.803 -1576.209)"/><path d="M456.324,1701.669a14.322,14.322,0,0,1-6.767-1.7,12.691,12.691,0,0,1-6.323-7.646,11.732,11.732,0,0,1,1.357-9.558,13.4,13.4,0,0,1,8.241-5.867,14.377,14.377,0,0,1,10.3,1.258,12.688,12.688,0,0,1,6.323,7.646,11.732,11.732,0,0,1-1.357,9.558,13.4,13.4,0,0,1-8.242,5.867A14.584,14.584,0,0,1,456.324,1701.669Zm.03-18.331a6.685,6.685,0,0,0-1.607.2A6.1,6.1,0,0,0,451,1686.2a5.341,5.341,0,0,0-.616,4.344,5.771,5.771,0,0,0,2.872,3.479h0a6.536,6.536,0,0,0,4.679.571,6.09,6.09,0,0,0,3.745-2.666,5.326,5.326,0,0,0,.616-4.344,5.758,5.758,0,0,0-2.872-3.478A6.53,6.53,0,0,0,456.355,1683.339Z" transform="translate(-334.227 -1588.311)"/><path d="M456.367,1691.516a14.662,14.662,0,0,1-3.536-.437,13.4,13.4,0,0,1-8.241-5.867,11.715,11.715,0,0,1-1.353-9.558,12.675,12.675,0,0,1,6.323-7.646,14.389,14.389,0,0,1,10.3-1.259,13.4,13.4,0,0,1,8.242,5.867,11.735,11.735,0,0,1,1.357,9.558,12.693,12.693,0,0,1-6.323,7.649A14.31,14.31,0,0,1,456.367,1691.516Zm-.034-18.327a6.509,6.509,0,0,0-3.072.768,5.762,5.762,0,0,0-2.876,3.478,5.328,5.328,0,0,0,.616,4.344,6.1,6.1,0,0,0,3.745,2.666,6.549,6.549,0,0,0,4.682-.571h0a5.763,5.763,0,0,0,2.872-3.475,5.333,5.333,0,0,0-.616-4.347,6.091,6.091,0,0,0-3.745-2.666A6.611,6.611,0,0,0,456.334,1673.189Z" transform="translate(-334.226 -1612.507)"/></svg>