<svg xmlns="http://www.w3.org/2000/svg" viewBox="0 0 175.338 215.433"><defs><style>.a{fill:#82c7d9;}.b{fill:#a4dce8;}.c{fill:#176a8a;}.d{fill:#2088af;}</style></defs><path class="a" d="M209.723,1651.417l-19.759,208.554h19.759c10.863,0,19.756-8.25,19.756-18.334V1651.417Z" transform="translate(-57.845 -1647.978)"/><path class="b" d="M300.2,1651.417H152.029l14.817,32.084v158.135c0,10.084,8.893,18.334,19.756,18.334h93.844c10.866,0,19.756-8.25,19.756-18.334l-9.875-49.18,9.878-49.183v-91.856Z" transform="translate(-148.326 -1647.978)"/><path class="c" d="M201.405,1685.158,187.736,1726.2l13.669,45.229,13.595.034.037-.034v-90.5A22.355,22.355,0,0,0,201.405,1685.158Z" transform="translate(-63.159 -1577.577)"/><path class="d" d="M247.441,1690.1c-14.2,0-14.2-9.167-28.4-9.167s-14.2,9.167-28.4,9.167-14.2-9.167-28.4-9.167v90.5l.037.034h99.93V1685.15C258.46,1687.558,254.919,1690.1,247.441,1690.1Z" transform="translate(-123.964 -1577.577)"/><path d="M322.57,1650.4H154.638a3.782,3.782,0,0,0-3.091,1.547,3.22,3.22,0,0,0-.311,3.246l14.516,31.438V1844.06c0,12.007,10.525,21.773,23.463,21.773h113.6c12.935,0,23.459-9.767,23.459-21.773V1653.841A3.58,3.58,0,0,0,322.57,1650.4Zm-3.707,193.659c0,8.216-7.2,14.9-16.049,14.9h-113.6c-8.852,0-16.052-6.682-16.052-14.9V1685.925a3.259,3.259,0,0,0-.3-1.354l-12.6-27.295H318.863Z" transform="translate(-150.935 -1650.401)"/><path d="M162.533,1776.468a3.882,3.882,0,0,0,2.356.785H278.417a3.871,3.871,0,0,0,2.383-.806,3.633,3.633,0,0,0,.511-.48,3.276,3.276,0,0,0,.846-2.184v-38.371a3.715,3.715,0,0,0-7.41,0v34.966H168.558V1687c3.548.573,5.751,2,8.378,3.693,3.774,2.438,8.053,5.2,16.317,5.2s12.539-2.762,16.313-5.2c3.436-2.217,6.147-3.971,12.085-3.971s8.649,1.754,12.085,3.971c3.774,2.438,8.053,5.2,16.316,5.2s12.539-2.762,16.313-5.2c2.627-1.7,4.834-3.121,8.382-3.7v34.661a3.715,3.715,0,0,0,7.41,0v-38.371a3.577,3.577,0,0,0-3.707-3.436c-8.26,0-12.539,2.759-16.317,5.2-3.433,2.214-6.144,3.968-12.082,3.968s-8.652-1.75-12.085-3.968c-3.774-2.437-8.053-5.2-16.317-5.2s-12.542,2.759-16.317,5.2c-3.433,2.214-6.144,3.968-12.082,3.968s-8.652-1.75-12.085-3.968c-3.774-2.437-8.053-5.2-16.313-5.2a3.578,3.578,0,0,0-3.707,3.436v90.492a3.3,3.3,0,0,0,.873,2.218A4,4,0,0,0,162.533,1776.468Z" transform="translate(-126.576 -1580.155)"/></svg>