<svg xmlns="http://www.w3.org/2000/svg" viewBox="0 0 215.255 215.255"><defs><style>.a{fill:#976eca;}.b{fill:#8665c6;}.c{fill:#fdd4bb;}.d{fill:#f7c4a8;}.e{fill:#ebbaa1;}.f{fill:#e8a990;}.g{fill:#e5907b;}.h{fill:#d58475;}.i{fill:#b3e59f;}.j{fill:#95d6a4;}.k{fill:#adf0ff;}.l{fill:#8deaf5;}</style></defs><g transform="translate(3.363 3.363)"><path class="a" d="M165.527,8h69.756V59.9H165.527Z" transform="translate(-99.299 -8)"/><path class="b" d="M165.527,113.444h69.756v7.568H165.527Z" transform="translate(-99.299 -69.113)"/><path class="c" d="M157.19,131.444s8.9,12.156,8.9,24.313-9.363,28.521-30.43,28.521h-72.1S67.3,194.564,65.9,203.915s-7.022,20.572-7.022,20.572H30.786V166.058a20.325,20.325,0,0,1,16.577-19.966l77.853-14.648Z" transform="translate(-21.206 -79.546)"/><g transform="translate(9.58 72.374)"><path class="d" d="M30.786,334.753v7.568h28.09s1.593-3.181,3.294-7.568Z" transform="translate(-30.786 -269.754)"/><path class="d" d="M178.072,204.937H106.079a2.1,2.1,0,0,0-1.934,2.925c.539,1.258,1.186,2.853,1.832,4.643h72.1c21.067,0,30.43-16.364,30.43-28.521a27.688,27.688,0,0,0-.282-3.837c-1.7,11.518-11.176,24.79-30.149,24.79Z" transform="translate(-73.204 -180.147)"/></g><path class="e" d="M162.253,8V45.734A14.174,14.174,0,0,1,148.07,59.9L70.217,74.546A36.11,36.11,0,0,1,98.046,47.027l36.585-7.7V8Z" transform="translate(-44.06 -8)"/><path class="f" d="M148.07,93.917,73.063,108.03a36.044,36.044,0,0,0-2.846,8.1l77.853-14.648a14.174,14.174,0,0,0,14.183-14.165V79.753A14.175,14.175,0,0,1,148.07,93.917Z" transform="translate(-44.06 -49.587)"/><path class="g" d="M56.437,416.34H8V359.059a6.306,6.306,0,0,1,6.306-6.306H50.131a6.306,6.306,0,0,1,6.306,6.306Z" transform="translate(-8 -207.812)"/><path class="h" d="M8,486H56.437v7.568H8Z" transform="translate(-8 -285.039)"/><path class="i" d="M431.052,8H395.323a6.306,6.306,0,0,0-6.306,6.306V26.225h48.341V14.306A6.306,6.306,0,0,0,431.052,8Z" transform="translate(-228.83 -8)"/><path class="j" d="M389.017,33.35h48.341v7.568H389.017Z" transform="translate(-228.83 -22.692)"/><path class="k" d="M246.191,51.35v86.508H148.9a6.31,6.31,0,0,0-6.143,7.767c3.5,14.776,15.643,46.212,56.183,54.65l-11.609,41.377h107.2V51.35Z" transform="translate(-86.004 -33.125)"/><g transform="translate(101.33 200.961)"><path class="l" d="M249.022,493.568h107.2V486H251.145Z" transform="translate(-249.022 -486)"/></g><g transform="translate(56.592 104.733)"><path class="l" d="M246.2,262.581v-5.465H148.916a6.3,6.3,0,0,0-6.178,7.568H244.1A2.1,2.1,0,0,0,246.2,262.581Z" transform="translate(-142.608 -257.116)"/></g></g><path d="M205.775,0h-35.8A9.491,9.491,0,0,0,160.5,9.48v95.455H138.461a31.266,31.266,0,0,0,4.9-4.462,32.54,32.54,0,0,0,8.125-20.953c0-11.274-6.8-22.22-8.912-25.35V35.913a3.162,3.162,0,0,0-6.325,0V52H120.772a17.261,17.261,0,0,0,3.973-11.03V6.324h11.5V23.276a3.162,3.162,0,1,0,6.325,0V3.162A3.162,3.162,0,0,0,139.408,0H69.518a3.162,3.162,0,0,0-3.162,3.162V37.117L56.6,39.171A39.423,39.423,0,0,0,26.775,67.2,23.542,23.542,0,0,0,9.6,89.842v55.379H9.481A9.491,9.491,0,0,0,0,154.7v57.391a3.162,3.162,0,0,0,3.162,3.162H51.693a3.162,3.162,0,0,0,3.162-3.162V190.157a3.162,3.162,0,1,0-6.325,0V208.93H6.324V154.7a3.16,3.16,0,0,1,3.157-3.156H45.375a3.159,3.159,0,0,1,3.156,3.156V177.52a3.162,3.162,0,0,0,6.325,0V154.7a9.492,9.492,0,0,0-9.038-9.47,75.283,75.283,0,0,0,5.25-16.991c.945-6.291-.209-12.848-1.245-16.982h7.411a9.442,9.442,0,0,0-.283,5.351,79.977,79.977,0,0,0,14.83,31c10.07,12.689,23.715,21.216,40.595,25.377l-10.733,38.256a3.162,3.162,0,0,0,3.045,4.017h107.4a3.162,3.162,0,0,0,3.162-3.162V88.323a3.162,3.162,0,0,0-6.325,0V208.931H108.86l10.5-37.44a3.163,3.163,0,0,0-2.4-3.95c-16.92-3.522-30.455-11.552-40.228-23.867a73.6,73.6,0,0,1-13.63-28.523,3.159,3.159,0,0,1,3.078-3.89h97.475a3.162,3.162,0,0,0,3.162-3.162V24.585h42.11v51.1a3.162,3.162,0,1,0,6.325,0V9.48A9.492,9.492,0,0,0,205.775,0ZM72.68,6.324H90.746V31.982l-18.067,3.8ZM57.9,45.359l12.263-2.581h0L94.56,37.643a3.162,3.162,0,0,0,2.511-3.094V6.324h21.35V40.968A11.052,11.052,0,0,1,107.372,52c-.1,0-.205.005-.307.016-.044,0-.087.012-.131.019s-.1.011-.147.021l-.052.01h0l-72.84,13.7A33.107,33.107,0,0,1,57.9,45.359ZM45.6,104.934a3.163,3.163,0,0,0-2.972,4.244c.035.1,3.463,9.648,2.19,18.123-1,6.651-4.341,14.494-5.911,17.92H15.923V89.842a17.212,17.212,0,0,1,14.032-16.9l77.713-14.622h30.061c2.134,3.3,7.43,12.392,7.43,21.2,0,9.826-7.419,25.414-27.327,25.414H45.6ZM166.821,18.261V9.48a3.16,3.16,0,0,1,3.157-3.156h35.8A3.16,3.16,0,0,1,208.93,9.48v8.78h-42.11Z"/></svg>