<svg xmlns="http://www.w3.org/2000/svg" width="97.914" height="95.138" viewBox="0 0 97.914 95.138">
  <g id="Group_333" data-name="Group 333" transform="translate(-59.073 -65.173)">
    <path id="Path_521" data-name="Path 521" d="M59.073,162.674a32.919,32.919,0,0,1,1.556-5.06c2.092-4.343,5.143-7.638,9.873-9.114a5.56,5.56,0,0,1,1.672-.356c.987.013,1.1-.437,1.036-1.29a16.306,16.306,0,0,1,.531-7.086,11.374,11.374,0,0,1,10.418-7.523c.8-.018,1.928.27,2.3-.135.4-.436-.334-1.415-.5-2.179a21.956,21.956,0,0,1,.033-7.142c.6-5.657,3.415-10.184,7.642-13.885a25.43,25.43,0,0,1,5.5-3.6,1.788,1.788,0,0,1,2.77,1.4c1.4,7.361,5.87,11.846,13.064,13.544a24.17,24.17,0,0,0,5.528.119,10.048,10.048,0,0,1,4.777,1.143,9.123,9.123,0,0,1,4.96,9.857c-.154.9.157.892.818.879A11.241,11.241,0,0,1,141.553,138c1.483,2.459,1.642,5.178,1.433,7.955-.144,1.922-.134,1.9,1.656,2.311,5.051,1.147,8.387,4.406,10.607,8.885a17.19,17.19,0,0,1-6.725,22.3,13.451,13.451,0,0,1-6.947,1.779q-25.782-.011-51.565,0c-1.367,0-1.233-.185-1.205,1.224.038,1.949-.133,3.805-1.5,5.377a6.17,6.17,0,0,1-6.419,1.831,5.947,5.947,0,0,1-4.234-5.135,18.146,18.146,0,0,1-.091-2.48c.034-.7-.218-.859-.869-.832a14,14,0,0,1-6.64-1.041c-5.587-2.608-8.6-7.161-9.78-13.074-.041-.207.045-.46-.207-.594Z" transform="translate(0 -29.61)" fill="#54596e"/>
    <path id="Path_522" data-name="Path 522" d="M308.272,71.833a2.133,2.133,0,0,1,.992-1.75c.606-.5.681-.9.023-1.4a3.463,3.463,0,0,1-.708-.771,1.737,1.737,0,0,1,.149-2.19,1.661,1.661,0,0,1,2.171-.249c1.415.85,1.633.849,3.086-.01a1.658,1.658,0,0,1,2.172.256,1.512,1.512,0,0,1,.118,2.156c-1.291,1.091-1.229,1.912,0,3a1.577,1.577,0,0,1-.18,2.235,1.723,1.723,0,0,1-2.273.076c-.5-.385-.956-1.166-1.417-1.154-.48.013-.919.791-1.414,1.186a1.693,1.693,0,0,1-2.723-1.381Z" transform="translate(-185.136)" fill="#f3a04e"/>
    <path id="Path_523" data-name="Path 523" d="M384.688,133.365a1.935,1.935,0,0,1,1.5.7c.968.933.971.927,1.92.036a2.261,2.261,0,0,1,1.112-.7,1.673,1.673,0,0,1,1.892.778,1.655,1.655,0,0,1-.129,1.96c-.366.514-1.2.849-1.167,1.4.03.47.763.874,1.131,1.349a1.7,1.7,0,0,1-.086,2.339,1.789,1.789,0,0,1-2.353.078c-.486-.353-.792-1.124-1.347-1.12s-.864.77-1.348,1.126a1.738,1.738,0,0,1-2.341-.109,1.637,1.637,0,0,1-.125-2.258c.375-.508,1.161-.953,1.162-1.428s-.78-.922-1.164-1.422a1.545,1.545,0,0,1-.193-1.789A1.6,1.6,0,0,1,384.688,133.365Z" transform="translate(-240.628 -50.658)" fill="#f3a04e"/>
    <path id="Path_524" data-name="Path 524" d="M70.067,126.092a1.836,1.836,0,0,1,.857-1.55c.838-.64.731-1.155-.034-1.743a1.923,1.923,0,0,1-.784-1.163,1.658,1.658,0,0,1,.7-1.837,1.411,1.411,0,0,1,1.928.06c1.065,1.254,1.9,1.225,3,.008a1.511,1.511,0,0,1,2.276.248,1.741,1.741,0,0,1-.023,2.269c-.361.473-1.16.778-1.087,1.347.059.465.725.836,1.075,1.284a1.72,1.72,0,0,1-.084,2.406,1.793,1.793,0,0,1-2.426-.035c-.436-.36-.762-1.121-1.254-1.06-.459.057-.836.717-1.265,1.093A1.685,1.685,0,0,1,71,127.7,1.6,1.6,0,0,1,70.067,126.092Z" transform="translate(-8.165 -40.325)" fill="#f3a04e"/>
    <path id="Path_525" data-name="Path 525" d="M124.66,291.759q-13.437,0-26.875,0c-1.819,0-2.387.57-2.391,2.386,0,1.211.02,2.423-.007,3.634a2.592,2.592,0,1,1-5.183-.013c-.017-1.275.016-2.551-.01-3.826-.032-1.583-.649-2.169-2.23-2.182a26.683,26.683,0,0,1-5.713-.259,11.758,11.758,0,0,1-7.592-5.954,13.224,13.224,0,0,1-2-6.987,14.048,14.048,0,0,1,3.218-8.705,11,11,0,0,1,6.333-4.164,18.946,18.946,0,0,1,2.938-.272c1.284-.073,1.882-.634,1.8-1.929-.086-1.4-.181-2.793-.21-4.194-.013-.624.168-.843.8-.821,1.21.042,2.423.039,3.633,0,.587-.018.739.189.775.762a12.22,12.22,0,0,0,24.294,1.021,4.746,4.746,0,0,0,.141-.939c-.052-.685.236-.86.887-.853.624.007.854.135.911.83a12.217,12.217,0,0,0,24.28.995c.219-1.8.219-1.8,2.05-1.8,1.371,0,2.744.047,4.112-.018.792-.037.953.258.937.984-.028,1.338-.146,2.669-.219,4s.52,1.918,1.868,1.958A12.838,12.838,0,0,1,163.559,277.2c.6,5.762-3.257,11.891-7.653,13.723a11.277,11.277,0,0,1-4.371.831Q138.1,291.78,124.66,291.759Z" transform="translate(-10.096 -143.609)" fill="#beac87"/>
    <path id="Path_526" data-name="Path 526" d="M214.1,142.856a5.988,5.988,0,0,1-.961,3.438c-.323.56-.65.18-.963.061A12.128,12.128,0,0,0,200.77,147.5a11.635,11.635,0,0,0-4.647,5.789c-.274.721-.606,1.054-1.372.954a4.676,4.676,0,0,0-1.051,0c-.507.05-.721-.194-.9-.643a12.07,12.07,0,0,0-12.312-8.128,5.1,5.1,0,0,0-.76.064c-1.65.295-1.641.293-2.4-1.162a8.814,8.814,0,0,1-.831-4.622,21.983,21.983,0,0,1,.954-6.863,20.291,20.291,0,0,1,8.073-9.9c.516-.343.674-.173.834.355a18.412,18.412,0,0,0,6.016,9.118c3.37,2.753,7.134,4.63,11.644,4.6a27.511,27.511,0,0,1,4.96.134A5.867,5.867,0,0,1,214.1,142.856Z" transform="translate(-87.232 -42.826)" fill="#beac87"/>
    <path id="Path_527" data-name="Path 527" d="M330.64,224.381c2.521-.05,4.777-.114,6.821,1.143a8.014,8.014,0,0,1,3.17,3.581c.181.4.139.583-.349.58-1.975-.011-3.95-.006-5.925,0a.622.622,0,0,1-.664-.43A13.012,13.012,0,0,0,330.64,224.381Z" transform="translate(-201.764 -118.269)" fill="#beac87"/>
    <path id="Path_528" data-name="Path 528" d="M137.712,224.521a12.766,12.766,0,0,0-2.976,4.772.673.673,0,0,1-.719.494c-1.369-.008-2.737-.019-4.106,0-.68.012-.533-.3-.351-.7A8.083,8.083,0,0,1,137.712,224.521Z" transform="translate(-52.256 -118.373)" fill="#beac87"/>
    <path id="Path_529" data-name="Path 529" d="M219.267,312.921c2.741,0,5.482-.005,8.222,0a1.983,1.983,0,0,1,2.233,2.478,10.494,10.494,0,0,1-20.842.86c-.029-.22-.094-.435-.127-.655-.266-1.757.519-2.681,2.291-2.684Q215.156,312.915,219.267,312.921Z" transform="translate(-111.169 -184.066)" fill="#54596e"/>
    <path id="Path_530" data-name="Path 530" d="M239.661,333.407a5.03,5.03,0,0,1,2.816.807c.763.589.781,1.18.061,1.8a5.554,5.554,0,0,1-5.911-.006c-.717-.627-.695-1.215.077-1.8A5.131,5.131,0,0,1,239.661,333.407Z" transform="translate(-131.529 -199.287)" fill="#fe917c"/>
  </g>
</svg>
