<svg width="181" height="58" viewBox="0 0 181 58" fill="none" xmlns="http://www.w3.org/2000/svg">
<path d="M33.1313 56.9604C32.1944 56.9604 31.2715 56.9604 30.3346 56.9604C29.5236 56.2797 29.2859 55.2586 28.8245 54.3793C28.6846 54.124 28.5588 53.8404 28.5588 53.5C28.2511 54.4644 27.8177 55.3578 27.3283 56.2229C27.1605 56.5066 27.0066 56.8044 26.699 56.9604C25.7621 56.9604 24.8392 56.9604 23.9024 56.9604C23.8604 56.9037 23.8464 56.8469 23.8604 56.776C24.0003 56.4924 24.238 56.2655 24.2799 55.9109C24.3638 55.2302 24.224 55.1026 23.5528 55.2586C23.343 55.2869 23.1333 55.2869 22.9235 55.2444C22.0007 54.6629 21.9168 53.6985 22.6998 52.7909C22.7418 52.7342 22.7837 52.6633 22.7138 52.5924C22.6019 52.5073 22.4621 52.4505 22.4341 52.2804C22.4481 52.096 22.574 52.0109 22.6998 51.9116C22.7977 51.8407 22.9096 51.784 23.0354 51.7698C23.2591 51.7698 23.4409 51.6705 23.6227 51.5429C24.6994 51.1458 25.5524 50.3516 26.5732 49.8552C27.9155 50.0254 29.2439 49.8269 30.5724 49.8411C30.9499 49.9262 31.2156 50.1814 31.5232 50.3942C32.3762 50.9756 33.2851 51.4862 34.2499 51.8549C34.4177 51.9542 34.6415 51.9967 34.6974 52.2378C34.5995 52.5782 34.2639 52.5214 34.0402 52.6633C33.9843 52.9044 34.222 52.8193 34.3059 52.9044C35.047 53.6844 35.005 54.5636 34.194 55.216C33.9563 55.3011 33.7046 55.3011 33.4529 55.2727C32.7817 55.216 32.558 55.5138 32.7957 56.1804C32.8796 56.4073 33.0614 56.5491 33.1592 56.776C33.1872 56.8469 33.1732 56.9037 33.1313 56.9604Z" fill="#17AC4C"/>
<path d="M22.8429 52.5919C22.8862 52.6479 22.9295 52.7179 22.9583 52.7739C22.6119 52.816 22.3088 52.914 22.1212 53.236C21.6016 54.1322 20.7933 54.7482 19.9273 55.2803C19.5232 55.5184 19.35 55.7144 19.7974 56.0924C20.0572 56.3025 20.2304 56.6105 19.9562 56.9466C19.7686 56.9466 19.5665 56.9466 19.3789 56.9466C19.1191 56.6385 18.8737 56.3305 18.3974 56.3585C18.2098 56.3725 17.9788 56.3865 17.9067 56.1765C17.8201 55.9104 18.0221 55.7424 18.2098 55.6024C18.7582 55.1963 19.3644 54.8743 19.8119 54.6222C18.7871 55.0703 17.4881 55.4483 17.2283 56.9466C17.084 56.9466 16.9396 56.9466 16.7953 56.9466C16.6654 56.8346 16.651 56.6805 16.6221 56.4985C16.4489 56.6805 16.3623 56.8346 16.218 56.9466C14.818 56.9466 13.4324 56.9466 12.0323 56.9466C11.9169 56.8626 11.787 56.7925 11.7581 56.6385C11.6715 56.0784 11.9457 55.6864 12.3932 55.3923C12.6097 55.2243 12.8839 55.1683 13.086 54.9723C13.7932 55.0143 14.5293 55.1403 14.9046 54.3282C14.8468 54.2162 14.6881 54.2022 14.6736 54.2582C14.3994 55.0703 13.721 55.0143 13.0571 54.9863C12.8983 55.1543 12.6385 55.1683 12.4653 55.3223C12.1189 55.5464 11.7437 55.7284 11.7148 56.2045C11.5849 56.4425 11.5705 56.7085 11.455 56.9606C10.0117 56.9606 8.56833 56.9606 7.125 56.9606C8.7704 54.4822 11.2096 53.222 14.1685 52.914C16.3767 52.6759 18.6139 52.6059 20.8366 52.4659C21.1542 52.2279 21.5439 52.2979 21.9047 52.2139C21.9769 52.2139 22.049 52.2279 22.1212 52.2559C22.3088 52.4519 22.5686 52.5499 22.8429 52.5919Z" fill="#17AC4C"/>
<path d="M34.4255 53.0549C34.127 53.0688 33.9423 52.9993 34.0986 52.6518C34.4397 52.5128 34.8803 52.6657 35.1504 52.3182C35.2214 52.2765 35.2783 52.2626 35.3636 52.2348C35.7473 52.1514 36.1169 52.346 36.5006 52.3182C37.3534 52.2765 38.2062 52.3599 39.059 52.4572C39.3574 52.4433 39.6559 52.4572 39.8975 52.6518C41.2336 52.8325 42.5696 52.8325 43.8914 53.0966C46.4213 53.583 48.5106 54.7367 49.8751 56.9606C48.4111 56.9606 46.933 56.9606 45.469 56.9606C45.3269 56.4602 45.2985 55.932 44.8863 55.5428C44.7442 55.4177 44.5736 55.3344 44.4031 55.251C44.2325 55.1537 44.0477 55.112 43.863 55.0564C43.7066 55.0008 43.5361 55.0008 43.3797 55.0147C42.9533 55.0564 42.6406 54.9452 42.5554 54.4865C42.5269 54.3475 42.4559 54.2224 42.2143 54.2919C42.3564 54.7228 42.5554 55.0564 43.1097 55.0147C43.3229 55.0008 43.5218 55.0008 43.735 55.0286C43.9198 55.0842 44.1188 55.1259 44.3036 55.2093C44.4741 55.3066 44.6589 55.376 44.8152 55.5011C45 55.654 45.1421 55.8208 45.1279 56.071C45.0711 56.3073 45.0569 56.5436 45.0995 56.7799C45.0995 56.8494 45.0711 56.8911 45.0284 56.9467C43.6498 56.9467 42.2853 56.9467 40.9066 56.9467C40.7645 56.8077 40.594 56.6965 40.5229 56.4741C40.466 56.6409 40.4945 56.8355 40.3381 56.9467C40.196 56.9467 40.0539 56.9467 39.9117 56.9467C39.5706 55.4733 38.2488 55.0425 37.0976 54.4448C36.9412 54.4031 36.8417 54.2224 36.6569 54.3058C36.6427 54.3197 36.6854 54.417 36.6996 54.4865C36.6712 54.5838 36.6001 54.6394 36.5006 54.6533C35.8468 54.4448 35.5625 53.8888 35.1646 53.4162C34.9798 53.2078 34.8661 52.8047 34.4255 53.0549Z" fill="#17AC4C"/>
<path d="M26.125 56.9605C26.9167 55.7738 27.6018 54.5447 28.1346 53.0049C28.5609 54.573 29.3373 55.7597 30.0833 56.9605C28.7588 56.9605 27.4343 56.9605 26.125 56.9605Z" fill="#FBFDFD"/>
<path d="M19.8599 56.9474C19.8747 56.4392 19.8747 56.4392 19 55.7224C20.1712 55.0447 21.3869 54.4191 22.0392 53.2461C22.2467 52.8812 22.6174 53.0246 22.9583 53.0767C21.9799 53.7805 21.9206 54.6146 22.8249 55.2792C22.9139 55.3574 22.9139 55.4356 22.8694 55.5399C21.965 55.8788 21.2238 56.4392 20.4529 56.9605C20.2601 56.9474 20.0526 56.9474 19.8599 56.9474Z" fill="#FAFCFC"/>
<path d="M34.1382 53.2501C34.1071 53.1712 33.9203 53.0528 34.1693 53.0265C34.4806 52.9738 34.7608 53.0002 34.9475 53.3028C35.3055 53.8554 35.7413 54.3685 36.3794 54.7369C36.9242 54.8422 37.3133 55.1711 37.7491 55.4211C38.0915 55.6184 38.0604 55.8553 37.7958 56.0658C37.4689 56.3289 37.2977 56.6579 37.0487 56.9605C36.8931 56.9605 36.7374 56.9605 36.5818 56.9605C35.8036 56.5 35.1187 55.9211 34.216 55.6053C34.1071 55.5132 34.0293 55.4079 34.0915 55.2632C34.9475 54.579 34.9631 53.8422 34.1382 53.2501Z" fill="#F9FCFC"/>
<path d="M17.4318 56.9604C17.3355 56.0126 17.707 55.354 18.3952 54.9364C19.0145 54.5509 19.6613 54.1975 20.3082 53.828C20.3632 53.7959 20.432 53.812 20.5834 53.7959C20.2806 54.3099 19.854 54.4866 19.4962 54.7597C19.1521 55.0328 18.7943 55.2577 18.464 55.5307C18.3126 55.6592 18.0373 55.8038 18.1474 56.0769C18.2438 56.3178 18.4777 56.0769 18.6291 56.0929C19.0833 56.1411 19.4962 56.2857 19.4824 56.9604C18.808 56.9604 18.1199 56.9604 17.4318 56.9604Z" fill="#F7FBFA"/>
<path d="M36.7704 54.6328C37.3899 54.9131 38.0234 55.169 38.6147 55.4736C39.2623 55.8026 39.6565 56.2779 39.5721 56.9603C38.8681 56.9603 38.1642 56.9603 37.4603 56.9603C37.3477 56.4241 37.5307 56.2535 38.4458 56.0951C37.9812 55.7173 37.4321 55.498 36.9394 55.2177C36.7141 55.0837 36.3903 55.0349 36.4185 54.7181C36.5029 54.5841 36.6296 54.5475 36.7704 54.6328Z" fill="#F7FBF9"/>
<path d="M20.5833 56.9607C21.1653 56.2048 21.9414 55.6877 22.9563 55.4887C23.1056 55.3827 23.2847 55.3694 23.4787 55.3827C24.0309 55.6213 23.5981 55.807 23.419 55.9396C23.0757 56.2048 23.0011 56.47 23.2996 56.7883C23.3294 56.8546 23.3145 56.9076 23.2697 56.9607C22.3742 56.9607 21.4787 56.9607 20.5833 56.9607Z" fill="#19AC4D"/>
<path d="M34.2444 55.5271C35.1278 55.8112 35.8809 56.2632 36.4167 56.9607C35.5478 56.9607 34.6789 56.9607 33.81 56.9607C33.7666 56.9219 33.7376 56.8702 33.7666 56.8186C33.8534 56.6636 33.9983 56.5732 34.1576 56.4957C34.2155 56.444 34.3024 56.4053 34.2879 56.302C34.2155 56.3278 34.1431 56.3666 34.0707 56.3149C33.9838 56.2761 33.9114 56.2245 33.839 56.1599C33.6507 55.9533 33.1004 55.8758 33.2887 55.5529C33.448 55.2688 33.9114 55.385 34.2444 55.5271Z" fill="#1DAE50"/>
<path d="M36.7846 54.6106C37.6322 55.198 38.7678 55.4591 39.5834 56.2554C38.8637 56.3728 37.8881 55.9551 37.9041 56.9603C37.6322 56.9603 37.3763 56.9603 37.1045 56.9603C36.9765 56.3467 37.6002 56.1118 38.0641 55.7593C37.5203 55.3938 36.8486 55.198 36.4167 54.7542C36.4807 54.715 36.5607 54.6628 36.6247 54.6236C36.6566 54.5845 36.7206 54.5714 36.7846 54.6106Z" fill="#1BAC4E"/>
<path d="M27.7083 0.13562C27.7083 0.0949341 27.7083 0.040686 27.7337 0C27.9878 0 28.2419 0 28.4961 0C28.4706 0.054248 28.4706 0.0949341 28.4452 0.149182C28.5469 1.50538 28.4706 2.87515 28.4961 4.23135C28.4961 4.40765 28.4961 4.59752 28.2928 4.7467C27.4795 4.69246 27.7591 4.33984 27.7591 4.12285C27.7083 2.79377 27.7591 1.4647 27.7083 0.13562Z" fill="#32436F"/>
<path d="M44.6383 56.9607C44.6383 56.9185 44.624 56.8623 44.624 56.8202C44.5953 56.5814 44.667 56.3567 44.6383 56.118C44.6527 55.8651 44.4377 55.7528 44.3374 55.5702C44.323 55.4298 44.3374 55.3314 44.5237 55.4017C44.9679 55.7107 45.2689 56.5955 45.0539 56.9607C44.9249 56.9607 44.7816 56.9607 44.6383 56.9607Z" fill="#E0F2E6"/>
<path d="M15.8333 56.9606C15.8728 56.6543 16.1499 56.4374 16.5655 56.1694C16.5853 56.4884 16.6051 56.7181 16.6249 56.9606C16.3676 56.9606 16.0905 56.9606 15.8333 56.9606Z" fill="#DCF0E3"/>
<path d="M40.375 56.9606C40.375 56.7107 40.375 56.4609 40.375 56.1694C40.8698 56.3637 41.0083 56.6691 41.1667 56.9606C40.8896 56.9606 40.6323 56.9606 40.375 56.9606Z" fill="#E9F5EE"/>
<path d="M12.4961 56.6456C12.5473 56.7558 12.6155 56.8503 12.6667 56.9606C12.445 56.9606 12.2062 56.9606 11.9845 56.9606C11.7969 56.6613 11.8481 56.3936 12.1551 56.1731C12.5985 56.1258 12.2744 56.5511 12.4961 56.6456Z" fill="#DFF1E5"/>
<path d="M22.9887 57.0209C22.9735 57.0064 22.9583 56.9967 22.9583 56.9821C23.2171 56.8997 23.4759 56.9046 23.7499 56.9724C23.7499 56.987 23.7499 57.0064 23.7499 57.0209C23.4911 57.0209 23.2475 57.0209 22.9887 57.0209Z" fill="#95D4AC"/>
<path d="M34.0417 56.9788C34.0417 56.9928 34.0264 57.0069 34.0264 57.0209C33.7676 57.0209 33.524 57.0209 33.2652 57.0209C33.2804 57.0069 33.2652 56.9928 33.25 56.9788C33.5088 56.904 33.7829 56.8993 34.0417 56.9788Z" fill="#93D3AA"/>
<path d="M4.09428 31.9506C3.10064 32.0944 2.10701 32.2382 1.10046 32.3615C0.739141 32.4026 0.377819 32.5258 0.0164957 32.3204C-0.0222174 32.0328 0.00359134 31.7862 0.132635 31.5602C0.442341 31.5192 0.76495 31.5602 1.06175 31.3753C1.12627 31.2315 1.2037 31.2521 1.28113 31.3343C2.18443 31.211 3.07484 31.0672 3.97814 30.9645C4.24914 30.9439 4.67498 30.5947 4.7395 31.2521C4.82983 31.9917 4.31366 31.7041 4.09428 31.9506Z" fill="#334470"/>
<path d="M56.9805 32.3304C56.347 32.5773 55.7135 32.3304 55.0801 32.1958C54.1751 32.0162 53.2573 31.8366 52.3523 31.657C52.1972 31.3877 52.236 31.1407 52.3523 30.8714C53.49 30.7591 54.5888 31.2081 55.7135 31.3203C56.0497 31.3428 56.3858 31.4326 56.7348 31.4774C56.89 31.7019 57.058 31.9039 56.9805 32.3304Z" fill="#334470"/>
<path d="M39.57 53.0049C39.3003 52.9907 39.0165 52.9907 38.7468 52.9765C38.2075 52.4221 37.5404 52.8059 36.9301 52.7206C36.334 52.749 35.7379 52.6922 35.1418 52.6495C34.8296 52.5784 34.5173 52.5358 34.2051 52.4505C32.8993 52.0383 31.7497 51.3275 30.6853 50.4745C30.9975 50.1476 31.4233 50.2044 31.8065 50.1476C35.6811 49.5363 39.13 47.9157 42.1531 45.4849C44.8923 43.2814 46.7941 40.4099 48.0857 37.1403C48.1567 36.9413 48.2844 36.7565 48.1425 36.5432C47.9154 36.3442 47.6599 36.5006 47.4186 36.5148C47.2199 36.529 47.0212 36.5006 46.8793 36.3868C46.1413 35.7614 45.2329 35.6192 44.3246 35.4486C44.211 35.4202 44.0975 35.406 43.984 35.3633C43.7711 35.2638 43.5156 35.1643 43.5582 34.88C43.5866 34.6241 43.8278 34.5815 44.0407 34.5388C44.2962 34.4962 44.5517 34.3967 44.8071 34.4109C45.9 34.4962 46.7232 33.828 47.6315 33.4158C47.958 33.2736 47.8444 33.0462 47.7451 32.8329C47.4896 32.3212 47.3902 31.7952 47.6599 31.2692C47.8728 30.8428 48.2276 30.6153 48.696 30.6722C49.0934 30.7148 49.434 30.857 49.4624 31.3403C49.3914 31.582 49.3205 31.8094 49.1785 32.0084C49.0508 32.2643 48.6108 32.4491 49.0224 32.8329C49.1643 32.5628 49.0224 32.2501 49.2069 32.0084C49.3489 31.8094 49.4198 31.582 49.4908 31.3403C49.6895 27.9001 49.363 24.5168 47.9438 21.3467C44.6084 13.8409 38.8887 9.44824 30.7278 8.29677C30.2169 8.22569 29.706 8.15461 29.1808 8.18305C28.6699 8.18305 28.1731 8.18305 27.6764 8.18305C23.8727 8.26834 20.3529 9.3203 17.1453 11.3389C11.6952 14.7649 8.43087 19.6835 7.28125 26.0094C7.01158 27.4879 6.99739 28.9663 7.03997 30.4589C7.05416 30.8428 7.08255 31.1413 7.60768 30.8285C8.27475 30.4447 8.64376 30.6011 9.05536 31.3829C9.04116 31.7383 8.99858 32.0937 9.08374 32.4491C9.09793 32.5628 9.08374 32.6908 9.02697 32.7903C8.84246 33.1315 8.9702 33.2736 9.29663 33.4869C10.2476 34.1124 11.2836 34.4109 12.4049 34.4535C12.5468 34.4535 12.6887 34.4962 12.8165 34.5246C13.001 34.5815 13.1997 34.6383 13.2139 34.8658C13.2422 35.0932 13.0577 35.1785 12.8874 35.278C12.8448 35.3065 12.8023 35.3207 12.7597 35.3349C11.6101 35.5623 10.4888 35.9177 9.46695 36.5006C9.1689 36.4579 8.85666 36.4011 8.55861 36.5148C8.23217 36.6001 8.33152 36.7991 8.41668 37.0123C9.14051 38.8746 10.1482 40.5662 11.3546 42.1584C14.037 45.6981 17.6136 47.9157 21.7154 49.3657C22.9927 49.8206 24.3127 50.0481 25.6468 50.2613C25.8739 50.2897 26.1294 50.2329 26.2713 50.4888C25.4339 51.1995 24.4972 51.7539 23.4753 52.152C23.2766 52.2231 23.0921 52.3652 22.865 52.3084C22.7798 52.351 22.7089 52.4079 22.6237 52.4505C22.3257 52.6069 21.9708 52.5642 21.6586 52.6637C20.9773 52.8059 20.2961 52.6211 19.629 52.6069C17.3866 52.4932 15.5983 51.5407 14.2925 49.5647C13.9945 49.977 13.7248 50.3466 13.4551 50.7162C13.0577 51.2706 12.6603 51.8392 12.2629 52.3936C12.121 52.5927 11.9649 52.7917 11.681 52.5784C11.4256 52.3794 11.5107 52.1804 11.6668 51.9672C12.2771 51.1569 12.8448 50.304 13.4835 49.5221C13.81 49.1098 13.81 48.7829 13.5971 48.3138C12.561 45.9824 11.3546 43.779 9.45276 42.0305C9.11213 41.7177 8.84246 41.3055 8.41668 41.078C8.31733 41.0069 8.09024 41.0922 8.14701 40.8363C7.53672 40.0403 6.69934 39.4432 6.14582 38.5761C5.45037 37.4957 5.45037 37.5099 4.18721 37.9079C3.87496 38.0074 3.39241 38.3913 3.2079 37.8937C2.99501 37.3109 3.66207 37.3819 3.97431 37.2114C4.13044 37.1261 4.32914 37.055 4.51364 37.0266C5.16651 36.9413 5.42199 36.6001 5.45037 35.9035C5.50714 34.7805 5.57811 34.7805 4.71234 34.1124C4.58461 34.0128 4.45687 33.8991 4.44268 33.7143C4.45687 33.5153 4.47106 33.3163 4.42849 33.1315C4.86846 32.4065 5.30844 32.3496 5.74842 32.9893C5.72004 33.1741 5.74842 33.3731 5.70584 33.5579C5.66326 33.6432 5.63488 33.7143 5.5923 33.7996C5.73423 34.0271 5.96131 33.8849 6.14582 33.9275C6.23098 33.9418 6.06066 33.8849 6.10324 33.828C6.31613 33.7001 6.59999 33.6574 6.47226 33.2736C6.37291 32.9751 6.48645 32.5913 5.9897 32.5486C5.74842 32.5344 5.57811 32.3354 5.43618 32.1506C5.36521 31.6957 5.43618 31.2834 5.91874 31.0844C6.30194 30.928 6.16001 30.6153 6.14582 30.3452C6.07486 26.9761 6.50064 23.6639 7.94831 20.5933C11.1559 13.7271 16.3505 9.24922 23.8301 7.58599C23.9011 7.57177 23.972 7.57177 24.043 7.57177C24.114 7.62864 24.2133 7.62864 24.2985 7.62864C24.3694 7.62864 24.4404 7.62864 24.5114 7.65707C24.4404 7.6002 24.3269 7.64285 24.2843 7.54334C26.0868 7.10266 27.9318 7.06001 29.7627 7.17374C33.5238 7.40119 37.0578 8.43893 40.2087 10.5571C45.5026 14.111 48.994 18.9158 50.2146 25.256C50.2572 25.5119 50.2714 25.7678 50.2856 26.0237C50.1862 26.1089 50.2146 26.2369 50.2004 26.3506C50.1862 26.4501 50.2998 26.4075 50.2004 26.3933C50.2146 26.2653 50.172 26.1232 50.2714 26.0094C50.5127 26.8482 50.4843 27.7153 50.5411 28.5825C50.4417 29.2506 50.4417 29.9045 50.5411 30.5584C50.5411 30.8143 50.6546 30.9707 50.9101 31.0702C51.1797 31.1697 51.4068 31.3403 51.421 31.6673C51.492 31.781 51.4778 31.8805 51.4068 31.98C51.35 32.1222 51.3075 32.2501 51.2507 32.3923C51.2081 32.506 51.1372 32.5913 51.0236 32.6481C50.3424 33.0035 50.3424 33.0035 50.7114 33.6717C50.7539 33.7143 50.683 33.828 50.7681 33.828C50.8533 33.828 50.9526 33.7854 50.981 33.6717C50.8107 33.1741 50.8249 32.7476 51.4068 32.5486C51.8042 32.5202 52.1874 32.5344 52.3861 32.9751C52.3861 33.2594 52.4003 33.5437 52.3719 33.8138C52.1732 34.2403 51.7616 34.2687 51.3784 34.3682C51.2365 34.4109 50.9385 34.3824 51.0236 34.5957C51.2223 35.0932 51.3075 35.6476 51.5062 36.131C51.6481 36.4579 52.0739 36.4011 52.3719 36.5148C52.7409 36.6569 53.1383 36.7565 53.5074 36.8986C53.8054 37.0123 53.9757 37.2114 53.6777 37.5099C53.5357 37.5241 53.3938 37.3962 53.2519 37.4957C52.6416 37.4815 52.0029 36.8702 51.5346 37.1403C51.0804 37.3962 50.9385 38.1638 50.5978 38.6614C50.1295 39.3579 49.5476 39.9692 48.8805 40.4952C48.6392 40.5378 48.9231 40.9785 48.5541 40.9216C46.638 42.6133 44.9349 44.4471 43.984 46.878C43.9272 47.0344 43.8704 47.2049 43.7711 47.3187C42.8911 48.3991 43.1892 49.3231 44.0691 50.2471C44.5233 50.7162 44.8639 51.299 45.2471 51.8392C45.389 52.0383 45.531 52.2657 45.2613 52.4505C44.9775 52.6495 44.8355 52.4079 44.6936 52.2231C44.0975 51.427 43.5156 50.6309 42.9337 49.8206C42.735 49.5363 42.6073 49.4937 42.3802 49.8064C41.6421 50.8157 40.7338 51.6118 39.57 52.1236C38.9739 52.4079 39.57 52.7206 39.57 53.0049Z" fill="#2E3A6C"/>
<path d="M18.9983 6.80143C19.0118 6.96934 18.9442 7.08128 18.7953 7.10926C18.5653 7.16523 18.4705 6.99732 18.4029 6.82941C18.051 6.03185 17.6856 5.23428 17.3338 4.43671C17.1037 3.93299 16.8737 3.42926 16.6707 2.91154C16.603 2.74363 16.5895 2.53375 16.7789 2.42181C16.9819 2.29588 17.1308 2.4358 17.212 2.6177C17.8074 3.96097 18.3893 5.31823 18.9712 6.6755C18.9848 6.71747 18.9848 6.75945 18.9983 6.80143Z" fill="#30426E"/>
<path d="M38.2635 7.12024C38.0089 7.06454 37.9419 6.91135 38.0491 6.67462C38.6119 5.32383 39.1747 3.97303 39.7509 2.62224C39.8313 2.44121 39.9653 2.30195 40.1797 2.41336C40.3942 2.52476 40.421 2.7058 40.3138 2.92861C39.7241 4.23762 39.1479 5.56056 38.5583 6.8835C38.5047 7.00883 38.4243 7.12024 38.2635 7.12024Z" fill="#30426E"/>
<path d="M11.0833 13.1504C11.0275 13.4825 10.8183 13.5127 10.5812 13.3617C10.3859 13.2409 10.2325 13.0447 10.0511 12.8786C9.1863 12.0333 8.32148 11.203 7.47061 10.3577C7.27533 10.1614 6.96845 9.90481 7.21953 9.6029C7.45666 9.31608 7.67984 9.66328 7.84723 9.82933C8.82364 10.7653 9.7861 11.7012 10.7346 12.6522C10.8881 12.7881 11.0694 12.8937 11.0833 13.1504Z" fill="#2F416E"/>
<path d="M46.0615 13.447C45.7472 13.1654 46.0205 12.9933 46.1708 12.8369C47.1548 11.8046 48.1523 10.7722 49.1499 9.75544C49.3412 9.56774 49.5736 9.33311 49.7922 9.64595C50.0245 9.95879 49.7102 10.0996 49.5599 10.256C48.535 11.3197 47.4964 12.3677 46.4578 13.4157C46.3348 13.3688 46.1982 13.4626 46.0615 13.447Z" fill="#30416E"/>
<path d="M51.0995 21.3601C50.8716 21.3601 50.7107 21.349 50.6705 21.1826C50.6437 21.0495 50.7643 20.9829 50.8984 20.9386C52.2656 20.5504 53.6329 20.1733 55.0001 19.7961C55.1609 19.7518 55.3218 19.785 55.3888 19.9292C55.4558 20.0734 55.4022 20.1954 55.228 20.2398C53.8205 20.628 52.4265 21.0051 51.0995 21.3601Z" fill="#30426E"/>
<path d="M2.11777 19.7778C3.41981 20.132 4.70814 20.4743 6.01018 20.8284C6.22947 20.8874 6.39394 20.9818 6.31171 21.2061C6.24318 21.3714 6.07871 21.3832 5.91424 21.336C4.48885 20.9346 3.04976 20.6159 1.65178 20.1201C1.62437 20.1083 1.61066 20.0611 1.58325 20.0257C1.67919 19.8014 1.91219 19.8014 2.11777 19.7778Z" fill="#30416E"/>
<path d="M5.15487 15.825C5.27695 15.8718 5.46006 15.9303 5.62792 16.0006C6.29935 16.2816 6.95551 16.5742 7.61168 16.8552C7.81006 16.9489 8.00843 17.066 7.8711 17.2767C7.74902 17.4523 7.52012 17.4172 7.33701 17.3469C6.5435 17.0074 5.75 16.6562 4.97175 16.2933C4.81916 16.223 4.69708 16.1059 4.77338 15.9537C4.81916 15.8367 4.94123 15.8133 5.15487 15.825Z" fill="#31426E"/>
<path d="M15.0417 9.86403C15.0266 10.0562 14.9207 10.1684 14.7844 10.2485C14.618 10.3446 14.4817 10.2325 14.3909 10.1043C13.8309 9.3194 13.286 8.51848 12.7563 7.73358C12.6352 7.54136 12.6201 7.3171 12.8168 7.17293C12.9682 7.06081 13.1195 7.1409 13.2103 7.28506C13.8006 8.08598 14.3758 8.87089 14.9661 9.67181C14.9963 9.71986 15.0115 9.79995 15.0417 9.86403Z" fill="#30416E"/>
<path d="M22.5263 2.37354C22.8833 2.38745 22.9773 2.59613 23.0337 2.80481C23.2592 3.54214 23.4847 4.29339 23.7102 5.03072C23.7854 5.25331 23.7854 5.4759 23.4283 5.53155C23.1276 5.57329 22.9773 5.40634 22.9209 5.21158C22.6766 4.40468 22.4323 3.59779 22.188 2.77698C22.1316 2.58221 22.1692 2.40136 22.5263 2.37354Z" fill="#30426E"/>
<path d="M44.3333 7.49828C44.2715 7.62421 44.2252 7.75014 44.148 7.86032C43.6384 8.5844 43.1288 9.29273 42.6193 10.0011C42.4957 10.1742 42.3413 10.3788 42.1251 10.2372C41.8626 10.0798 41.9553 9.82792 42.0942 9.62329C42.6038 8.86773 43.0979 8.12792 43.6384 7.3881C43.7465 7.23069 43.9009 7.02606 44.148 7.16773C44.2252 7.23069 44.256 7.3881 44.3333 7.49828Z" fill="#32436F"/>
<path d="M33.1056 3.03435C33.1253 2.92623 33.1253 2.8046 33.1649 2.71C33.244 2.54783 33.3033 2.31808 33.6592 2.38565C33.9361 2.43971 34.0745 2.6154 34.0349 2.8046C33.7977 3.6425 33.5406 4.46688 33.2835 5.29126C33.244 5.42641 33.1253 5.56155 32.8881 5.53453C32.5321 5.49398 32.4135 5.29127 32.4728 5.07503C32.6508 4.46688 32.8485 3.85873 33.0463 3.25058C33.1253 3.27761 33.1649 3.33167 33.1649 3.38572C33.2044 3.27761 33.2242 3.14246 33.1056 3.03435Z" fill="#32446F"/>
<path d="M51.4584 15.3718C50.683 15.8827 49.6859 16.1665 48.8155 16.5639C48.6414 16.6434 48.4515 16.632 48.3408 16.4958C48.2142 16.3482 48.3566 16.2233 48.499 16.1552C49.4327 15.7805 50.2557 15.2697 51.2843 15.0312C51.4109 15.1334 51.4426 15.247 51.4584 15.3718Z" fill="#32436F"/>
<path d="M3.95907 26.8981C3.31478 26.8418 2.67049 26.7995 2.0262 26.7292C1.82486 26.7151 1.58325 26.6306 1.58325 26.3913C1.58325 26.1239 1.82486 26.0958 2.03962 26.1098C2.81814 26.1943 3.59666 26.2647 4.36175 26.3773C4.67048 26.4195 4.99262 26.5743 4.48256 26.884C4.32149 26.8558 4.13357 26.8277 3.95907 26.8981Z" fill="#31436F"/>
<path d="M53.0414 25.5888C53.6823 25.3819 54.3778 25.4063 55.046 25.3211C55.2097 25.2968 55.3869 25.3576 55.4142 25.5158C55.4415 25.7591 55.2369 25.82 55.0187 25.8443C54.2823 25.9295 53.5323 26.0146 52.7959 26.0876C52.5777 26.112 52.2641 26.1606 52.2504 25.8808C52.2368 25.5766 52.5368 25.5766 52.7959 25.6009C52.8641 25.6618 52.9596 25.6618 53.0414 25.6618C53.1096 25.6618 53.1778 25.6618 53.2323 25.674C53.1778 25.6374 53.0823 25.674 53.0414 25.5888Z" fill="#334470"/>
<path d="M27.8891 0C28.2352 0.18485 28.0927 0.448922 28.0927 0.673384C28.1131 1.74288 28.0927 2.81237 28.1131 3.88186C28.1131 4.09312 27.9909 4.31758 28.3167 4.48922C28.3981 4.51563 28.4592 4.55524 28.4999 4.62126C28.0723 4.87213 27.7669 4.71368 27.7669 4.43641C27.8077 2.95761 27.543 1.4788 27.8891 0Z" fill="#243666"/>
<path d="M28.5158 4.7467C28.4991 4.7059 28.4824 4.6515 28.4657 4.61069C28.4657 3.29141 28.4657 1.95853 28.4657 0.639241C28.4657 0.421627 28.4379 0.190412 28.5102 0C28.5937 0.748048 28.5492 1.5097 28.5436 2.27135C28.5436 3.0874 28.5937 3.93065 28.5158 4.7467Z" fill="#213363"/>
<path d="M50.7061 29.2712C50.6009 28.7476 50.6009 28.2126 50.7061 27.689C50.7342 28.2126 50.7342 28.7476 50.7061 29.2712Z" fill="#212D5F"/>
<path d="M1.58341 19.9621C1.42102 20.3956 1.01504 20.28 0.791748 20.5689C0.791748 19.6731 0.832346 19.6442 1.58341 19.9621Z" fill="#213463"/>
<path d="M52.2104 31.6446C52.2104 31.4989 52.2152 31.3323 52.2152 31.1866C52.2485 31.0825 52.2771 30.9784 52.3105 30.8535C52.3105 31.1033 52.3105 31.3323 52.3105 31.5822C52.2819 31.6238 52.2485 31.6238 52.2104 31.6446Z" fill="#7984A0"/>
<path d="M3.95825 26.925C4.21554 26.8342 4.47284 26.8402 4.74992 26.9189C4.49263 26.9794 4.23534 26.9613 3.95825 26.925Z" fill="#1C2F5F"/>
<path d="M51.4795 15.8224C51.4133 15.6378 51.4188 15.3213 51.4188 15.0312C51.5457 15.1104 51.5346 15.4268 51.4795 15.8224Z" fill="#1E3261"/>
<path d="M45.9167 12.6731C46.1624 12.6049 46.4354 12.5992 46.7084 12.6617C46.49 12.7128 46.217 12.7526 45.9167 12.6731Z" fill="#1E3262"/>
<path d="M52.5363 26.0674C52.6543 26.0766 52.789 26.095 53.0417 26.1133C52.6711 26.1777 52.4521 26.2053 52.25 26.0766C52.3342 26.0766 52.4353 26.0766 52.5363 26.0674Z" fill="#203363"/>
<path d="M33.2279 3.16455C33.3502 3.3768 33.2978 3.64694 33.3066 3.95567C33.193 3.8206 33.2454 3.60835 33.2104 3.49258C33.2192 3.3768 33.2192 3.28032 33.2279 3.16455Z" fill="#213463"/>
<path d="M24.0247 7.08057C24.1539 7.08935 24.267 7.09814 24.5417 7.12451C24.1539 7.19481 23.9439 7.21238 23.75 7.09814C23.8308 7.08935 23.9277 7.08057 24.0247 7.08057Z" fill="#243064"/>
<path d="M8.43487 40.3472C8.5212 40.4377 8.62192 40.5131 8.70825 40.6036C8.54998 40.9052 8.34854 41.1315 8.04639 41.3125C6.89532 41.9761 5.75864 42.6699 4.60757 43.3335C4.40613 43.4542 4.17592 43.6654 4.00326 43.3335C3.87376 43.0771 4.04642 42.8961 4.23347 42.7906C5.62914 41.9761 6.96726 41.0561 8.43487 40.3472Z" fill="#30426E"/>
<path d="M10.8198 44.309C10.9347 44.2811 10.9858 44.3507 11.0241 44.4343C11.1007 44.5596 11.1135 44.6988 10.9986 44.8102C10.3856 45.4089 9.77272 46.0215 9.15979 46.6063C9.03209 46.7316 8.87886 46.6759 8.76393 46.5367C8.66178 46.3974 8.71286 46.2721 8.81501 46.1747C9.42794 45.576 10.0409 44.9773 10.6538 44.3925C10.7049 44.3507 10.7687 44.3368 10.8198 44.309Z" fill="#324470"/>
<path d="M19.7917 52.3225C20.5326 52.2861 21.2735 52.2497 22.0144 52.2497C22.1626 52.1405 22.1923 52.2861 22.1478 52.6138C21.7774 53.0872 21.3773 53.0143 20.9772 52.9779C20.6216 52.2133 20.1326 53.0872 19.7917 52.3225Z" fill="#F1F3F6"/>
<path d="M3.95769 32.436C4.03818 32.6869 4.03818 32.957 3.96272 33.2271C3.90235 32.9763 3.90738 32.7062 3.95769 32.436Z" fill="#212E62"/>
<path d="M5.5482 33.2271C5.48443 32.9503 5.48443 32.6931 5.56414 32.436C5.61728 32.7129 5.61728 32.97 5.5482 33.2271Z" fill="#222F63"/>
<path d="M6.129 33.2017C6.17793 33.2088 6.24318 33.2088 6.27581 33.223C6.35737 33.2443 6.35737 33.2798 6.24318 33.2798C5.9985 33.2727 5.68856 33.3366 5.54175 33.1875C5.7375 33.1946 5.93325 33.2017 6.129 33.2017Z" fill="#253164"/>
<path d="M49.0833 40.7742C49.2179 40.6745 49.12 40.3472 49.3648 40.3472C49.2913 40.6461 49.5361 40.6318 49.6463 40.7172C50.65 41.4146 51.6537 42.0836 52.6452 42.7667C52.841 42.9091 53.1715 43.0514 52.9879 43.3787C52.8288 43.6634 52.584 43.4214 52.4004 43.2933C51.4334 42.6386 50.4664 41.9839 49.4994 41.3292C49.3158 41.1869 49.0833 41.0873 49.0833 40.7742Z" fill="#30416E"/>
<path d="M49.0832 46.3458C48.9673 46.6279 48.8384 46.7972 48.5935 46.5715C48.0008 46.0214 47.4208 45.4714 46.8409 44.9072C46.6992 44.7661 46.6605 44.5687 46.7765 44.3994C46.8925 44.2302 47.06 44.3148 47.176 44.4135C47.7817 44.9777 48.3745 45.5419 48.9802 46.1202C49.0188 46.1907 49.0446 46.2894 49.0832 46.3458Z" fill="#31426E"/>
<path d="M52.2563 33.2271C52.1944 32.959 52.1944 32.6908 52.261 32.436C52.3277 32.6908 52.3277 32.959 52.2563 33.2271Z" fill="#243064"/>
<path d="M53.0417 37.1963C53.332 37.1216 53.5959 37.1274 53.8334 37.202C53.5695 37.2824 53.3056 37.225 53.0417 37.1963Z" fill="#212E62"/>
<path d="M26.0417 49.7844C20.9458 49.2424 16.4978 47.2454 12.7982 43.7507C10.5382 41.6112 8.78201 39.115 7.70238 36.1766C7.54403 35.7629 7.55843 35.5632 8.06225 35.6346C8.35016 35.606 8.63806 35.6346 8.92596 35.6203C9.9624 34.9071 11.1572 34.6076 12.3664 34.3793C12.5247 34.3508 12.7407 34.2938 12.7263 34.0941C12.7119 33.8944 12.4815 33.9086 12.3232 33.8944C11.9921 33.8516 11.661 33.8088 11.3299 33.7803C10.5814 33.7089 9.78966 33.7232 9.24265 33.0671C9.19946 33.01 9.12749 32.9672 9.05551 32.9672C8.04786 32.8531 8.06226 32.3253 8.49411 31.6264C8.5229 31.2983 8.43653 30.9703 8.47971 30.6422C8.00467 29.8434 7.58722 29.7578 6.98262 30.3569C6.63714 30.6992 6.50759 30.5281 6.40682 30.2143C6.34924 30.0431 6.34924 29.8434 6.34924 29.658C5.94618 18.9172 13.2013 9.70272 23.8105 7.52034C24.9909 7.27785 26.1712 7.10668 27.366 7.12095C27.9418 7.22079 28.5176 7.22079 29.0791 7.12095C34.362 7.33491 38.9397 9.26054 42.8263 12.7837C46.857 16.4496 49.1314 21.0283 49.7504 26.3915C49.9087 27.7894 49.9519 29.2301 49.664 30.6279C49.6064 30.6707 49.5488 30.6707 49.4913 30.6279C49.4193 30.1715 49.117 29.9718 48.6851 30.0003C48.1957 30.0288 47.9222 30.3712 47.807 30.8134C47.6775 31.3554 47.8646 31.8404 48.1669 32.2968C48.354 32.5821 48.2965 32.7105 47.9654 32.7533C47.807 32.7818 47.6055 32.796 47.4903 32.8959C46.5115 33.766 45.2735 33.7803 44.0787 33.8944C43.906 33.9086 43.7188 33.9229 43.6613 34.1083C43.6325 34.2224 43.762 34.3223 43.8916 34.3508C45.2159 34.5505 46.4395 35.0212 47.6199 35.6346C47.8646 35.6203 48.1093 35.6203 48.354 35.6346C48.8867 35.7629 48.4836 36.0625 48.426 36.2194C47.6199 38.359 46.4971 40.3417 45.0288 42.1104C41.2573 46.6321 36.3198 48.9856 30.5186 49.7559C29.0359 49.7844 27.5388 49.9128 26.0417 49.7844Z" fill="#F59422"/>
<path d="M34.4128 56.9607C34.2009 56.9607 33.9766 56.9607 33.7648 56.949C33.3162 56.7619 33.2289 56.3877 33.2539 55.9901C33.2663 55.6042 33.2539 55.1599 33.9268 55.499C34.1262 55.5925 34.4128 55.5341 34.6495 55.5458C34.6869 55.6159 34.7243 55.6861 34.7741 55.7563C34.5249 55.7679 34.2757 55.6978 33.9891 55.803C34.2383 56.0486 34.662 56.1304 34.7741 56.4812C34.8489 56.5514 34.8614 56.6099 34.7617 56.6683C34.6371 56.7736 34.5249 56.8671 34.4128 56.9607Z" fill="#F8FBFB"/>
<path d="M24.0128 56.9369C23.7883 56.9488 23.5639 56.9488 23.3263 56.9607C22.8378 56.604 22.8378 56.3781 23.3131 56.069C23.4451 55.9857 23.6695 55.9976 23.6959 55.8074C23.6959 55.7836 23.6431 55.7598 23.6167 55.7242C23.5375 55.5934 23.6695 55.5696 23.7487 55.522C24.3956 55.2486 24.554 55.3437 24.5408 55.9976C24.5408 56.4019 24.422 56.7348 24.0128 56.9369Z" fill="#F6FBF9"/>
<path d="M26.1251 51.4229C26.0014 52.8754 25.6427 53.2087 24.5417 52.8992C25.1108 52.6134 25.5808 51.9705 26.1251 51.4229Z" fill="#D3EDDC"/>
<path d="M30.875 51.4229C31.4028 51.9772 31.8426 52.5315 32.4583 52.9172C31.3525 53.1823 31.0509 52.8931 30.875 51.4229Z" fill="#E6F4EB"/>
<path d="M27.7083 53.7959C27.076 54.4405 26.614 54.9093 26.1519 55.3781C26.006 54.5382 26.4437 54.0694 27.7083 53.7959Z" fill="#D8EEE0"/>
<path d="M31.6659 55.3781C31.0328 54.7559 30.6033 54.3292 30.0833 53.7959C31.1459 53.9915 31.6885 54.3826 31.6659 55.3781Z" fill="#DFF1E5"/>
<path d="M29.5512 52.0529C29.4604 51.9013 29.2917 51.8255 29.2917 51.5602C29.4085 51.3707 29.5252 51.3897 29.6549 51.5413C29.7198 51.8255 30.1997 51.3897 30.0571 52.034C29.9014 52.2803 29.7328 52.2613 29.5512 52.0529Z" fill="#A8DCBB"/>
<path d="M33.2636 53.796C33.1888 53.4444 33.1938 53.2309 33.2735 53.0049C33.3334 53.2435 33.3134 53.457 33.2636 53.796Z" fill="#ABDDBD"/>
<path d="M26.9328 52.0537C26.822 51.0728 27.3127 51.55 27.5185 51.4705C27.7876 51.3644 27.7401 51.656 27.566 51.8681C27.3919 52.2127 27.1861 52.3452 26.9328 52.0537Z" fill="#E7F3EC"/>
<path d="M35.6251 52.4284C35.1699 53.1281 34.5959 52.9948 34.0417 52.9948C34.3782 52.3951 34.8928 52.8283 35.249 52.3285C35.3876 52.1619 35.5261 52.1619 35.6251 52.4284Z" fill="#10A846"/>
<path d="M23.7499 55.3389C23.7033 55.3742 23.6568 55.4095 23.5947 55.4389C23.3774 55.4389 23.1756 55.4389 22.9583 55.4389C22.9583 55.4036 22.9583 55.3742 22.9583 55.3389C23.2221 55.3389 23.486 55.3389 23.7499 55.3389Z" fill="#C2E3CF"/>
<path d="M21.4899 52.8247C21.4516 52.7311 21.4133 52.6063 21.375 52.5127C21.6304 52.1695 21.8985 52.2007 22.1667 52.2319C22.0645 52.4191 21.9624 52.5751 21.873 52.7623C21.8219 53.1055 21.7325 53.0119 21.6431 52.9183C21.5921 52.8871 21.541 52.8559 21.4899 52.8247Z" fill="#96C7AF"/>
<path d="M25.3333 53.0402C24.8056 53.0402 24.2778 53.0402 23.75 53.0402C23.75 53.0202 23.75 53.0102 23.75 52.9902C24.2778 52.9902 24.8056 52.9902 25.3333 52.9902C25.3333 53.0102 25.3333 53.0202 25.3333 53.0402Z" fill="#0FA945"/>
<path d="M35.4822 53.005C35.3913 52.9703 35.3134 52.9356 35.2356 52.901C35.1058 52.6929 34.963 52.4849 34.8333 52.2422C35.1058 52.2075 35.3783 52.1382 35.6249 52.5196C35.6119 52.7623 35.5341 52.7623 35.4822 52.8663V53.005Z" fill="#99C3B1"/>
<path d="M23.9565 53.2585C24.1184 53.1663 24.2479 53.0741 24.4097 53.0049C24.4421 53.1663 24.5068 53.3507 24.5392 53.5121C24.5716 53.8579 24.2802 53.8349 23.9565 53.7196C23.6976 53.5352 23.6652 53.3968 23.9565 53.2585Z" fill="#0BA642"/>
<path d="M23.8104 53.2402C23.8104 53.3432 23.8104 53.4314 23.8045 53.5344C23.7927 53.6226 23.7868 53.7697 23.7572 53.7844C23.7098 53.8286 23.7039 53.7403 23.7157 53.6226C23.7394 53.4167 23.7453 53.2108 23.7572 53.0049C23.8164 53.0343 23.7986 53.152 23.8104 53.2402Z" fill="#E1F0E7"/>
<path d="M26.9167 51.6411C27.2136 51.7502 27.4511 51.5865 27.7084 51.4229C27.6886 51.6957 27.6688 51.9412 27.649 52.214C27.3917 52.023 27.1542 51.832 26.9167 51.6411Z" fill="#0BA642"/>
<path d="M22.1667 52.3837C22.2637 52.3158 22.3606 52.2818 22.4576 52.2139C22.5383 52.7575 22.8615 52.5536 22.9584 52.9953C22.6676 52.9953 22.3445 53.1312 22.1667 52.3837Z" fill="#0DA743"/>
<path d="M30.0833 51.4558C30.3471 51.4558 30.611 51.4229 30.8749 51.4229C30.7531 51.9503 30.3674 51.8843 30.1644 52.214C30.1441 51.9832 30.1239 51.7195 30.0833 51.4558Z" fill="#0BA641"/>
<path d="M22.9583 52.2384C23.216 52.199 23.4738 52.1653 23.7499 52.1765C23.5106 52.2271 23.3081 52.3284 22.9583 52.2384Z" fill="#65918C"/>
<path d="M29.8418 51.4751C29.665 51.4751 29.4686 51.4833 29.2917 51.4833C29.4293 51.3608 29.7043 51.3853 29.9597 51.3853C30.0579 51.3853 30.1365 51.4098 30.0383 51.4506C29.9793 51.4751 29.9008 51.467 29.8418 51.4751Z" fill="#0BA842"/>
<path d="M12.6667 55.1196C12.9223 54.8257 13.238 54.9543 13.5236 54.9543C13.7641 54.9543 13.9444 54.8808 13.9595 54.6053C14.0497 53.4483 14.5307 53.7605 15.0417 54.1462C14.4405 55.2114 13.7039 55.7257 12.6667 55.1196Z" fill="#EEF7F2"/>
<path d="M15.0362 55.665C15.0679 55.8734 14.9515 56.0993 14.9092 56.0819C14.4647 55.8908 14.0309 56.1862 13.5864 56.1688C13.5123 56.1688 13.4488 56.0993 13.4594 55.9603C13.4912 55.6476 13.7028 55.6823 13.8086 55.5086C14.2319 55.3001 14.634 55.3349 15.0362 55.665Z" fill="#DAEFE2"/>
<path d="M18.2083 54.5869C17.8263 55.0418 17.4442 55.4967 17.0498 55.9516C16.9389 56.0654 16.8033 56.2928 16.68 56.0843C16.5321 55.819 16.717 55.6294 16.8279 55.4778C17.1977 54.9281 17.666 54.6248 18.2083 54.5869Z" fill="#E8F4ED"/>
<path d="M12.6667 54.3507C13.0748 54.3227 13.3776 54.0282 13.7594 53.93C13.9174 53.8879 14.1148 53.6775 14.2201 53.8879C14.3386 54.1123 14.0753 54.1684 13.9568 54.2806C13.8779 54.3507 13.7857 54.4208 13.7067 54.491C13.3513 54.505 12.9695 54.7715 12.6667 54.3507Z" fill="#EAF6EF"/>
<path d="M15.0519 55.8888C14.9379 54.9367 15.8043 54.8007 16.6251 54.5869C16.3287 55.0533 16.0323 55.5196 15.7359 55.9666C15.4167 56.3552 15.2571 56.1026 15.0519 55.8888Z" fill="#EDF7F1"/>
<path d="M12.1304 56.1691C12.0438 56.0125 11.9696 55.8558 11.8831 55.6992C11.8213 54.9942 12.118 54.6809 12.6249 54.5869C12.662 54.6182 12.6744 54.6652 12.662 54.6966C12.6497 54.7279 12.6373 54.7436 12.6249 54.7436C12.3406 55.1665 12.0562 55.5739 12.1304 56.1691Z" fill="#DAEFE1"/>
<path d="M14.6945 55.3784C14.7986 55.506 14.9143 55.6591 15.0416 55.506C15.03 55.8378 14.9375 56.0419 14.8102 56.1695C14.3706 55.9909 13.9194 55.8888 13.4683 55.9399C13.4104 55.3529 13.6187 55.6847 13.6996 55.6591C14.0351 55.5315 14.3822 55.7867 14.6945 55.3784Z" fill="#15AA49"/>
<path d="M15.8093 53.0251C15.9376 53.6926 15.5241 53.6522 15.2674 53.7938C15.2247 53.814 15.0963 53.6926 15.0678 53.5915C14.9965 53.4094 15.0821 53.2476 15.1962 53.1869C15.3673 53.106 15.5526 53.0656 15.738 53.0049L15.8093 53.0251Z" fill="#C7E8D3"/>
<path d="M9.80748 56.1614C9.72242 56.1614 9.62035 56.194 9.56932 56.1288C9.41622 55.9004 9.55231 55.7373 9.63737 55.7047C10.0797 55.5742 10.5049 55.4763 10.9472 55.3784C10.9813 55.3784 11.0493 55.5742 11.0833 55.7047C10.9472 55.8025 10.8282 55.8678 10.6921 55.9656C10.4199 56.1614 10.0967 55.9004 9.80748 56.1614Z" fill="#C0E4CD"/>
<path d="M17.4167 53.3544C17.3827 53.5845 17.2299 53.6075 17.111 53.6766C16.9582 53.7456 16.7375 53.9067 16.6526 53.6766C16.5168 53.3083 16.9243 53.3774 16.9582 53.1242C17.1959 52.8711 17.3148 53.0552 17.4167 53.3544Z" fill="#D8EEE0"/>
<path d="M12.001 54.5474C12.4253 54.669 12.9787 54.552 13.4583 54.5941C12.9972 54.6783 12.4806 54.6409 12.001 54.6269C11.7981 54.6222 11.8719 54.5754 12.001 54.5474Z" fill="#24AF55"/>
<path d="M18.039 53.796C17.8316 53.6562 17.6703 53.3415 17.4167 53.4464C17.532 52.7472 17.8777 53.0618 18.0851 53.1667C18.3156 53.3415 18.1773 53.6212 18.039 53.796Z" fill="#0CA642"/>
<path d="M12.6667 56.1695C12.6667 56.0904 12.6667 55.9849 12.6667 55.9058C12.8647 55.5103 13.1615 55.4839 13.4584 55.4048L13.4386 55.3784C13.4782 56.1432 12.9438 55.9322 12.6667 56.1695Z" fill="#C4E7D0"/>
<path d="M15.756 53.0577L15.7211 53.0653L15.6863 53.0577C15.4947 53.0502 15.3031 53.035 15.0417 53.0198C15.3553 52.9515 15.5818 52.9515 15.8257 52.9971C15.8431 52.9971 15.8257 53.0198 15.8257 53.0274C15.8083 53.035 15.7734 53.0426 15.756 53.0577Z" fill="#0AA842"/>
<path d="M9.5 56.2052C9.75393 56.1152 10.0228 56.1352 10.2917 56.1352C10.0527 56.2752 9.76887 56.2152 9.5 56.2052Z" fill="#30B35E"/>
<path d="M43.4123 55.3074C42.7876 55.5066 42.2491 55.3255 41.9583 54.2386C42.4106 53.6046 42.486 53.6046 42.6476 54.5466C42.7122 54.9451 42.8199 54.9994 43.0246 54.9813C43.1969 54.9632 43.38 54.9089 43.5416 55.1262C43.52 55.2349 43.4554 55.253 43.4123 55.3074Z" fill="#F1F8F4"/>
<path d="M42.9674 55.5404C43.1226 55.7166 43.402 55.7166 43.5417 56.1571C42.6725 56.1748 41.8963 56.2452 41.1667 55.6814C41.7411 55.2761 42.362 55.329 42.9674 55.5404Z" fill="#DAF0E2"/>
<path d="M37.2838 52.4502C37.5477 52.3885 37.8242 52.368 38.088 52.2652C38.5027 52.1008 38.7289 52.3269 38.7917 53.005C38.0001 52.9433 37.2084 52.8611 36.4167 52.7995C36.6429 52.2036 37.0199 52.7378 37.2838 52.4502Z" fill="#E8EDEE"/>
<path d="M45.1251 54.5764C44.6516 54.5764 44.2669 54.609 43.8969 54.56C43.6158 54.5274 43.4974 54.2012 43.5566 53.9565C43.6306 53.6465 43.8673 53.8749 44.0449 53.9075C44.4148 54.0217 44.7404 54.2501 45.1251 54.5764Z" fill="#E9F5ED"/>
<path d="M39.1617 54.6788C39.6884 54.9199 40.18 55.2048 40.3731 55.9281C40.3907 55.9938 40.2853 56.1691 40.2678 56.1691C39.7411 56.1034 39.4601 55.5116 39.0388 55.2267C38.951 55.161 38.8807 55.0295 38.793 54.9199C38.7754 54.5035 38.951 54.5473 39.1617 54.6788Z" fill="#E8F5ED"/>
<path d="M41.3784 56.0466C40.9941 55.5857 40.802 55.0287 40.375 54.5869C41.1863 54.7214 42.0189 54.8558 41.9549 55.893C41.8268 56.1234 41.6773 56.2963 41.3784 56.0466Z" fill="#EDF7F1"/>
<path d="M41.9865 55.6158C42.0887 55.5366 42.1908 55.4575 42.293 55.3784C42.6789 55.8795 43.1103 55.5366 43.5075 55.6685C43.5189 55.6685 43.5416 55.7212 43.5416 55.7476C43.5302 55.8267 43.5189 55.9058 43.5075 55.9586C43.0649 55.9058 42.6222 55.9586 42.1908 56.1695C42.1341 55.9586 41.873 56.1695 41.9865 55.6158Z" fill="#12A948"/>
<path d="M37.2083 52.1848C36.9958 52.2901 36.6876 52.1743 36.4751 52.2743C36.1882 52.2585 35.9013 52.2427 35.625 52.227C35.6675 52.2112 35.6994 52.1901 35.7419 52.1743C36.2307 52.1743 36.7195 52.1796 37.2083 52.1848Z" fill="#E8E9EF"/>
<path d="M41.1667 53.1671C41.4708 52.9881 41.7242 52.8763 41.9142 53.2789C41.9902 53.4131 41.9649 53.6816 41.8635 53.7487C41.5722 53.9276 41.4075 53.5697 41.1667 53.1671Z" fill="#C3E6CF"/>
<path d="M40.135 53.2771C40.2592 53.371 40.5075 53.5822 40.2868 53.723C40.0798 53.8403 39.6522 53.9107 39.5833 53.1597C39.7902 52.8781 39.9695 53.0189 40.135 53.2771Z" fill="#D7EEDF"/>
<path d="M36.9359 54.5369C36.8969 54.562 36.845 54.562 36.8061 54.587C36.6893 54.3865 36.5595 54.1609 36.4167 53.9103C36.7801 53.6096 36.9878 53.9604 37.2084 54.2863C37.1046 54.3113 36.9878 54.3113 36.9359 54.5369Z" fill="#D6EDDF"/>
<path d="M39.5834 55.0808C39.4515 55.1078 39.3342 55.1349 39.2755 55.378C39.085 55.1889 38.8944 55.0268 38.7917 54.5945C39.1143 54.5404 39.3488 54.7836 39.5834 55.0808Z" fill="#E4F2EA"/>
<path d="M45.1479 56.1694C45.2063 56.4384 45.1904 56.7074 45.1426 56.9606C45.0682 56.6916 45.0629 56.4226 45.1479 56.1694Z" fill="#09A641"/>
<path d="M46.6224 56.1656C46.3298 56.1977 46.1061 56.0371 45.9167 55.5231C46.1921 55.1376 46.3814 55.6516 46.5879 55.5874C46.6568 55.6195 46.6912 55.7159 46.7084 55.8444C46.7084 55.9729 46.674 56.1014 46.6224 56.1656Z" fill="#BDE4CB"/>
<path d="M47.3671 56.1384C47.4747 56.1588 47.5823 56.1996 47.4075 56.2149C47.1789 56.2404 46.9234 56.2353 46.7083 56.1843C46.8831 56.0824 47.152 56.1588 47.3671 56.1384Z" fill="#86CE9F"/>
<path d="M47.5001 56.1762C47.1692 56.2597 46.7202 56.1941 46.3421 56.2299C46.2003 56.2239 46.0585 56.2179 45.9167 56.212C45.9167 56.1941 45.9167 56.1702 45.9167 56.1523C46.3894 56.1224 46.862 56.1224 47.311 56.1523C47.3819 56.1642 47.4528 56.1702 47.5001 56.1762Z" fill="#D9EEE1"/>
<path d="M43.5417 54.9121C43.6072 54.8153 43.6726 54.6862 43.738 54.5894C43.9669 54.5571 44.1468 54.8476 44.3267 55.0412C44.3431 55.2994 44.3431 55.493 44.1632 55.2994C43.9669 55.1703 43.7543 55.0412 43.5417 54.9121Z" fill="#F3F8F5"/>
<path d="M40.3749 53.0653C40.1176 53.0542 39.8405 53.043 39.5833 53.0374C39.8801 52.9592 40.177 52.9145 40.3749 53.0653Z" fill="#0BA642"/>
<path d="M47.4999 56.2261C47.2404 56.2261 46.9808 56.2261 46.7342 56.2261C46.7342 56.1961 46.7212 56.1761 46.7083 56.1461C46.9678 56.1661 47.2533 56.0661 47.4999 56.2261Z" fill="#2AB15A"/>
<path d="M43.5417 55.6045C43.5957 55.5197 43.6497 55.4632 43.7217 55.3784C43.9196 55.5197 44.1175 55.6892 44.3334 55.8305C44.2614 55.9435 44.1715 56.0565 44.0995 56.1695C43.9016 55.9718 43.7217 55.8022 43.5417 55.6045Z" fill="#D5EDDE"/>
<path d="M41.9584 53.014C41.6417 53.074 41.4382 53.074 41.1667 53.024C41.4156 52.954 41.6417 52.954 41.9584 53.014Z" fill="#0AA842"/>
<path d="M34.7937 56.1368C34.7937 56.0014 34.8015 55.8389 34.8015 55.7035C34.8171 55.5951 34.8327 55.4868 34.8483 55.3784C34.8639 55.4597 34.8951 55.5951 34.8873 55.6493C34.8483 55.8118 34.973 56.2993 34.7937 56.1368Z" fill="#09A540"/>
<path d="M7.125 31.6445C8.15427 32.4435 8.15427 32.4435 7.27397 33.2268C7.23334 32.6785 7.3146 32.1772 7.125 31.6445Z" fill="#EF9123"/>
<path d="M49.8749 31.7091C49.8454 32.192 49.8307 32.6749 49.8012 33.2268C49.4181 33.0715 49.1823 32.7266 49.0939 32.33C49.0055 31.8643 49.4918 31.9161 49.6686 31.6746C49.757 31.6229 49.816 31.6401 49.8749 31.7091Z" fill="#E48C28"/>
<path d="M29.2916 7.08057C28.7594 7.20926 28.2272 7.21846 27.7083 7.08057C28.2405 7.08057 28.7727 7.08057 29.2916 7.08057Z" fill="#FE9A20"/>
<path d="M9.18221 34.8092C8.84367 34.7654 8.70825 34.6339 8.70825 34.3929C8.70825 34.1957 8.84367 34.0423 9.0468 34.0204C9.27249 33.9985 9.47562 34.13 9.49819 34.3929C9.52076 34.6558 9.31763 34.7215 9.18221 34.8092Z" fill="#DCDEE5"/>
<path d="M49.0834 34.4248C49.0395 34.6721 48.908 34.8295 48.6448 34.8071C48.4474 34.8071 48.3158 34.6496 48.2938 34.4697C48.2719 34.2224 48.4254 34.0425 48.6667 34.02C48.908 33.9975 49.0395 34.1774 49.0834 34.4248Z" fill="#DDDFE6"/>
<path d="M8.71894 30.8535C8.77869 31.3809 8.78955 31.9083 8.72437 32.4358C8.64833 31.9083 8.65376 31.3809 8.71894 30.8535Z" fill="#23346E"/>
<path d="M48.2917 35.6245C48.0278 35.6725 47.7639 35.6725 47.5 35.6245C47.7639 35.5392 48.0278 35.5392 48.2917 35.6245Z" fill="#20326E"/>
<path d="M9.49992 35.6182C9.23603 35.6793 8.97214 35.6682 8.70825 35.6237C8.97214 35.5404 9.23603 35.5404 9.49992 35.6182Z" fill="#22336D"/>
<path d="M49.4049 31.6446C49.3059 31.6249 49.1822 31.6249 49.0833 31.6051C49.2564 31.348 49.4296 31.1106 49.578 30.8535C49.677 30.8535 49.776 30.8535 49.8749 30.8535C49.8254 31.17 49.6523 31.4271 49.4049 31.6446Z" fill="#956846"/>
<path d="M50.7272 25.3159C50.7176 25.5302 50.7176 25.7444 50.7079 26.107C50.6019 25.728 50.5923 25.5137 50.7272 25.3159Z" fill="#253164"/>
<path d="M50.6667 33.1875C50.9306 33.1875 51.1945 33.1875 51.4584 33.1875C51.1945 33.2741 50.9306 33.3607 50.6667 33.1875Z" fill="#243064"/>
<path d="M12.7442 29.2082C13.1257 28.9814 13.5638 29.0381 13.9595 28.9672C14.1149 28.9388 14.2845 28.9246 14.4541 28.9246C15.0335 28.8963 15.0335 28.4001 14.9628 28.1024C14.8215 27.5069 15.6977 26.7555 14.7367 26.3019C14.3128 26.1034 13.8606 25.9758 13.4084 25.8482C13.041 25.7489 12.9703 25.5788 13.0833 25.2386C13.3236 24.5439 13.5497 23.8492 13.7617 23.1545C13.8464 22.8568 13.9878 22.8001 14.2845 22.8993C14.7226 23.0695 15.1889 23.1687 15.6129 23.3672C15.952 23.5231 16.1499 23.4239 16.2771 23.112C16.2912 23.0836 16.2912 23.0695 16.3053 23.0411C16.6021 22.474 17.1532 21.9069 17.125 21.354C17.0967 20.8295 16.3053 20.5176 15.8673 20.1064C15.5988 19.8512 15.5846 19.6953 15.839 19.4401C16.3477 18.9155 16.8282 18.3768 17.3087 17.8239C17.5206 17.5829 17.7043 17.5262 17.9305 17.7955C17.9587 17.8381 18.0011 17.8664 18.0294 17.8948C18.4675 18.235 18.8631 19.0148 19.2871 18.9013C19.9371 18.7312 20.4883 18.1216 21.0818 17.6963C21.2514 17.5829 21.2655 17.4411 21.1807 17.271C21.1524 17.2143 21.11 17.1434 21.0818 17.0867C20.8839 16.5196 20.2339 15.9383 20.4741 15.4421C20.672 15.031 21.4633 14.9034 22.0003 14.6765C23.1308 14.1803 23.1308 14.1945 23.5972 15.2862C23.6113 15.3287 23.6396 15.3712 23.6537 15.4138C23.795 16.236 24.2614 16.2786 24.9679 16.0801C26.4376 15.6831 26.4659 15.7257 26.4376 14.2087C26.4235 13.6416 26.5507 13.4006 27.1583 13.4573C27.8649 13.514 28.5715 13.4857 29.2639 13.4998C29.4759 14.1803 29.1791 14.9175 29.4194 15.5981C30.1401 15.9241 30.9314 15.9383 31.6663 16.1368C31.9348 16.2077 31.9913 15.995 32.062 15.8249C32.2739 15.3712 32.4859 14.9317 32.6555 14.4639C32.7827 14.0953 32.9805 14.0811 33.2914 14.237C33.8849 14.5348 34.4784 14.8325 35.0861 15.0593C35.5666 15.2436 35.5666 15.4705 35.3687 15.8958C34.6904 17.3702 34.7328 17.3419 36.0188 18.3343C36.5558 18.7454 36.8808 18.7312 37.3754 18.2634C38.4211 17.271 38.4494 17.2993 39.4386 18.3484C40.5267 19.4968 40.5409 19.5251 39.3256 20.5743C38.9016 20.9429 38.8733 21.2122 39.156 21.6801C40.0463 23.197 40.0321 23.2396 41.6996 22.6725C42.166 22.5165 42.3638 22.5732 42.491 23.0553C42.6606 23.7216 42.8867 24.3596 43.1128 25.0117C43.2117 25.2953 43.1693 25.4512 42.8584 25.5221C42.6323 25.5788 42.4062 25.6497 42.1801 25.7206C40.7811 26.1884 41.0213 25.834 41.1627 27.2801C41.2898 28.5135 41.3181 28.5135 42.5334 28.6695C43.5933 28.8112 43.5933 28.8112 43.5085 29.8745C43.4661 30.3849 43.3813 30.9095 43.353 31.4198C43.3248 31.8026 43.1693 31.8593 42.8019 31.831C42.2084 31.7884 41.5018 31.3206 41.0496 31.7459C40.6681 32.1003 40.668 32.8234 40.4561 33.3763C40.2865 33.8016 40.3854 34.0426 40.7952 34.2695C41.2898 34.5388 42.0529 34.7231 42.1236 35.191C42.1943 35.6305 41.6714 36.1834 41.4029 36.6654C40.7811 37.7854 40.7528 37.8279 39.6506 37.1191C38.9723 36.6796 38.5907 36.7788 38.1102 37.4026C37.2058 38.551 37.1352 38.5368 38.0537 39.7135C38.4918 40.2664 38.5201 40.6067 37.8559 40.9186C37.8135 40.9327 37.7852 40.9753 37.7428 41.0036C37.1917 41.3722 36.6547 42.0244 36.1036 42.0244C35.5807 42.0244 35.3263 41.1171 34.9307 40.635C34.7611 40.4224 34.6056 40.2948 34.3513 40.4933C34.3371 40.5074 34.3089 40.5074 34.2947 40.5216C33.7295 40.8052 32.9805 40.9469 32.6414 41.4006C32.2739 41.8826 32.7685 42.5915 32.8675 43.2153C32.9099 43.4988 32.9381 43.7115 32.5566 43.7824C31.8217 43.91 31.0728 44.0517 30.3379 44.2219C30.0129 44.2927 29.8574 44.1935 29.8151 43.8533C29.7868 43.5981 29.7161 43.3429 29.6737 43.0877C29.5042 42.0811 29.5183 42.0811 28.5291 42.0953C26.9887 42.1095 26.9605 42.1095 26.692 43.6548C26.5931 44.2219 26.4094 44.4203 25.83 44.236C25.2223 44.0517 24.6005 43.9383 23.9646 43.8391C23.5972 43.7824 23.5548 43.6122 23.6255 43.3003C23.7244 42.8608 23.7809 42.4214 23.9222 41.996C24.0494 41.5849 23.8939 41.4148 23.5265 41.2588C21.7884 40.4933 21.7742 40.4791 20.6861 41.996C20.46 42.3079 20.3045 42.393 19.9795 42.1236C19.4284 41.6841 18.849 41.273 18.2696 40.876C17.9728 40.6776 17.9022 40.5358 18.1424 40.2097C18.4957 39.7277 19.174 39.274 19.0751 38.7211C18.9762 38.2249 18.3261 37.8421 17.987 37.3743C17.6761 36.9348 17.4076 36.9206 16.9554 37.2041C15.5281 38.0973 15.514 38.0831 14.7085 36.6371C14.0302 35.4462 14.016 35.4036 15.2031 34.7798C15.7966 34.4679 15.9803 34.1844 15.7259 33.4755C15.1465 31.8877 15.2031 31.8451 13.5497 32.1287C13.0127 32.2138 12.829 32.1145 12.8148 31.5616C12.8007 30.9803 12.6311 30.3991 12.6735 29.8036C12.8572 29.591 12.7159 29.3925 12.7442 29.2082Z" fill="#2E3A6C"/>
<path d="M16.0225 15.2436C15.8231 15.2436 15.6379 15.1351 15.8088 14.9724C16.1935 14.5791 15.7234 14.4706 15.5809 14.2943C15.3672 14.0502 15.2247 14.3485 15.0823 14.457C14.4127 14.986 14.427 14.986 15.0823 15.5556C15.4099 15.8404 15.7234 16.1387 16.051 16.4235C16.0937 16.4913 16.0937 16.5592 16.0225 16.6134C15.8801 16.6134 15.7376 16.5592 15.6664 16.4507C15.3672 16.0167 15.0823 16.1523 14.7974 16.4642C14.6692 16.532 14.6122 16.4642 14.5694 16.3693C14.6549 15.542 14.5125 15.4606 13.6719 15.8268C13.558 15.8132 13.4867 15.7454 13.4583 15.6369C14.7119 14.1722 16.2505 13.0059 17.9742 11.8667C17.5468 13.0737 18.8005 13.3992 18.9999 14.2401C18.601 14.335 18.544 13.9552 18.3446 13.8061C18.1309 13.6433 18.1309 13.2229 17.6893 13.3178C17.2477 13.4263 17.1907 13.7383 17.1764 14.0909C17.2477 14.1587 17.2477 14.2129 17.1622 14.2672C16.5781 13.9417 16.8915 13.6433 17.1907 13.3314C17.3331 13.1822 17.789 13.1008 17.4899 12.7889C17.2334 12.5177 17.0767 12.911 16.863 12.9923C16.7348 13.0466 16.6351 13.1551 16.5211 13.2365C16.0225 13.6026 15.3815 13.9281 16.2505 14.5655C16.4072 14.674 16.4072 14.8775 16.3217 15.0673C16.3644 15.325 16.222 15.325 16.0225 15.2436Z" fill="#2E347E"/>
<path d="M38.6072 11.8683C38.5457 11.8541 38.472 11.8541 38.4474 11.8113C38.0294 11.284 37.6975 11.398 37.4394 11.9966C37.2304 12.0108 37.2181 11.8968 37.3164 11.7115C37.3779 11.4407 37.7467 11.1842 37.2918 10.8991C37.0583 10.7566 36.9108 10.6854 36.7632 11.0274C36.5666 11.4977 36.333 11.9396 36.1117 12.3956C36.0625 12.5097 36.0257 12.7235 35.8782 12.6379C35.6815 12.5382 35.8167 12.3529 35.8782 12.2246C36.0994 11.7685 36.3084 11.3125 36.5543 10.8706C36.7387 10.5286 36.5543 10.4288 36.3576 10.2863C36.1117 10.101 36.038 10.2863 35.9519 10.4858C35.6938 11.0559 35.5585 11.7115 35.1283 12.3529C35.1037 11.7828 35.4602 11.1984 34.8333 10.9989C34.8701 10.9419 34.907 10.8991 34.9685 10.8706C35.62 10.5998 35.6815 10.3861 35.325 9.63068C35.3987 9.4739 35.4971 9.45965 35.6077 9.54517C36.419 9.81596 37.0706 10.4431 37.8204 10.8421L37.8082 10.8279C38.0417 11.2555 38.4966 11.3552 38.7916 11.7115C38.767 11.8398 38.7424 11.9396 38.6072 11.8683Z" fill="#30347D"/>
<path d="M30.2991 7.94748C31.2724 8.16007 32.3075 8.1297 33.2499 8.55489C33.1881 8.69155 33.1109 8.76748 32.9564 8.70674C32.5238 8.63081 32.323 8.75229 32.2612 9.22303C32.1839 9.81524 32.2303 10.4682 31.7204 11.0756C31.6277 10.3163 31.8595 9.70895 31.9522 9.10155C32.014 8.73711 31.9522 8.5397 31.5505 8.46378C31.1334 8.38785 30.9943 8.55489 30.9634 8.91933C30.948 9.11673 30.9171 9.31414 30.8707 9.51154C30.8244 9.66339 30.8553 9.92154 30.6081 9.89117C30.4845 9.87598 30.3763 9.70895 30.2991 9.60265C30.1909 9.4508 30.16 9.35969 30.3609 9.17747C30.8553 8.73711 30.778 8.46378 30.16 8.22081C30.0673 8.1297 30.0673 8.03859 30.1137 7.9323C30.1755 7.90193 30.2373 7.90193 30.2991 7.94748Z" fill="#33367C"/>
<path d="M39.4685 14.1889C39.7982 14.0549 39.9081 13.8912 39.5894 13.519C39.4026 13.2957 39.1389 13.2063 38.996 12.8788C38.974 12.7002 39.029 12.6257 39.1608 12.6704C39.5235 13.117 39.996 13.385 40.3256 13.9061C40.3916 14.0103 40.3916 14.1294 40.3256 14.2336C40.1388 14.0847 39.996 14.0549 39.8311 14.3527C39.5894 14.8142 39.3037 15.2162 39.04 15.6628C38.985 15.767 38.9411 15.8861 38.8422 15.7819C38.7433 15.6777 38.8092 15.5735 38.8751 15.4693C39.007 15.246 39.1389 14.9929 39.2817 14.7844C39.4026 14.5909 39.4685 14.4271 39.3147 14.2187C39.3586 14.1443 39.4136 14.1294 39.4685 14.1889Z" fill="#37387A"/>
<path d="M22.1667 9.95496C22.4455 9.76381 22.7354 9.61361 23.0476 9.53169C23.1591 9.50438 23.3041 9.4088 23.3041 9.68188C23.0922 9.88669 23.2706 10.0915 23.3152 10.2827C23.4379 10.8015 23.6943 11.2794 23.7501 11.8665C23.3264 11.8529 23.5048 10.9107 22.9696 11.1975C22.9027 11.1565 22.8358 11.1155 22.8246 10.9927C23.0142 10.2963 22.9919 10.2553 22.4121 10.1734C22.3006 10.1461 22.2113 10.0778 22.1667 9.95496Z" fill="#37387A"/>
<path d="M43.2483 15.8223C43.7468 16.0676 44.0107 16.4219 44.3333 16.8172C43.4096 16.8444 43.0578 17.5668 42.4567 17.9484C42.3247 18.0301 42.2074 18.33 42.0168 18.1255C41.8409 17.9347 42.1048 17.8257 42.2368 17.703C42.4273 17.5259 42.6326 17.376 42.8378 17.2124C43.263 16.8444 43.8788 16.5446 43.2483 15.8223Z" fill="#3B3A78"/>
<path d="M32.4583 8.85429C32.5447 8.80864 32.6455 8.763 32.7318 8.70215C33.1926 8.763 33.6102 8.91514 34.0278 9.12813C34.071 9.29549 34.0134 9.38677 33.8406 9.34113C33.3366 9.79754 33.1494 10.4365 32.8759 11.0755C32.6599 10.8777 32.6167 10.5582 32.5159 10.2692C32.4727 10.117 32.5159 9.8584 32.6455 9.93447C33.207 10.2235 33.1206 9.69104 33.1782 9.46284C33.279 9.02164 32.8758 9.12813 32.6743 9.02164C32.6167 8.96078 32.5447 8.89993 32.4583 8.85429Z" fill="#35377B"/>
<path d="M23.7537 9.63253C24.7225 9.22687 25.6595 8.78065 26.6919 8.80093C27.0413 8.80093 27.4225 8.47641 27.7083 9.00376C27.613 9.02404 27.5336 9.02404 27.4383 9.04433C27.2001 9.308 27.3748 9.65281 27.3113 9.93677C27.3113 10.0382 27.3113 10.1193 27.2795 10.2207C27.216 10.3019 27.1525 10.3019 27.0889 10.241C27.073 10.0585 27.0572 9.87592 27.0413 9.69338C26.9778 9.02404 26.6601 9.02404 26.2631 9.20659C26.1042 9.308 25.8025 9.26744 25.8183 9.63253C25.8819 10.4033 25.4848 10.2613 25.1354 10.241L25.1513 10.2613C25.2466 10.1193 25.4213 9.95705 25.4054 9.83535C25.3578 9.51083 25.1195 9.71366 24.9607 9.67309C24.5954 9.5514 24.2778 9.8962 23.9284 9.8962C23.7695 9.95705 23.7378 9.83535 23.7537 9.63253Z" fill="#393979"/>
<path d="M22.8211 11.2399C22.8633 11.2883 22.9161 11.3366 22.9583 11.385C22.8739 11.5059 22.6733 11.4696 22.6628 11.6752C22.6522 11.8928 22.5467 11.8928 22.42 11.8324C22.3144 11.7719 22.1244 11.7477 22.1667 11.5905C22.3144 10.9134 22.1878 10.5386 21.375 10.8046C21.4067 10.7321 21.4383 10.6716 21.47 10.599C21.7128 10.4902 21.9556 10.3814 22.1983 10.2847C22.2933 10.2968 22.3778 10.3089 22.4306 10.4177C22.3989 10.7804 22.5889 11.0222 22.8211 11.2399Z" fill="#36377A"/>
<path d="M14.8658 16.5462C14.9245 16.5872 14.9831 16.6281 15.0417 16.6691C14.8658 16.833 14.47 16.833 14.5433 17.2018C14.3967 17.434 14.2061 17.4477 13.9569 17.3384C14.1181 16.874 13.8103 16.3413 13.4584 16.4642C13.1945 16.5599 13.1212 16.9696 12.6667 16.8877C12.9306 16.4369 13.2825 16.1228 13.6637 15.8223C13.7223 15.8769 13.7663 15.9315 13.8249 15.9725C14.1328 16.2457 14.47 16.4506 14.8658 16.5462Z" fill="#36387A"/>
<path d="M29.1095 11.0755C29.0666 11.0385 29.0345 11.0016 28.9917 10.9646C28.8845 10.8168 28.8845 10.632 28.8952 10.4471C28.9381 9.9543 28.7774 9.78181 28.3597 9.92966C28.2525 10.0036 28.1561 10.2007 28.0169 9.97895C27.9847 9.92966 27.9419 9.86806 27.9526 9.8311C27.9955 9.63396 28.1454 9.70789 28.2525 9.68325C28.4989 9.63396 28.7881 9.80645 28.9809 9.49843C28.9917 9.11649 28.8203 8.98096 28.4989 9.01792C28.2954 9.04256 28.0811 9.03024 27.8776 9.01792C27.7705 9.0056 27.6634 8.98096 27.7277 8.80847C28.2525 8.66062 28.7667 8.67294 29.2916 8.80847C29.0238 9.54772 29.2594 10.3363 29.1095 11.0755Z" fill="#273082"/>
<path d="M41.3371 15.4399C41.5076 15.265 41.6538 15.0173 41.9095 15.0319C42.0069 15.3379 41.739 15.2504 41.6903 15.3816C41.605 15.6001 41.1057 15.8333 41.739 15.9935C41.9948 16.0518 41.9826 16.3287 41.9217 16.5764C41.873 16.6347 41.8364 16.6201 41.7877 16.5618C41.6172 15.9935 41.3006 16.0664 40.9596 16.285C40.85 16.285 40.7647 16.2558 40.8378 16.081C40.6916 15.9498 40.4481 15.979 40.375 15.7021C40.4115 15.6438 40.4481 15.6147 40.509 15.5856C40.6673 15.5273 40.8256 15.5418 40.9839 15.5273C41.0935 15.4981 41.2275 15.4981 41.3371 15.4399Z" fill="#31347C"/>
<path d="M16.7459 16.6133C17.1581 16.6133 17.5579 16.6133 17.9701 16.6133C18.095 16.6133 18.22 16.6762 18.2075 16.9697C18.195 17.1793 18.0825 17.2422 17.9826 17.2212C17.7453 17.2003 17.5329 17.2422 17.408 17.6615C17.3455 17.6825 17.2956 17.7244 17.2581 17.8083C17.1207 18.0389 16.9458 18.3743 16.7584 18.0808C16.546 17.7454 16.596 17.347 16.8459 17.0745C17.1831 16.8858 17.5204 16.9277 17.8577 16.9697C17.5829 16.9068 17.3081 16.9277 17.0332 16.9487C16.8833 16.9277 16.7209 16.9906 16.7459 16.6133Z" fill="#F19222"/>
<path d="M37.7718 11.8667C37.7718 11.9851 37.8174 12.1035 38.0001 12.1627C37.6804 12.5178 37.3608 12.8729 37.0183 13.2281C36.9042 13.3317 36.8128 13.5388 36.5389 13.4057C36.3105 13.3021 36.4475 13.1393 36.5845 13.0209C36.9727 12.6214 37.3608 12.2514 37.7718 11.8667Z" fill="#433D74"/>
<path d="M15.716 16.8905C15.4681 17.15 15.3854 17.5175 15.6747 17.7121C15.8813 17.8635 16.0466 17.5175 16.1705 17.3013C16.3358 17.0202 16.5011 17.15 16.6251 17.3662C16.4598 17.9284 16.1912 18.404 15.5714 18.1013C14.9722 17.7986 14.8896 17.2797 15.2821 16.6959C15.4887 16.6094 15.6953 16.5013 15.716 16.8905Z" fill="#403D76"/>
<path d="M29.2934 11.0609C29.2934 10.5048 29.3089 9.9487 29.2934 9.37996C29.2779 9.12719 29.3708 8.93761 29.6032 8.78594C29.7736 8.68483 29.9285 8.65956 30.0834 8.79858C30.0834 8.86177 30.0834 8.93761 30.0834 9.0008C29.5722 8.95025 29.4173 9.12719 29.4483 9.53162C29.4793 10.0372 29.4328 10.5301 29.4173 11.0356C29.4173 11.0483 29.3863 11.0609 29.3708 11.0609C29.3399 11.0862 29.3089 11.0735 29.2934 11.0609Z" fill="#433D74"/>
<path d="M24.5406 9.74081C24.156 10.0654 24.0945 10.4983 24.4637 11.0754C23.6484 10.9131 23.8791 10.2458 23.7714 9.81295C23.7407 9.75884 23.7407 9.6867 23.7868 9.6326C23.956 9.70474 24.0945 9.66867 24.2483 9.56046C24.4022 9.48832 24.556 9.39814 24.5406 9.74081Z" fill="#463F73"/>
<path d="M41.9583 16.2259C41.8817 16.4299 41.7476 16.5523 41.5561 16.6135C41.307 16.0831 40.9431 15.7363 40.3876 15.6139C40.3684 15.5119 40.3684 15.4303 40.4067 15.3487C41.2304 14.7571 41.5944 14.9611 41.9583 16.2259Z" fill="#403C76"/>
<path d="M40.375 13.8235C40.375 13.7044 40.375 13.5683 40.375 13.4492C40.9328 13.8405 41.4725 14.2659 41.9583 15.0315C41.1127 14.7763 40.7708 14.2659 40.375 13.8235Z" fill="#413C75"/>
<path d="M27.0266 8.76336C27.3313 9.01602 27.6846 8.87565 28.0136 8.87565C28.4157 8.87565 28.5619 9.04409 28.4766 9.49327C28.4278 9.17042 28.306 8.97391 27.977 9.01602C27.6237 9.05813 27.2703 9.01602 26.9048 9.00198C26.6733 8.77739 26.3809 8.94584 26.125 8.86161C26.3809 8.80547 26.6367 8.76336 26.8926 8.70721C26.9414 8.69317 26.9901 8.70721 27.0266 8.76336Z" fill="#423D76"/>
<path d="M38.5524 13.0601C38.0275 12.9931 37.6916 13.1405 37.4816 13.4488C37.0617 13.4488 37.2506 13.2746 37.2506 13.1539C37.6286 12.7116 38.0485 12.4167 38.7623 12.9261C38.8463 13.0601 38.7413 13.1003 38.5524 13.0601Z" fill="#443E74"/>
<path d="M37.2399 11.0258C37.1268 10.5758 37.3207 10.3425 37.7571 10.2925C38.339 10.2258 38.5815 10.5925 38.7916 11.0758C38.2744 10.5425 37.7571 10.6092 37.2238 11.0091L37.2399 11.0258Z" fill="#3F3B76"/>
<path d="M29.2917 13.4846C28.5043 13.4846 27.7042 13.4846 26.9167 13.4846C26.9167 13.4646 26.9167 13.4546 26.9167 13.4346C27.7042 13.4346 28.5043 13.4346 29.2917 13.4346C29.2917 13.4546 29.2917 13.4746 29.2917 13.4846Z" fill="#FD981F"/>
<path d="M38 12.887C38.0868 12.8182 38.1518 12.7265 38.2386 12.6577C38.2603 13.575 39.2797 13.4144 39.5833 14.0106C39.4749 14.0336 39.3664 14.0336 39.258 14.0565C38.8676 14.1024 38.4989 14.1712 38.0217 14.2399C38.0217 13.7584 38.4338 13.2998 38 12.887Z" fill="#31357C"/>
<path d="M27.1058 7.96607C27.0428 7.96055 26.9798 7.95504 26.9167 7.94952C26.9325 7.93297 26.9325 7.92194 26.9325 7.9054C27.7675 7.85576 28.6025 7.86679 29.4375 7.89988C29.658 7.91643 29.9101 7.88334 30.0834 7.95504C30.0362 7.96055 29.9731 7.96607 29.9259 7.97158C29.7683 7.97158 29.6108 7.96607 29.4375 7.96607C28.6813 7.96607 27.8935 7.96607 27.1058 7.96607Z" fill="#A06B4B"/>
<path d="M29.2917 7.96359C28.5001 7.96359 27.7084 7.97158 26.9167 7.97158C27.7084 7.82772 28.5001 7.85169 29.2917 7.96359Z" fill="#FE9A1D"/>
<path d="M34.2246 11.0754C33.9586 10.8121 34.0251 10.5334 34.1581 10.2392C34.2579 10.0069 34.474 9.80557 34.341 9.52682C34.6403 9.40294 34.6736 9.65071 34.8066 9.79008C34.9063 10.1153 34.7068 10.3785 34.5572 10.6418C34.4574 10.7812 34.4075 10.967 34.2246 11.0754Z" fill="#36377B"/>
<path d="M30.1258 15.0315C29.9876 14.9673 30.0657 14.7642 30.0657 14.6466C30.0537 14.251 30.0597 13.8555 30.0597 13.4492C30.2159 13.9517 30.1017 14.5076 30.1258 15.0315Z" fill="#26356D"/>
<path d="M25.6558 10.3032C25.932 10.3695 26.0701 10.4889 26.1161 10.648C26.1621 10.8205 26.024 10.9398 25.7939 11.0327C25.6789 11.0857 25.5178 11.099 25.4027 11.0194C25.1956 10.8735 25.5178 10.7939 25.5178 10.6745C25.5408 10.595 25.4717 10.5154 25.4257 10.4358C25.3797 10.3164 25.4257 10.2501 25.6558 10.3032Z" fill="#52456E"/>
<path d="M27.0856 9.66457C27.0856 9.62502 27.0856 9.57228 27.0856 9.53272C27.1717 9.47998 27.2578 9.47998 27.344 9.53272C27.3727 9.61183 27.3727 9.67776 27.4014 9.75687C27.6597 10.0206 27.3153 10.3238 27.631 10.5875C27.6597 10.7458 27.832 10.9172 27.5449 11.0754C26.856 10.9699 27.0856 10.7062 27.0282 10.4821C26.8847 10.2052 26.856 9.94146 27.0856 9.66457Z" fill="#35367A"/>
<path d="M41.6915 16.6133C41.7885 16.6133 41.8613 16.6133 41.9583 16.6297C41.9098 16.6956 41.8856 16.7779 41.837 16.8438C41.5944 17.1896 41.1577 17.3707 40.6239 17.4037C40.2357 17.4201 40.3085 17.1567 40.7938 16.9755C41.0121 16.8932 41.2305 16.8438 41.4246 16.7615C41.4974 16.7121 41.5944 16.6627 41.6915 16.6133Z" fill="#383879"/>
<path d="M13.4583 16.9732C13.6399 17.0092 13.8087 16.9012 13.9774 16.6133C14.2889 17.4052 14.7171 16.5773 15.0416 17.2612C14.5095 17.2612 13.9774 17.7291 13.4583 16.9732Z" fill="#433E74"/>
<path d="M16.9089 17.4044C16.8161 17.3226 16.7233 17.268 16.6305 17.1862C16.6172 17.1316 16.6305 17.0498 16.6438 16.9952C16.657 16.8588 16.657 16.7224 16.6703 16.6133C16.71 16.6133 16.7498 16.6406 16.7896 16.6678C17.2139 17.3226 17.7177 16.586 18.2083 17.077C17.7575 17.3771 17.3067 17.0498 16.9089 17.4044Z" fill="#52446D"/>
<path d="M34.8997 10.2278C34.747 10.1076 34.5943 10.0045 34.4225 9.88423C34.2889 9.88423 34.1362 9.90141 34.0598 9.76398C34.0025 9.55783 34.0789 9.45476 34.327 9.5063C34.7661 9.67809 35.186 9.86705 35.6251 10.0388C35.4724 10.056 35.3197 10.0732 35.2242 10.2106C35.1288 10.2965 35.0142 10.3137 34.8997 10.2278Z" fill="#35377B"/>
<path d="M27.7083 9.63547C28.4208 9.36119 28.4999 9.42976 28.4999 10.3211C28.4999 10.5783 28.4867 10.8183 28.4735 11.0754C28.4471 11.0411 28.4076 11.024 28.3812 11.0068C28.1569 10.5954 28.4208 10.0983 28.2228 9.68689C28.0645 9.66975 27.8798 9.65261 27.7083 9.63547Z" fill="#433D74"/>
<path d="M24.087 10.1378C24.087 10.1817 24.087 10.2257 24.0718 10.2843C23.8293 10.1524 23.6626 9.96197 23.799 9.68362C23.9657 9.36131 24.3143 9.63967 24.5417 9.50781L24.5265 9.49316C24.572 9.83012 23.9961 9.75687 24.087 10.1378Z" fill="#51446E"/>
<path d="M15.8333 15.4741C16.0054 15.44 16.143 15.3378 16.2291 15.0312C16.5733 15.3719 17.0035 15.0313 17.4166 15.7466C16.8142 15.8488 16.3151 15.9169 15.8333 15.4741Z" fill="#423D75"/>
<path d="M16.625 14.5243C16.625 14.4369 16.6476 14.3495 16.6476 14.2402C17.1679 14.4806 17.6881 14.7428 18.2083 14.9832C17.575 15.1143 17.0548 14.9832 16.625 14.5243Z" fill="#2A317E"/>
<path d="M38.0027 12.6577C38.023 12.8074 38.0383 12.9784 38.0586 13.1281C38.0535 13.513 38.084 13.8978 38.0078 14.2399C37.9621 13.7054 37.9316 13.1923 38.0027 12.6577Z" fill="#6F5361"/>
<path d="M40.9763 15.8223C41.0334 15.8929 41.1096 15.9494 41.1667 16.02C41.0525 16.2743 40.767 16.4015 40.4053 16.6134C40.2531 16.1472 40.7099 16.02 40.9763 15.8223Z" fill="#36377B"/>
<path d="M42.7499 15.5452C42.7301 15.6934 42.7103 15.8415 42.5321 15.8203C42.2549 15.7568 42.0965 15.524 41.9778 15.2912C41.9184 15.1854 41.9976 14.995 42.1757 15.0373C42.4727 15.0796 42.5915 15.3336 42.7499 15.5452Z" fill="#383879"/>
<path d="M40.7189 15.0312C40.7442 15.094 40.7694 15.1694 40.7946 15.2322C41.1227 15.3954 41.2994 15.5838 41.047 15.8098C40.9461 15.8098 40.8703 15.8098 40.7694 15.8224C40.2394 15.5712 40.2646 15.3075 40.7189 15.0312Z" fill="#4A4072"/>
<path d="M25.3334 9.92676C25.2938 10.034 25.2411 10.177 25.2015 10.2843C25.0695 10.2843 24.9376 10.2485 24.8056 10.2485C24.7529 9.96251 24.6473 9.92676 24.5417 9.89101C24.8056 9.35473 25.0827 9.35473 25.3334 9.92676Z" fill="#614C69"/>
<path d="M28.468 9.49316C28.6381 9.94523 28.5166 10.5411 28.5409 11.0754C28.395 10.6233 28.4983 10.0274 28.468 9.49316Z" fill="#FE9A1D"/>
<path d="M26.125 8.9327C26.5609 8.62906 26.9323 8.46556 26.9162 9.49327C26.8193 8.81592 26.4318 8.97941 26.125 8.9327Z" fill="#423D76"/>
<path d="M12.6648 29.2715C12.748 29.5416 12.748 29.7925 12.6648 30.0626C12.6426 29.7925 12.5926 29.5223 12.6648 29.2715Z" fill="#1F326F"/>
<path d="M34.0417 9.82787C33.9537 9.98001 33.8833 10.1321 33.7954 10.2843C33.6194 10.1626 33.4435 10.0409 33.25 9.91915C33.3204 9.76701 33.4083 9.6453 33.4787 9.49316C33.6722 9.58445 33.8657 9.70616 34.0417 9.82787Z" fill="#36377B"/>
<path d="M26.9714 9.50572C26.9714 9.76943 26.9614 10.0206 26.9614 10.2843C26.8614 10.0331 26.8814 9.76943 26.8914 9.49316C26.9114 9.50572 26.9414 9.50572 26.9714 9.50572Z" fill="#4C4271"/>
<path d="M26.9713 10.2843C26.815 10.0457 26.9029 9.75687 26.8931 9.49316C26.9908 9.74431 26.9811 10.008 26.9713 10.2843Z" fill="#4C4271"/>
<path d="M25.3334 11.0971C25.062 11.1527 24.7906 11.1527 24.5417 11.0723C24.8584 10.9919 25.0846 11.0661 25.3334 11.0971Z" fill="#4F436E"/>
<path d="M39.5834 12.2886C39.4792 12.4205 39.3751 12.526 39.2709 12.6578C39.1042 12.4732 38.9584 12.315 38.7917 12.1304C38.8751 12.0513 38.9792 11.9458 39.0626 11.8667C39.3126 11.8667 39.4376 12.0777 39.5834 12.2886Z" fill="#3D3B78"/>
<path d="M34.0417 10.8828C34.074 10.6706 33.9773 10.439 34.364 10.2847C34.783 10.4776 34.8797 10.7285 34.8152 11.0179C34.6541 11.0372 34.4607 11.0565 34.2996 11.0758C34.2351 10.9986 34.1384 10.9407 34.0417 10.8828Z" fill="#453E72"/>
<path d="M23.5262 9.45447C23.595 9.47534 23.6811 9.49621 23.7499 9.51709C23.6122 9.52752 23.4918 9.54318 23.3541 9.55361C23.268 9.50665 23.1131 9.50665 22.9583 9.49621C23.1131 9.44403 23.3197 9.45447 23.5262 9.45447Z" fill="#51446E"/>
<path d="M26.9479 9.49327C26.9258 9.49327 26.9038 9.49327 26.8818 9.49327C26.9038 9.2188 26.8158 8.89589 26.9772 8.70215C26.9625 8.96047 26.9552 9.2188 26.9479 9.49327Z" fill="#423D76"/>
<path d="M19 28.8344C19 23.8794 23.3019 19.7778 28.5215 19.7778C33.7698 19.7778 38 23.8244 38 28.8482C38 33.8582 33.7268 37.9735 28.5502 37.9735C23.3306 37.9735 19 33.8306 19 28.8344Z" fill="#FCFDFE"/>
<path d="M30.0681 41.9646C29.2815 41.9646 28.4949 41.9646 27.7083 41.9646C27.7083 41.9446 27.7083 41.9346 27.7083 41.9146C28.4949 41.9146 29.2966 41.9146 30.0833 41.9146C30.0833 41.9346 30.0681 41.9446 30.0681 41.9646Z" fill="#24356D"/>
<path d="M14.7409 16.5013C13.9713 16.8511 13.6965 16.3265 13.4583 15.7047C13.8614 15.627 13.9163 14.7526 14.4844 15.1218C15.0158 15.4521 15.2906 15.9184 14.7409 16.5013Z" fill="#E48C29"/>
<path d="M34.355 11.0474C34.0825 10.8708 33.9987 10.6588 34.0616 10.3762C34.2083 10.0937 34.376 9.79341 34.5227 9.51083C34.6485 9.51083 34.7743 9.49316 34.9 9.49316C35.1306 9.72276 35.8224 9.6168 35.5708 10.1643C35.3612 10.6588 35.2145 11.2063 34.355 11.0474Z" fill="#E18A2B"/>
<path d="M22.3804 11.0754C21.4861 11.0144 21.1284 10.4449 21.5532 9.67212C21.978 9.69246 22.4922 9.12301 22.8052 9.91617C23.0288 10.4653 23.0959 10.872 22.3804 11.0754Z" fill="#ED9125"/>
<path d="M40.5241 15.8224C40.4973 15.5851 40.3233 15.3923 40.3902 15.1401C41.0462 14.8138 41.1533 15.2736 41.1667 15.8224C40.9391 15.8224 40.7383 15.8224 40.5241 15.8224Z" fill="#E88E27"/>
<path d="M27.0115 28.4806C27.3459 28.3129 27.2441 28.0055 27.2441 27.7401C27.2441 25.798 27.2441 23.8559 27.2441 21.9138C27.2441 21.6762 27.1132 21.299 27.6221 21.3688C28.2473 21.4387 28.8871 21.3968 29.5123 21.3688C31.9403 21.5365 33.8741 22.5844 35.4589 24.3169C35.677 24.5545 35.6479 24.7081 35.4007 24.8758C35.3862 24.8898 35.3571 24.9038 35.3426 24.9177C34.8337 25.3369 34.383 25.9796 33.7869 26.1333C33.1617 26.287 32.9145 25.3928 32.3911 25.0714C31.7804 24.6942 31.1698 24.3309 30.4719 24.0934C30.1229 23.9816 29.9339 23.9537 29.9484 24.4008C29.963 25.5884 29.9775 26.776 29.9484 27.9497C29.9339 28.4247 30.2101 28.3968 30.5446 28.3968C32.4783 28.3968 34.4121 28.3968 36.3458 28.3968C36.6075 28.3968 36.8692 28.4387 37.1309 28.4526C37.0146 28.5784 36.8692 28.5365 36.7238 28.5365C34.6592 28.5365 32.6092 28.5365 30.5446 28.5365C30.4428 28.5365 30.3119 28.5644 30.2974 28.5365C30.6609 28.5365 31.0971 28.5365 31.5332 28.5365C33.1617 28.5365 34.7755 28.5365 36.404 28.5365C37.1891 28.5365 37.1746 28.5365 37.2036 29.3189C37.2327 29.9197 37.1164 30.5205 37.1891 31.1213C36.9274 33.245 35.7788 34.8798 34.1649 36.277C33.9904 36.4306 33.8596 36.4865 33.6996 36.277C33.656 36.2211 33.6124 36.1652 33.5542 36.1233C33.1035 35.6342 32.4347 35.2011 32.2893 34.6283C32.1439 34.0414 33.0744 33.7899 33.4234 33.2869C33.9032 32.5883 34.3684 31.9037 34.5429 31.0095C33.1035 31.0095 31.7368 31.0235 30.3555 30.9955C29.8903 30.9816 29.9339 31.247 29.9339 31.5405C29.9339 33.4406 29.9484 35.3548 29.9339 37.255C29.9339 37.4925 30.0793 37.772 29.803 37.9536C29.6431 37.1292 29.7449 36.2909 29.7449 35.4526C29.7303 34.265 29.7303 33.0774 29.7449 31.8898C29.7449 31.6802 29.6722 31.4566 29.7303 31.3588C29.7303 31.5963 29.7303 31.9456 29.7303 32.3089C29.7303 33.9157 29.7303 35.5225 29.7303 37.1292C29.7303 37.9536 29.7303 37.9256 28.8289 37.9676C27.9856 38.0095 27.1569 37.8278 26.3136 37.7999C24.4816 37.3807 23.0131 36.4167 21.7772 35.0893C21.5591 34.8518 21.6028 34.7261 21.8354 34.5305C22.3297 34.1253 22.8241 33.7061 23.2893 33.273C23.5656 33.0075 23.711 33.1053 23.9 33.3568C24.6415 34.251 25.5575 34.9077 26.6916 35.271C27.0696 35.3827 27.215 35.3408 27.215 34.9217C27.2005 33.8039 27.1859 32.6862 27.215 31.5684C27.2296 31.1073 27.0842 30.9816 26.6044 30.9816C24.6415 31.0095 22.6787 30.9676 20.7159 31.0095C20.1052 31.0235 19.858 30.8838 19.8144 30.269C19.6109 27.3628 20.7886 25.0295 22.9404 23.0734C23.144 22.8918 23.2894 22.8359 23.4638 23.0734C23.4929 23.1153 23.5365 23.1433 23.5656 23.1712C24.0309 23.6742 24.7578 24.1074 24.9032 24.6942C25.0777 25.3089 24.089 25.5604 23.7401 26.0914C23.362 26.6642 23.0131 27.2371 22.7659 27.8798C22.606 28.3129 22.7078 28.3968 23.144 28.4107C24.249 28.4247 25.3685 28.3269 26.4735 28.4666C25.4121 28.6762 24.3507 28.4946 23.2893 28.5644C24.5688 28.5085 25.7901 28.6902 27.0115 28.4806Z" fill="#C5262E"/>
<path d="M26.1251 26.1872C26.0978 26.588 25.8253 26.8553 25.362 26.8954C24.926 26.9355 24.5036 26.5346 24.5445 26.107C24.5854 25.6527 24.8306 25.3587 25.3075 25.3186C25.7163 25.2785 26.1251 25.6928 26.1251 26.1872Z" fill="#C52931"/>
<path d="M26.1247 32.5273C26.0842 32.9284 25.787 33.1691 25.3413 33.2226C24.9496 33.2761 24.5038 32.8081 24.5443 32.3936C24.5984 31.939 24.8415 31.6582 25.3278 31.6449C25.7735 31.6315 26.1382 32.0059 26.1247 32.5273Z" fill="#C52830"/>
<path d="M30.875 32.1766C31.0151 31.7328 31.3512 31.5848 31.7855 31.6655C32.1777 31.7462 32.4298 32.0017 32.4578 32.4052C32.4718 32.8221 32.2057 33.0641 31.8275 33.1852C31.3793 33.3196 31.0711 33.1179 30.903 32.7279C30.903 32.5531 30.903 32.3648 30.875 32.1766Z" fill="#C62A31"/>
<path d="M30.8809 25.8152C31.037 25.4319 31.335 25.2469 31.7607 25.3394C32.1439 25.4319 32.4135 25.6698 32.4561 26.0795C32.4844 26.4627 32.2432 26.7006 31.9026 26.8327C31.4769 26.9913 31.1221 26.8592 30.9093 26.4627C30.9376 26.2381 30.8525 26.0266 30.8809 25.8152Z" fill="#C52930"/>
<path d="M26.125 37.6428C26.8177 37.3432 27.4939 37.7141 28.2031 37.6855C29.9184 37.6142 29.9184 37.657 29.9184 36.1737C29.9184 34.405 29.9184 32.6364 29.9184 30.8535C29.9679 30.8535 30.0339 30.8535 30.0833 30.8535C30.0833 33.1641 30.0833 35.4748 30.0833 37.7854C28.7474 38.0992 27.428 37.9993 26.125 37.6428Z" fill="#C5252E"/>
<path d="M37.0397 30.0623C36.7476 29.528 36.9284 28.9688 36.9284 28.4221C36.9284 27.9623 36.7893 27.8132 36.2606 27.8132C34.4798 27.8381 32.685 27.8257 30.9041 27.8257C30.6815 27.8257 30.445 27.8878 30.0833 27.689C32.4763 27.689 34.7302 27.689 36.9702 27.689C37.3876 28.2978 37.1232 28.9564 37.151 29.5901C37.151 29.7392 37.0815 29.9008 37.0397 30.0623Z" fill="#C3252C"/>
<path d="M26.7646 27.6494C26.8044 27.6757 27.0299 27.7281 26.8442 27.7369C25.5577 27.7631 24.258 27.7544 22.9583 27.6494C24.0723 27.6494 25.1996 27.6494 26.3137 27.6494C26.4728 27.6494 26.6187 27.6494 26.7646 27.6494Z" fill="#C22128"/>
<path d="M29.2916 20.5626C28.7679 20.6515 28.232 20.6515 27.7083 20.5626C28.232 20.5208 28.7557 20.5156 29.2916 20.5626Z" fill="#BF161E"/>
<path d="M30.884 26.1069C30.9543 26.3653 30.9493 26.6236 30.889 26.8981C30.8237 26.6397 30.8136 26.3653 30.884 26.1069Z" fill="#C11B23"/>
<path d="M30.8733 32.436C30.9553 32.6869 30.9553 32.957 30.8784 33.2271C30.822 32.9763 30.822 32.7062 30.8733 32.436Z" fill="#C11921"/>
<path d="M26.9521 20.5995C26.9521 22.9575 26.9521 25.3309 26.9521 27.6889C26.9321 27.6889 26.9221 27.6889 26.9021 27.6889C26.9021 25.3155 26.9021 22.9422 26.9021 20.5688C26.9221 20.5842 26.9421 20.5842 26.9521 20.5995Z" fill="#C01820"/>
<path d="M26.927 35.6004C27.4793 35.6004 27.927 34.1836 27.927 32.436C27.927 30.6883 27.4793 29.2715 26.927 29.2715C26.3747 29.2715 25.927 30.6883 25.927 32.436C25.927 34.1836 26.3747 35.6004 26.927 35.6004Z" fill="#C21A22"/>
<path d="M74.6758 26.2227C74.7031 26.7109 74.8184 27.1074 75.0215 27.4121C75.4082 27.9824 76.0898 28.2676 77.0664 28.2676C77.5039 28.2676 77.9023 28.2051 78.2617 28.0801C78.957 27.8379 79.3047 27.4043 79.3047 26.7793C79.3047 26.3105 79.1582 25.9766 78.8652 25.7773C78.5684 25.582 78.1035 25.4121 77.4707 25.2676L76.3047 25.0039C75.543 24.832 75.0039 24.6426 74.6875 24.4355C74.1406 24.0762 73.8672 23.5391 73.8672 22.8242C73.8672 22.0508 74.1348 21.416 74.6699 20.9199C75.2051 20.4238 75.9629 20.1758 76.9434 20.1758C77.8457 20.1758 78.6113 20.3945 79.2402 20.832C79.873 21.2656 80.1895 21.9609 80.1895 22.918H79.0938C79.0352 22.457 78.9102 22.1035 78.7188 21.8574C78.3633 21.4082 77.7598 21.1836 76.9082 21.1836C76.2207 21.1836 75.7266 21.3281 75.4258 21.6172C75.125 21.9062 74.9746 22.2422 74.9746 22.625C74.9746 23.0469 75.1504 23.3555 75.502 23.5508C75.7324 23.6758 76.2539 23.832 77.0664 24.0195L78.2734 24.2949C78.8555 24.4277 79.3047 24.6094 79.6211 24.8398C80.168 25.2422 80.4414 25.8262 80.4414 26.5918C80.4414 27.5449 80.0938 28.2266 79.3984 28.6367C78.707 29.0469 77.9023 29.252 76.9844 29.252C75.9141 29.252 75.0762 28.9785 74.4707 28.4316C73.8652 27.8887 73.5684 27.1523 73.5801 26.2227H74.6758ZM83.1836 20.3926V25.7129C83.1836 26.3379 83.3008 26.8574 83.5352 27.2715C83.8828 27.8965 84.4688 28.209 85.293 28.209C86.2812 28.209 86.9531 27.8711 87.3086 27.1953C87.5 26.8281 87.5957 26.334 87.5957 25.7129V20.3926H88.7793V25.2266C88.7793 26.2852 88.6367 27.0996 88.3516 27.6699C87.8281 28.709 86.8398 29.2285 85.3867 29.2285C83.9336 29.2285 82.9473 28.709 82.4277 27.6699C82.1426 27.0996 82 26.2852 82 25.2266V20.3926H83.1836ZM94.5918 24.3359C95.1387 24.3359 95.5703 24.2266 95.8867 24.0078C96.207 23.7891 96.3672 23.3945 96.3672 22.8242C96.3672 22.2109 96.1445 21.793 95.6992 21.5703C95.4609 21.4531 95.1426 21.3945 94.7441 21.3945H91.8965V24.3359H94.5918ZM90.7305 20.3926H94.7148C95.3711 20.3926 95.9121 20.4883 96.3379 20.6797C97.1465 21.0469 97.5508 21.7246 97.5508 22.7129C97.5508 23.2285 97.4434 23.6504 97.2285 23.9785C97.0176 24.3066 96.7207 24.5703 96.3379 24.7695C96.6738 24.9062 96.9258 25.0859 97.0938 25.3086C97.2656 25.5312 97.3613 25.8926 97.3809 26.3926L97.4219 27.5469C97.4336 27.875 97.4609 28.1191 97.5039 28.2793C97.5742 28.5527 97.6992 28.7285 97.8789 28.8066V29H96.4492C96.4102 28.9258 96.3789 28.8301 96.3555 28.7129C96.332 28.5957 96.3125 28.3691 96.2969 28.0332L96.2266 26.5977C96.1992 26.0352 95.9902 25.6582 95.5996 25.4668C95.377 25.3613 95.0273 25.3086 94.5508 25.3086H91.8965V29H90.7305V20.3926ZM103.68 25.4727L102.373 21.6699L100.984 25.4727H103.68ZM101.764 20.3926H103.082L106.205 29H104.928L104.055 26.4219H100.65L99.7188 29H98.5234L101.764 20.3926ZM112.639 20.3926V21.418H109.738V29H108.555V21.418H105.654V20.3926H112.639ZM116.811 20.3926H118.48L120.953 27.6699L123.408 20.3926H125.061V29H123.953V23.9199C123.953 23.7441 123.957 23.4531 123.965 23.0469C123.973 22.6406 123.977 22.2051 123.977 21.7402L121.521 29H120.367L117.895 21.7402V22.0039C117.895 22.2148 117.898 22.5371 117.906 22.9707C117.918 23.4004 117.924 23.7168 117.924 23.9199V29H116.811V20.3926ZM128.102 20.3926V25.7129C128.102 26.3379 128.219 26.8574 128.453 27.2715C128.801 27.8965 129.387 28.209 130.211 28.209C131.199 28.209 131.871 27.8711 132.227 27.1953C132.418 26.8281 132.514 26.334 132.514 25.7129V20.3926H133.697V25.2266C133.697 26.2852 133.555 27.0996 133.27 27.6699C132.746 28.709 131.758 29.2285 130.305 29.2285C128.852 29.2285 127.865 28.709 127.346 27.6699C127.061 27.0996 126.918 26.2852 126.918 25.2266V20.3926H128.102ZM135.508 20.3926H136.885L141.232 27.3652V20.3926H142.34V29H141.033L136.621 22.0332V29H135.508V20.3926ZM144.443 20.3926H145.621V29H144.443V20.3926ZM151.146 20.1582C152.236 20.1582 153.082 20.4453 153.684 21.0195C154.285 21.5938 154.619 22.2461 154.686 22.9766H153.549C153.42 22.4219 153.162 21.9824 152.775 21.6582C152.393 21.334 151.854 21.1719 151.158 21.1719C150.311 21.1719 149.625 21.4707 149.102 22.0684C148.582 22.6621 148.322 23.5742 148.322 24.8047C148.322 25.8125 148.557 26.6309 149.025 27.2598C149.498 27.8848 150.201 28.1973 151.135 28.1973C151.994 28.1973 152.648 27.8672 153.098 27.207C153.336 26.8594 153.514 26.4023 153.631 25.8359H154.768C154.666 26.7422 154.33 27.502 153.76 28.1152C153.076 28.8535 152.154 29.2227 150.994 29.2227C149.994 29.2227 149.154 28.9199 148.475 28.3145C147.58 27.5137 147.133 26.2773 147.133 24.6055C147.133 23.3359 147.469 22.2949 148.141 21.4824C148.867 20.5996 149.869 20.1582 151.146 20.1582ZM156.455 20.3926H157.633V29H156.455V20.3926ZM159.643 20.3926H163.516C164.281 20.3926 164.898 20.6094 165.367 21.043C165.836 21.4727 166.07 22.0781 166.07 22.8594C166.07 23.5312 165.861 24.1172 165.443 24.6172C165.025 25.1133 164.383 25.3613 163.516 25.3613H160.809V29H159.643V20.3926ZM164.893 22.8652C164.893 22.2324 164.658 21.8027 164.189 21.5762C163.932 21.4551 163.578 21.3945 163.129 21.3945H160.809V24.377H163.129C163.652 24.377 164.076 24.2656 164.4 24.043C164.729 23.8203 164.893 23.4277 164.893 22.8652ZM171.062 25.4727L169.756 21.6699L168.367 25.4727H171.062ZM169.146 20.3926H170.465L173.588 29H172.311L171.438 26.4219H168.033L167.102 29H165.906L169.146 20.3926ZM174.648 20.3926H175.814V27.9746H180.174V29H174.648V20.3926Z" fill="white"/>
<path d="M88.3145 39.1582C89.4043 39.1582 90.25 39.4453 90.8516 40.0195C91.4531 40.5938 91.7871 41.2461 91.8535 41.9766H90.7168C90.5879 41.4219 90.3301 40.9824 89.9434 40.6582C89.5605 40.334 89.0215 40.1719 88.3262 40.1719C87.4785 40.1719 86.793 40.4707 86.2695 41.0684C85.75 41.6621 85.4902 42.5742 85.4902 43.8047C85.4902 44.8125 85.7246 45.6309 86.1934 46.2598C86.666 46.8848 87.3691 47.1973 88.3027 47.1973C89.1621 47.1973 89.8164 46.8672 90.2656 46.207C90.5039 45.8594 90.6816 45.4023 90.7988 44.8359H91.9355C91.834 45.7422 91.498 46.502 90.9277 47.1152C90.2441 47.8535 89.3223 48.2227 88.1621 48.2227C87.1621 48.2227 86.3223 47.9199 85.6426 47.3145C84.748 46.5137 84.3008 45.2773 84.3008 43.6055C84.3008 42.3359 84.6367 41.2949 85.3086 40.4824C86.0352 39.5996 87.0371 39.1582 88.3145 39.1582ZM97.0742 39.1582C98.5938 39.1582 99.7188 39.6465 100.449 40.623C101.02 41.3848 101.305 42.3594 101.305 43.5469C101.305 44.832 100.979 45.9004 100.326 46.752C99.5605 47.752 98.4688 48.252 97.0508 48.252C95.7266 48.252 94.6855 47.8145 93.9277 46.9395C93.252 46.0957 92.9141 45.0293 92.9141 43.7402C92.9141 42.5762 93.2031 41.5801 93.7812 40.752C94.5234 39.6895 95.6211 39.1582 97.0742 39.1582ZM97.1914 47.209C98.2188 47.209 98.9609 46.8418 99.418 46.1074C99.8789 45.3691 100.109 44.5215 100.109 43.5645C100.109 42.5527 99.8438 41.7383 99.3125 41.1211C98.7852 40.5039 98.0625 40.1953 97.1445 40.1953C96.2539 40.1953 95.5273 40.502 94.9648 41.1152C94.4023 41.7246 94.1211 42.625 94.1211 43.8164C94.1211 44.7695 94.3613 45.5742 94.8418 46.2305C95.3262 46.8828 96.1094 47.209 97.1914 47.209ZM106.701 43.3359C107.248 43.3359 107.68 43.2266 107.996 43.0078C108.316 42.7891 108.477 42.3945 108.477 41.8242C108.477 41.2109 108.254 40.793 107.809 40.5703C107.57 40.4531 107.252 40.3945 106.854 40.3945H104.006V43.3359H106.701ZM102.84 39.3926H106.824C107.48 39.3926 108.021 39.4883 108.447 39.6797C109.256 40.0469 109.66 40.7246 109.66 41.7129C109.66 42.2285 109.553 42.6504 109.338 42.9785C109.127 43.3066 108.83 43.5703 108.447 43.7695C108.783 43.9062 109.035 44.0859 109.203 44.3086C109.375 44.5312 109.471 44.8926 109.49 45.3926L109.531 46.5469C109.543 46.875 109.57 47.1191 109.613 47.2793C109.684 47.5527 109.809 47.7285 109.988 47.8066V48H108.559C108.52 47.9258 108.488 47.8301 108.465 47.7129C108.441 47.5957 108.422 47.3691 108.406 47.0332L108.336 45.5977C108.309 45.0352 108.1 44.6582 107.709 44.4668C107.486 44.3613 107.137 44.3086 106.66 44.3086H104.006V48H102.84V39.3926ZM111.482 39.3926H115.355C116.121 39.3926 116.738 39.6094 117.207 40.043C117.676 40.4727 117.91 41.0781 117.91 41.8594C117.91 42.5312 117.701 43.1172 117.283 43.6172C116.865 44.1133 116.223 44.3613 115.355 44.3613H112.648V48H111.482V39.3926ZM116.732 41.8652C116.732 41.2324 116.498 40.8027 116.029 40.5762C115.771 40.4551 115.418 40.3945 114.969 40.3945H112.648V43.377H114.969C115.492 43.377 115.916 43.2656 116.24 43.043C116.568 42.8203 116.732 42.4277 116.732 41.8652ZM123.09 39.1582C124.609 39.1582 125.734 39.6465 126.465 40.623C127.035 41.3848 127.32 42.3594 127.32 43.5469C127.32 44.832 126.994 45.9004 126.342 46.752C125.576 47.752 124.484 48.252 123.066 48.252C121.742 48.252 120.701 47.8145 119.943 46.9395C119.268 46.0957 118.93 45.0293 118.93 43.7402C118.93 42.5762 119.219 41.5801 119.797 40.752C120.539 39.6895 121.637 39.1582 123.09 39.1582ZM123.207 47.209C124.234 47.209 124.977 46.8418 125.434 46.1074C125.895 45.3691 126.125 44.5215 126.125 43.5645C126.125 42.5527 125.859 41.7383 125.328 41.1211C124.801 40.5039 124.078 40.1953 123.16 40.1953C122.27 40.1953 121.543 40.502 120.98 41.1152C120.418 41.7246 120.137 42.625 120.137 43.8164C120.137 44.7695 120.377 45.5742 120.857 46.2305C121.342 46.8828 122.125 47.209 123.207 47.209ZM132.717 43.3359C133.264 43.3359 133.695 43.2266 134.012 43.0078C134.332 42.7891 134.492 42.3945 134.492 41.8242C134.492 41.2109 134.27 40.793 133.824 40.5703C133.586 40.4531 133.268 40.3945 132.869 40.3945H130.021V43.3359H132.717ZM128.855 39.3926H132.84C133.496 39.3926 134.037 39.4883 134.463 39.6797C135.271 40.0469 135.676 40.7246 135.676 41.7129C135.676 42.2285 135.568 42.6504 135.354 42.9785C135.143 43.3066 134.846 43.5703 134.463 43.7695C134.799 43.9062 135.051 44.0859 135.219 44.3086C135.391 44.5312 135.486 44.8926 135.506 45.3926L135.547 46.5469C135.559 46.875 135.586 47.1191 135.629 47.2793C135.699 47.5527 135.824 47.7285 136.004 47.8066V48H134.574C134.535 47.9258 134.504 47.8301 134.48 47.7129C134.457 47.5957 134.438 47.3691 134.422 47.0332L134.352 45.5977C134.324 45.0352 134.115 44.6582 133.725 44.4668C133.502 44.3613 133.152 44.3086 132.676 44.3086H130.021V48H128.855V39.3926ZM141.805 44.4727L140.498 40.6699L139.109 44.4727H141.805ZM139.889 39.3926H141.207L144.33 48H143.053L142.18 45.4219H138.775L137.844 48H136.648L139.889 39.3926ZM150.764 39.3926V40.418H147.863V48H146.68V40.418H143.779V39.3926H150.764ZM152.1 39.3926H153.277V48H152.1V39.3926ZM158.891 39.1582C160.41 39.1582 161.535 39.6465 162.266 40.623C162.836 41.3848 163.121 42.3594 163.121 43.5469C163.121 44.832 162.795 45.9004 162.143 46.752C161.377 47.752 160.285 48.252 158.867 48.252C157.543 48.252 156.502 47.8145 155.744 46.9395C155.068 46.0957 154.73 45.0293 154.73 43.7402C154.73 42.5762 155.02 41.5801 155.598 40.752C156.34 39.6895 157.438 39.1582 158.891 39.1582ZM159.008 47.209C160.035 47.209 160.777 46.8418 161.234 46.1074C161.695 45.3691 161.926 44.5215 161.926 43.5645C161.926 42.5527 161.66 41.7383 161.129 41.1211C160.602 40.5039 159.879 40.1953 158.961 40.1953C158.07 40.1953 157.344 40.502 156.781 41.1152C156.219 41.7246 155.938 42.625 155.938 43.8164C155.938 44.7695 156.178 45.5742 156.658 46.2305C157.143 46.8828 157.926 47.209 159.008 47.209ZM164.516 39.3926H165.893L170.24 46.3652V39.3926H171.348V48H170.041L165.629 41.0332V48H164.516V39.3926Z" fill="white"/>
</svg>
