<svg xmlns="http://www.w3.org/2000/svg" width="95.433" height="115.754" viewBox="0 0 95.433 115.754"><defs><style>.a{fill:#17ac4c;}.b{fill:#fbfdfd;}.c{fill:#fafcfc;}.d{fill:#f9fcfc;}.e{fill:#f7fbfa;}.f{fill:#f7fbf9;}.g{fill:#19ac4d;}.h{fill:#1dae50;}.i{fill:#1bac4e;}.j{fill:#32436f;}.k{fill:#e0f2e6;}.l{fill:#dcf0e3;}.m{fill:#e9f5ee;}.n{fill:#dff1e5;}.o{fill:#95d4ac;}.p{fill:#93d3aa;}.q{fill:#334470;}.r{fill:#2e3a6c;}.s{fill:#30426e;}.t{fill:#2f416e;}.u{fill:#30416e;}.v{fill:#31426e;}.w{fill:#32446f;}.x{fill:#31436f;}.y{fill:#243666;}.z{fill:#213363;}.aa{fill:#212d5f;}.ab{fill:#213463;}.ac{fill:#7984a0;}.ad{fill:#1c2f5f;}.ae{fill:#1e3261;}.af{fill:#1e3262;}.ag{fill:#203363;}.ah{fill:#243064;}.ai{fill:#324470;}.aj{fill:#f1f3f6;}.ak{fill:#212e62;}.al{fill:#222f63;}.am{fill:#253164;}.an{fill:#f59422;}.ao{fill:#f8fbfb;}.ap{fill:#f6fbf9;}.aq{fill:#d3eddc;}.ar{fill:#e6f4eb;}.as{fill:#d8eee0;}.at{fill:#a8dcbb;}.au{fill:#abddbd;}.av{fill:#e7f3ec;}.aw{fill:#10a846;}.ax{fill:#c2e3cf;}.ay{fill:#96c7af;}.az{fill:#0fa945;}.ba{fill:#99c3b1;}.bb{fill:#0ba642;}.bc{fill:#e1f0e7;}.bd{fill:#0da743;}.be{fill:#0ba641;}.bf{fill:#65918c;}.bg{fill:#0ba842;}.bh{fill:#eef7f2;}.bi{fill:#daefe2;}.bj{fill:#e8f4ed;}.bk{fill:#eaf6ef;}.bl{fill:#edf7f1;}.bm{fill:#daefe1;}.bn{fill:#15aa49;}.bo{fill:#c7e8d3;}.bp{fill:#c0e4cd;}.bq{fill:#24af55;}.br{fill:#0ca642;}.bs{fill:#c4e7d0;}.bt{fill:#0aa842;}.bu{fill:#30b35e;}.bv{fill:#f1f8f4;}.bw{fill:#daf0e2;}.bx{fill:#e8edee;}.by{fill:#e9f5ed;}.bz{fill:#e8f5ed;}.ca{fill:#12a948;}.cb{fill:#e8e9ef;}.cc{fill:#c3e6cf;}.cd{fill:#d7eedf;}.ce{fill:#d6eddf;}.cf{fill:#e4f2ea;}.cg{fill:#09a641;}.ch{fill:#bde4cb;}.ci{fill:#86ce9f;}.cj{fill:#d9eee1;}.ck{fill:#f3f8f5;}.cl{fill:#2ab15a;}.cm{fill:#d5edde;}.cn{fill:#09a540;}.co{fill:#ef9123;}.cp{fill:#e48c28;}.cq{fill:#fe9a20;}.cr{fill:#dcdee5;}.cs{fill:#dddfe6;}.ct{fill:#23346e;}.cu{fill:#20326e;}.cv{fill:#22336d;}.cw{fill:#956846;}.cx{fill:#2e347e;}.cy{fill:#30347d;}.cz{fill:#33367c;}.da{fill:#37387a;}.db{fill:#3b3a78;}.dc{fill:#35377b;}.dd{fill:#393979;}.de{fill:#36377a;}.df{fill:#36387a;}.dg{fill:#273082;}.dh{fill:#31347c;}.di{fill:#f19222;}.dj{fill:#433d74;}.dk{fill:#403d76;}.dl{fill:#463f73;}.dm{fill:#403c76;}.dn{fill:#413c75;}.do{fill:#423d76;}.dp{fill:#443e74;}.dq{fill:#3f3b76;}.dr{fill:#fd981f;}.ds{fill:#31357c;}.dt{fill:#a06b4b;}.du{fill:#fe9a1d;}.dv{fill:#36377b;}.dw{fill:#26356d;}.dx{fill:#52456e;}.dy{fill:#35367a;}.dz{fill:#383879;}.ea{fill:#433e74;}.eb{fill:#52446d;}.ec{fill:#51446e;}.ed{fill:#423d75;}.ee{fill:#2a317e;}.ef{fill:#6f5361;}.eg{fill:#4a4072;}.eh{fill:#614c69;}.ei{fill:#1f326f;}.ej{fill:#4c4271;}.ek{fill:#4f436e;}.el{fill:#3d3b78;}.em{fill:#453e72;}.en{fill:#fcfdfe;}.eo{fill:#24356d;}.ep{fill:#e48c29;}.eq{fill:#e18a2b;}.er{fill:#ed9125;}.es{fill:#e88e27;}.et{fill:#c5262e;}.eu{fill:#c52931;}.ev{fill:#c52830;}.ew{fill:#c62a31;}.ex{fill:#c52930;}.ey{fill:#c5252e;}.ez{fill:#c3252c;}.fa{fill:#c22128;}.fb{fill:#bf161e;}.fc{fill:#c11b23;}.fd{fill:#c11921;}.fe{fill:#c01820;}.ff{fill:#c21a22;}.fg{fill:#fff;font-size:6px;font-family:Helvetica;}</style></defs><g transform="translate(0 0)"><path class="a" d="M223.3,367.374h-4.772c-1.384-1.145-1.789-2.863-2.577-4.342a3,3,0,0,1-.453-1.479,24.144,24.144,0,0,1-2.1,4.581,2.856,2.856,0,0,1-1.074,1.241h-4.772a.362.362,0,0,1-.072-.31,4.366,4.366,0,0,0,.716-1.455c.143-1.145-.1-1.36-1.241-1.1a3.245,3.245,0,0,1-1.074-.024c-1.575-.978-1.718-2.6-.382-4.128.072-.1.143-.215.024-.334-.191-.143-.429-.239-.477-.525.024-.31.239-.453.453-.62a1.225,1.225,0,0,1,.573-.239,1.737,1.737,0,0,0,1-.382c1.837-.668,3.293-2,5.034-2.839a59.178,59.178,0,0,0,6.824-.024,4.792,4.792,0,0,1,1.622.93,22.83,22.83,0,0,0,4.653,2.458c.286.167.668.239.763.644-.167.573-.74.477-1.121.716-.1.406.31.262.453.406a2.4,2.4,0,0,1-.191,3.889,2.825,2.825,0,0,1-1.265.1c-1.145-.1-1.527.406-1.121,1.527.143.382.453.62.62,1A.293.293,0,0,1,223.3,367.374Z" transform="translate(-167.697 -272.222)"/><path class="a" d="M126.983,372.544a2.179,2.179,0,0,1,.191.31,1.654,1.654,0,0,0-1.384.787,10.144,10.144,0,0,1-3.627,3.484c-.668.406-.954.74-.215,1.384a.974.974,0,0,1,.262,1.455h-.954c-.429-.525-.835-1.05-1.622-1-.31.024-.692.048-.811-.31-.143-.453.191-.74.5-.978a24.492,24.492,0,0,1,2.648-1.67c-1.694.763-3.841,1.408-4.271,3.961h-.716a1.152,1.152,0,0,1-.286-.763,7.984,7.984,0,0,1-.668.763h-6.919c-.191-.143-.406-.262-.453-.525a2.071,2.071,0,0,1,1.05-2.123c.358-.286.811-.382,1.145-.716,1.169.072,2.386.286,3.006-1.1-.1-.191-.358-.215-.382-.119-.453,1.384-1.575,1.288-2.672,1.241-.262.286-.692.31-.978.573-.573.382-1.193.692-1.241,1.5-.215.406-.239.859-.429,1.288H101a15.037,15.037,0,0,1,11.643-6.9c3.65-.406,7.349-.525,11.023-.763.525-.406,1.169-.286,1.766-.429a.958.958,0,0,1,.358.072A2.011,2.011,0,0,0,126.983,372.544Z" transform="translate(-88.825 -284.789)"/><path class="a" d="M288.244,372.893c-.5.024-.811-.1-.549-.692.573-.239,1.312.024,1.766-.573a1.6,1.6,0,0,1,.358-.143c.644-.143,1.265.191,1.909.143a25.933,25.933,0,0,1,4.295.239,1.954,1.954,0,0,1,1.408.334c2.243.31,4.486.31,6.7.763,4.247.835,7.754,2.815,10.045,6.633h-7.4a4.755,4.755,0,0,0-.978-2.434,3.543,3.543,0,0,0-.811-.5,4.144,4.144,0,0,0-.907-.334,1.883,1.883,0,0,0-.811-.072c-.716.072-1.241-.119-1.384-.907-.048-.239-.167-.453-.573-.334.239.74.573,1.312,1.5,1.241a5.149,5.149,0,0,1,1.05.024,7.4,7.4,0,0,1,.954.31,6.2,6.2,0,0,1,.859.5,1.17,1.17,0,0,1,.525.978,2.994,2.994,0,0,0-.048,1.217.44.44,0,0,1-.119.286h-6.919a1.993,1.993,0,0,1-.644-.811c-.1.286-.048.62-.31.811h-.716c-.573-2.529-2.792-3.269-4.724-4.295-.262-.072-.429-.382-.74-.239-.024.024.048.191.072.31a.381.381,0,0,1-.334.286c-1.1-.358-1.575-1.312-2.243-2.123C289.175,373.156,288.984,372.464,288.244,372.893Z" transform="translate(-230.903 -284.446)"/><path class="b" d="M237,384.281a29.345,29.345,0,0,0,3.149-6.681,25.306,25.306,0,0,0,3.054,6.681Z" transform="translate(-192.376 -289.129)"/><path class="c" d="M185.584,382.567c.024-.93.024-.93-1.384-2.243,1.885-1.241,3.841-2.386,4.891-4.533.334-.668.931-.406,1.479-.31-1.575,1.288-1.67,2.815-.215,4.032a.4.4,0,0,1,.072.477,18.452,18.452,0,0,0-3.889,2.6C186.228,382.567,185.894,382.567,185.584,382.567Z" transform="translate(-152.174 -287.415)"/><path class="d" d="M289.828,376.081c-.048-.143-.334-.358.048-.406a.96.96,0,0,1,1.193.5,7.2,7.2,0,0,0,2.2,2.6,6.433,6.433,0,0,1,2.1,1.241.666.666,0,0,1,.072,1.169,9.5,9.5,0,0,0-1.145,1.622h-.716a19.784,19.784,0,0,0-3.627-2.458.556.556,0,0,1-.191-.62C291.069,378.49,291.093,377.154,289.828,376.081Z" transform="translate(-232.487 -287.634)"/><path class="e" d="M170.917,390.6a2.8,2.8,0,0,1,1.67-3.006c1.074-.573,2.2-1.1,3.316-1.646a1.785,1.785,0,0,1,.477-.048,5.5,5.5,0,0,1-1.885,1.432c-.6.406-1.217.74-1.789,1.145-.262.191-.74.406-.549.811.167.358.573,0,.835.024.787.072,1.5.286,1.479,1.288Z" transform="translate(-142.04 -295.449)"/><path class="f" d="M307.187,386.313c1.05.549,2.124,1.05,3.126,1.646a2.872,2.872,0,0,1,1.622,2.911h-3.579c-.191-1.05.119-1.384,1.67-1.694a17.09,17.09,0,0,0-2.553-1.718c-.382-.262-.931-.358-.883-.978A.373.373,0,0,1,307.187,386.313Z" transform="translate(-245.361 -295.695)"/><path class="g" d="M194,396.515a6.088,6.088,0,0,1,3.794-2.648,1.128,1.128,0,0,1,.835-.191c.883.429.191.764-.1,1-.549.477-.668.954-.191,1.527a.293.293,0,0,1-.048.31Z" transform="translate(-159.636 -301.364)"/><path class="h" d="M285.771,393.724a7.1,7.1,0,0,1,3.579,2.648h-4.295a.226.226,0,0,1-.072-.262,1.415,1.415,0,0,1,.644-.6c.1-.1.239-.167.215-.358-.119.048-.239.119-.358.024a1.456,1.456,0,0,1-.382-.286c-.31-.382-1.217-.525-.907-1.121C284.459,393.246,285.223,393.461,285.771,393.724Z" transform="translate(-228.264 -301.197)"/><path class="i" d="M305.249,387.462c1.265,1.074,2.959,1.551,4.175,3.006-1.074.215-2.529-.549-2.505,1.288h-1.193c-.191-1.121.74-1.551,1.432-2.2a14.656,14.656,0,0,1-2.458-1.837c.1-.072.215-.167.31-.239A.157.157,0,0,1,305.249,387.462Z" transform="translate(-243.924 -296.605)"/><path class="j" d="M247.9,7.039a.811.811,0,0,1,.024-.239h.716c-.024.1-.024.167-.048.262.1,2.386.024,4.8.048,7.182a1.492,1.492,0,0,1-.191.907c-.763-.1-.5-.716-.5-1.1C247.9,11.715,247.948,9.377,247.9,7.039Z" transform="translate(-200.676 -6.8)"/><path class="k" d="M363.279,397.022c0-.072-.024-.167-.024-.239-.048-.406.072-.787.024-1.193.024-.429-.334-.62-.5-.931-.024-.239,0-.406.31-.286a2.616,2.616,0,0,1,.883,2.648Z" transform="translate(-288.139 -301.871)"/><path class="l" d="M164,400.879a2.39,2.39,0,0,1,.883-1.479c.024.6.048,1.026.072,1.479Z" transform="translate(-136.794 -305.728)"/><path class="m" d="M332,401.26V399.9a2.226,2.226,0,0,1,.954,1.36Z" transform="translate(-264.71 -306.109)"/><path class="n" d="M131.227,401.3c.072.167.167.31.239.477h-.954a.834.834,0,0,1,.239-1.193C131.37,400.511,130.917,401.155,131.227,401.3Z" transform="translate(-111.178 -306.624)"/><path class="o" d="M211.848,404.029a.562.562,0,0,1-.048-.191.833.833,0,0,1,1.241-.048v.239Z" transform="translate(-173.189 -308.878)"/><path class="p" d="M284.141,403.858c0,.072-.024.143-.024.215h-1.193a.337.337,0,0,0-.024-.215A.8.8,0,0,1,284.141,403.858Z" transform="translate(-227.325 -308.897)"/><path class="q" d="M57.542,224.534c-1.837.167-3.674.334-5.535.477a4.734,4.734,0,0,1-2-.048.924.924,0,0,1,.215-.883,5.954,5.954,0,0,0,1.718-.215c.119-.167.262-.143.406-.048,1.67-.143,3.316-.31,4.987-.429.5-.024,1.288-.429,1.408.334C58.9,224.582,57.948,224.248,57.542,224.534Z" transform="translate(-49.972 -171.614)"/><path class="q" d="M421.939,224.49a10.21,10.21,0,0,1-3.507-.143l-5.034-.573c-.286-.286-.215-.549,0-.835a53.874,53.874,0,0,1,6.2.477c.62.024,1.241.119,1.885.167C421.772,223.822,422.082,224.037,421.939,224.49Z" transform="translate(-326.543 -171.355)"/><path class="r" d="M133.407,128.936c-.453-.024-.931-.024-1.384-.048-.907-.93-2.028-.286-3.054-.429a25.338,25.338,0,0,1-3.006-.119c-.525-.119-1.05-.191-1.575-.334a18.34,18.34,0,0,1-5.917-3.316c.525-.549,1.241-.453,1.885-.549a36.588,36.588,0,0,0,17.393-7.826,33.191,33.191,0,0,0,9.973-14.005c.119-.334.334-.644.1-1-.382-.334-.811-.072-1.217-.048a1.3,1.3,0,0,1-.907-.215,8.707,8.707,0,0,0-4.295-1.575,5.022,5.022,0,0,1-.573-.143c-.358-.167-.787-.334-.716-.811.048-.429.453-.5.811-.573a6.058,6.058,0,0,1,1.288-.215c1.837.143,3.221-.978,4.748-1.67.549-.239.358-.62.191-.978a2.774,2.774,0,0,1-.143-2.625,1.639,1.639,0,0,1,1.742-1c.668.072,1.241.31,1.288,1.121a3.618,3.618,0,0,1-.477,1.121c-.215.429-.954.74-.262,1.384.239-.453,0-.978.31-1.384a3.618,3.618,0,0,0,.477-1.121c.334-5.774-.215-11.453-2.6-16.773-5.607-12.6-15.222-19.97-28.941-21.9a13.5,13.5,0,0,0-2.6-.191h-2.529a34.154,34.154,0,0,0-17.7,5.3A35.4,35.4,0,0,0,78.721,91.094c.024.644.072,1.145.954.62,1.121-.644,1.742-.382,2.434.931a6.429,6.429,0,0,0,.048,1.789.947.947,0,0,1-.1.573c-.31.573-.1.811.453,1.169A9.982,9.982,0,0,0,87.74,97.8a3.226,3.226,0,0,1,.692.119c.31.1.644.191.668.573.048.382-.262.525-.549.692a.847.847,0,0,1-.215.1,18.242,18.242,0,0,0-5.535,1.956,3.012,3.012,0,0,0-1.527.024c-.549.143-.382.477-.239.835a35.684,35.684,0,0,0,4.939,8.637c4.509,5.941,10.522,9.663,17.417,12.1a36.826,36.826,0,0,0,6.609,1.5c.382.048.811-.048,1.05.382a16.453,16.453,0,0,1-4.7,2.792c-.334.119-.644.358-1.026.262-.143.072-.262.167-.406.239a9.378,9.378,0,0,1-1.622.358,14.814,14.814,0,0,1-3.412-.1,10.815,10.815,0,0,1-8.971-5.106c-.5.692-.954,1.312-1.408,1.933-.668.931-1.336,1.885-2,2.815-.239.334-.5.668-.978.31-.429-.334-.286-.668-.024-1.026,1.026-1.36,1.98-2.792,3.054-4.1a1.688,1.688,0,0,0,.191-2.028c-1.742-3.913-3.77-7.611-6.967-10.546a9.248,9.248,0,0,0-1.742-1.6c-.167-.119-.549.024-.453-.406-1.026-1.336-2.434-2.338-3.364-3.794-1.169-1.813-1.169-1.789-3.293-1.121-.525.167-1.336.811-1.646-.024-.358-.978.763-.859,1.288-1.145a2.914,2.914,0,0,1,.907-.31c1.1-.143,1.527-.716,1.575-1.885.1-1.885.215-1.885-1.241-3.006a.956.956,0,0,1-.453-.668,3.343,3.343,0,0,0-.024-.978c.74-1.217,1.479-1.312,2.219-.239-.048.31,0,.644-.072.954-.072.143-.119.262-.191.406.239.382.62.143.931.215.143.024-.143-.072-.072-.167.358-.215.835-.286.62-.931-.167-.5.024-1.145-.811-1.217a1.387,1.387,0,0,1-.931-.668,1.448,1.448,0,0,1,.811-1.789c.644-.262.406-.787.382-1.241a35.99,35.99,0,0,1,3.03-16.368C85.64,63.012,94.373,55.5,106.947,52.7a1.806,1.806,0,0,1,.358-.024.675.675,0,0,0,.429.1.927.927,0,0,1,.358.048c-.119-.1-.31-.024-.382-.191a30.66,30.66,0,0,1,9.21-.62,34.67,34.67,0,0,1,17.561,5.679c8.9,5.965,14.769,14.029,16.821,24.671a11.751,11.751,0,0,1,.119,1.288c-.167.143-.119.358-.143.549-.024.167.167.1,0,.072.024-.215-.048-.453.119-.644a20.109,20.109,0,0,1,.453,4.319,11.038,11.038,0,0,0,0,3.316.839.839,0,0,0,.62.859,1.118,1.118,0,0,1,.859,1,.429.429,0,0,1-.024.525c-.1.239-.167.453-.262.692a.75.75,0,0,1-.382.429c-1.145.6-1.145.6-.525,1.718.072.072-.048.262.1.262a.351.351,0,0,0,.358-.262c-.286-.835-.262-1.551.716-1.885.668-.048,1.312-.024,1.646.716a13.736,13.736,0,0,1-.024,1.408c-.334.716-1.026.763-1.67.931-.239.072-.74.024-.6.382.334.835.477,1.766.811,2.577.239.549.954.453,1.455.644.62.239,1.288.406,1.909.644.5.191.787.525.286,1.026-.239.024-.477-.191-.716-.024-1.026-.024-2.1-1.05-2.887-.6-.764.429-1,1.718-1.575,2.553a13.588,13.588,0,0,1-2.887,3.078c-.406.072.072.811-.549.716-3.221,2.839-6.084,5.917-7.683,10a2.37,2.37,0,0,1-.358.74c-1.479,1.813-.978,3.364.5,4.915a22.126,22.126,0,0,1,1.98,2.672c.239.334.477.716.024,1.026-.477.334-.716-.072-.954-.382-1-1.336-1.98-2.672-2.959-4.032-.334-.477-.549-.549-.931-.024a11.556,11.556,0,0,1-4.724,3.889C132.4,127.933,133.407,128.458,133.407,128.936Z" transform="translate(-66.904 -41.157)"/><path class="s" d="M170.847,31.805a.432.432,0,0,1-.358.525c-.406.1-.573-.191-.692-.477-.62-1.36-1.265-2.72-1.885-4.08-.406-.859-.811-1.718-1.169-2.6a.615.615,0,0,1,.191-.835c.358-.215.62.024.764.334,1.05,2.291,2.076,4.6,3.1,6.919C170.823,31.662,170.823,31.734,170.847,31.805Z" transform="translate(-138.821 -20.09)"/><path class="s" d="M315.5,31.847c-.453-.1-.573-.358-.382-.764,1-2.314,2-4.629,3.03-6.943.143-.31.382-.549.763-.358s.429.5.239.883c-1.05,2.243-2.076,4.509-3.126,6.776A.565.565,0,0,1,315.5,31.847Z" transform="translate(-251.792 -19.678)"/><path class="t" d="M106.593,78.553c-.1.525-.453.573-.859.334a6.69,6.69,0,0,1-.907-.764c-1.479-1.336-2.959-2.648-4.414-3.985-.334-.31-.859-.716-.429-1.193.406-.453.787.1,1.074.358,1.67,1.479,3.316,2.959,4.939,4.462C106.259,77.981,106.569,78.148,106.593,78.553Z" transform="translate(-87.928 -57.032)"/><path class="u" d="M371.093,78.554c-.549-.429-.072-.692.191-.931,1.718-1.575,3.46-3.149,5.2-4.7.334-.286.74-.644,1.121-.167.406.477-.143.692-.406.931-1.789,1.622-3.6,3.221-5.416,4.82C371.571,78.435,371.332,78.578,371.093,78.554Z" transform="translate(-294.283 -56.842)"/><path class="s" d="M406.542,147.039c-.406,0-.692-.024-.763-.382-.048-.286.167-.429.406-.525,2.434-.835,4.867-1.646,7.3-2.458a.508.508,0,0,1,.692.286.457.457,0,0,1-.286.668C411.386,145.464,408.9,146.275,406.542,147.039Z" transform="translate(-320.88 -110.987)"/><path class="u" d="M60.131,145.6c2.267.716,4.509,1.408,6.776,2.123.382.119.668.31.525.763-.119.334-.406.358-.692.262-2.481-.811-4.987-1.455-7.42-2.458-.048-.024-.072-.119-.119-.191C59.367,145.648,59.773,145.648,60.131,145.6Z" transform="translate(-56.998 -112.483)"/><path class="v" d="M87.28,114.582c.191.1.477.215.74.358,1.05.573,2.076,1.169,3.1,1.742.31.191.62.429.406.859-.191.358-.549.286-.835.143-1.241-.692-2.481-1.408-3.7-2.147a.559.559,0,0,1-.31-.692C86.755,114.606,86.946,114.559,87.28,114.582Z" transform="translate(-77.896 -88.862)"/><path class="u" d="M141.352,61.057a.7.7,0,0,1-.406.573c-.262.143-.477-.024-.62-.215-.883-1.169-1.742-2.362-2.577-3.531a.56.56,0,0,1,.1-.835.423.423,0,0,1,.62.167c.93,1.193,1.837,2.362,2.768,3.555C141.281,60.843,141.3,60.962,141.352,61.057Z" transform="translate(-116.699 -45)"/><path class="s" d="M208.143,24.9c.453.024.573.382.644.74.286,1.265.573,2.553.859,3.818.1.382.1.764-.358.859-.382.072-.573-.215-.644-.549-.31-1.384-.62-2.768-.931-4.175C207.642,25.258,207.69,24.948,208.143,24.9Z" transform="translate(-170.057 -20.581)"/><path class="j" d="M348.189,55.271a3.969,3.969,0,0,1-.286.549c-.787,1.1-1.575,2.171-2.362,3.245-.191.262-.429.573-.764.358-.406-.239-.262-.62-.048-.931.787-1.145,1.551-2.267,2.386-3.388.167-.239.406-.549.787-.334C348.022,54.865,348.07,55.1,348.189,55.271Z" transform="translate(-274.242 -43.269)"/><path class="w" d="M281.507,25.077a4.169,4.169,0,0,1,.072-.573c.1-.286.167-.692.6-.573a.642.642,0,0,1,.453.74c-.286,1.479-.6,2.935-.907,4.39-.048.239-.191.477-.477.429a.625.625,0,0,1-.5-.811c.215-1.074.453-2.147.692-3.221a.262.262,0,0,1,.143.239A.721.721,0,0,0,281.507,25.077Z" transform="translate(-225.67 -19.828)"/><path class="j" d="M395.764,112.516a26.6,26.6,0,0,1-3.985,2.505.47.47,0,0,1-.716-.143.515.515,0,0,1,.239-.716,24.26,24.26,0,0,1,4.2-2.362A1.151,1.151,0,0,1,395.764,112.516Z" transform="translate(-309.625 -86.748)"/><path class="x" d="M67.523,189.52c-1.145-.1-2.291-.167-3.436-.286-.358-.024-.787-.167-.787-.573,0-.453.429-.5.811-.477,1.384.143,2.768.262,4.128.453.549.072,1.121.334.215.859A1.766,1.766,0,0,0,67.523,189.52Z" transform="translate(-60.12 -144.903)"/><path class="q" d="M414.281,184.892a17.3,17.3,0,0,1,3.507-.525.516.516,0,0,1,.644.382c.048.477-.31.6-.692.644-1.288.167-2.6.334-3.889.477-.382.048-.931.143-.954-.406-.024-.6.5-.6.954-.549a.568.568,0,0,0,.429.119,1.469,1.469,0,0,1,.334.024C414.52,184.988,414.353,185.06,414.281,184.892Z" transform="translate(-326.305 -141.993)"/><path class="y" d="M247.224,7.8c.406.334.239.811.239,1.217.024,1.933,0,3.865.024,5.8,0,.382-.143.787.239,1.1a.427.427,0,0,1,.215.239c-.5.453-.859.167-.859-.334C247.128,13.145,246.818,10.472,247.224,7.8Z" transform="translate(-199.999 -7.561)"/><path class="z" d="M250.143,16.227c-.072-.072-.143-.167-.215-.239V9.021c0-.382-.119-.787.191-1.121a13.93,13.93,0,0,1,.143,3.985A18.9,18.9,0,0,1,250.143,16.227Z" transform="translate(-202.203 -7.638)"/><path class="aa" d="M405.043,206.116a5.256,5.256,0,0,1,0-3.316A19.251,19.251,0,0,1,405.043,206.116Z" transform="translate(-320.121 -156.036)"/><path class="ab" d="M60.131,145.115c-.191.358-.668.262-.931.5C59.2,144.876,59.248,144.852,60.131,145.115Z" transform="translate(-56.998 -111.998)"/><path class="ac" d="M411.9,223.807c0-.167.024-.358.024-.525.167-.119.31-.239.477-.382v.835A2.812,2.812,0,0,1,411.9,223.807Z" transform="translate(-325.546 -171.34)"/><path class="ad" d="M81,192.962a.58.58,0,0,1,.954-.024A.866.866,0,0,1,81,192.962Z" transform="translate(-73.597 -148.345)"/><path class="ae" d="M410.161,112.516c-.286-.167-.262-.453-.262-.716C410.447,111.872,410.4,112.158,410.161,112.516Z" transform="translate(-324.022 -86.748)"/><path class="af" d="M371.9,97.064c.215-.286.453-.31.692-.048C372.4,97.231,372.162,97.4,371.9,97.064Z" transform="translate(-295.09 -75.352)"/><path class="ag" d="M417.406,186.6c.167.024.358.072.716.119-.525.167-.835.239-1.121-.1A2.455,2.455,0,0,0,417.406,186.6Z" transform="translate(-329.429 -143.701)"/><path class="ab" d="M283.848,28.8c.334.262.191.6.215.978-.31-.167-.167-.429-.262-.573C283.824,29.062,283.824,28.943,283.848,28.8Z" transform="translate(-228.01 -23.551)"/><path class="ah" d="M219.506,54.7c.191.024.358.048.763.119-.573.191-.883.239-1.169-.072A2.1,2.1,0,0,1,219.506,54.7Z" transform="translate(-178.747 -43.271)"/><path class="s" d="M83.411,288.8c.143.143.31.262.453.406a2.756,2.756,0,0,1-1.1,1.121c-1.909,1.05-3.794,2.147-5.7,3.2-.334.191-.716.525-1,0-.215-.406.072-.692.382-.859C78.758,291.377,80.977,289.921,83.411,288.8Z" transform="translate(-69.78 -221.517)"/><path class="ai" d="M115.009,318.166a.314.314,0,0,1,.382.215.455.455,0,0,1-.048.644c-1.145,1.026-2.29,2.076-3.436,3.078-.239.215-.525.119-.74-.119a.411.411,0,0,1,.1-.62c1.145-1.026,2.29-2.052,3.436-3.054A1.8,1.8,0,0,1,115.009,318.166Z" transform="translate(-96.488 -243.868)"/><path class="aj" d="M188,371.573c1.193-.024,2.386-.048,3.579-.048.239-.072.286.024.215.239a3.629,3.629,0,0,1-1.885.239C189.336,371.5,188.549,372.074,188,371.573Z" transform="translate(-155.067 -284.486)"/><path class="ak" d="M80.31,234.6a.57.57,0,0,1,.024.978A.706.706,0,0,1,80.31,234.6Z" transform="translate(-72.931 -180.248)"/><path class="al" d="M89.241,234.654a.6.6,0,0,1,.072-.954A.659.659,0,0,1,89.241,234.654Z" transform="translate(-79.714 -179.563)"/><path class="am" d="M89.959,239.348c.072.024.167.024.215.072.119.072.119.191-.048.191-.358-.024-.811.191-1.026-.31C89.386,239.324,89.673,239.348,89.959,239.348Z" transform="translate(-79.764 -183.827)"/><path class="u" d="M391.8,287.516c.262-.167.072-.716.549-.716-.143.5.334.477.549.62,1.956,1.169,3.913,2.291,5.846,3.436.382.239,1.026.477.668,1.026-.31.477-.787.072-1.145-.143l-5.655-3.293C392.253,288.208,391.8,288.041,391.8,287.516Z" transform="translate(-310.242 -219.994)"/><path class="v" d="M377.068,319.271c-.215.477-.453.763-.907.382-1.1-.931-2.171-1.861-3.245-2.815a.613.613,0,0,1-.119-.859c.215-.286.525-.143.74.024,1.121.954,2.219,1.909,3.34,2.887C376.948,319.008,377,319.175,377.068,319.271Z" transform="translate(-295.677 -242.086)"/><path class="ah" d="M418.067,235.208a1.146,1.146,0,0,1,.024-1.408A1.085,1.085,0,0,1,418.067,235.208Z" transform="translate(-330.067 -179.639)"/><path class="ak" d="M424.9,264.895c.262-.31.5-.286.716.024C425.377,265.252,425.139,265.014,424.9,264.895Z" transform="translate(-335.445 -203.146)"/><path class="an" d="M130.655,129.259A36.7,36.7,0,0,1,108.7,119.166a33.067,33.067,0,0,1-8.446-12.669c-.262-.692-.239-1.026.6-.907.477-.048.954,0,1.432-.024a14.431,14.431,0,0,1,5.7-2.076c.262-.048.62-.143.6-.477s-.406-.31-.668-.334c-.549-.072-1.1-.143-1.646-.191-1.241-.119-2.553-.1-3.46-1.193a.408.408,0,0,0-.31-.167c-1.67-.191-1.646-1.074-.931-2.243.048-.549-.1-1.1-.024-1.646-.787-1.336-1.479-1.479-2.481-.477-.573.573-.787.286-.954-.239a3.013,3.013,0,0,1-.1-.931,36.09,36.09,0,0,1,28.941-37.03,27.385,27.385,0,0,1,5.893-.668,8.107,8.107,0,0,0,2.839,0,34.955,34.955,0,0,1,22.786,9.472A35.419,35.419,0,0,1,169.951,90.13a22.783,22.783,0,0,1-.143,7.086.218.218,0,0,1-.286,0,1.145,1.145,0,0,0-1.336-1.05,1.6,1.6,0,0,0-1.455,1.36,3.113,3.113,0,0,0,.6,2.481c.31.477.215.692-.334.763a1.7,1.7,0,0,0-.787.239c-1.622,1.455-3.674,1.479-5.655,1.67-.286.024-.6.048-.692.358-.048.191.167.358.382.406a19.629,19.629,0,0,1,6.18,2.147,10.346,10.346,0,0,1,1.217,0c.883.215.215.716.119.978a34.294,34.294,0,0,1-5.631,9.854c-6.251,7.563-14.435,11.5-24.05,12.789A69.943,69.943,0,0,1,130.655,129.259Z" transform="translate(-86.532 -45.703)"/><path class="ao" d="M281,394.5c-.406,0-.835,0-1.241-.024a1.778,1.778,0,0,1-.978-1.956c.024-.787,0-1.694,1.288-1a3.768,3.768,0,0,0,1.384.1,3.85,3.85,0,0,0,.239.429,4.094,4.094,0,0,0-1.5.1c.477.5,1.288.668,1.5,1.384.143.143.167.262-.024.382C281.425,394.115,281.21,394.306,281,394.5Z" transform="translate(-224.179 -299.537)"/><path class="ap" d="M210.918,394.619c-.406.024-.811.024-1.241.048-.883-.716-.883-1.169-.024-1.789.239-.167.644-.143.692-.525,0-.048-.1-.1-.143-.167-.143-.262.1-.31.239-.406,1.169-.549,1.455-.358,1.432.954A1.923,1.923,0,0,1,210.918,394.619Z" transform="translate(-171.066 -299.707)"/><path class="aq" d="M223.854,371.1c-.239,1.455-.931,1.789-3.054,1.479A14.982,14.982,0,0,0,223.854,371.1Z" transform="translate(-180.042 -284.18)"/><path class="ar" d="M266,371.1a16.773,16.773,0,0,0,3.006,1.479C266.907,372.842,266.334,372.555,266,371.1Z" transform="translate(-214.457 -284.18)"/><path class="as" d="M233.243,384.3c-.62.787-1.074,1.36-1.527,1.933C231.573,385.207,232,384.634,233.243,384.3Z" transform="translate(-188.333 -294.231)"/><path class="n" d="M263.37,386.623c-.668-.835-1.121-1.408-1.67-2.123A1.847,1.847,0,0,1,263.37,386.623Z" transform="translate(-211.183 -294.383)"/><path class="at" d="M259.477,365.868c-.167-.191-.477-.286-.477-.62a.427.427,0,0,1,.668-.024c.119.358,1-.191.74.62A.611.611,0,0,1,259.477,365.868Z" transform="translate(-209.127 -279.593)"/><path class="au" d="M283.289,380.6c-.358-.668-.334-1.074.048-1.5C283.623,379.553,283.528,379.959,283.289,380.6Z" transform="translate(-227.427 -290.271)"/><path class="av" d="M234.923,366.788c-.167-.883.573-.453.883-.525.406-.1.334.167.072.358A.645.645,0,0,1,234.923,366.788Z" transform="translate(-190.776 -280.465)"/><path class="aw" d="M289.909,372.41a2.562,2.562,0,0,1-1.909.406c.406-.43,1.026-.119,1.455-.477A.283.283,0,0,1,289.909,372.41Z" transform="translate(-231.208 -285.06)"/><path class="ax" d="M211.117,392.8a2.264,2.264,0,0,1-.239.406H209.9V392.8Z" transform="translate(-171.742 -300.703)"/><path class="ay" d="M203.215,371.009c-.072-.072-.143-.167-.215-.239a2.651,2.651,0,0,1,1.479-.215c-.191.143-.382.262-.549.406-.1.262-.262.191-.429.119Z" transform="translate(-166.488 -283.756)"/><path class="az" d="M222.775,379.119H221.2V379h1.575Z" transform="translate(-180.346 -290.195)"/><path class="ba" d="M292.193,371.163c-.167-.024-.31-.048-.453-.072-.239-.143-.5-.286-.74-.453a2.53,2.53,0,0,1,1.455.191c-.024.167-.167.167-.262.239Z" transform="translate(-233.492 -283.813)"/><path class="bb" d="M215.714,380.862a3.211,3.211,0,0,1,.334-.263c.024.167.072.358.1.525.024.358-.191.334-.429.215C215.523,381.149,215.5,381.006,215.714,380.862Z" transform="translate(-176.053 -291.414)"/><path class="bc" d="M214.914,380.482a3.2,3.2,0,0,1-.024.477c-.048.143-.072.382-.191.406-.191.072-.215-.072-.167-.262a7.316,7.316,0,0,0,.167-1C214.938,380.148,214.867,380.339,214.914,380.482Z" transform="translate(-175.253 -291.033)"/><path class="bb" d="M235,367.991a1.343,1.343,0,0,0,.954-.191c-.024.239-.048.453-.072.692C235.573,368.325,235.286,368.158,235,367.991Z" transform="translate(-190.853 -281.668)"/><path class="bd" d="M205,372.419c.143-.048.286-.072.429-.119.119.382.6.239.74.549C205.74,372.849,205.262,372.944,205,372.419Z" transform="translate(-168.011 -285.094)"/><path class="be" d="M261,368.324c.31,0,.62-.024.931-.024-.143.382-.6.334-.835.573A5.318,5.318,0,0,0,261,368.324Z" transform="translate(-210.65 -282.048)"/><path class="bf" d="M210.9,368.833a1.786,1.786,0,0,1,1.026-.262C211.616,368.785,211.353,369.214,210.9,368.833Z" transform="translate(-172.504 -282.247)"/><path class="bg" d="M259.668,364.844c-.215,0-.453.024-.668.024.167-.358.5-.286.811-.286.119,0,.215.072.1.191C259.835,364.844,259.74,364.82,259.668,364.844Z" transform="translate(-209.127 -279.212)"/><path class="bh" d="M142,386.112c.406-.382.907-.215,1.36-.215.382,0,.668-.1.692-.453.143-1.5.907-1.1,1.718-.6-.954,1.384-2.123,2.052-3.77,1.265Z" transform="translate(-120.043 -294.301)"/><path class="bi" d="M147.547,397.444c.072.286-.191.6-.286.573-1-.262-1.98.143-2.982.119-.167,0-.31-.1-.286-.286.072-.429.549-.382.787-.62A3.605,3.605,0,0,1,147.547,397.444Z" transform="translate(-121.557 -303.939)"/><path class="bj" d="M168.619,388.3c-.74.573-1.479,1.145-2.243,1.718-.215.143-.477.429-.716.167-.286-.334.072-.573.286-.763A4.005,4.005,0,0,1,168.619,388.3Z" transform="translate(-137.976 -297.276)"/><path class="bk" d="M135.1,384.688c.74-.048,1.288-.549,1.98-.716.286-.072.644-.429.835-.072.215.382-.262.477-.477.668-.143.119-.31.239-.453.358C136.341,384.95,135.649,385.4,135.1,384.688Z" transform="translate(-114.789 -293.807)"/><path class="bl" d="M157.866,390.6c-.119-1.169.787-1.336,1.646-1.6-.31.573-.62,1.145-.931,1.694C158.248,391.171,158.081,390.861,157.866,390.6Z" transform="translate(-132.115 -297.809)"/><path class="bm" d="M132.427,395.91c-.167-.239-.31-.477-.477-.716-.119-1.074.453-1.551,1.432-1.694a.14.14,0,0,1,.072.167q-.036.072-.072.072A2.675,2.675,0,0,0,132.427,395.91Z" transform="translate(-112.379 -301.236)"/><path class="bn" d="M149.763,395.7c.215.119.453.262.716.119a.726.726,0,0,1-.477.62,11.933,11.933,0,0,0-2.768-.215c-.119-.549.31-.239.477-.263C148.4,395.843,149.119,396.082,149.763,395.7Z" transform="translate(-124.012 -302.911)"/><path class="bo" d="M158.6,379.824c.215.787-.477.74-.907.907-.072.024-.286-.119-.334-.239a.331.331,0,0,1,.215-.477c.286-.1.6-.143.907-.215Z" transform="translate(-131.705 -290.805)"/><path class="bp" d="M117.324,400.673c-.119,0-.262.024-.334-.024-.215-.167-.024-.286.1-.31.62-.1,1.217-.167,1.837-.239.048,0,.143.143.191.239-.191.072-.358.119-.549.191C118.183,400.673,117.729,400.482,117.324,400.673Z" transform="translate(-100.926 -306.261)"/><path class="as" d="M169.35,380.544c-.048.239-.262.262-.429.334-.215.072-.525.239-.644,0-.191-.382.382-.31.429-.573C169.04,380.043,169.207,380.234,169.35,380.544Z" transform="translate(-140.02 -291.095)"/><path class="bq" d="M134.58,387.7c.549.62,1.265.024,1.885.239a2.475,2.475,0,0,1-1.885.167C134.317,388.082,134.413,387.843,134.58,387.7Z" transform="translate(-114.269 -296.82)"/><path class="br" d="M170.844,379.977c-.215-.1-.382-.31-.644-.239.119-.477.477-.262.692-.191C171.131,379.667,170.987,379.858,170.844,379.977Z" transform="translate(-141.514 -290.528)"/><path class="bs" d="M138,392.316v-.239c.239-.358.6-.382.954-.453l-.024-.024C138.978,392.292,138.334,392.1,138,392.316Z" transform="translate(-116.997 -299.789)"/><path class="bt" d="M159.578,378.972l-.048.024-.048-.024c-.262-.024-.525-.072-.883-.119a1.159,1.159,0,0,1,1.074-.072c.024,0,0,.072,0,.1C159.65,378.9,159.6,378.925,159.578,378.972Z" transform="translate(-132.682 -289.953)"/><path class="bu" d="M118.7,401.953a2.551,2.551,0,0,1,1.265-.167C119.583,402.12,119.129,401.976,118.7,401.953Z" transform="translate(-102.302 -307.541)"/><path class="bv" d="M345.721,386.147c-1.384.262-2.577.024-3.221-1.408,1-.835,1.169-.835,1.527.406.143.525.382.6.835.573a1.508,1.508,0,0,1,1.145.191C345.96,386.051,345.816,386.075,345.721,386.147Z" transform="translate(-272.705 -294.121)"/><path class="bw" d="M343.768,397.2c.239.239.668.239.883.835-1.336.024-2.529.119-3.65-.644A3.224,3.224,0,0,1,343.768,397.2Z" transform="translate(-271.563 -303.886)"/><path class="bx" d="M305.646,370.924c.5-.072,1.026-.1,1.527-.215.787-.191,1.217.072,1.336.859-1.5-.072-3.006-.167-4.509-.239C304.429,370.638,305.145,371.258,305.646,370.924Z" transform="translate(-243.391 -283.838)"/><path class="by" d="M354.953,384.757a17.708,17.708,0,0,1-1.98-.024.69.69,0,0,1-.549-.883c.119-.453.5-.119.787-.072A5.169,5.169,0,0,1,354.953,384.757Z" transform="translate(-280.242 -293.71)"/><path class="bz" d="M325.4,389.281a2.322,2.322,0,0,1,1.646,1.36c.024.072-.119.262-.143.262-.716-.072-1.1-.716-1.67-1.026a2.208,2.208,0,0,1-.334-.334C324.871,389.09,325.109,389.138,325.4,389.281Z" transform="translate(-259.299 -297.947)"/><path class="bl" d="M335.621,390.713c-.43-.573-.644-1.265-1.121-1.813.907.167,1.837.334,1.766,1.622C336.122,390.809,335.955,391.023,335.621,390.713Z" transform="translate(-266.613 -297.733)"/><path class="ca" d="M339.01,395.815l.644-.215c.811.453,1.718.143,2.553.262a.108.108,0,0,1,.072.072,1.653,1.653,0,0,1-.072.191,10.748,10.748,0,0,0-2.768.191C339.32,396.125,338.772,396.316,339.01,395.815Z" transform="translate(-270.002 -302.835)"/><path class="cb" d="M299.555,371.648c-.477.477-1.169-.048-1.646.406-.644-.072-1.288-.143-1.909-.215.1-.072.167-.167.262-.239C297.36,371.6,298.458,371.624,299.555,371.648Z" transform="translate(-237.299 -284.561)"/><path class="cc" d="M336.2,380.348c.573-.191,1.05-.31,1.408.119a.318.318,0,0,1-.1.5C336.964,381.159,336.653,380.777,336.2,380.348Z" transform="translate(-267.908 -291.09)"/><path class="cd" d="M326.954,380.417c.215.1.644.31.262.453-.358.119-1.1.191-1.217-.573C326.358,380.011,326.668,380.154,326.954,380.417Z" transform="translate(-260.141 -291.063)"/><path class="ce" d="M303.954,385.349c-.072.024-.167.024-.239.048q-.322-.286-.716-.644c.668-.286,1.05.048,1.455.358C304.265,385.134,304.05,385.134,303.954,385.349Z" transform="translate(-242.629 -294.492)"/><path class="cf" d="M322.888,388.208c-.215.024-.406.048-.5.262a1.479,1.479,0,0,1-.787-.692A1.874,1.874,0,0,1,322.888,388.208Z" transform="translate(-256.791 -296.874)"/><path class="cg" d="M364.105,399.6a1.083,1.083,0,0,1-.024,1.193A.8.8,0,0,1,364.105,399.6Z" transform="translate(-288.942 -305.88)"/><path class="ch" d="M371.878,399.634a1,1,0,0,1-.978-.477c.382-.286.644.1.931.048a.231.231,0,0,1,.167.191A.294.294,0,0,1,371.878,399.634Z" transform="translate(-294.329 -305.461)"/><path class="ci" d="M377.969,400.772c.191.1.382.286.072.358a1.519,1.519,0,0,1-1.241-.143C377.11,400.51,377.587,400.867,377.969,400.772Z" transform="translate(-298.821 -306.742)"/><path class="cj" d="M376.6,400.31c-.334.334-.787.072-1.169.215l-.43-.072v-.239a2.812,2.812,0,0,1,1.408,0A1.409,1.409,0,0,0,376.6,400.31Z" transform="translate(-297.45 -306.28)"/><path class="ck" d="M356,391.733c.1-.072.191-.167.286-.239a1.593,1.593,0,0,1,.859.334c.024.191.024.334-.239.191C356.62,391.924,356.31,391.828,356,391.733Z" transform="translate(-282.984 -299.707)"/><path class="bb" d="M326.954,379.937c-.31-.048-.644-.1-.954-.119C326.358,379.484,326.716,379.293,326.954,379.937Z" transform="translate(-260.141 -290.584)"/><path class="cl" d="M376.255,399.794h-1.408a.561.561,0,0,0-.048-.191C375.277,399.651,375.8,399.412,376.255,399.794Z" transform="translate(-297.298 -305.859)"/><path class="cm" d="M359.9,393.091a2.08,2.08,0,0,1,.239-.191c.262.119.525.262.811.382-.1.1-.215.191-.31.286C360.377,393.4,360.139,393.258,359.9,393.091Z" transform="translate(-285.953 -300.779)"/><path class="bt" d="M337.635,378.766a.938.938,0,0,1-.835.024A.8.8,0,0,1,337.635,378.766Z" transform="translate(-268.365 -289.938)"/><path class="cn" d="M290.8,400.268c0-.119.024-.262.024-.382l.143-.286c.048.072.143.191.119.239C290.967,399.982,291.349,400.411,290.8,400.268Z" transform="translate(-233.34 -305.88)"/><path class="co" d="M102,225.3c1.813,1.217,1.813,1.217.262,2.41A7.483,7.483,0,0,0,102,225.3Z" transform="translate(-89.586 -173.167)"/><path class="cp" d="M393.01,226.415c-.048.668-.072,1.336-.119,2.1a1.753,1.753,0,0,1-1.145-1.241c-.143-.644.644-.573.931-.907A.252.252,0,0,1,393.01,226.415Z" transform="translate(-310.187 -173.948)"/><path class="cq" d="M246.839,57.9a4.013,4.013,0,0,1-2.839,0Z" transform="translate(-197.706 -45.708)"/><path class="cr" d="M110.3,245.051c-.358-.048-.5-.191-.5-.453a.393.393,0,0,1,.358-.406.418.418,0,0,1,.477.406C110.659,244.884,110.444,244.955,110.3,245.051Z" transform="translate(-95.525 -187.55)"/><path class="cs" d="M387.652,244.623c-.048.262-.191.429-.477.406a.389.389,0,0,1-.382-.358.421.421,0,0,1,.406-.477C387.461,244.17,387.6,244.361,387.652,244.623Z" transform="translate(-306.428 -187.551)"/><path class="ct" d="M112.1,222.8a1.75,1.75,0,0,1,.024,1.646A1.573,1.573,0,0,1,112.1,222.8Z" transform="translate(-97.105 -171.264)"/><path class="cu" d="M386.117,256.886a1.23,1.23,0,0,1-1.217,0A.79.79,0,0,1,386.117,256.886Z" transform="translate(-304.988 -196.999)"/><path class="cv" d="M111.432,256.81a1.592,1.592,0,0,1-1.432.024A1.117,1.117,0,0,1,111.432,256.81Z" transform="translate(-95.678 -196.97)"/><path class="cw" d="M396.11,223.654c-.1-.024-.215-.024-.31-.048.167-.31.334-.6.477-.907h.286A1.706,1.706,0,0,1,396.11,223.654Z" transform="translate(-313.288 -171.188)"/><path class="am" d="M403.21,184.7c-.024.31-.024.62-.048,1.145-.262-.549-.286-.859.048-1.145Z" transform="translate(-318.741 -142.254)"/><path class="ah" d="M407.3,239.5h.859C407.873,239.786,407.586,240.073,407.3,239.5Z" transform="translate(-322.044 -183.979)"/><path class="r" d="M141.483,129.064a5.612,5.612,0,0,1,2.052-.406,4.731,4.731,0,0,1,.835-.072c.978-.048.978-.883.859-1.384-.239-1,1.241-2.267-.382-3.03a14.6,14.6,0,0,0-2.243-.764c-.62-.167-.74-.453-.549-1.026q.608-1.754,1.145-3.507c.143-.5.382-.6.883-.429.74.286,1.527.453,2.243.787a.718.718,0,0,0,1.121-.429c.024-.048.024-.072.048-.119.5-.954,1.432-1.909,1.384-2.839-.048-.883-1.384-1.408-2.123-2.1-.453-.429-.477-.692-.048-1.121.859-.883,1.67-1.789,2.481-2.72.358-.406.668-.5,1.05-.048a1.1,1.1,0,0,0,.167.167c.74.573,1.408,1.885,2.123,1.694,1.1-.286,2.028-1.312,3.03-2.028a.492.492,0,0,0,.167-.716c-.048-.1-.119-.215-.167-.31-.334-.954-1.432-1.933-1.026-2.768.334-.692,1.67-.907,2.577-1.288,1.909-.835,1.909-.811,2.7,1.026.024.072.072.143.1.215.239,1.384,1.026,1.455,2.219,1.121,2.481-.668,2.529-.6,2.481-3.149-.024-.954.191-1.36,1.217-1.265,1.193.1,2.386.048,3.555.072.358,1.145-.143,2.386.262,3.531a23.694,23.694,0,0,0,3.794.907c.453.119.549-.239.668-.525.358-.764.716-1.5,1-2.291.215-.62.549-.644,1.074-.382a31.255,31.255,0,0,0,3.03,1.384c.811.31.811.692.477,1.408-1.145,2.481-1.074,2.434,1.1,4.1a1.462,1.462,0,0,0,2.291-.119c1.766-1.67,1.813-1.622,3.483.143,1.837,1.933,1.861,1.98-.191,3.746a1.207,1.207,0,0,0-.286,1.861c1.5,2.553,1.479,2.625,4.295,1.67.787-.262,1.121-.167,1.336.644.286,1.121.668,2.2,1.05,3.293.167.477.1.74-.429.859-.382.1-.764.215-1.145.334-2.362.787-1.956.191-1.718,2.625.215,2.076.262,2.076,2.314,2.338,1.789.239,1.789.239,1.646,2.028-.072.859-.215,1.742-.262,2.6-.048.644-.31.74-.931.692-1-.072-2.2-.859-2.959-.143-.644.6-.644,1.813-1,2.744a1.028,1.028,0,0,0,.573,1.5c.835.453,2.123.764,2.243,1.551.119.74-.763,1.67-1.217,2.481-1.05,1.885-1.1,1.956-2.959.764-1.145-.74-1.789-.573-2.6.477-1.527,1.933-1.646,1.909-.1,3.889.74.931.787,1.5-.334,2.028-.072.024-.119.1-.191.143-.931.62-1.837,1.718-2.768,1.718-.883,0-1.312-1.527-1.98-2.338-.286-.358-.549-.573-.978-.239-.024.024-.072.024-.1.048-.954.477-2.219.716-2.792,1.479-.62.811.215,2,.382,3.054.072.477.119.835-.525.954-1.241.215-2.505.453-3.746.74-.549.119-.811-.048-.883-.62-.048-.429-.167-.859-.239-1.288-.286-1.694-.262-1.694-1.933-1.67-2.6.024-2.648.024-3.1,2.625-.167.954-.477,1.288-1.455.978a23.068,23.068,0,0,0-3.149-.668c-.62-.1-.692-.382-.573-.907.167-.74.262-1.479.5-2.2.215-.692-.048-.978-.668-1.241-2.935-1.288-2.959-1.312-4.8,1.241-.382.525-.644.668-1.193.215-.931-.74-1.909-1.432-2.887-2.1-.5-.334-.62-.573-.215-1.121.6-.811,1.742-1.575,1.575-2.505-.167-.835-1.265-1.479-1.837-2.267-.525-.74-.978-.764-1.742-.286-2.41,1.5-2.434,1.479-3.794-.954-1.145-2-1.169-2.076.835-3.126,1-.525,1.312-1,.883-2.2-.978-2.672-.883-2.744-3.674-2.267-.907.143-1.217-.024-1.241-.954-.024-.978-.31-1.956-.239-2.959C141.674,129.709,141.435,129.375,141.483,129.064Z" transform="translate(-119.549 -79.699)"/><path class="cx" d="M148.195,94.841c-.334,0-.644-.191-.358-.477.644-.692-.143-.883-.382-1.193-.358-.429-.6.1-.835.286-1.121.931-1.1.931,0,1.933.549.5,1.074,1.026,1.622,1.527a.233.233,0,0,1-.048.334.694.694,0,0,1-.6-.286c-.5-.763-.978-.525-1.455.024-.215.119-.31,0-.382-.167.143-1.455-.1-1.6-1.5-.954a.4.4,0,0,1-.358-.334,35.691,35.691,0,0,1,7.563-6.633c-.716,2.123,1.384,2.7,1.718,4.175-.668.167-.764-.5-1.1-.763-.358-.286-.358-1.026-1.1-.859-.74.191-.835.74-.859,1.36.119.119.119.215-.024.31-.978-.573-.453-1.1.048-1.646.239-.262,1-.406.5-.954-.429-.477-.692.215-1.05.358a3.262,3.262,0,0,0-.573.429c-.835.644-1.909,1.217-.453,2.338a.7.7,0,0,1,.119.883C148.767,94.984,148.529,94.984,148.195,94.841Z" transform="translate(-121.489 -69.311)"/><path class="cy" d="M298.225,80.311c-.119-.024-.262-.024-.31-.1-.811-.883-1.455-.692-1.957.31-.406.024-.429-.167-.239-.477.119-.453.835-.883-.048-1.36-.453-.239-.74-.358-1.026.215-.382.787-.835,1.527-1.265,2.29-.1.191-.167.549-.453.406-.382-.167-.119-.477,0-.692.43-.763.835-1.527,1.312-2.267.358-.573,0-.74-.382-.978-.477-.31-.62,0-.787.334a16.893,16.893,0,0,1-1.6,3.126c-.048-.954.644-1.933-.573-2.267a.583.583,0,0,1,.262-.215c1.265-.453,1.384-.811.692-2.076a.338.338,0,0,1,.549-.143c1.575.453,2.839,1.5,4.295,2.171l-.024-.024c.453.716,1.336.883,1.909,1.479C298.535,80.264,298.487,80.431,298.225,80.311Z" transform="translate(-233.416 -59.744)"/><path class="cz" d="M257.936,65.518c1.5.334,3.1.286,4.557.954-.1.215-.215.334-.453.239-.668-.119-.978.072-1.074.811a4.917,4.917,0,0,1-.835,2.911,10.455,10.455,0,0,1,.358-3.1c.1-.573,0-.883-.62-1-.644-.119-.859.143-.907.716a6.272,6.272,0,0,1-.143.931c-.072.239-.024.644-.406.6-.191-.024-.358-.286-.477-.453-.167-.239-.215-.382.1-.668.763-.692.644-1.121-.31-1.5a.366.366,0,0,1-.072-.453A.254.254,0,0,1,257.936,65.518Z" transform="translate(-208.064 -51.465)"/><path class="da" d="M323.411,95.869c.716-.215.954-.477.262-1.074-.406-.358-.978-.5-1.288-1.026-.048-.286.072-.406.358-.334a24.94,24.94,0,0,1,2.529,1.98.375.375,0,0,1,0,.525.689.689,0,0,0-1.074.191c-.525.74-1.145,1.384-1.718,2.1-.119.167-.215.358-.429.191s-.072-.334.072-.5c.286-.358.573-.764.883-1.1.262-.31.406-.573.072-.907A.216.216,0,0,1,323.411,95.869Z" transform="translate(-257.051 -72.749)"/><path class="da" d="M202.8,72.125a6.743,6.743,0,0,1,1.885-.74c.239-.048.549-.215.549.262-.453.358-.072.716.024,1.05a16.391,16.391,0,0,1,.931,2.768c-.907-.024-.525-1.67-1.67-1.169-.143-.072-.286-.143-.31-.358.406-1.217.358-1.288-.883-1.432A.681.681,0,0,1,202.8,72.125Z" transform="translate(-166.336 -55.924)"/><path class="db" d="M345.4,118.8a5.358,5.358,0,0,1,1.766,1.742c-1.5.048-2.076,1.312-3.054,1.98-.215.143-.406.668-.716.31-.286-.334.143-.525.358-.74.31-.31.644-.573.978-.859C345.424,120.589,346.426,120.065,345.4,118.8Z" transform="translate(-273.314 -92.077)"/><path class="dc" d="M276.1,69.939a4.143,4.143,0,0,0,.453-.239,6.815,6.815,0,0,1,2.147.668c.072.262-.024.406-.31.334a7.084,7.084,0,0,0-1.6,2.72,2.83,2.83,0,0,1-.6-1.265c-.072-.239,0-.644.215-.525.931.453.787-.382.883-.74.167-.692-.5-.525-.835-.692A1.39,1.39,0,0,0,276.1,69.939Z" transform="translate(-222.147 -54.692)"/><path class="dd" d="M213.982,67.307a13.46,13.46,0,0,1,4.414-.978c.525,0,1.1-.382,1.527.239-.143.024-.262.024-.406.048-.358.31-.1.716-.191,1.05a.812.812,0,0,1-.048.334.2.2,0,0,1-.286.024l-.072-.644c-.1-.787-.573-.787-1.169-.573-.239.119-.692.072-.668.5.1.907-.5.74-1.026.716l.024.024c.143-.167.406-.358.382-.5-.072-.382-.429-.143-.668-.191-.549-.143-1.026.262-1.551.262C214.006,67.689,213.959,67.546,213.982,67.307Z" transform="translate(-174.846 -52.037)"/><path class="de" d="M198.269,76.585c.1.1.215.191.31.286-.191.239-.644.167-.668.573-.024.429-.262.429-.549.31-.239-.119-.668-.167-.573-.477.334-1.336.048-2.076-1.789-1.551.072-.143.143-.262.215-.406.549-.215,1.1-.429,1.646-.62.215.024.406.048.525.262A1.845,1.845,0,0,0,198.269,76.585Z" transform="translate(-160.397 -58.499)"/><path class="df" d="M140.579,117.965l.286.215c-.286.286-.931.286-.811.931-.239.406-.549.429-.954.239.262-.811-.239-1.742-.811-1.527-.429.167-.549.883-1.288.74a6.479,6.479,0,0,1,1.622-1.861,2.72,2.72,0,0,0,.262.262A3.863,3.863,0,0,0,140.579,117.965Z" transform="translate(-116.236 -90.479)"/><path class="dg" d="M243.04,69.133c-.1-.072-.167-.143-.262-.215a1.34,1.34,0,0,1-.215-1c.1-.954-.262-1.288-1.193-1-.239.143-.453.525-.763.1-.072-.1-.167-.215-.143-.286.1-.382.429-.239.668-.286.549-.1,1.193.239,1.622-.358.024-.74-.358-1-1.074-.931a8.933,8.933,0,0,1-1.384,0c-.239-.024-.477-.072-.334-.406a7.474,7.474,0,0,1,3.483,0C242.849,66.175,243.374,67.7,243.04,69.133Z" transform="translate(-194.599 -50.761)"/><path class="dh" d="M334.885,113.765c.334-.286.62-.692,1.121-.668.191.5-.334.358-.429.573-.167.358-1.145.74.1,1,.5.1.477.549.358.954-.1.1-.167.072-.262-.024-.334-.931-.954-.811-1.622-.453-.215,0-.382-.048-.239-.334-.286-.215-.764-.167-.907-.62a.539.539,0,0,1,.262-.191,4.109,4.109,0,0,1,.93-.1A3.567,3.567,0,0,0,334.885,113.765Z" transform="translate(-265.471 -87.734)"/><path class="di" d="M162.263,122.8H164.6c.239,0,.477.072.453.406a.344.344,0,0,1-.429.286.993.993,0,0,0-1.1.5.442.442,0,0,0-.286.167c-.262.262-.6.644-.954.31-.406-.382-.31-.835.167-1.145a4.819,4.819,0,0,1,1.933-.119,8.682,8.682,0,0,0-1.575-.024C162.525,123.158,162.215,123.229,162.263,122.8Z" transform="translate(-135.295 -95.123)"/><path class="dj" d="M306.481,91.9a.485.485,0,0,0,.239.477c-.334.573-.668,1.145-1.026,1.718-.119.167-.215.5-.5.286-.239-.167-.1-.429.048-.62C305.646,93.117,306.052,92.52,306.481,91.9Z" transform="translate(-244.202 -71.596)"/><path class="dk" d="M161.415,124.524c-.286.286-.382.692-.048.907.239.167.429-.215.573-.453.191-.31.382-.167.525.072-.191.62-.5,1.145-1.217.811-.692-.334-.787-.907-.334-1.551C161.153,124.214,161.391,124.094,161.415,124.524Z" transform="translate(-134.233 -96.203)"/><path class="dj" d="M252.992,69.59c0-1.05.024-2.1,0-3.173a1.242,1.242,0,0,1,.477-1.121c.262-.191.5-.239.74.024V65.7c-.787-.1-1.026.239-.978,1,.048.954-.024,1.885-.048,2.839,0,.024-.048.048-.072.048A.079.079,0,0,1,252.992,69.59Z" transform="translate(-204.551 -51.218)"/><path class="dl" d="M220.987,77.654c-.6.429-.692,1-.119,1.766-1.265-.215-.907-1.1-1.074-1.67a.184.184,0,0,1,.024-.239.77.77,0,0,0,.716-.1C220.772,77.32,221.011,77.2,220.987,77.654Z" transform="translate(-179.25 -60.5)"/><path class="dm" d="M334.606,111.441a.733.733,0,0,1-.5.453,2.015,2.015,0,0,0-1.455-1.169.454.454,0,0,1,.024-.31C333.7,109.723,334.153,109.962,334.606,111.441Z" transform="translate(-265.193 -85.411)"/><path class="dn" d="M335.9,102.325V101.8a7.271,7.271,0,0,1,2.1,2.219A4.272,4.272,0,0,1,335.9,102.325Z" transform="translate(-267.679 -79.134)"/><path class="do" d="M234.366,65.568c.6.429,1.288.191,1.933.191.787,0,1.074.286.907,1.05-.1-.549-.334-.883-.978-.811a15.461,15.461,0,0,1-2.1-.024c-.453-.382-1.026-.1-1.527-.239.5-.1,1-.167,1.5-.262A.238.238,0,0,1,234.366,65.568Z" transform="translate(-189.026 -51.467)"/><path class="dp" d="M316.026,96.514a1,1,0,0,0-1.217.692c-.477,0-.262-.31-.262-.525.429-.787.907-1.312,1.718-.406C316.36,96.514,316.24,96.586,316.026,96.514Z" transform="translate(-251.384 -74.563)"/><path class="dq" d="M314.851,82.414c-.167-.644.119-.978.763-1.05.859-.1,1.217.429,1.527,1.121a1.589,1.589,0,0,0-2.314-.1Z" transform="translate(-251.617 -63.565)"/><path class="dr" d="M244.662,101.119H240.2V101h4.462Z" transform="translate(-194.813 -78.524)"/><path class="ds" d="M320.9,98.039c.1-.072.167-.167.262-.239.024.954,1.145.787,1.479,1.408-.119.024-.239.024-.358.048-.429.048-.835.119-1.36.191C320.924,98.945,321.377,98.468,320.9,98.039Z" transform="translate(-256.258 -76.088)"/><path class="dt" d="M239.086,64.6l-.286-.072a.525.525,0,0,0,.024-.191,13.472,13.472,0,0,1,3.794-.024c.334.072.716-.072.978.239-.072.024-.167.048-.239.072-.239,0-.477-.024-.74-.024Z" transform="translate(-193.747 -50.495)"/><path class="du" d="M242.794,63.823c-1.265,0-2.529.024-3.794.024A6.427,6.427,0,0,1,242.794,63.823Z" transform="translate(-193.899 -50.009)"/><path class="dv" d="M289.062,78.12a1.076,1.076,0,0,1-.1-1.288c.143-.358.453-.668.262-1.1.43-.191.477.191.668.406a1.734,1.734,0,0,1-.358,1.312C289.4,77.667,289.325,77.953,289.062,78.12Z" transform="translate(-231.817 -59.248)"/><path class="dw" d="M259.06,106.331c-.549-.143-.239-.6-.239-.859-.048-.883-.024-1.766-.024-2.672C259.418,103.921,258.964,105.162,259.06,106.331Z" transform="translate(-208.925 -79.895)"/><path class="dx" d="M227.833,77.694a.756.756,0,0,1,.477.62.675.675,0,0,1-.334.692.276.276,0,0,1-.406-.024c-.215-.262.119-.406.119-.62a.935.935,0,0,0-.1-.429C227.546,77.718,227.594,77.6,227.833,77.694Z" transform="translate(-185.142 -60.754)"/><path class="dy" d="M235.552,72.81v-.239q.107-.143.215,0c.024.143.024.262.048.406.215.477-.072,1.026.191,1.5.024.286.167.6-.072.883-.573-.191-.382-.668-.429-1.074A2.413,2.413,0,0,1,235.552,72.81Z" transform="translate(-191.167 -56.824)"/><path class="dz" d="M340.569,123.7a.978.978,0,0,1,.262.024c-.048.1-.072.215-.119.31a1.4,1.4,0,0,1-1.193.811c-.382.024-.31-.358.167-.62.215-.119.429-.191.62-.31A2.534,2.534,0,0,1,340.569,123.7Z" transform="translate(-270.248 -95.808)"/><path class="ea" d="M145.9,127.039a1.546,1.546,0,0,0,.954-.239c.573.525,1.36-.024,1.956.429C147.833,127.229,146.854,127.54,145.9,127.039Z" transform="translate(-123.012 -98.169)"/><path class="eb" d="M162.269,123.292c-.167-.072-.334-.119-.5-.191a.21.21,0,0,1,.024-.167c.024-.119.024-.239.048-.334a.7.7,0,0,1,.215.048c.764.573,1.67-.072,2.553.358C163.8,123.268,162.985,122.982,162.269,123.292Z" transform="translate(-135.087 -94.971)"/><path class="dc" d="M289.778,74.644c-.191-.167-.382-.31-.6-.477-.167,0-.358.024-.453-.167-.072-.286.024-.429.334-.358.549.239,1.074.5,1.622.74a.6.6,0,0,0-.5.239A.275.275,0,0,1,289.778,74.644Z" transform="translate(-231.745 -57.68)"/><path class="dj" d="M246,73.968c1.288-.382,1.432-.286,1.432.954,0,.358-.024.692-.048,1.05a.6.6,0,0,0-.167-.1c-.406-.573.072-1.265-.286-1.837C246.644,74.016,246.31,73.992,246,73.968Z" transform="translate(-199.229 -57.791)"/><path class="ec" d="M218.207,74.75a.9.9,0,0,1-.024.239c-.382-.215-.644-.525-.429-.978.262-.525.811-.072,1.169-.286L218.9,73.7C218.971,74.249,218.064,74.129,218.207,74.75Z" transform="translate(-177.663 -57.738)"/><path class="ed" d="M161.9,112.81a.631.631,0,0,0,.549-.31c.477.239,1.074,0,1.646.5A4.165,4.165,0,0,1,161.9,112.81Z" transform="translate(-135.195 -87.281)"/><path class="ee" d="M170,105.61c0-.1.024-.191.024-.31.549.262,1.1.549,1.646.811A1.62,1.62,0,0,1,170,105.61Z" transform="translate(-141.362 -81.799)"/><path class="ef" d="M314.067,99.5c.1.167.167.358.262.525-.024.429.119.859-.239,1.241A2,2,0,0,1,314.067,99.5Z" transform="translate(-250.904 -77.382)"/><path class="dv" d="M334.394,120.4c.072.119.167.215.239.334-.143.429-.5.644-.954,1C333.488,120.949,334.06,120.734,334.394,120.4Z" transform="translate(-265.959 -93.296)"/><path class="dz" d="M347.856,114.451c-.024.167-.048.334-.262.31a1.042,1.042,0,0,1-.668-.6.2.2,0,0,1,.239-.286C347.522,113.926,347.665,114.212,347.856,114.451Z" transform="translate(-276.056 -88.325)"/><path class="eg" d="M331.762,111.4c.024.119.048.262.072.382a.854.854,0,0,1,.239,1.1.979.979,0,0,0-.262.024A.984.984,0,0,1,331.762,111.4Z" transform="translate(-264.281 -86.443)"/><path class="eh" d="M224.332,76.877l-.239.239c-.239,0-.477-.024-.716-.024-.1-.191-.286-.215-.477-.239A1.062,1.062,0,0,1,224.332,76.877Z" transform="translate(-181.64 -59.936)"/><path class="du" d="M249.906,74.8c.668.525.191,1.217.286,1.837C249.62,76.112,250.025,75.42,249.906,74.8Z" transform="translate(-202.181 -58.576)"/><path class="do" d="M230,67.948c.644-.31,1.193-.477,1.169.573C231.026,67.829,230.453,68,230,67.948Z" transform="translate(-187.046 -53.179)"/><path class="ei" d="M141.384,213.7a.58.58,0,0,1,0,.978C141.289,214.344,141.074,214.01,141.384,213.7Z" transform="translate(-119.451 -164.335)"/><path class="dv" d="M286.774,72.862c-.119.119-.215.239-.334.358-.239-.1-.477-.191-.74-.286.1-.119.215-.215.31-.334A7.171,7.171,0,0,1,286.774,72.862Z" transform="translate(-229.457 -56.901)"/><path class="ej" d="M235.325,73.724c0,.5-.024.978-.024,1.479a2.914,2.914,0,0,1-.167-1.5A.465.465,0,0,0,235.325,73.724Z" transform="translate(-190.94 -57.738)"/><path class="ej" d="M237.167,76c-.382-.453-.167-1-.191-1.5A2.923,2.923,0,0,1,237.167,76Z" transform="translate(-192.328 -58.347)"/><path class="ek" d="M225.835,86.45a.547.547,0,0,1-.835-.1C225.334,86.044,225.573,86.331,225.835,86.45Z" transform="translate(-183.239 -67.267)"/><path class="el" d="M322.507,92.382c-.119.119-.239.215-.358.334-.191-.167-.358-.31-.549-.477.1-.072.215-.167.31-.239C322.2,92,322.34,92.191,322.507,92.382Z" transform="translate(-256.791 -71.672)"/><path class="em" d="M289.9,83.54c.024-.262-.048-.549.239-.74a.9.9,0,0,1,.334.907c-.119.024-.262.048-.382.072A.933.933,0,0,0,289.9,83.54Z" transform="translate(-232.655 -64.667)"/><path class="ec" d="M211.487,70.788c.1.1.215.191.31.286-.191.048-.358.119-.549.167-.119-.215-.334-.215-.549-.262C210.915,70.74,211.2,70.788,211.487,70.788Z" transform="translate(-172.351 -55.518)"/><path class="do" d="M236.167,69.069h-.215c.072-.406-.215-.883.31-1.169C236.214,68.282,236.191,68.664,236.167,69.069Z" transform="translate(-191.567 -53.322)"/><path class="en" d="M184.4,161.1a15.807,15.807,0,1,1,15.89,15.843A15.866,15.866,0,0,1,184.4,161.1Z" transform="translate(-152.326 -112.331)"/><path class="eo" d="M247.822,303.019H244.1V302.9h3.746C247.846,302.948,247.822,302.972,247.822,303.019Z" transform="translate(-197.782 -232.252)"/><path class="ep" d="M146.67,116.239c-1,.429-1.36-.215-1.67-.978.525-.1.6-1.169,1.336-.716C147.028,114.951,147.386,115.524,146.67,116.239Z" transform="translate(-122.327 -88.753)"/><path class="eq" d="M291.162,79.8a.84.84,0,0,1-.334-.907c.167-.382.358-.787.525-1.169.143,0,.286-.024.429-.024.262.31,1.05.167.764.907C292.307,79.275,292.14,80.014,291.162,79.8Z" transform="translate(-233.344 -60.784)"/><path class="er" d="M205.276,76.676c-.954-.072-1.336-.74-.883-1.646.453.024,1-.644,1.336.286C205.968,75.961,206.039,76.438,205.276,76.676Z" transform="translate(-167.404 -58.591)"/><path class="es" d="M333.252,113.639c-.048-.382-.358-.692-.239-1.1,1.169-.525,1.36.215,1.384,1.1Z" transform="translate(-265.461 -87.179)"/><path class="et" d="M201.792,163.8c.549-.286.382-.811.382-1.265v-9.949c0-.406-.215-1.05.62-.931a19.232,19.232,0,0,0,3.1,0,13.92,13.92,0,0,1,9.758,5.034c.358.406.31.668-.1.954-.024.024-.072.048-.1.072-.835.716-1.575,1.813-2.553,2.076-1.026.262-1.432-1.265-2.29-1.813a15.3,15.3,0,0,0-3.149-1.67c-.573-.191-.883-.239-.859.525.024,2.028.048,4.056,0,6.06-.024.811.429.763.978.763h9.52c.429,0,.859.072,1.288.1-.191.215-.429.143-.668.143H207.59c-.167,0-.382.048-.406,0H217.2c1.288,0,1.265,0,1.312,1.336.048,1.026-.143,2.052-.024,3.078a13.869,13.869,0,0,1-4.963,8.8c-.286.262-.5.358-.763,0a1.251,1.251,0,0,0-.239-.262c-.74-.835-1.837-1.575-2.076-2.553-.239-1,1.288-1.432,1.861-2.29a10.461,10.461,0,0,0,1.837-3.889c-2.362,0-4.6.024-6.871-.024-.764-.024-.692.429-.692.931,0,3.245.024,6.514,0,9.758,0,.406.239.883-.215,1.193a23.185,23.185,0,0,1-.1-4.271q-.036-3.042,0-6.084c0-.358-.119-.74-.024-.907v9.854c0,1.408,0,1.36-1.479,1.432-1.384.072-2.744-.239-4.128-.286a14.313,14.313,0,0,1-7.444-4.629c-.358-.406-.286-.62.1-.954.811-.692,1.622-1.408,2.386-2.147.453-.453.692-.286,1,.143a9.7,9.7,0,0,0,4.581,3.269c.62.191.859.119.859-.6-.024-1.909-.048-3.818,0-5.726.024-.787-.215-1-1-1-3.221.048-6.442-.024-9.663.048-1,.024-1.408-.215-1.479-1.265-.334-4.963,1.6-8.947,5.13-12.288.334-.31.573-.406.859,0a1.1,1.1,0,0,0,.167.167c.764.859,1.956,1.6,2.2,2.6.286,1.05-1.336,1.479-1.909,2.386a16.175,16.175,0,0,0-1.6,3.054c-.262.74-.1.883.62.907a46.4,46.4,0,0,1,5.464.1c-1.742.358-3.483.048-5.225.167C197.783,163.846,199.788,164.156,201.792,163.8Z" transform="translate(-156.548 -117.081)"/><path class="eu" d="M226.552,185.536a1.321,1.321,0,0,1-1.336,1.265,1.359,1.359,0,0,1-1.432-1.408,1.381,1.381,0,0,1,1.336-1.408A1.48,1.48,0,0,1,226.552,185.536Z" transform="translate(-182.31 -141.706)"/><path class="ev" d="M226.477,228.273a1.4,1.4,0,0,1-1.384,1.241,1.442,1.442,0,0,1-1.408-1.479,1.33,1.33,0,0,1,1.384-1.336A1.428,1.428,0,0,1,226.477,228.273Z" transform="translate(-182.235 -174.231)"/><path class="ew" d="M266.8,227.588a1.216,1.216,0,0,1,1.551-.907,1.374,1.374,0,0,1,.072,2.7,1.2,1.2,0,0,1-1.575-.811A6.885,6.885,0,0,0,266.8,227.588Z" transform="translate(-215.066 -174.19)"/><path class="ex" d="M266.968,184.923a1.187,1.187,0,0,1,1.479-.859,1.451,1.451,0,0,1,1.169,1.336,1.323,1.323,0,0,1-.931,1.36,1.214,1.214,0,0,1-1.67-.668C267.064,185.687,266.921,185.305,266.968,184.923Z" transform="translate(-215.187 -141.738)"/><path class="ey" d="M235,233.357c1-.5,1.98.119,3.006.072,2.481-.119,2.481-.048,2.481-2.529V222h.239v11.6A9.965,9.965,0,0,1,235,233.357Z" transform="translate(-190.853 -170.655)"/><path class="ez" d="M271.83,207.157c-.5-1.026-.191-2.1-.191-3.149,0-.883-.239-1.169-1.145-1.169-3.054.048-6.132.024-9.186.024a2.075,2.075,0,0,1-1.408-.262h11.81c.716,1.169.262,2.434.31,3.65A4.4,4.4,0,0,1,271.83,207.157Z" transform="translate(-209.813 -155.883)"/><path class="fa" d="M217.748,202.6c.072.072.477.215.143.239a45.769,45.769,0,0,1-6.991-.239h6.848Z" transform="translate(-172.504 -155.883)"/><path class="fb" d="M247.1,151.214a4.105,4.105,0,0,1-3.1,0A7.982,7.982,0,0,1,247.1,151.214Z" transform="translate(-197.706 -116.642)"/><path class="fc" d="M266.265,187.8a.851.851,0,0,1,.024,1.169A.828.828,0,0,1,266.265,187.8Z" transform="translate(-214.483 -144.615)"/><path class="fd" d="M266.238,230.6a.57.57,0,0,1,.024.978A.73.73,0,0,1,266.238,230.6Z" transform="translate(-214.504 -177.203)"/><path class="fe" d="M242.419,153.948v11.047H242.3V153.9C242.348,153.924,242.4,153.924,242.419,153.948Z" transform="translate(-196.412 -118.803)"/><ellipse class="ff" cx="0.072" cy="4.987" rx="0.072" ry="4.987" transform="translate(45.864 49.842)"/></g><g transform="translate(20.264 100.306)"><text class="fg" transform="translate(0 5)"><tspan x="0" y="0">SURAT MUNICIPAL </tspan></text><text class="fg" transform="translate(6.824 14.448)"><tspan x="0" y="0">CORPORATION</tspan></text></g></svg>