<?xml version="1.0" encoding="utf-8"?>
<!-- Generator: Adobe Illustrator 25.4.1, SVG Export Plug-In . SVG Version: 6.00 Build 0)  -->
<svg version="1.1" id="Layer_1" xmlns="http://www.w3.org/2000/svg" xmlns:xlink="http://www.w3.org/1999/xlink" x="0px" y="0px"
	 viewBox="0 0 181 58" style="enable-background:new 0 0 181 58;" xml:space="preserve">
<style type="text/css">
	.st0{fill:#17AC4C;}
	.st1{fill:#FBFDFD;}
	.st2{fill:#FAFCFC;}
	.st3{fill:#F9FCFC;}
	.st4{fill:#F7FBFA;}
	.st5{fill:#F7FBF9;}
	.st6{fill:#19AC4D;}
	.st7{fill:#1DAE50;}
	.st8{fill:#1BAC4E;}
	.st9{fill:#32436F;}
	.st10{fill:#E0F2E6;}
	.st11{fill:#DCF0E3;}
	.st12{fill:#E9F5EE;}
	.st13{fill:#DFF1E5;}
	.st14{fill:#95D4AC;}
	.st15{fill:#93D3AA;}
	.st16{fill:#334470;}
	.st17{fill:#2E3A6C;}
	.st18{fill:#30426E;}
	.st19{fill:#2F416E;}
	.st20{fill:#30416E;}
	.st21{fill:#31426E;}
	.st22{fill:#32446F;}
	.st23{fill:#31436F;}
	.st24{fill:#243666;}
	.st25{fill:#213363;}
	.st26{fill:#212D5F;}
	.st27{fill:#213463;}
	.st28{fill:#7984A0;}
	.st29{fill:#1C2F5F;}
	.st30{fill:#1E3261;}
	.st31{fill:#1E3262;}
	.st32{fill:#203363;}
	.st33{fill:#243064;}
	.st34{fill:#324470;}
	.st35{fill:#F1F3F6;}
	.st36{fill:#212E62;}
	.st37{fill:#222F63;}
	.st38{fill:#253164;}
	.st39{fill:#F59422;}
	.st40{fill:#F8FBFB;}
	.st41{fill:#F6FBF9;}
	.st42{fill:#D3EDDC;}
	.st43{fill:#E6F4EB;}
	.st44{fill:#D8EEE0;}
	.st45{fill:#A8DCBB;}
	.st46{fill:#ABDDBD;}
	.st47{fill:#E7F3EC;}
	.st48{fill:#10A846;}
	.st49{fill:#C2E3CF;}
	.st50{fill:#96C7AF;}
	.st51{fill:#0FA945;}
	.st52{fill:#99C3B1;}
	.st53{fill:#0BA642;}
	.st54{fill:#E1F0E7;}
	.st55{fill:#0DA743;}
	.st56{fill:#0BA641;}
	.st57{fill:#65918C;}
	.st58{fill:#0BA842;}
	.st59{fill:#EEF7F2;}
	.st60{fill:#DAEFE2;}
	.st61{fill:#E8F4ED;}
	.st62{fill:#EAF6EF;}
	.st63{fill:#EDF7F1;}
	.st64{fill:#DAEFE1;}
	.st65{fill:#15AA49;}
	.st66{fill:#C7E8D3;}
	.st67{fill:#C0E4CD;}
	.st68{fill:#24AF55;}
	.st69{fill:#0CA642;}
	.st70{fill:#C4E7D0;}
	.st71{fill:#0AA842;}
	.st72{fill:#30B35E;}
	.st73{fill:#F1F8F4;}
	.st74{fill:#DAF0E2;}
	.st75{fill:#E8EDEE;}
	.st76{fill:#E9F5ED;}
	.st77{fill:#E8F5ED;}
	.st78{fill:#12A948;}
	.st79{fill:#E8E9EF;}
	.st80{fill:#C3E6CF;}
	.st81{fill:#D7EEDF;}
	.st82{fill:#D6EDDF;}
	.st83{fill:#E4F2EA;}
	.st84{fill:#09A641;}
	.st85{fill:#BDE4CB;}
	.st86{fill:#86CE9F;}
	.st87{fill:#D9EEE1;}
	.st88{fill:#F3F8F5;}
	.st89{fill:#2AB15A;}
	.st90{fill:#D5EDDE;}
	.st91{fill:#09A540;}
	.st92{fill:#EF9123;}
	.st93{fill:#E48C28;}
	.st94{fill:#FE9A20;}
	.st95{fill:#DCDEE5;}
	.st96{fill:#DDDFE6;}
	.st97{fill:#23346E;}
	.st98{fill:#20326E;}
	.st99{fill:#22336D;}
	.st100{fill:#956846;}
	.st101{fill:#2E347E;}
	.st102{fill:#30347D;}
	.st103{fill:#33367C;}
	.st104{fill:#37387A;}
	.st105{fill:#3B3A78;}
	.st106{fill:#35377B;}
	.st107{fill:#393979;}
	.st108{fill:#36377A;}
	.st109{fill:#36387A;}
	.st110{fill:#273082;}
	.st111{fill:#31347C;}
	.st112{fill:#F19222;}
	.st113{fill:#433D74;}
	.st114{fill:#403D76;}
	.st115{fill:#463F73;}
	.st116{fill:#403C76;}
	.st117{fill:#413C75;}
	.st118{fill:#423D76;}
	.st119{fill:#443E74;}
	.st120{fill:#3F3B76;}
	.st121{fill:#FD981F;}
	.st122{fill:#31357C;}
	.st123{fill:#A06B4B;}
	.st124{fill:#FE9A1D;}
	.st125{fill:#36377B;}
	.st126{fill:#26356D;}
	.st127{fill:#52456E;}
	.st128{fill:#35367A;}
	.st129{fill:#383879;}
	.st130{fill:#433E74;}
	.st131{fill:#52446D;}
	.st132{fill:#51446E;}
	.st133{fill:#423D75;}
	.st134{fill:#2A317E;}
	.st135{fill:#6F5361;}
	.st136{fill:#4A4072;}
	.st137{fill:#614C69;}
	.st138{fill:#1F326F;}
	.st139{fill:#4C4271;}
	.st140{fill:#4F436E;}
	.st141{fill:#3D3B78;}
	.st142{fill:#453E72;}
	.st143{fill:#FCFDFE;}
	.st144{fill:#24356D;}
	.st145{fill:#E48C29;}
	.st146{fill:#E18A2B;}
	.st147{fill:#ED9125;}
	.st148{fill:#E88E27;}
	.st149{fill:#C5262E;}
	.st150{fill:#C52931;}
	.st151{fill:#C52830;}
	.st152{fill:#C62A31;}
	.st153{fill:#C52930;}
	.st154{fill:#C5252E;}
	.st155{fill:#C3252C;}
	.st156{fill:#C22128;}
	.st157{fill:#BF161E;}
	.st158{fill:#C11B23;}
	.st159{fill:#C11921;}
	.st160{fill:#C01820;}
	.st161{fill:#C21A22;}
</style>
<path class="st0" d="M33.1,57c-0.9,0-1.9,0-2.8,0c-0.8-0.7-1-1.7-1.5-2.6c-0.1-0.3-0.3-0.5-0.3-0.9c-0.3,1-0.7,1.9-1.2,2.7
	c-0.2,0.3-0.3,0.6-0.6,0.7c-0.9,0-1.9,0-2.8,0c0-0.1-0.1-0.1,0-0.2c0.1-0.3,0.4-0.5,0.4-0.9c0.1-0.7-0.1-0.8-0.7-0.7
	c-0.2,0-0.4,0-0.6,0c-0.9-0.6-1-1.5-0.2-2.5c0-0.1,0.1-0.1,0-0.2c-0.1-0.1-0.3-0.1-0.3-0.3s0.1-0.3,0.3-0.4c0.1-0.1,0.2-0.1,0.3-0.1
	c0.2,0,0.4-0.1,0.6-0.2c1.1-0.4,1.9-1.2,3-1.7c1.3,0.2,2.7,0,4,0c0.4,0.1,0.6,0.3,1,0.6c0.9,0.6,1.8,1.1,2.7,1.5
	c0.2,0.1,0.4,0.1,0.4,0.4c-0.1,0.3-0.4,0.3-0.7,0.4c-0.1,0.2,0.2,0.2,0.3,0.2c0.7,0.8,0.7,1.7-0.1,2.3c-0.2,0.1-0.5,0.1-0.7,0.1
	c-0.7-0.1-0.9,0.2-0.7,0.9c0.1,0.2,0.3,0.4,0.4,0.6C33.2,56.8,33.2,56.9,33.1,57z"/>
<path class="st0" d="M22.8,52.6c0,0.1,0.1,0.1,0.1,0.2c-0.3,0-0.6,0.1-0.8,0.5c-0.5,0.9-1.3,1.5-2.2,2c-0.4,0.2-0.6,0.4-0.1,0.8
	c0.3,0.2,0.4,0.5,0.2,0.9c-0.2,0-0.4,0-0.6,0c-0.3-0.3-0.5-0.6-1-0.6c-0.2,0-0.4,0-0.5-0.2c-0.1-0.3,0.1-0.4,0.3-0.6
	c0.5-0.4,1.2-0.7,1.6-1c-1,0.4-2.3,0.8-2.6,2.3c-0.1,0-0.3,0-0.4,0c-0.1-0.1-0.1-0.3-0.2-0.4c-0.2,0.2-0.3,0.3-0.4,0.4
	c-1.4,0-2.8,0-4.2,0c-0.1-0.1-0.2-0.2-0.3-0.3c-0.1-0.6,0.2-1,0.6-1.2c0.2-0.2,0.5-0.2,0.7-0.4c0.7,0,1.4,0.2,1.8-0.6
	c-0.1-0.1-0.2-0.1-0.2-0.1c-0.3,0.8-1,0.8-1.6,0.7c-0.2,0.2-0.4,0.2-0.6,0.3c-0.3,0.2-0.7,0.4-0.8,0.9c-0.1,0.2-0.1,0.5-0.3,0.8
	c-1.4,0-2.9,0-4.3,0c1.6-2.5,4.1-3.7,7-4c2.2-0.2,4.4-0.3,6.7-0.4c0.3-0.2,0.7-0.2,1.1-0.3c0.1,0,0.1,0,0.2,0
	C22.3,52.5,22.6,52.5,22.8,52.6z"/>
<path class="st0" d="M34.4,53.1c-0.3,0-0.5-0.1-0.3-0.4c0.3-0.1,0.8,0,1.1-0.3c0.1,0,0.1-0.1,0.2-0.1c0.4-0.1,0.8,0.1,1.1,0.1
	c0.9,0,1.7,0,2.6,0.1c0.3,0,0.6,0,0.8,0.2c1.3,0.2,2.7,0.2,4,0.4c2.5,0.5,4.6,1.6,6,3.9c-1.5,0-2.9,0-4.4,0c-0.1-0.5-0.2-1-0.6-1.4
	c-0.1-0.1-0.3-0.2-0.5-0.3s-0.4-0.1-0.5-0.2c-0.2-0.1-0.3-0.1-0.5,0c-0.4,0-0.7-0.1-0.8-0.5c0-0.1-0.1-0.3-0.3-0.2
	c0.1,0.4,0.3,0.8,0.9,0.7c0.2,0,0.4,0,0.6,0c0.2,0.1,0.4,0.1,0.6,0.2c0.2,0.1,0.4,0.2,0.5,0.3c0.2,0.2,0.3,0.3,0.3,0.6
	c-0.1,0.2-0.1,0.5,0,0.7c0,0.1,0,0.1-0.1,0.2c-1.4,0-2.7,0-4.1,0c-0.1-0.1-0.3-0.3-0.4-0.5c-0.1,0.2,0,0.4-0.2,0.5
	c-0.1,0-0.3,0-0.4,0c-0.3-1.5-1.7-1.9-2.8-2.5c-0.2,0-0.3-0.2-0.4-0.1c0,0,0,0.1,0,0.2c0,0.1-0.1,0.2-0.2,0.2
	c-0.7-0.2-0.9-0.8-1.3-1.2C35,53.2,34.9,52.8,34.4,53.1z"/>
<path class="st1" d="M26.1,57c0.8-1.2,1.5-2.4,2-4c0.4,1.6,1.2,2.8,1.9,4C28.8,57,27.4,57,26.1,57z"/>
<path class="st2" d="M19.9,56.9c0-0.5,0-0.5-0.9-1.2c1.2-0.7,2.4-1.3,3-2.5c0.2-0.4,0.6-0.2,0.9-0.2c-1,0.7-1,1.5-0.1,2.2
	c0.1,0.1,0.1,0.2,0,0.3c-0.9,0.3-1.6,0.9-2.4,1.4C20.3,56.9,20.1,56.9,19.9,56.9z"/>
<path class="st3" d="M34.1,53.3c0-0.1-0.2-0.2,0-0.2c0.3-0.1,0.6,0,0.8,0.3c0.4,0.6,0.8,1.1,1.4,1.4c0.5,0.1,0.9,0.4,1.4,0.7
	c0.3,0.2,0.3,0.4,0,0.6c-0.3,0.3-0.5,0.6-0.7,0.9c-0.2,0-0.3,0-0.5,0c-0.8-0.5-1.5-1-2.4-1.4c-0.1-0.1-0.2-0.2-0.1-0.3
	C34.9,54.6,35,53.8,34.1,53.3z"/>
<path class="st4" d="M17.4,57c-0.1-0.9,0.3-1.6,1-2c0.6-0.4,1.3-0.7,1.9-1.1c0.1,0,0.1,0,0.3,0c-0.3,0.5-0.7,0.7-1.1,1
	c-0.3,0.3-0.7,0.5-1,0.8c-0.2,0.1-0.4,0.3-0.3,0.5s0.3,0,0.5,0c0.5,0,0.9,0.2,0.9,0.9C18.8,57,18.1,57,17.4,57z"/>
<path class="st5" d="M36.8,54.6c0.6,0.3,1.3,0.5,1.8,0.8c0.6,0.3,1,0.8,1,1.5c-0.7,0-1.4,0-2.1,0c-0.1-0.5,0.1-0.7,1-0.9
	c-0.5-0.4-1-0.6-1.5-0.9c-0.2-0.1-0.5-0.2-0.5-0.5C36.5,54.6,36.6,54.5,36.8,54.6z"/>
<path class="st6" d="M20.6,57c0.6-0.8,1.4-1.3,2.4-1.5c0.1-0.1,0.3-0.1,0.5-0.1c0.6,0.2,0.1,0.4-0.1,0.6c-0.3,0.3-0.4,0.5-0.1,0.8
	c0,0.1,0,0.1,0,0.2C22.4,57,21.5,57,20.6,57z"/>
<path class="st7" d="M34.2,55.5c0.9,0.3,1.6,0.7,2.2,1.4c-0.9,0-1.7,0-2.6,0c0,0-0.1-0.1,0-0.1c0.1-0.2,0.2-0.2,0.4-0.3
	c0.1-0.1,0.1-0.1,0.1-0.2c-0.1,0-0.1,0.1-0.2,0c-0.1,0-0.2-0.1-0.2-0.2c-0.2-0.2-0.7-0.3-0.6-0.6C33.4,55.3,33.9,55.4,34.2,55.5z"/>
<path class="st8" d="M36.8,54.6c0.8,0.6,2,0.8,2.8,1.6c-0.7,0.1-1.7-0.3-1.7,0.7c-0.3,0-0.5,0-0.8,0c-0.1-0.6,0.5-0.8,1-1.2
	c-0.5-0.4-1.2-0.6-1.6-1C36.6,54.7,36.6,54.6,36.8,54.6C36.7,54.6,36.7,54.6,36.8,54.6z"/>
<path class="st9" d="M27.7,0.1V0c0.3,0,0.5,0,0.8,0c0,0.1,0,0.1-0.1,0.1c0.1,1.4,0,2.7,0.1,4.1c0,0.2,0,0.4-0.2,0.5
	c-0.8-0.1-0.5-0.4-0.5-0.6C27.7,2.8,27.8,1.5,27.7,0.1z"/>
<path class="st10" d="M44.6,57L44.6,57c0-0.3,0-0.6,0-0.8c0-0.3-0.2-0.4-0.3-0.5c0-0.1,0-0.2,0.2-0.2c0.4,0.3,0.7,1.2,0.5,1.6
	C44.9,57,44.8,57,44.6,57z"/>
<path class="st11" d="M15.8,57c0-0.3,0.3-0.5,0.7-0.8c0,0.3,0,0.5,0.1,0.8C16.4,57,16.1,57,15.8,57z"/>
<path class="st12" d="M40.4,57c0-0.2,0-0.5,0-0.8c0.5,0.2,0.6,0.5,0.8,0.8C40.9,57,40.6,57,40.4,57z"/>
<path class="st13" d="M12.5,56.6c0.1,0.1,0.1,0.2,0.2,0.3c-0.2,0-0.5,0-0.7,0c-0.2-0.3-0.1-0.6,0.2-0.8
	C12.6,56.1,12.3,56.6,12.5,56.6z"/>
<path class="st14" d="M23,57L23,57c0.2-0.1,0.5-0.1,0.8,0l0,0C23.5,57,23.2,57,23,57z"/>
<path class="st15" d="M34,57L34,57c-0.3,0-0.5,0-0.8,0l0,0C33.5,56.9,33.8,56.9,34,57z"/>
<path class="st16" d="M4.1,32c-1,0.1-2,0.3-3,0.4c-0.4,0-0.7,0.2-1.1,0c0-0.3,0-0.5,0.1-0.8c0.3,0,0.6,0,0.9-0.2
	c0.1-0.1,0.1-0.1,0.2,0c1-0.2,1.9-0.3,2.8-0.4c0.3,0,0.7-0.4,0.8,0.3C4.8,32,4.3,31.7,4.1,32z"/>
<path class="st16" d="M57,32.3c-0.6,0.2-1.3,0-1.9-0.1c-0.9-0.2-1.8-0.4-2.7-0.5c-0.2-0.3-0.1-0.5,0-0.8c1.1-0.1,2.2,0.3,3.4,0.4
	c0.3,0,0.7,0.1,1,0.2C56.9,31.7,57.1,31.9,57,32.3z"/>
<path class="st17" d="M39.6,53c-0.3,0-0.6,0-0.8,0c-0.5-0.6-1.2-0.2-1.8-0.3c-0.6,0-1.2,0-1.8-0.1c-0.3-0.1-0.6-0.1-0.9-0.2
	c-1.3-0.4-2.5-1.1-3.5-2c0.3-0.3,0.7-0.3,1.1-0.3c3.9-0.6,7.3-2.2,10.3-4.7c2.7-2.2,4.6-5.1,5.9-8.3c0.1-0.2,0.2-0.4,0.1-0.6
	c-0.2-0.2-0.5,0-0.7,0s-0.4,0-0.5-0.1c-0.7-0.6-1.6-0.8-2.6-0.9c-0.1,0-0.2,0-0.3-0.1c-0.2-0.1-0.5-0.2-0.4-0.5
	c0-0.3,0.3-0.3,0.5-0.3c0.3,0,0.5-0.1,0.8-0.1c1.1,0.1,1.9-0.6,2.8-1c0.3-0.1,0.2-0.4,0.1-0.6c-0.3-0.5-0.4-1-0.1-1.6
	c0.2-0.4,0.6-0.7,1-0.6c0.4,0,0.7,0.2,0.8,0.7c-0.1,0.2-0.1,0.5-0.3,0.7c-0.1,0.3-0.6,0.4-0.2,0.8c0.1-0.3,0-0.6,0.2-0.8
	c0.1-0.2,0.2-0.4,0.3-0.7c0.2-3.4-0.1-6.8-1.5-10c-3.3-7.5-9.1-11.9-17.2-13c-0.5-0.1-1-0.1-1.5-0.1s-1,0-1.5,0
	c-3.8,0.1-7.3,1.1-10.5,3.2c-5.5,3.4-8.7,8.3-9.9,14.7C7,27.5,7,29,7,30.5c0,0.4,0,0.7,0.6,0.4c0.7-0.4,1-0.2,1.4,0.6
	c0,0.4-0.1,0.7,0,1.1c0,0.1,0,0.2-0.1,0.3c-0.2,0.3-0.1,0.5,0.3,0.7c1,0.6,2,0.9,3.1,1c0.1,0,0.3,0,0.4,0.1c0.2,0.1,0.4,0.1,0.4,0.3
	s-0.2,0.3-0.3,0.4c0,0-0.1,0-0.1,0.1c-1.1,0.2-2.3,0.6-3.3,1.2c-0.3,0-0.6-0.1-0.9,0c-0.3,0.1-0.2,0.3-0.1,0.5
	c0.7,1.9,1.7,3.6,2.9,5.1c2.7,3.5,6.3,5.8,10.4,7.2c1.3,0.5,2.6,0.7,3.9,0.9c0.2,0,0.5,0,0.6,0.2c-0.8,0.7-1.8,1.3-2.8,1.7
	c-0.2,0.1-0.4,0.2-0.6,0.2c-0.1,0-0.2,0.1-0.2,0.1c-0.3,0.2-0.7,0.1-1,0.2c-0.7,0.1-1.4,0-2-0.1c-2.2-0.1-4-1.1-5.3-3
	c-0.3,0.4-0.6,0.8-0.8,1.2c-0.4,0.6-0.8,1.1-1.2,1.7c-0.1,0.2-0.3,0.4-0.6,0.2s-0.2-0.4,0-0.6c0.6-0.8,1.2-1.7,1.8-2.4
	c0.3-0.4,0.3-0.7,0.1-1.2c-1-2.3-2.2-4.5-4.1-6.3c-0.3-0.3-0.6-0.7-1-1c-0.1-0.1-0.3,0-0.3-0.2c-0.6-0.8-1.4-1.4-2-2.3
	c-0.7-1.1-0.7-1.1-2-0.7c-0.3,0.1-0.8,0.5-1,0C3,37.3,3.7,37.4,4,37.2C4.2,37.1,4.4,37,4.5,37c0.7-0.1,0.9-0.4,0.9-1.1
	c0.1-1.1,0.1-1.1-0.7-1.8c-0.1-0.1-0.3-0.2-0.3-0.4s0-0.4,0-0.6c0.4-0.7,0.9-0.8,1.3-0.1c0,0.2,0,0.4,0,0.6c0,0.1-0.1,0.2-0.1,0.2
	C5.7,34,6,33.9,6.1,33.9s-0.1,0,0-0.1c0.2-0.1,0.5-0.2,0.4-0.6c-0.1-0.3,0-0.7-0.5-0.7c-0.2,0-0.4-0.2-0.6-0.4
	c-0.1-0.5,0-0.9,0.5-1.1c0.4-0.2,0.2-0.5,0.2-0.7c-0.1-3.4,0.4-6.7,1.8-9.8c3.2-6.9,8.4-11.3,15.9-13c0.1,0,0.1,0,0.2,0
	c0.1,0.1,0.2,0.1,0.3,0.1c0.1,0,0.1,0,0.2,0c-0.1-0.1-0.2,0-0.2-0.1c1.8-0.4,3.6-0.5,5.5-0.4c3.8,0.2,7.3,1.3,10.4,3.4
	c5.3,3.6,8.8,8.4,10,14.7c0,0.3,0.1,0.5,0.1,0.8c-0.1,0.1-0.1,0.2-0.1,0.3c0,0.1,0.1,0.1,0,0c0-0.1,0-0.3,0.1-0.4
	c0.2,0.8,0.2,1.7,0.3,2.6c-0.1,0.7-0.1,1.3,0,2c0,0.3,0.1,0.4,0.4,0.5c0.3,0.1,0.5,0.3,0.5,0.6c0.1,0.1,0.1,0.2,0,0.3
	c-0.1,0.1-0.1,0.3-0.2,0.4c0,0.1-0.1,0.2-0.2,0.3c-0.7,0.4-0.7,0.4-0.3,1c0,0,0,0.2,0.1,0.2s0.2,0,0.2-0.2c-0.2-0.5-0.2-0.9,0.4-1.1
	c0.4,0,0.8,0,1,0.4c0,0.3,0,0.6,0,0.8c-0.2,0.4-0.6,0.5-1,0.6c-0.1,0-0.4,0-0.4,0.2c0.2,0.5,0.3,1.1,0.5,1.5
	c0.1,0.3,0.6,0.3,0.9,0.4c0.4,0.1,0.8,0.2,1.1,0.4c0.3,0.1,0.5,0.3,0.2,0.6c-0.1,0-0.3-0.1-0.4,0c-0.6,0-1.2-0.6-1.7-0.4
	c-0.5,0.3-0.6,1-0.9,1.5c-0.5,0.7-1.1,1.3-1.7,1.8c-0.2,0,0,0.5-0.3,0.4c-1.9,1.7-3.6,3.5-4.6,6c-0.1,0.2-0.1,0.3-0.2,0.4
	c-0.9,1.1-0.6,2,0.3,2.9c0.5,0.5,0.8,1.1,1.2,1.6c0.1,0.2,0.3,0.4,0,0.6c-0.3,0.2-0.4,0-0.6-0.2c-0.6-0.8-1.2-1.6-1.8-2.4
	c-0.2-0.3-0.3-0.3-0.6,0c-0.7,1-1.6,1.8-2.8,2.3C39,52.4,39.6,52.7,39.6,53z"/>
<path class="st18" d="M19,6.8c0,0.2-0.1,0.3-0.2,0.3c-0.2,0.1-0.3-0.1-0.4-0.3C18,6,17.7,5.2,17.3,4.4c-0.2-0.5-0.5-1-0.7-1.5
	c-0.1-0.2-0.1-0.4,0.1-0.5s0.4,0,0.4,0.2C17.8,4,18.4,5.3,19,6.7V6.8z"/>
<path class="st18" d="M38.3,7.1c-0.3,0-0.4-0.2-0.3-0.4c0.6-1.4,1.1-2.7,1.7-4.1c0.1-0.2,0.2-0.3,0.4-0.2s0.2,0.3,0.1,0.5
	c-0.6,1.3-1.2,2.6-1.8,4C38.5,7,38.4,7.1,38.3,7.1z"/>
<path class="st19" d="M11.1,13.2c-0.1,0.3-0.3,0.4-0.5,0.2c-0.2-0.1-0.3-0.3-0.5-0.5c-0.9-0.8-1.7-1.7-2.6-2.5
	C7.3,10.2,7,9.9,7.2,9.6c0.2-0.3,0.5,0.1,0.6,0.2c1,0.9,1.9,1.9,2.9,2.8C10.9,12.8,11.1,12.9,11.1,13.2z"/>
<path class="st20" d="M46.1,13.4c-0.3-0.3,0-0.5,0.1-0.6c1-1,2-2.1,3-3.1c0.2-0.2,0.4-0.4,0.6-0.1c0.2,0.3-0.1,0.5-0.2,0.6
	c-1,1.1-2.1,2.1-3.1,3.2C46.3,13.4,46.2,13.5,46.1,13.4z"/>
<path class="st18" d="M51.1,21.4c-0.2,0-0.4,0-0.4-0.2c0-0.1,0.1-0.2,0.2-0.2c1.4-0.4,2.7-0.8,4.1-1.1c0.2,0,0.3,0,0.4,0.1
	c0.1,0.1,0,0.3-0.2,0.3C53.8,20.6,52.4,21,51.1,21.4z"/>
<path class="st20" d="M2.1,19.8c1.3,0.4,2.6,0.7,3.9,1.1c0.2,0.1,0.4,0.2,0.3,0.4c-0.1,0.2-0.2,0.2-0.4,0.1C4.5,21,3,20.7,1.6,20.2
	c0,0,0-0.1-0.1-0.1C1.7,19.8,1.9,19.8,2.1,19.8z"/>
<path class="st21" d="M5.2,15.8c0.1,0,0.3,0.1,0.5,0.2c0.7,0.3,1.3,0.6,2,0.9C7.9,17,8.1,17.1,8,17.3c-0.1,0.2-0.4,0.1-0.5,0.1
	c-1-0.4-1.7-0.7-2.5-1.1c-0.2-0.1-0.3-0.2-0.2-0.3C4.8,15.8,4.9,15.8,5.2,15.8z"/>
<path class="st20" d="M15,9.9c0,0.2-0.1,0.3-0.3,0.4c-0.2,0.1-0.3,0-0.4-0.1c-0.6-0.8-1.1-1.6-1.6-2.4c-0.1-0.2-0.1-0.4,0.1-0.6
	c0.2-0.1,0.3,0,0.4,0.1c0.6,0.8,1.2,1.6,1.8,2.4C15,9.7,15,9.8,15,9.9z"/>
<path class="st18" d="M22.5,2.4c0.4,0,0.5,0.2,0.5,0.4c0.2,0.7,0.5,1.5,0.7,2.2c0.1,0.2,0.1,0.4-0.3,0.5c-0.3,0-0.5-0.1-0.5-0.3
	c-0.2-0.8-0.5-1.6-0.7-2.4C22.1,2.6,22.2,2.4,22.5,2.4z"/>
<path class="st9" d="M44.3,7.5c-0.1,0.1-0.1,0.3-0.2,0.4c-0.5,0.7-1,1.4-1.5,2.1c-0.1,0.2-0.3,0.4-0.5,0.2c-0.3-0.2-0.2-0.4,0-0.6
	c0.5-0.8,1-1.5,1.5-2.2c0.1-0.2,0.3-0.4,0.5-0.2C44.2,7.2,44.3,7.4,44.3,7.5z"/>
<path class="st22" d="M33.1,3c0-0.1,0-0.2,0.1-0.3c0.1-0.2,0.1-0.4,0.5-0.3c0.3,0.1,0.4,0.2,0.4,0.4c-0.2,0.8-0.5,1.7-0.8,2.5
	c0,0.1-0.2,0.3-0.4,0.2c-0.4,0-0.5-0.2-0.4-0.5c0.2-0.6,0.4-1.2,0.6-1.8c0.1,0,0.1,0.1,0.1,0.1C33.2,3.3,33.2,3.1,33.1,3z"/>
<path class="st9" d="M51.5,15.4c-0.8,0.5-1.8,0.8-2.6,1.2c-0.2,0.1-0.4,0.1-0.5-0.1c-0.1-0.1,0-0.3,0.2-0.3c0.9-0.4,1.8-0.9,2.8-1.1
	C51.4,15.1,51.4,15.2,51.5,15.4z"/>
<path class="st23" d="M4,26.9c-0.6-0.1-1.3-0.1-1.9-0.2c-0.2,0-0.4-0.1-0.4-0.3c0-0.3,0.2-0.3,0.5-0.3c0.8,0.1,1.6,0.2,2.3,0.3
	c0.3,0,0.6,0.2,0.1,0.5C4.3,26.9,4.1,26.8,4,26.9z"/>
<path class="st16" d="M53,25.6c0.6-0.2,1.3-0.2,2-0.3c0.2,0,0.3,0,0.4,0.2c0,0.2-0.2,0.3-0.4,0.3c-0.7,0.1-1.5,0.2-2.2,0.2
	c-0.2,0-0.5,0.1-0.5-0.2c0-0.3,0.3-0.3,0.5-0.3C52.9,25.7,53,25.7,53,25.6c0.1,0.1,0.1,0.1,0.2,0.1C53.2,25.6,53.1,25.7,53,25.6z"/>
<path class="st24" d="M27.9,0c0.3,0.2,0.2,0.4,0.2,0.7c0,1.1,0,2.1,0,3.2c0,0.2-0.1,0.4,0.2,0.6c0.1,0,0.1,0.1,0.2,0.1
	c-0.4,0.3-0.7,0.1-0.7-0.2C27.8,3,27.5,1.5,27.9,0z"/>
<path class="st25" d="M28.5,4.7c0,0,0-0.1-0.1-0.1c0-1.3,0-2.7,0-4c0-0.2,0-0.4,0-0.6c0.1,0.7,0,1.5,0,2.3
	C28.5,3.1,28.6,3.9,28.5,4.7z"/>
<path class="st26" d="M50.7,29.3c-0.1-0.5-0.1-1.1,0-1.6C50.7,28.2,50.7,28.7,50.7,29.3z"/>
<path class="st27" d="M1.6,20c-0.2,0.4-0.6,0.3-0.8,0.6C0.8,19.7,0.8,19.6,1.6,20z"/>
<path class="st28" d="M52.2,31.6c0-0.1,0-0.3,0-0.5c0-0.1,0.1-0.2,0.1-0.3C52.3,31,52.3,31.3,52.2,31.6
	C52.3,31.6,52.2,31.6,52.2,31.6z"/>
<path class="st29" d="M4,26.9c0.3-0.1,0.5-0.1,0.8,0C4.5,27,4.2,27,4,26.9z"/>
<path class="st30" d="M51.5,15.8c-0.1-0.2-0.1-0.5-0.1-0.8C51.5,15.1,51.5,15.4,51.5,15.8z"/>
<path class="st31" d="M45.9,12.7c0.2-0.1,0.5-0.1,0.8,0C46.5,12.7,46.2,12.8,45.9,12.7z"/>
<path class="st32" d="M52.5,26.1c0.1,0,0.3,0,0.5,0c-0.4,0.1-0.6,0.1-0.8,0C52.3,26.1,52.4,26.1,52.5,26.1z"/>
<path class="st27" d="M33.2,3.2c0.1,0.2,0.1,0.5,0.1,0.8c-0.1-0.1-0.1-0.3-0.1-0.5C33.2,3.4,33.2,3.3,33.2,3.2z"/>
<path class="st33" d="M24,7.1c0.1,0,0.2,0,0.5,0c-0.4,0.1-0.6,0.1-0.8,0C23.8,7.1,23.9,7.1,24,7.1z"/>
<path class="st18" d="M8.4,40.3c0.1,0.1,0.2,0.2,0.3,0.3c-0.2,0.3-0.4,0.5-0.7,0.7c-1.2,0.7-2.3,1.4-3.4,2c-0.2,0.1-0.4,0.3-0.6,0
	c-0.1-0.3,0-0.4,0.2-0.5C5.6,42,7,41.1,8.4,40.3z"/>
<path class="st34" d="M10.8,44.3c0.1,0,0.2,0,0.2,0.1c0.1,0.1,0.1,0.3,0,0.4c-0.6,0.6-1.2,1.2-1.8,1.8c-0.1,0.1-0.3,0.1-0.4-0.1
	c-0.1-0.1-0.1-0.3,0.1-0.4C9.5,45.5,10.1,44.9,10.8,44.3C10.7,44.4,10.8,44.3,10.8,44.3z"/>
<path class="st35" d="M19.8,52.3c0.7,0,1.5-0.1,2.2-0.1c0.1-0.1,0.2,0,0.1,0.4C21.8,53.1,21.4,53,21,53
	C20.6,52.2,20.1,53.1,19.8,52.3z"/>
<path class="st36" d="M4,32.4c0,0.3,0,0.6,0,0.8C3.9,33,3.9,32.7,4,32.4z"/>
<path class="st37" d="M5.5,33.2c-0.1-0.3-0.1-0.5,0-0.8C5.6,32.7,5.6,33,5.5,33.2z"/>
<path class="st38" d="M6.1,33.2L6.1,33.2C6.3,33.2,6.3,33.3,6.1,33.2c-0.1,0.1-0.5,0.2-0.6,0C5.7,33.2,5.9,33.2,6.1,33.2z"/>
<path class="st20" d="M49.1,40.8c0.1-0.1,0-0.4,0.3-0.4c-0.1,0.3,0.2,0.3,0.3,0.4c1,0.7,2,1.4,3,2c0.2,0.1,0.5,0.3,0.3,0.6
	s-0.4,0-0.6-0.1c-1-0.7-1.9-1.3-2.9-2C49.3,41.2,49.1,41.1,49.1,40.8z"/>
<path class="st21" d="M49.1,46.3c-0.1,0.3-0.2,0.5-0.5,0.2c-0.6-0.6-1.2-1.1-1.8-1.7c-0.1-0.1-0.2-0.3-0.1-0.5
	c0.1-0.2,0.3-0.1,0.4,0c0.6,0.6,1.2,1.1,1.8,1.7C49,46.2,49,46.3,49.1,46.3z"/>
<path class="st33" d="M52.3,33.2c-0.1-0.3-0.1-0.5,0-0.8C52.3,32.7,52.3,33,52.3,33.2z"/>
<path class="st36" d="M53,37.2c0.3-0.1,0.6-0.1,0.8,0C53.6,37.3,53.3,37.2,53,37.2z"/>
<path class="st39" d="M26,49.8c-5.1-0.5-9.5-2.5-13.2-6c-2.3-2.1-4-4.6-5.1-7.6c-0.2-0.4-0.1-0.6,0.4-0.5c0.3,0,0.6,0,0.9,0
	c1-0.7,2.2-1,3.4-1.2c0.2,0,0.4-0.1,0.4-0.3S12.6,34,12.4,34c-0.3,0-0.7-0.1-1-0.1c-0.7-0.1-1.5-0.1-2.1-0.7C9.2,33,9.1,33,9.1,33
	c-1-0.1-1-0.6-0.6-1.3c0-0.3-0.1-0.7,0-1C8,29.8,7.6,29.8,7,30.4c-0.3,0.3-0.5,0.2-0.6-0.1c-0.1-0.2-0.1-0.4-0.1-0.6
	C5.9,19,13.2,9.7,23.8,7.6c1.2-0.2,2.4-0.4,3.6-0.4c0.6,0.1,1.2,0.1,1.7,0c5.3,0.2,9.9,2.1,13.7,5.7c4,3.7,6.3,8.2,6.9,13.6
	c0.2,1.4,0.2,2.8-0.1,4.2c-0.1,0-0.1,0-0.2,0c-0.1-0.5-0.4-0.7-0.8-0.6c-0.5,0-0.8,0.4-0.9,0.8c-0.1,0.5,0.1,1,0.4,1.5
	c0.2,0.3,0.1,0.4-0.2,0.5c-0.2,0-0.4,0-0.5,0.1c-1,0.9-2.2,0.9-3.4,1c-0.2,0-0.4,0-0.4,0.2c0,0.1,0.1,0.2,0.2,0.2
	c1.3,0.2,2.5,0.7,3.7,1.3c0.2,0,0.5,0,0.7,0c0.5,0.1,0.1,0.4,0.1,0.6c-0.8,2.1-1.9,4.1-3.4,5.9c-3.8,4.5-8.7,6.9-14.5,7.6
	C29,49.8,27.5,49.9,26,49.8z"/>
<path class="st40" d="M34.4,57c-0.2,0-0.4,0-0.6,0c-0.4-0.2-0.5-0.6-0.5-1s0-0.8,0.7-0.5c0.2,0.1,0.5,0,0.7,0c0,0.1,0.1,0.1,0.1,0.2
	c-0.2,0-0.5-0.1-0.8,0c0.2,0.2,0.7,0.3,0.8,0.7c0.1,0.1,0.1,0.1,0,0.2C34.6,56.8,34.5,56.9,34.4,57z"/>
<path class="st41" d="M24,56.9c-0.2,0-0.4,0-0.7,0c-0.5-0.4-0.5-0.6,0-0.9c0.1-0.1,0.4-0.1,0.4-0.3c0,0-0.1,0-0.1-0.1
	c-0.1-0.1,0.1-0.2,0.1-0.2c0.6-0.3,0.8-0.2,0.8,0.5C24.5,56.4,24.4,56.7,24,56.9z"/>
<path class="st42" d="M26.1,51.4c-0.1,1.5-0.5,1.8-1.6,1.5C25.1,52.6,25.6,52,26.1,51.4z"/>
<path class="st43" d="M30.9,51.4c0.5,0.6,1,1.1,1.6,1.5C31.4,53.2,31.1,52.9,30.9,51.4z"/>
<path class="st44" d="M27.7,53.8c-0.6,0.6-1.1,1.1-1.6,1.6C26,54.5,26.4,54.1,27.7,53.8z"/>
<path class="st13" d="M31.7,55.4c-0.6-0.6-1.1-1-1.6-1.6C31.1,54,31.7,54.4,31.7,55.4z"/>
<path class="st45" d="M29.6,52.1c-0.1-0.2-0.3-0.2-0.3-0.5c0.1-0.2,0.2-0.2,0.4,0c0.1,0.3,0.5-0.2,0.4,0.5
	C29.9,52.3,29.7,52.3,29.6,52.1z"/>
<path class="st46" d="M33.3,53.8c-0.1-0.4-0.1-0.6,0-0.8C33.3,53.2,33.3,53.5,33.3,53.8z"/>
<path class="st47" d="M26.9,52.1c-0.1-1,0.4-0.5,0.6-0.6c0.3-0.1,0.2,0.2,0,0.4C27.4,52.2,27.2,52.3,26.9,52.1z"/>
<path class="st48" d="M35.6,52.4c-0.5,0.7-1,0.6-1.6,0.6c0.3-0.6,0.9-0.2,1.2-0.7C35.4,52.2,35.5,52.2,35.6,52.4z"/>
<path class="st49" d="M23.7,55.3c0,0-0.1,0.1-0.2,0.1c-0.2,0-0.4,0-0.6,0v-0.1C23.2,55.3,23.5,55.3,23.7,55.3z"/>
<path class="st50" d="M21.5,52.8c0-0.1-0.1-0.2-0.1-0.3c0.3-0.3,0.5-0.3,0.8-0.3c-0.1,0.2-0.2,0.3-0.3,0.5c-0.1,0.3-0.1,0.2-0.2,0.2
	C21.6,52.9,21.5,52.9,21.5,52.8z"/>
<path class="st51" d="M25.3,53c-0.5,0-1.1,0-1.6,0l0,0C24.3,53,24.8,53,25.3,53L25.3,53z"/>
<path class="st52" d="M35.5,53c-0.1,0-0.2-0.1-0.2-0.1c-0.1-0.2-0.3-0.4-0.4-0.7c0.3,0,0.5-0.1,0.8,0.3c0,0.2-0.1,0.2-0.1,0.3
	L35.5,53L35.5,53z"/>
<path class="st53" d="M24,53.3c0.2-0.1,0.3-0.2,0.5-0.3c0,0.2,0.1,0.3,0.1,0.5c0,0.3-0.3,0.3-0.6,0.2C23.7,53.5,23.7,53.4,24,53.3z"
	/>
<path class="st54" d="M23.8,53.2c0,0.1,0,0.2,0,0.3s0,0.2,0,0.2s-0.1,0,0-0.2c0-0.2,0-0.4,0-0.6C23.8,53,23.8,53.2,23.8,53.2z"/>
<path class="st53" d="M26.9,51.6c0.3,0.1,0.5-0.1,0.8-0.2c0,0.3,0,0.5-0.1,0.8C27.4,52,27.2,51.8,26.9,51.6z"/>
<path class="st55" d="M22.2,52.4c0.1-0.1,0.2-0.1,0.3-0.2c0.1,0.5,0.4,0.3,0.5,0.8C22.7,53,22.3,53.1,22.2,52.4z"/>
<path class="st56" d="M30.1,51.5c0.3,0,0.5,0,0.8,0c-0.1,0.5-0.5,0.5-0.7,0.8C30.1,52,30.1,51.7,30.1,51.5z"/>
<path class="st57" d="M23,52.2c0.3,0,0.5-0.1,0.8-0.1C23.5,52.2,23.3,52.3,23,52.2z"/>
<path class="st58" d="M29.8,51.5c-0.2,0-0.4,0-0.6,0c0.1-0.1,0.4-0.1,0.7-0.1c0.1,0,0.2,0,0.1,0.1C30,51.5,29.9,51.5,29.8,51.5z"/>
<path class="st59" d="M12.7,55.1c0.3-0.3,0.6-0.2,0.9-0.2c0.2,0,0.4-0.1,0.4-0.3c0.1-1.2,0.6-0.8,1.1-0.5
	C14.4,55.2,13.7,55.7,12.7,55.1z"/>
<path class="st60" d="M15,55.7c0,0.2-0.1,0.4-0.1,0.4c-0.4-0.2-0.9,0.1-1.3,0.1c-0.1,0-0.1-0.1-0.1-0.2c0-0.3,0.2-0.3,0.3-0.5
	C14.2,55.3,14.6,55.3,15,55.7z"/>
<path class="st61" d="M18.2,54.6C17.8,55,17.4,55.5,17,56c-0.1,0.1-0.2,0.3-0.4,0.1c-0.1-0.3,0-0.5,0.1-0.6
	C17.2,54.9,17.7,54.6,18.2,54.6z"/>
<path class="st62" d="M12.7,54.4c0.4,0,0.7-0.3,1.1-0.4c0.2,0,0.4-0.3,0.5,0c0.1,0.2-0.1,0.3-0.3,0.4c-0.1,0.1-0.2,0.1-0.3,0.2
	C13.4,54.5,13,54.8,12.7,54.4z"/>
<path class="st63" d="M15.1,55.9c-0.1-1,0.8-1.1,1.6-1.3c-0.3,0.5-0.6,0.9-0.9,1.4C15.4,56.4,15.3,56.1,15.1,55.9z"/>
<path class="st64" d="M12.1,56.2C12,56,12,55.9,11.9,55.7c-0.1-0.7,0.2-1,0.7-1.1v0.1l0,0C12.3,55.2,12.1,55.6,12.1,56.2z"/>
<path class="st65" d="M14.7,55.4c0.1,0.1,0.2,0.3,0.3,0.1c0,0.3-0.1,0.5-0.2,0.7c-0.4-0.2-0.9-0.3-1.3-0.2c-0.1-0.6,0.2-0.3,0.2-0.3
	C14,55.5,14.4,55.8,14.7,55.4z"/>
<path class="st66" d="M15.8,53c0.1,0.7-0.3,0.6-0.5,0.8c0,0-0.2-0.1-0.2-0.2c-0.1-0.2,0-0.3,0.1-0.4C15.4,53.1,15.6,53.1,15.8,53
	L15.8,53z"/>
<path class="st67" d="M9.8,56.2c-0.1,0-0.2,0-0.2,0c-0.2-0.2,0-0.4,0.1-0.4c0.4-0.1,0.9-0.2,1.3-0.3c0,0,0.1,0.2,0.1,0.3
	c-0.1,0.1-0.3,0.2-0.4,0.3C10.4,56.2,10.1,55.9,9.8,56.2z"/>
<path class="st44" d="M17.4,53.4c0,0.2-0.2,0.3-0.3,0.3c-0.2,0.1-0.4,0.2-0.5,0c-0.1-0.4,0.3-0.3,0.3-0.6
	C17.2,52.9,17.3,53.1,17.4,53.4z"/>
<path class="st68" d="M12,54.5c0.4,0.1,1,0,1.5,0C13,54.7,12.5,54.6,12,54.5C11.8,54.6,11.9,54.6,12,54.5z"/>
<path class="st69" d="M18,53.8c-0.2-0.1-0.4-0.5-0.6-0.3c0.1-0.7,0.5-0.4,0.7-0.3C18.3,53.3,18.2,53.6,18,53.8z"/>
<path class="st70" d="M12.7,56.2c0-0.1,0-0.2,0-0.3c0.2-0.4,0.5-0.4,0.8-0.5l0,0C13.5,56.1,12.9,55.9,12.7,56.2z"/>
<path class="st71" d="M15.8,53.1L15.8,53.1L15.8,53.1c-0.3,0-0.5,0-0.7,0C15.4,53,15.6,53,15.8,53.1C15.8,53,15.8,53,15.8,53.1
	C15.8,53,15.8,53,15.8,53.1z"/>
<path class="st72" d="M9.5,56.2c0.3-0.1,0.5-0.1,0.8-0.1C10.1,56.3,9.8,56.2,9.5,56.2z"/>
<path class="st73" d="M43.4,55.3c-0.6,0.2-1.2,0-1.5-1.1c0.5-0.6,0.5-0.6,0.7,0.3c0.1,0.4,0.2,0.5,0.4,0.4c0.2,0,0.4-0.1,0.5,0.1
	C43.5,55.2,43.5,55.3,43.4,55.3z"/>
<path class="st74" d="M43,55.5c0.2,0.2,0.4,0.2,0.6,0.6c-0.9,0-1.6,0.1-2.4-0.5C41.7,55.3,42.4,55.3,43,55.5z"/>
<path class="st75" d="M37.3,52.5c0.3-0.1,0.5-0.1,0.8-0.2c0.4-0.2,0.6,0.1,0.7,0.7c-0.8-0.1-1.6-0.1-2.4-0.2
	C36.6,52.2,37,52.7,37.3,52.5z"/>
<path class="st76" d="M45.1,54.6c-0.5,0-0.9,0-1.2,0s-0.4-0.4-0.3-0.6c0.1-0.3,0.3-0.1,0.5,0C44.4,54,44.7,54.3,45.1,54.6z"/>
<path class="st77" d="M39.2,54.7c0.5,0.2,1,0.5,1.2,1.2c0,0.1-0.1,0.2-0.1,0.2c-0.5-0.1-0.8-0.7-1.2-0.9c-0.1-0.1-0.2-0.2-0.2-0.3
	C38.8,54.5,39,54.5,39.2,54.7z"/>
<path class="st63" d="M41.4,56c-0.4-0.5-0.6-1-1-1.5c0.8,0.1,1.6,0.3,1.6,1.3C41.8,56.1,41.7,56.3,41.4,56z"/>
<path class="st78" d="M42,55.6c0.1-0.1,0.2-0.2,0.3-0.2c0.4,0.5,0.8,0.2,1.2,0.3v0.1c0,0.1,0,0.2,0,0.2c-0.4-0.1-0.9,0-1.3,0.2
	C42.1,56,41.9,56.2,42,55.6z"/>
<path class="st79" d="M37.2,52.2c-0.2,0.1-0.5,0-0.7,0.1c-0.3,0-0.6,0-0.9,0c0,0,0.1,0,0.1-0.1C36.2,52.2,36.7,52.2,37.2,52.2z"/>
<path class="st80" d="M41.2,53.2c0.3-0.2,0.6-0.3,0.7,0.1c0.1,0.1,0.1,0.4-0.1,0.5C41.6,53.9,41.4,53.6,41.2,53.2z"/>
<path class="st81" d="M40.1,53.3c0.1,0.1,0.4,0.3,0.2,0.4c-0.2,0.1-0.6,0.2-0.7-0.6C39.8,52.9,40,53,40.1,53.3z"/>
<path class="st82" d="M36.9,54.5C36.9,54.5,36.8,54.5,36.9,54.5c-0.2-0.1-0.3-0.3-0.5-0.6c0.4-0.3,0.6,0.1,0.8,0.4
	C37.1,54.3,37,54.3,36.9,54.5z"/>
<path class="st83" d="M39.6,55.1c-0.1,0-0.2,0.1-0.3,0.3c-0.2-0.2-0.4-0.4-0.5-0.8C39.1,54.5,39.3,54.8,39.6,55.1z"/>
<path class="st84" d="M45.1,56.2c0.1,0.3,0,0.5,0,0.8C45.1,56.7,45.1,56.4,45.1,56.2z"/>
<path class="st85" d="M46.6,56.2c-0.3,0-0.5-0.1-0.7-0.6c0.3-0.4,0.5,0.1,0.7,0.1c0.1,0,0.1,0.1,0.1,0.3
	C46.7,56,46.7,56.1,46.6,56.2z"/>
<path class="st86" d="M47.4,56.1C47.5,56.2,47.6,56.2,47.4,56.1c-0.2,0.1-0.4,0.1-0.7,0C46.9,56.1,47.2,56.2,47.4,56.1z"/>
<path class="st87" d="M47.5,56.2c-0.3,0.1-0.8,0-1.2,0.1c-0.1,0-0.3,0-0.4,0c0,0,0,0,0-0.1c0.5,0,0.9,0,1.4,0
	C47.4,56.2,47.5,56.2,47.5,56.2z"/>
<path class="st88" d="M43.5,54.9c0.1-0.1,0.1-0.2,0.2-0.3c0.2,0,0.4,0.3,0.6,0.5c0,0.3,0,0.5-0.2,0.3C44,55.2,43.8,55,43.5,54.9z"/>
<path class="st53" d="M40.4,53.1c-0.3,0-0.5,0-0.8,0C39.9,53,40.2,52.9,40.4,53.1z"/>
<path class="st89" d="M47.5,56.2c-0.3,0-0.5,0-0.8,0c0,0,0,0,0-0.1C47,56.2,47.3,56.1,47.5,56.2z"/>
<path class="st90" d="M43.5,55.6c0.1-0.1,0.1-0.1,0.2-0.2c0.2,0.1,0.4,0.3,0.6,0.5c-0.1,0.1-0.2,0.2-0.2,0.3
	C43.9,56,43.7,55.8,43.5,55.6z"/>
<path class="st71" d="M42,53c-0.3,0.1-0.5,0.1-0.8,0C41.4,53,41.6,53,42,53z"/>
<path class="st91" d="M34.8,56.1c0-0.1,0-0.3,0-0.4c0-0.1,0-0.2,0-0.3c0,0.1,0,0.2,0,0.3C34.8,55.8,35,56.3,34.8,56.1z"/>
<path class="st92" d="M7.1,31.6c1,0.8,1,0.8,0.1,1.6C7.2,32.7,7.3,32.2,7.1,31.6z"/>
<path class="st93" d="M49.9,31.7c0,0.5,0,1-0.1,1.5c-0.4-0.2-0.6-0.5-0.7-0.9c-0.1-0.5,0.4-0.4,0.6-0.7
	C49.8,31.6,49.8,31.6,49.9,31.7z"/>
<path class="st94" d="M29.3,7.1c-0.5,0.1-1.1,0.1-1.6,0C28.2,7.1,28.8,7.1,29.3,7.1z"/>
<path class="st95" d="M9.2,34.8c-0.3,0-0.5-0.2-0.5-0.4C8.7,34.2,8.8,34,9,34s0.4,0.1,0.5,0.4C9.5,34.7,9.3,34.7,9.2,34.8z"/>
<path class="st96" d="M49.1,34.4c0,0.2-0.2,0.4-0.4,0.4s-0.3-0.2-0.4-0.3c0-0.2,0.1-0.4,0.4-0.4C48.9,34,49,34.2,49.1,34.4z"/>
<path class="st97" d="M8.7,30.9c0.1,0.5,0.1,1.1,0,1.6C8.6,31.9,8.7,31.4,8.7,30.9z"/>
<path class="st98" d="M48.3,35.6c-0.3,0-0.5,0-0.8,0C47.8,35.5,48,35.5,48.3,35.6z"/>
<path class="st99" d="M9.5,35.6c-0.3,0.1-0.5,0.1-0.8,0C9,35.5,9.2,35.5,9.5,35.6z"/>
<path class="st100" d="M49.4,31.6c-0.1,0-0.2,0-0.3,0c0.2-0.3,0.3-0.5,0.5-0.8c0.1,0,0.2,0,0.3,0C49.8,31.2,49.7,31.4,49.4,31.6z"/>
<path class="st38" d="M50.7,25.3c0,0.2,0,0.4,0,0.8C50.6,25.7,50.6,25.5,50.7,25.3z"/>
<path class="st33" d="M50.7,33.2c0.3,0,0.5,0,0.8,0C51.2,33.3,50.9,33.4,50.7,33.2z"/>
<path class="st17" d="M12.7,29.2C13.1,29,13.6,29,14,29c0.2,0,0.3,0,0.5,0c0.6,0,0.6-0.5,0.5-0.8c-0.1-0.6,0.7-1.3-0.2-1.8
	c-0.4-0.2-0.9-0.3-1.3-0.5c-0.4-0.1-0.4-0.3-0.3-0.6c0.2-0.7,0.5-1.4,0.7-2.1c0.1-0.3,0.2-0.4,0.5-0.3c0.4,0.2,0.9,0.3,1.3,0.5
	c0.3,0.2,0.5,0.1,0.7-0.3c0,0,0,0,0-0.1c0.3-0.6,0.8-1.1,0.8-1.7c0-0.5-0.8-0.8-1.3-1.2c-0.3-0.3-0.3-0.4,0-0.7
	c0.5-0.5,1-1.1,1.5-1.6c0.2-0.2,0.4-0.3,0.6,0l0.1,0.1c0.4,0.3,0.8,1.1,1.3,1c0.6-0.2,1.2-0.8,1.8-1.2c0.2-0.1,0.2-0.3,0.1-0.4
	c0-0.1-0.1-0.1-0.1-0.2c-0.2-0.6-0.8-1.1-0.6-1.6c0.2-0.4,1-0.5,1.5-0.8c1.1-0.5,1.1-0.5,1.6,0.6c0,0,0,0.1,0.1,0.1
	c0.1,0.8,0.6,0.9,1.3,0.7c1.5-0.4,1.5-0.4,1.5-1.9c0-0.6,0.1-0.8,0.7-0.8c0.7,0.1,1.4,0,2.1,0c0.2,0.7-0.1,1.4,0.2,2.1
	c0.7,0.3,1.5,0.3,2.2,0.5c0.3,0.1,0.3-0.1,0.4-0.3c0.2-0.5,0.4-0.9,0.6-1.4c0.1-0.4,0.3-0.4,0.6-0.2c0.6,0.3,1.2,0.6,1.8,0.8
	c0.5,0.2,0.5,0.4,0.3,0.8c-0.7,1.5-0.6,1.4,0.7,2.4c0.5,0.4,0.9,0.4,1.4-0.1c1-1,1.1-1,2.1,0.1c1.1,1.1,1.1,1.2-0.1,2.2
	c-0.4,0.4-0.5,0.6-0.2,1.1c0.9,1.5,0.9,1.6,2.5,1c0.5-0.2,0.7-0.1,0.8,0.4c0.2,0.7,0.4,1.3,0.6,2c0.1,0.3,0.1,0.4-0.3,0.5
	c-0.2,0.1-0.5,0.1-0.7,0.2c-1.4,0.5-1.2,0.1-1,1.6c0.1,1.2,0.2,1.2,1.4,1.4c1.1,0.1,1.1,0.1,1,1.2c0,0.5-0.1,1-0.2,1.5
	c0,0.4-0.2,0.4-0.6,0.4c-0.6,0-1.3-0.5-1.8-0.1c-0.4,0.4-0.4,1.1-0.6,1.6c-0.2,0.4-0.1,0.7,0.3,0.9c0.5,0.3,1.3,0.5,1.3,0.9
	c0.1,0.4-0.5,1-0.7,1.5c-0.6,1.1-0.7,1.2-1.8,0.5c-0.7-0.4-1.1-0.3-1.5,0.3c-0.9,1.1-1,1.1-0.1,2.3c0.4,0.6,0.5,0.9-0.2,1.2
	l-0.1,0.1c-0.6,0.4-1.1,1-1.6,1s-0.8-0.9-1.2-1.4c-0.2-0.2-0.3-0.3-0.6-0.1c0,0,0,0-0.1,0c-0.6,0.3-1.3,0.4-1.7,0.9s0.1,1.2,0.2,1.8
	c0,0.3,0.1,0.5-0.3,0.6c-0.7,0.1-1.5,0.3-2.2,0.4c-0.3,0.1-0.5,0-0.5-0.4c0-0.3-0.1-0.5-0.1-0.8c-0.2-1-0.2-1-1.1-1
	c-1.5,0-1.6,0-1.8,1.6c-0.1,0.6-0.3,0.8-0.9,0.6s-1.2-0.3-1.9-0.4c-0.4-0.1-0.4-0.2-0.3-0.5c0.1-0.4,0.2-0.9,0.3-1.3
	c0.1-0.4,0-0.6-0.4-0.7c-1.7-0.8-1.8-0.8-2.8,0.7c-0.2,0.3-0.4,0.4-0.7,0.1c-0.6-0.4-1.1-0.9-1.7-1.2c-0.3-0.2-0.4-0.3-0.1-0.7
	c0.4-0.5,1-0.9,0.9-1.5C19,38,18.4,37.6,18,37.2c-0.3-0.4-0.6-0.5-1-0.2c-1.4,0.9-1.4,0.9-2.2-0.6c-0.7-1.2-0.7-1.2,0.5-1.9
	c0.6-0.3,0.8-0.6,0.5-1.3c-0.6-1.6-0.5-1.6-2.2-1.3c-0.5,0.1-0.7,0-0.7-0.6s-0.2-1.2-0.1-1.8C12.9,29.6,12.7,29.4,12.7,29.2z"/>
<path class="st101" d="M16,15.2c-0.2,0-0.4-0.1-0.2-0.3c0.4-0.4-0.1-0.5-0.2-0.7c-0.2-0.2-0.4,0.1-0.5,0.2c-0.7,0.5-0.7,0.5,0,1.1
	c0.3,0.3,0.6,0.6,1,0.9c0,0.1,0,0.1,0,0.2c-0.1,0-0.3-0.1-0.4-0.2c-0.3-0.4-0.6-0.3-0.9,0c-0.1,0.1-0.2,0-0.2-0.1
	c0.1-0.8-0.1-0.9-0.9-0.5c-0.1,0-0.2-0.1-0.2-0.2c1.3-1.5,2.8-2.6,4.5-3.8c-0.4,1.2,0.8,1.5,1,2.4c-0.4,0.1-0.5-0.3-0.7-0.4
	c-0.2-0.2-0.2-0.6-0.7-0.5c-0.4,0.1-0.5,0.4-0.5,0.8c0.1,0.1,0.1,0.1,0,0.2c-0.6-0.3-0.3-0.6,0-0.9c0.1-0.1,0.6-0.2,0.3-0.5
	c-0.3-0.3-0.4,0.1-0.6,0.2c-0.1,0.1-0.2,0.2-0.3,0.2c-0.5,0.4-1.1,0.7-0.3,1.3c0.2,0.1,0.2,0.3,0.1,0.5C16.4,15.3,16.2,15.3,16,15.2
	z"/>
<path class="st102" d="M38.6,11.9c-0.1,0-0.1,0-0.2-0.1c-0.4-0.5-0.7-0.4-1,0.2c-0.2,0-0.2-0.1-0.1-0.3c0.1-0.3,0.4-0.5,0-0.8
	c-0.2-0.1-0.4-0.2-0.5,0.1c-0.2,0.5-0.4,0.9-0.7,1.4c0,0.1-0.1,0.3-0.2,0.2c-0.2-0.1-0.1-0.3,0-0.4c0.2-0.5,0.4-0.9,0.7-1.4
	c0.2-0.3,0-0.4-0.2-0.6c-0.2-0.2-0.3,0-0.4,0.2c-0.3,0.6-0.4,1.2-0.8,1.9c0-0.6,0.3-1.2-0.3-1.4c0-0.1,0.1-0.1,0.1-0.1
	c0.7-0.3,0.7-0.5,0.4-1.2c0.1-0.2,0.2-0.2,0.3-0.1c0.8,0.3,1.5,0.9,2.2,1.3l0,0c0.2,0.4,0.7,0.5,1,0.9
	C38.8,11.8,38.7,11.9,38.6,11.9z"/>
<path class="st103" d="M30.3,7.9c1,0.2,2,0.2,3,0.6c-0.1,0.1-0.1,0.2-0.3,0.2c-0.4-0.1-0.6,0-0.7,0.5c-0.1,0.6,0,1.2-0.5,1.9
	c-0.1-0.8,0.1-1.4,0.2-2c0.1-0.4,0-0.6-0.4-0.6C31.1,8.4,31,8.6,31,8.9c0,0.2,0,0.4-0.1,0.6c0,0.2,0,0.4-0.3,0.4
	c-0.1,0-0.2-0.2-0.3-0.3c-0.1-0.2-0.1-0.2,0.1-0.4c0.5-0.4,0.4-0.7-0.2-1C30.1,8.1,30.1,8,30.3,7.9C30.2,7.9,30.2,7.9,30.3,7.9z"/>
<path class="st104" d="M39.5,14.2c0.3-0.1,0.4-0.3,0.1-0.7c-0.2-0.2-0.5-0.3-0.6-0.6c0-0.2,0-0.3,0.2-0.2c0.4,0.4,0.8,0.7,1.2,1.2
	c0.1,0.1,0.1,0.2,0,0.3c-0.2-0.1-0.3-0.2-0.5,0.1c-0.2,0.5-0.5,0.9-0.8,1.3c-0.1,0.1-0.1,0.2-0.2,0.1c-0.1-0.1,0-0.2,0-0.3
	c0.1-0.2,0.3-0.5,0.4-0.7c0.1-0.2,0.2-0.4,0-0.6C39.4,14.1,39.4,14.1,39.5,14.2z"/>
<path class="st104" d="M22.2,10c0.3-0.2,0.6-0.3,0.9-0.4c0.1,0,0.3-0.1,0.3,0.2c-0.2,0.2,0,0.4,0,0.6c0.1,0.5,0.4,1,0.4,1.6
	c-0.4,0-0.2-1-0.8-0.7c-0.1,0-0.1-0.1-0.1-0.2c0.2-0.7,0.2-0.7-0.4-0.8C22.3,10.1,22.2,10.1,22.2,10z"/>
<path class="st105" d="M43.2,15.8c0.5,0.2,0.8,0.6,1.1,1c-0.9,0-1.3,0.7-1.9,1.1c-0.1,0.1-0.2,0.4-0.4,0.2c-0.2-0.2,0.1-0.3,0.2-0.4
	c0.2-0.2,0.4-0.3,0.6-0.5C43.3,16.8,43.9,16.5,43.2,15.8z"/>
<path class="st106" d="M32.5,8.9c0.1,0,0.2-0.1,0.3-0.2c0.5,0.1,0.9,0.2,1.3,0.4c0,0.2,0,0.3-0.2,0.2c-0.5,0.5-0.7,1.1-1,1.7
	c-0.2-0.2-0.3-0.5-0.4-0.8c0-0.2,0-0.4,0.1-0.3c0.6,0.3,0.5-0.2,0.5-0.5C33.3,9,32.9,9.1,32.7,9C32.6,9,32.5,8.9,32.5,8.9z"/>
<path class="st107" d="M23.8,9.6c1-0.4,1.9-0.9,2.9-0.8c0.3,0,0.7-0.3,1,0.2c-0.1,0-0.2,0-0.3,0c-0.2,0.3-0.1,0.6-0.1,0.9
	c0,0.1,0,0.2,0,0.3c-0.1,0.1-0.1,0.1-0.2,0c0-0.2,0-0.4,0-0.5C27,9,26.7,9,26.3,9.2c-0.2,0.1-0.5,0.1-0.4,0.4
	c0.1,0.8-0.3,0.6-0.7,0.6l0,0c0.1-0.1,0.3-0.3,0.3-0.4c0-0.3-0.3-0.1-0.4-0.2c-0.4-0.1-0.7,0.2-1,0.2C23.8,10,23.7,9.8,23.8,9.6z"/>
<path class="st108" d="M22.8,11.2l0.1,0.1c-0.1,0.1-0.3,0.1-0.3,0.3s-0.1,0.2-0.2,0.2c-0.1-0.1-0.3-0.1-0.3-0.2
	c0.1-0.7,0-1.1-0.8-0.8c0-0.1,0.1-0.1,0.1-0.2c0.2-0.1,0.5-0.2,0.7-0.3c0.1,0,0.2,0,0.2,0.1C22.4,10.8,22.6,11,22.8,11.2z"/>
<path class="st109" d="M14.9,16.5c0.1,0,0.1,0.1,0.2,0.1c-0.2,0.2-0.6,0.2-0.5,0.5c-0.1,0.2-0.3,0.2-0.6,0.1c0.2-0.5-0.1-1-0.5-0.9
	c-0.3,0.1-0.3,0.5-0.8,0.4c0.3-0.5,0.6-0.8,1-1.1c0.1,0.1,0.1,0.1,0.2,0.2C14.1,16.2,14.5,16.5,14.9,16.5z"/>
<path class="st110" d="M29.1,11.1L29,11c-0.1-0.1-0.1-0.3-0.1-0.5c0-0.5-0.1-0.7-0.5-0.5c-0.1,0.1-0.2,0.3-0.3,0L28,9.9
	c0-0.2,0.2-0.1,0.3-0.1c0.2,0,0.5,0.1,0.7-0.2C29,9.1,28.8,9,28.5,9c-0.2,0-0.4,0-0.6,0c-0.1,0-0.2,0-0.1-0.2c0.5-0.1,1-0.1,1.6,0
	C29,9.5,29.3,10.3,29.1,11.1z"/>
<path class="st111" d="M41.3,15.4c0.2-0.2,0.3-0.4,0.6-0.4c0.1,0.3-0.2,0.2-0.2,0.3c-0.1,0.2-0.6,0.5,0,0.6c0.3,0.1,0.2,0.3,0.2,0.6
	c0,0.1-0.1,0-0.1,0c-0.2-0.6-0.5-0.5-0.8-0.3c-0.1,0-0.2,0-0.1-0.2c-0.1-0.1-0.4-0.1-0.5-0.4c0-0.1,0.1-0.1,0.1-0.1
	c0.2-0.1,0.3,0,0.5-0.1C41.1,15.5,41.2,15.5,41.3,15.4z"/>
<path class="st112" d="M16.7,16.6c0.4,0,0.8,0,1.2,0c0.1,0,0.2,0.1,0.2,0.4c0,0.2-0.1,0.3-0.2,0.3c-0.2,0-0.4,0-0.6,0.4
	c-0.1,0-0.1,0.1-0.1,0.1c-0.1,0.2-0.3,0.6-0.5,0.3c-0.2-0.3-0.2-0.7,0.1-1c0.3-0.2,0.7-0.1,1-0.1c-0.3-0.1-0.5,0-0.8,0
	C16.9,16.9,16.7,17,16.7,16.6z"/>
<path class="st113" d="M37.8,11.9c0,0.1,0,0.2,0.2,0.3c-0.3,0.4-0.6,0.7-1,1.1c-0.1,0.1-0.2,0.3-0.5,0.2c-0.2-0.1-0.1-0.3,0-0.4
	C37,12.6,37.4,12.3,37.8,11.9z"/>
<path class="st114" d="M15.7,16.9c-0.2,0.3-0.3,0.6,0,0.8c0.2,0.2,0.4-0.2,0.5-0.4c0.2-0.3,0.3-0.2,0.5,0.1c-0.2,0.6-0.4,1-1.1,0.7
	c-0.6-0.3-0.7-0.8-0.3-1.4C15.5,16.6,15.7,16.5,15.7,16.9z"/>
<path class="st113" d="M29.3,11.1c0-0.6,0-1.1,0-1.7c0-0.3,0.1-0.4,0.3-0.6c0.2-0.1,0.3-0.1,0.5,0c0,0.1,0,0.1,0,0.2
	c-0.5-0.1-0.7,0.1-0.6,0.5c0,0.5,0,1,0,1.5C29.4,11,29.4,11.1,29.3,11.1L29.3,11.1z"/>
<path class="st115" d="M24.5,9.7c-0.4,0.3-0.4,0.8-0.1,1.3c-0.8-0.2-0.6-0.8-0.7-1.3c0-0.1,0-0.1,0-0.2c0.2,0.1,0.3,0,0.5-0.1
	C24.4,9.5,24.6,9.4,24.5,9.7z"/>
<path class="st116" d="M42,16.2c-0.1,0.2-0.2,0.3-0.4,0.4c-0.2-0.5-0.6-0.9-1.2-1c0-0.1,0-0.2,0-0.3C41.2,14.8,41.6,15,42,16.2z"/>
<path class="st117" d="M40.4,13.8c0-0.1,0-0.3,0-0.4c0.6,0.4,1.1,0.8,1.6,1.6C41.1,14.8,40.8,14.3,40.4,13.8z"/>
<path class="st118" d="M27,8.8c0.3,0.3,0.7,0.1,1,0.1c0.4,0,0.5,0.2,0.5,0.6C28.4,9.2,28.3,9,28,9c-0.4,0-0.7,0-1.1,0
	c-0.2-0.2-0.5-0.1-0.8-0.1c0.3-0.1,0.5-0.1,0.8-0.2C26.9,8.7,27,8.7,27,8.8z"/>
<path class="st119" d="M38.6,13.1c-0.5-0.1-0.9,0.1-1.1,0.4c-0.4,0-0.2-0.2-0.2-0.3c0.4-0.4,0.8-0.7,1.5-0.2
	C38.8,13.1,38.7,13.1,38.6,13.1z"/>
<path class="st120" d="M37.2,11c-0.1-0.4,0.1-0.7,0.5-0.7c0.6-0.1,0.8,0.3,1,0.8C38.3,10.5,37.8,10.6,37.2,11L37.2,11z"/>
<path class="st121" d="M29.3,13.5c-0.8,0-1.6,0-2.4,0c0,0,0,0,0-0.1C27.7,13.4,28.5,13.4,29.3,13.5L29.3,13.5z"/>
<path class="st122" d="M38,12.9c0.1-0.1,0.2-0.2,0.2-0.2c0,0.9,1,0.8,1.3,1.4c-0.1,0-0.2,0-0.3,0c-0.4,0-0.8,0.1-1.2,0.2
	C38,13.8,38.4,13.3,38,12.9z"/>
<path class="st123" d="M27.1,8C27,8,27,8,26.9,8l0,0c0.8,0,1.7,0,2.5,0c0.2,0,0.5,0,0.6,0.1c0,0-0.1,0-0.2,0c-0.2,0-0.3,0-0.5,0
	C28.7,8,27.9,8,27.1,8z"/>
<path class="st124" d="M29.3,8c-0.8,0-1.6,0-2.4,0C27.7,7.8,28.5,7.9,29.3,8z"/>
<path class="st125" d="M34.2,11.1c-0.3-0.3-0.2-0.5-0.1-0.8c0.1-0.2,0.3-0.4,0.2-0.7c0.3-0.1,0.3,0.1,0.5,0.3
	c0.1,0.3-0.1,0.6-0.2,0.9C34.5,10.8,34.4,11,34.2,11.1z"/>
<path class="st126" d="M30.1,15C30,14.9,30,14.7,30,14.6c0-0.4,0-0.8,0-1.2C30.2,14,30.1,14.5,30.1,15z"/>
<path class="st127" d="M25.7,10.3c0.3,0.1,0.4,0.2,0.5,0.3c0,0.2-0.1,0.3-0.3,0.4c-0.1,0.1-0.3,0.1-0.4,0c-0.2-0.1,0.1-0.2,0.1-0.3
	s0-0.2-0.1-0.2C25.4,10.3,25.4,10.3,25.7,10.3z"/>
<path class="st128" d="M27.1,9.7V9.6c0.1-0.1,0.2-0.1,0.3,0c0,0.1,0,0.1,0.1,0.2c0.3,0.3-0.1,0.6,0.2,0.8c0,0.2,0.2,0.3-0.1,0.5
	c-0.7-0.1-0.5-0.4-0.5-0.6C26.9,10.2,26.9,9.9,27.1,9.7z"/>
<path class="st129" d="M41.7,16.6c0.1,0,0.2,0,0.3,0c0,0.1-0.1,0.1-0.1,0.2c-0.2,0.3-0.7,0.5-1.2,0.6c-0.4,0-0.3-0.2,0.2-0.4
	c0.2-0.1,0.4-0.1,0.6-0.2C41.5,16.7,41.6,16.7,41.7,16.6z"/>
<path class="st130" d="M13.5,17c0.2,0,0.4-0.1,0.5-0.4c0.3,0.8,0.7,0,1.1,0.6C14.5,17.3,14,17.7,13.5,17z"/>
<path class="st131" d="M16.9,17.4c-0.1-0.1-0.2-0.1-0.3-0.2c0-0.1,0-0.1,0-0.2s0-0.3,0-0.4c0,0,0.1,0,0.1,0.1
	c0.4,0.7,0.9-0.1,1.4,0.4C17.8,17.4,17.3,17,16.9,17.4z"/>
<path class="st106" d="M34.9,10.2c-0.2-0.1-0.3-0.2-0.5-0.3c-0.1,0-0.3,0-0.4-0.1c-0.1-0.2,0-0.3,0.3-0.3c0.4,0.2,0.9,0.4,1.3,0.5
	c-0.2,0-0.3,0-0.4,0.2C35.1,10.3,35,10.3,34.9,10.2z"/>
<path class="st113" d="M27.7,9.6c0.7-0.3,0.8-0.2,0.8,0.7c0,0.3,0,0.5,0,0.8L28.4,11c-0.2-0.4,0-0.9-0.2-1.3
	C28.1,9.7,27.9,9.7,27.7,9.6z"/>
<path class="st132" d="M24.1,10.1v0.1c-0.2-0.1-0.4-0.3-0.3-0.6c0.2-0.3,0.5,0,0.7-0.2l0,0C24.6,9.8,24,9.8,24.1,10.1z"/>
<path class="st133" d="M15.8,15.5c0.2,0,0.3-0.1,0.4-0.4c0.3,0.3,0.8,0,1.2,0.7C16.8,15.8,16.3,15.9,15.8,15.5z"/>
<path class="st134" d="M16.6,14.5c0-0.1,0-0.2,0-0.3c0.5,0.2,1,0.5,1.6,0.7C17.6,15.1,17.1,15,16.6,14.5z"/>
<path class="st135" d="M38,12.7c0,0.1,0,0.3,0.1,0.5c0,0.4,0,0.8-0.1,1.1C38,13.7,37.9,13.2,38,12.7z"/>
<path class="st125" d="M41,15.8c0.1,0.1,0.1,0.1,0.2,0.2c-0.1,0.3-0.4,0.4-0.8,0.6C40.3,16.1,40.7,16,41,15.8z"/>
<path class="st129" d="M42.7,15.5c0,0.1,0,0.3-0.2,0.3c-0.3-0.1-0.4-0.3-0.6-0.5c-0.1-0.1,0-0.3,0.2-0.3
	C42.5,15.1,42.6,15.3,42.7,15.5z"/>
<path class="st136" d="M40.7,15c0,0.1,0.1,0.1,0.1,0.2c0.3,0.2,0.5,0.4,0.3,0.6c-0.1,0-0.2,0-0.3,0C40.2,15.6,40.3,15.3,40.7,15z"/>
<path class="st137" d="M25.3,9.9c0,0.1-0.1,0.3-0.1,0.4c-0.1,0-0.3,0-0.4,0c-0.1-0.3-0.2-0.3-0.3-0.4C24.8,9.4,25.1,9.4,25.3,9.9z"
	/>
<path class="st124" d="M28.5,9.5c0.2,0.5,0,1,0.1,1.6C28.4,10.6,28.5,10,28.5,9.5z"/>
<path class="st118" d="M26.1,8.9c0.4-0.3,0.8-0.5,0.8,0.6C26.8,8.8,26.4,9,26.1,8.9z"/>
<path class="st138" d="M12.7,29.3c0.1,0.3,0.1,0.5,0,0.8C12.6,29.8,12.6,29.5,12.7,29.3z"/>
<path class="st125" d="M34,9.8c-0.1,0.2-0.2,0.3-0.2,0.5c-0.2-0.1-0.4-0.2-0.5-0.4c0.1-0.2,0.2-0.3,0.2-0.4
	C33.7,9.6,33.9,9.7,34,9.8z"/>
<path class="st139" d="M27,9.5c0,0.3,0,0.5,0,0.8C26.9,10,26.9,9.8,27,9.5C26.9,9.5,26.9,9.5,27,9.5z"/>
<path class="st139" d="M27,10.3c-0.2-0.2-0.1-0.5-0.1-0.8C27,9.7,27,10,27,10.3z"/>
<path class="st140" d="M25.3,11.1c-0.3,0.1-0.5,0.1-0.8,0C24.9,11,25.1,11.1,25.3,11.1z"/>
<path class="st141" d="M39.6,12.3c-0.1,0.1-0.2,0.2-0.3,0.4c-0.2-0.2-0.3-0.3-0.5-0.5c0.1-0.1,0.2-0.2,0.3-0.3
	C39.3,11.9,39.4,12.1,39.6,12.3z"/>
<path class="st142" d="M34,10.9c0-0.2-0.1-0.4,0.3-0.6c0.4,0.2,0.5,0.4,0.5,0.7c-0.2,0-0.4,0-0.5,0.1C34.2,11,34.1,10.9,34,10.9z"/>
<path class="st132" d="M23.5,9.5c0.1,0,0.2,0,0.2,0.1c-0.1,0-0.3,0-0.4,0s-0.2,0-0.4-0.1C23.1,9.4,23.3,9.5,23.5,9.5z"/>
<path class="st118" d="M26.9,9.5L26.9,9.5c0-0.3-0.1-0.6,0-0.8C27,9,27,9.2,26.9,9.5z"/>
<path class="st143" d="M19,28.8c0-5,4.3-9.1,9.5-9.1s9.5,4,9.5,9.1c0,5-4.3,9.1-9.4,9.1C23.3,38,19,33.8,19,28.8z"/>
<path class="st144" d="M30.1,42c-0.8,0-1.6,0-2.4,0l0,0C28.5,41.9,29.3,41.9,30.1,42C30.1,41.9,30.1,41.9,30.1,42z"/>
<path class="st145" d="M14.7,16.5c-0.8,0.3-1-0.2-1.3-0.8c0.4-0.1,0.5-1,1-0.6C15,15.5,15.3,15.9,14.7,16.5z"/>
<path class="st146" d="M34.4,11c-0.3-0.2-0.4-0.4-0.3-0.7c0.1-0.3,0.3-0.6,0.5-0.9c0.1,0,0.3,0,0.4,0c0.2,0.2,0.9,0.1,0.7,0.7
	C35.4,10.7,35.2,11.2,34.4,11z"/>
<path class="st147" d="M22.4,11.1c-0.9-0.1-1.3-0.6-0.8-1.4c0.4,0,0.9-0.5,1.3,0.2C23,10.5,23.1,10.9,22.4,11.1z"/>
<path class="st148" d="M40.5,15.8c0-0.2-0.2-0.4-0.1-0.7c0.7-0.3,0.8,0.1,0.8,0.7C40.9,15.8,40.7,15.8,40.5,15.8z"/>
<path class="st149" d="M27,28.5c0.3-0.2,0.2-0.5,0.2-0.7c0-1.9,0-3.9,0-5.8c0-0.2-0.1-0.6,0.4-0.5c0.6,0.1,1.3,0,1.9,0
	c2.4,0.2,4.4,1.2,5.9,2.9c0.2,0.2,0.2,0.4-0.1,0.6c0,0,0,0-0.1,0c-0.5,0.4-1,1.1-1.6,1.2c-0.6,0.2-0.9-0.7-1.4-1.1
	c-0.6-0.4-1.2-0.7-1.9-1C30,24,29.8,24,29.8,24.4c0,1.2,0,2.4,0,3.5c0,0.5,0.3,0.4,0.6,0.4c1.9,0,3.9,0,5.8,0c0.3,0,0.5,0,0.8,0.1
	c-0.1,0.1-0.3,0.1-0.4,0.1c-2.1,0-4.1,0-6.2,0c-0.1,0-0.2,0-0.2,0c0.4,0,0.8,0,1.2,0c1.6,0,3.2,0,4.9,0c0.8,0,0.8,0,0.8,0.8
	c0,0.6-0.1,1.2,0,1.8c-0.3,2.1-1.4,3.8-3,5.2c-0.2,0.2-0.3,0.2-0.5,0c0-0.1-0.1-0.1-0.1-0.2c-0.5-0.5-1.1-0.9-1.3-1.5
	c-0.1-0.6,0.8-0.8,1.1-1.3c0.5-0.7,0.9-1.4,1.1-2.3c-1.4,0-2.8,0-4.2,0c-0.5,0-0.4,0.3-0.4,0.5c0,1.9,0,3.8,0,5.7
	c0,0.2,0.1,0.5-0.1,0.7c-0.2-0.8-0.1-1.7-0.1-2.5c0-1.2,0-2.4,0-3.6c0-0.2-0.1-0.4,0-0.5c0,0.2,0,0.6,0,1c0,1.6,0,3.2,0,4.8
	c0,0.8,0,0.8-0.9,0.8c-0.8,0-1.7-0.1-2.5-0.2c-1.8-0.4-3.3-1.4-4.5-2.7c-0.2-0.2-0.2-0.4,0.1-0.6c0.5-0.4,1-0.8,1.5-1.3
	c0.3-0.3,0.4-0.2,0.6,0.1c0.7,0.9,1.7,1.6,2.8,1.9c0.4,0.1,0.5,0.1,0.5-0.3c0-1.1,0-2.2,0-3.4c0-0.5-0.1-0.6-0.6-0.6
	c-2,0-3.9,0-5.9,0c-0.6,0-0.9-0.1-0.9-0.7c-0.2-2.9,1-5.2,3.1-7.2c0.2-0.2,0.3-0.2,0.5,0l0.1,0.1c0.5,0.5,1.2,0.9,1.3,1.5
	c0.2,0.6-0.8,0.9-1.2,1.4c-0.4,0.6-0.7,1.1-1,1.8c-0.2,0.4-0.1,0.5,0.4,0.5c1.1,0,2.2-0.1,3.3,0.1c-1.1,0.2-2.1,0-3.2,0.1
	C24.6,28.5,25.8,28.7,27,28.5z"/>
<path class="st150" d="M26.1,26.2c0,0.4-0.3,0.7-0.8,0.7c-0.4,0-0.9-0.4-0.8-0.8c0-0.5,0.3-0.7,0.8-0.8
	C25.7,25.3,26.1,25.7,26.1,26.2z"/>
<path class="st151" d="M26.1,32.5c0,0.4-0.3,0.6-0.8,0.7c-0.4,0.1-0.8-0.4-0.8-0.8c0.1-0.5,0.3-0.7,0.8-0.7
	C25.8,31.6,26.1,32,26.1,32.5z"/>
<path class="st152" d="M30.9,32.2c0.1-0.4,0.5-0.6,0.9-0.5c0.4,0.1,0.6,0.3,0.7,0.7c0,0.4-0.3,0.7-0.6,0.8c-0.4,0.1-0.8-0.1-0.9-0.5
	C30.9,32.6,30.9,32.4,30.9,32.2z"/>
<path class="st153" d="M30.9,25.8c0.2-0.4,0.5-0.6,0.9-0.5c0.4,0.1,0.7,0.3,0.7,0.7c0,0.4-0.2,0.6-0.6,0.8c-0.4,0.2-0.8,0-1-0.4
	C30.9,26.2,30.9,26,30.9,25.8z"/>
<path class="st154" d="M26.1,37.6c0.7-0.3,1.4,0.1,2.1,0c1.7-0.1,1.7,0,1.7-1.5c0-1.8,0-3.5,0-5.3c0,0,0.1,0,0.2,0
	c0,2.3,0,4.6,0,6.9C28.7,38.1,27.4,38,26.1,37.6z"/>
<path class="st155" d="M37,30.1c-0.3-0.5-0.1-1.1-0.1-1.6s-0.1-0.6-0.7-0.6c-1.8,0-3.6,0-5.4,0c-0.2,0-0.5,0.1-0.8-0.1
	c2.4,0,4.6,0,6.9,0c0.4,0.6,0.2,1.3,0.2,1.9C37.2,29.7,37.1,29.9,37,30.1z"/>
<path class="st156" d="M26.8,27.6C26.8,27.7,27,27.7,26.8,27.6c-1.2,0.1-2.5,0.1-3.8,0c1.1,0,2.2,0,3.4,0
	C26.5,27.6,26.6,27.6,26.8,27.6z"/>
<path class="st157" d="M29.3,20.6c-0.5,0.1-1.1,0.1-1.6,0C28.2,20.5,28.8,20.5,29.3,20.6z"/>
<path class="st158" d="M30.9,26.1c0.1,0.3,0.1,0.5,0,0.8C30.8,26.6,30.8,26.4,30.9,26.1z"/>
<path class="st159" d="M30.9,32.4c0.1,0.3,0.1,0.5,0,0.8C30.8,33,30.8,32.7,30.9,32.4z"/>
<path class="st160" d="M27,20.6c0,2.4,0,4.7,0,7.1c0,0,0,0-0.1,0C26.9,25.3,26.9,22.9,27,20.6C26.9,20.6,26.9,20.6,27,20.6z"/>
<path class="st161" d="M26.9,35.6c0.6,0,1-1.4,1-3.2c0-1.7-0.4-3.2-1-3.2s-1,1.4-1,3.2C25.9,34.2,26.4,35.6,26.9,35.6z"/>
<path d="M60.2,20.5c0,0.5,0.2,1,0.4,1.3c0.4,0.6,1.2,1,2.3,1c0.5,0,0.9-0.1,1.3-0.2c0.8-0.3,1.2-0.8,1.2-1.5c0-0.5-0.2-0.9-0.5-1.1
	s-0.9-0.4-1.6-0.6L62,19.1c-0.9-0.2-1.5-0.4-1.8-0.6c-0.6-0.4-0.9-1-0.9-1.8c0-0.9,0.3-1.6,0.9-2.1c0.6-0.6,1.4-0.8,2.5-0.8
	c1,0,1.9,0.2,2.6,0.7c0.7,0.5,1.1,1.3,1.1,2.3h-1.2c-0.1-0.5-0.2-0.9-0.4-1.2c-0.4-0.5-1.1-0.8-2-0.8c-0.8,0-1.3,0.2-1.7,0.5
	c-0.3,0.3-0.5,0.7-0.5,1.1c0,0.5,0.2,0.8,0.6,1c0.3,0.1,0.8,0.3,1.7,0.5l1.3,0.3c0.6,0.1,1.2,0.4,1.5,0.6c0.6,0.4,0.9,1.1,0.9,2
	c0,1.1-0.4,1.8-1.2,2.3c-0.8,0.5-1.7,0.7-2.7,0.7c-1.2,0-2.1-0.3-2.8-0.9s-1-1.4-1-2.5h1.3V20.5z M69.7,13.9v5.9
	c0,0.7,0.1,1.3,0.4,1.7c0.4,0.7,1,1,2,1c1.1,0,1.9-0.4,2.2-1.1c0.2-0.4,0.3-1,0.3-1.7v-5.9H76v5.4c0,1.2-0.2,2.1-0.5,2.7
	c-0.6,1.2-1.7,1.7-3.3,1.7c-1.6,0-2.7-0.6-3.3-1.7c-0.3-0.6-0.5-1.5-0.5-2.7v-5.4h1.3V13.9z M82.5,18.3c0.6,0,1.1-0.1,1.4-0.4
	c0.4-0.2,0.5-0.7,0.5-1.3c0-0.7-0.2-1.2-0.7-1.4c-0.3-0.1-0.6-0.2-1.1-0.2h-3.2v3.3C79.4,18.3,82.5,18.3,82.5,18.3z M78.1,13.9h4.4
	c0.7,0,1.3,0.1,1.8,0.3c0.9,0.4,1.4,1.2,1.4,2.3c0,0.6-0.1,1-0.4,1.4c-0.2,0.4-0.6,0.7-1,0.9c0.4,0.2,0.7,0.4,0.8,0.6
	c0.2,0.2,0.3,0.7,0.3,1.2v1.3c0,0.4,0,0.6,0.1,0.8c0.1,0.3,0.2,0.5,0.4,0.6v0.2h-1.6c0-0.1-0.1-0.2-0.1-0.3c0-0.1,0-0.4-0.1-0.8
	L84,20.8c0-0.6-0.3-1-0.7-1.3c-0.2-0.1-0.6-0.2-1.2-0.2h-3v4.1h-1.3v-9.5H78.1z M92.6,19.6l-1.5-4.2l-1.6,4.2H92.6z M90.5,13.9H92
	l3.5,9.6H94l-1-2.9h-3.8l-1,2.9h-1.3L90.5,13.9z M102.6,13.9V15h-3.2v8.5H98V15h-3.2v-1.1H102.6z M107.3,13.9h1.9L112,22l2.7-8.1
	h1.8v9.6h-1.2v-5.7c0-0.2,0-0.5,0-1s0-0.9,0-1.5l-2.7,8.1h-1.3l-2.8-8.1v0.3c0,0.2,0,0.6,0,1.1s0,0.8,0,1.1v5.7h-1.2
	C107.3,23.5,107.3,13.9,107.3,13.9z M119.9,13.9v5.9c0,0.7,0.1,1.3,0.4,1.7c0.4,0.7,1,1,2,1c1.1,0,1.9-0.4,2.3-1.1
	c0.2-0.4,0.3-1,0.3-1.7v-5.9h1.3v5.4c0,1.2-0.2,2.1-0.5,2.7c-0.6,1.2-1.7,1.7-3.3,1.7c-1.6,0-2.7-0.6-3.3-1.7
	c-0.3-0.6-0.5-1.5-0.5-2.7v-5.4h1.3V13.9z M128.1,13.9h1.5l4.9,7.8v-7.8h1.2v9.6h-1.5l-4.9-7.8v7.8h-1.2V13.9z M138.1,13.9h1.3v9.6
	h-1.3V13.9z M145.6,13.7c1.2,0,2.2,0.3,2.8,1c0.7,0.6,1,1.4,1.1,2.2h-1.3c-0.1-0.6-0.4-1.1-0.9-1.5c-0.4-0.4-1-0.5-1.8-0.5
	c-0.9,0-1.7,0.3-2.3,1c-0.6,0.7-0.9,1.7-0.9,3.1c0,1.1,0.3,2,0.8,2.7s1.3,1,2.4,1c1,0,1.7-0.4,2.2-1.1c0.3-0.4,0.5-0.9,0.6-1.5h1.3
	c-0.1,1-0.5,1.9-1.1,2.5c-0.8,0.8-1.8,1.2-3.1,1.2c-1.1,0-2.1-0.3-2.8-1c-1-0.9-1.5-2.3-1.5-4.1c0-1.4,0.4-2.6,1.1-3.5
	C143,14.2,144.1,13.7,145.6,13.7z M151.5,13.9h1.3v9.6h-1.3V13.9z M155.1,13.9h4.3c0.9,0,1.5,0.2,2.1,0.7c0.5,0.5,0.8,1.2,0.8,2
	c0,0.7-0.2,1.4-0.7,2s-1.2,0.8-2.2,0.8h-3v4.1h-1.3L155.1,13.9L155.1,13.9z M160.9,16.7c0-0.7-0.3-1.2-0.8-1.4
	c-0.3-0.1-0.7-0.2-1.2-0.2h-2.6v3.3h2.6c0.6,0,1.1-0.1,1.4-0.4C160.7,17.8,160.9,17.3,160.9,16.7z M167.8,19.6l-1.5-4.2l-1.6,4.2
	H167.8z M165.7,13.9h1.5l3.5,9.6h-1.4l-1-2.9h-3.8l-1,2.9H162L165.7,13.9z M171.8,13.9h1.3v8.5h4.9v1.1h-6.2V13.9z"/>
<path d="M75.4,34.9c1.2,0,2.2,0.3,2.8,1c0.7,0.6,1,1.4,1.1,2.2H78c-0.1-0.6-0.4-1.1-0.9-1.5c-0.4-0.4-1-0.5-1.8-0.5
	c-0.9,0-1.7,0.3-2.3,1c-0.6,0.7-0.9,1.7-0.9,3.1c0,1.1,0.3,2,0.8,2.7s1.3,1,2.4,1c1,0,1.7-0.4,2.2-1.1c0.3-0.4,0.5-0.9,0.6-1.5h1.3
	c-0.1,1-0.5,1.9-1.1,2.5c-0.8,0.8-1.8,1.2-3.1,1.2c-1.1,0-2.1-0.3-2.8-1c-1-0.9-1.5-2.3-1.5-4.1c0-1.4,0.4-2.6,1.1-3.5
	C72.9,35.4,74,34.9,75.4,34.9z M85.2,34.9c1.7,0,3,0.5,3.8,1.6c0.6,0.9,1,1.9,1,3.3c0,1.4-0.4,2.6-1.1,3.6C88,44.5,86.8,45,85.2,45
	c-1.5,0-2.6-0.5-3.5-1.5c-0.8-0.9-1.1-2.1-1.1-3.6c0-1.3,0.3-2.4,1-3.3C82.4,35.5,83.6,34.9,85.2,34.9z M85.4,43.9
	c1.1,0,2-0.4,2.5-1.2s0.8-1.8,0.8-2.8c0-1.1-0.3-2-0.9-2.7s-1.4-1-2.4-1s-1.8,0.3-2.4,1s-0.9,1.7-0.9,3c0,1.1,0.3,2,0.8,2.7
	C83.3,43.5,84.1,43.9,85.4,43.9z M96,39.6c0.6,0,1.1-0.1,1.4-0.4c0.4-0.2,0.5-0.7,0.5-1.3c0-0.7-0.2-1.2-0.7-1.4
	c-0.3-0.1-0.6-0.2-1.1-0.2H93v3.3C93,39.6,96,39.6,96,39.6z M91.7,35.2h4.4c0.7,0,1.3,0.1,1.8,0.3c0.9,0.4,1.4,1.2,1.4,2.3
	c0,0.6-0.1,1-0.4,1.4c-0.2,0.4-0.6,0.7-1,0.9c0.4,0.2,0.7,0.4,0.8,0.6c0.2,0.2,0.3,0.7,0.3,1.2v1.3c0,0.4,0,0.6,0.1,0.8
	c0.1,0.3,0.2,0.5,0.4,0.6v0.2H98c0-0.1-0.1-0.2-0.1-0.3s0-0.4-0.1-0.8l-0.1-1.6c0-0.6-0.3-1-0.7-1.3c-0.2-0.1-0.6-0.2-1.2-0.2h-3
	v4.1h-1.3v-9.5H91.7z M101.3,35.2h4.3c0.9,0,1.5,0.2,2.1,0.7c0.5,0.5,0.8,1.2,0.8,2c0,0.7-0.2,1.4-0.7,2s-1.2,0.8-2.2,0.8h-3v4.1
	h-1.3C101.3,44.8,101.3,35.2,101.3,35.2z M107.2,37.9c0-0.7-0.3-1.2-0.8-1.4c-0.3-0.1-0.7-0.2-1.2-0.2h-2.6v3.3h2.6
	c0.6,0,1.1-0.1,1.4-0.4C107,39,107.2,38.5,107.2,37.9z M114.3,34.9c1.7,0,3,0.5,3.8,1.6c0.6,0.9,1,1.9,1,3.3c0,1.4-0.4,2.6-1.1,3.6
	c-0.9,1.1-2.1,1.7-3.7,1.7c-1.5,0-2.6-0.5-3.5-1.5c-0.8-0.9-1.1-2.1-1.1-3.6c0-1.3,0.3-2.4,1-3.3C111.4,35.5,112.6,34.9,114.3,34.9z
	 M114.4,43.9c1.1,0,2-0.4,2.5-1.2s0.8-1.8,0.8-2.8c0-1.1-0.3-2-0.9-2.7s-1.4-1-2.4-1s-1.8,0.3-2.4,1s-0.9,1.7-0.9,3
	c0,1.1,0.3,2,0.8,2.7C112.3,43.5,113.2,43.9,114.4,43.9z M125,39.6c0.6,0,1.1-0.1,1.4-0.4c0.4-0.2,0.5-0.7,0.5-1.3
	c0-0.7-0.2-1.2-0.7-1.4c-0.3-0.1-0.6-0.2-1.1-0.2H122v3.3C122,39.6,125,39.6,125,39.6z M120.7,35.2h4.4c0.7,0,1.3,0.1,1.8,0.3
	c0.9,0.4,1.4,1.2,1.4,2.3c0,0.6-0.1,1-0.4,1.4c-0.2,0.4-0.6,0.7-1,0.9c0.4,0.2,0.7,0.4,0.8,0.6c0.2,0.2,0.3,0.7,0.3,1.2v1.3
	c0,0.4,0,0.6,0.1,0.8c0.1,0.3,0.2,0.5,0.4,0.6v0.2h-1.6c0-0.1-0.1-0.2-0.1-0.3s0-0.4-0.1-0.8l-0.1-1.6c0-0.6-0.3-1-0.7-1.3
	c-0.2-0.1-0.6-0.2-1.2-0.2h-3v4.1h-1.3v-9.5H120.7z M135.1,40.8l-1.5-4.2l-1.6,4.2H135.1z M133,35.2h1.5l3.5,9.6h-1.4l-1-2.9h-3.8
	l-1,2.9h-1.3L133,35.2z M145.1,35.2v1.1h-3.2v8.5h-1.3v-8.5h-3.2v-1.1H145.1z M146.6,35.2h1.3v9.6h-1.3V35.2z M154.2,34.9
	c1.7,0,3,0.5,3.8,1.6c0.6,0.9,1,1.9,1,3.3c0,1.4-0.4,2.6-1.1,3.6c-0.9,1.1-2.1,1.7-3.7,1.7c-1.5,0-2.6-0.5-3.5-1.5
	c-0.8-0.9-1.1-2.1-1.1-3.6c0-1.3,0.3-2.4,1-3.3C151.4,35.5,152.6,34.9,154.2,34.9z M154.3,43.9c1.1,0,2-0.4,2.5-1.2s0.8-1.8,0.8-2.8
	c0-1.1-0.3-2-0.9-2.7c-0.6-0.7-1.4-1-2.4-1s-1.8,0.3-2.4,1c-0.6,0.7-0.9,1.7-0.9,3c0,1.1,0.3,2,0.8,2.7
	C152.3,43.5,153.1,43.9,154.3,43.9z M160.5,35.2h1.5l4.9,7.8v-7.8h1.2v9.6h-1.5l-4.9-7.8v7.8h-1.2V35.2z"/>
</svg>
