<?xml version="1.0" encoding="utf-8"?>
<!-- Generator: Adobe Illustrator 25.4.1, SVG Export Plug-In . SVG Version: 6.00 Build 0)  -->
<svg version="1.1" id="Layer_1" xmlns="http://www.w3.org/2000/svg" xmlns:xlink="http://www.w3.org/1999/xlink" x="0px" y="0px"
	 viewBox="0 0 500 500" style="enable-background:new 0 0 500 500;" xml:space="preserve">
<style type="text/css">
	.st0{fill:#17AC4C;}
	.st1{fill:#FBFDFD;}
	.st2{fill:#FAFCFC;}
	.st3{fill:#F9FCFC;}
	.st4{fill:#F7FBFA;}
	.st5{fill:#F7FBF9;}
	.st6{fill:#19AC4D;}
	.st7{fill:#1DAE50;}
	.st8{fill:#1BAC4E;}
	.st9{fill:#32436F;}
	.st10{fill:#E0F2E6;}
	.st11{fill:#DCF0E3;}
	.st12{fill:#E9F5EE;}
	.st13{fill:#DFF1E5;}
	.st14{fill:#95D4AC;}
	.st15{fill:#93D3AA;}
	.st16{fill:#334470;}
	.st17{fill:#2E3A6C;}
	.st18{fill:#30426E;}
	.st19{fill:#2F416E;}
	.st20{fill:#30416E;}
	.st21{fill:#31426E;}
	.st22{fill:#32446F;}
	.st23{fill:#31436F;}
	.st24{fill:#243666;}
	.st25{fill:#213363;}
	.st26{fill:#212D5F;}
	.st27{fill:#213463;}
	.st28{fill:#7984A0;}
	.st29{fill:#1C2F5F;}
	.st30{fill:#1E3261;}
	.st31{fill:#1E3262;}
	.st32{fill:#203363;}
	.st33{fill:#243064;}
	.st34{fill:#324470;}
	.st35{fill:#F1F3F6;}
	.st36{fill:#212E62;}
	.st37{fill:#222F63;}
	.st38{fill:#253164;}
	.st39{fill:#F59422;}
	.st40{fill:#F8FBFB;}
	.st41{fill:#F6FBF9;}
	.st42{fill:#D3EDDC;}
	.st43{fill:#E6F4EB;}
	.st44{fill:#D8EEE0;}
	.st45{fill:#A8DCBB;}
	.st46{fill:#ABDDBD;}
	.st47{fill:#E7F3EC;}
	.st48{fill:#10A846;}
	.st49{fill:#C2E3CF;}
	.st50{fill:#96C7AF;}
	.st51{fill:#0FA945;}
	.st52{fill:#99C3B1;}
	.st53{fill:#0BA642;}
	.st54{fill:#E1F0E7;}
	.st55{fill:#0DA743;}
	.st56{fill:#0BA641;}
	.st57{fill:#65918C;}
	.st58{fill:#0BA842;}
	.st59{fill:#EEF7F2;}
	.st60{fill:#DAEFE2;}
	.st61{fill:#E8F4ED;}
	.st62{fill:#EAF6EF;}
	.st63{fill:#EDF7F1;}
	.st64{fill:#DAEFE1;}
	.st65{fill:#15AA49;}
	.st66{fill:#C7E8D3;}
	.st67{fill:#C0E4CD;}
	.st68{fill:#24AF55;}
	.st69{fill:#0CA642;}
	.st70{fill:#C4E7D0;}
	.st71{fill:#0AA842;}
	.st72{fill:#30B35E;}
	.st73{fill:#F1F8F4;}
	.st74{fill:#DAF0E2;}
	.st75{fill:#E8EDEE;}
	.st76{fill:#E9F5ED;}
	.st77{fill:#E8F5ED;}
	.st78{fill:#12A948;}
	.st79{fill:#E8E9EF;}
	.st80{fill:#C3E6CF;}
	.st81{fill:#D7EEDF;}
	.st82{fill:#D6EDDF;}
	.st83{fill:#E4F2EA;}
	.st84{fill:#09A641;}
	.st85{fill:#BDE4CB;}
	.st86{fill:#86CE9F;}
	.st87{fill:#D9EEE1;}
	.st88{fill:#F3F8F5;}
	.st89{fill:#2AB15A;}
	.st90{fill:#D5EDDE;}
	.st91{fill:#09A540;}
	.st92{fill:#EF9123;}
	.st93{fill:#E48C28;}
	.st94{fill:#FE9A20;}
	.st95{fill:#DCDEE5;}
	.st96{fill:#DDDFE6;}
	.st97{fill:#23346E;}
	.st98{fill:#20326E;}
	.st99{fill:#22336D;}
	.st100{fill:#956846;}
	.st101{fill:#2E347E;}
	.st102{fill:#30347D;}
	.st103{fill:#33367C;}
	.st104{fill:#37387A;}
	.st105{fill:#3B3A78;}
	.st106{fill:#35377B;}
	.st107{fill:#393979;}
	.st108{fill:#36377A;}
	.st109{fill:#36387A;}
	.st110{fill:#273082;}
	.st111{fill:#31347C;}
	.st112{fill:#F19222;}
	.st113{fill:#433D74;}
	.st114{fill:#403D76;}
	.st115{fill:#463F73;}
	.st116{fill:#403C76;}
	.st117{fill:#413C75;}
	.st118{fill:#423D76;}
	.st119{fill:#443E74;}
	.st120{fill:#3F3B76;}
	.st121{fill:#FD981F;}
	.st122{fill:#31357C;}
	.st123{fill:#A06B4B;}
	.st124{fill:#FE9A1D;}
	.st125{fill:#36377B;}
	.st126{fill:#26356D;}
	.st127{fill:#52456E;}
	.st128{fill:#35367A;}
	.st129{fill:#383879;}
	.st130{fill:#433E74;}
	.st131{fill:#52446D;}
	.st132{fill:#51446E;}
	.st133{fill:#423D75;}
	.st134{fill:#2A317E;}
	.st135{fill:#6F5361;}
	.st136{fill:#4A4072;}
	.st137{fill:#614C69;}
	.st138{fill:#1F326F;}
	.st139{fill:#4C4271;}
	.st140{fill:#4F436E;}
	.st141{fill:#3D3B78;}
	.st142{fill:#453E72;}
	.st143{fill:#FCFDFE;}
	.st144{fill:#24356D;}
	.st145{fill:#E48C29;}
	.st146{fill:#E18A2B;}
	.st147{fill:#ED9125;}
	.st148{fill:#E88E27;}
	.st149{fill:#C5262E;}
	.st150{fill:#C52931;}
	.st151{fill:#C52830;}
	.st152{fill:#C62A31;}
	.st153{fill:#C52930;}
	.st154{fill:#C5252E;}
	.st155{fill:#C3252C;}
	.st156{fill:#C22128;}
	.st157{fill:#BF161E;}
	.st158{fill:#C11B23;}
	.st159{fill:#C11921;}
	.st160{fill:#C01820;}
	.st161{fill:#C21A22;}
	.st162{font-family:'MyriadPro-Regular';}
	.st163{font-size:32.9904px;}
</style>
<g>
	<path class="st0" d="M283,405.6c-6.7,0-13.3,0-20,0c-5.8-4.8-7.5-12-10.8-18.2c-1-1.8-1.9-3.8-1.9-6.2c-2.2,6.8-5.3,13.1-8.8,19.2
		c-1.2,2-2.3,4.1-4.5,5.2c-6.7,0-13.3,0-20,0c-0.3-0.4-0.4-0.8-0.3-1.3c1-2,2.7-3.6,3-6.1c0.6-4.8-0.4-5.7-5.2-4.6
		c-1.5,0.2-3,0.2-4.5-0.1c-6.6-4.1-7.2-10.9-1.6-17.3c0.3-0.4,0.6-0.9,0.1-1.4c-0.8-0.6-1.8-1-2-2.2c0.1-1.3,1-1.9,1.9-2.6
		c0.7-0.5,1.5-0.9,2.4-1c1.6,0,2.9-0.7,4.2-1.6c7.7-2.8,13.8-8.4,21.1-11.9c9.6,1.2,19.1-0.2,28.6-0.1c2.7,0.6,4.6,2.4,6.8,3.9
		c6.1,4.1,12.6,7.7,19.5,10.3c1.2,0.7,2.8,1,3.2,2.7c-0.7,2.4-3.1,2-4.7,3c-0.4,1.7,1.3,1.1,1.9,1.7c5.3,5.5,5,11.7-0.8,16.3
		c-1.7,0.6-3.5,0.6-5.3,0.4c-4.8-0.4-6.4,1.7-4.7,6.4c0.6,1.6,1.9,2.6,2.6,4.2C283.4,404.8,283.3,405.2,283,405.6z"/>
	<path class="st0" d="M209.9,374.6c0.3,0.4,0.6,0.9,0.8,1.3c-2.4,0.3-4.5,1-5.8,3.3c-3.6,6.4-9.2,10.8-15.2,14.6
		c-2.8,1.7-4,3.1-0.9,5.8c1.8,1.5,3,3.7,1.1,6.1c-1.3,0-2.7,0-4,0c-1.8-2.2-3.5-4.4-6.8-4.2c-1.3,0.1-2.9,0.2-3.4-1.3
		c-0.6-1.9,0.8-3.1,2.1-4.1c3.8-2.9,8-5.2,11.1-7c-7.1,3.2-16.1,5.9-17.9,16.6c-1,0-2,0-3,0c-0.9-0.8-1-1.9-1.2-3.2
		c-1.2,1.3-1.8,2.4-2.8,3.2c-9.7,0-19.3,0-29,0c-0.8-0.6-1.7-1.1-1.9-2.2c-0.6-4,1.3-6.8,4.4-8.9c1.5-1.2,3.4-1.6,4.8-3
		c4.9,0.3,10,1.2,12.6-4.6c-0.4-0.8-1.5-0.9-1.6-0.5c-1.9,5.8-6.6,5.4-11.2,5.2c-1.1,1.2-2.9,1.3-4.1,2.4c-2.4,1.6-5,2.9-5.2,6.3
		c-0.9,1.7-1,3.6-1.8,5.4c-10,0-20,0-30,0c11.4-17.7,28.3-26.7,48.8-28.9c15.3-1.7,30.8-2.2,46.2-3.2c2.2-1.7,4.9-1.2,7.4-1.8
		c0.5,0,1,0.1,1.5,0.3C206.2,373.6,208,374.3,209.9,374.6z"/>
	<path class="st0" d="M290.3,377.5c-2.1,0.1-3.4-0.4-2.3-2.9c2.4-1,5.5,0.1,7.4-2.4c0.5-0.3,0.9-0.4,1.5-0.6c2.7-0.6,5.3,0.8,8,0.6
		c6-0.3,12,0.3,18,1c2.1-0.1,4.2,0,5.9,1.4c9.4,1.3,18.8,1.3,28.1,3.2c17.8,3.5,32.5,11.8,42.1,27.8c-10.3,0-20.7,0-31,0
		c-1-3.6-1.2-7.4-4.1-10.2c-1-0.9-2.2-1.5-3.4-2.1c-1.2-0.7-2.5-1-3.8-1.4c-1.1-0.4-2.3-0.4-3.4-0.3c-3,0.3-5.2-0.5-5.8-3.8
		c-0.2-1-0.7-1.9-2.4-1.4c1,3.1,2.4,5.5,6.3,5.2c1.5-0.1,2.9-0.1,4.4,0.1c1.3,0.4,2.7,0.7,4,1.3c1.2,0.7,2.5,1.2,3.6,2.1
		c1.3,1.1,2.3,2.3,2.2,4.1c-0.4,1.7-0.5,3.4-0.2,5.1c0,0.5-0.2,0.8-0.5,1.2c-9.7,0-19.3,0-29,0c-1-1-2.2-1.8-2.7-3.4
		c-0.4,1.2-0.2,2.6-1.3,3.4c-1,0-2,0-3,0c-2.4-10.6-11.7-13.7-19.8-18c-1.1-0.3-1.8-1.6-3.1-1c-0.1,0.1,0.2,0.8,0.3,1.3
		c-0.2,0.7-0.7,1.1-1.4,1.2c-4.6-1.5-6.6-5.5-9.4-8.9C294.2,378.6,293.4,375.7,290.3,377.5z"/>
	<path class="st1" d="M237,405.6c5.2-8.4,9.7-17.1,13.2-28c2.8,11.1,7.9,19.5,12.8,28C254.3,405.6,245.6,405.6,237,405.6z"/>
	<path class="st2" d="M190,405.6c0.1-3.9,0.1-3.9-5.8-9.4c7.9-5.2,16.1-10,20.5-19c1.4-2.8,3.9-1.7,6.2-1.3
		c-6.6,5.4-7,11.8-0.9,16.9c0.6,0.6,0.6,1.2,0.3,2c-6.1,2.6-11.1,6.9-16.3,10.9C192.7,405.6,191.3,405.6,190,405.6z"/>
	<path class="st3" d="M290.3,377.5c-0.2-0.6-1.4-1.5,0.2-1.7c2-0.4,3.8-0.2,5,2.1c2.3,4.2,5.1,8.1,9.2,10.9c3.5,0.8,6,3.3,8.8,5.2
		c2.2,1.5,2,3.3,0.3,4.9c-2.1,2-3.2,4.5-4.8,6.8c-1,0-2,0-3,0c-5-3.5-9.4-7.9-15.2-10.3c-0.7-0.7-1.2-1.5-0.8-2.6
		C295.5,387.6,295.6,382,290.3,377.5z"/>
	<path class="st4" d="M171,405.6c-0.7-5.9,2-10,7-12.6c4.5-2.4,9.2-4.6,13.9-6.9c0.4-0.2,0.9-0.1,2-0.2c-2.2,3.2-5.3,4.3-7.9,6
		c-2.5,1.7-5.1,3.1-7.5,4.8c-1.1,0.8-3.1,1.7-2.3,3.4c0.7,1.5,2.4,0,3.5,0.1c3.3,0.3,6.3,1.2,6.2,5.4C181,405.6,176,405.6,171,405.6
		z"/>
	<path class="st5" d="M309.1,386.6c4.4,2.3,8.9,4.4,13.1,6.9c4.6,2.7,7.4,6.6,6.8,12.2c-5,0-10,0-15,0c-0.8-4.4,0.5-5.8,7-7.1
		c-3.3-3.1-7.2-4.9-10.7-7.2c-1.6-1.1-3.9-1.5-3.7-4.1C307.2,386.2,308.1,385.9,309.1,386.6z"/>
	<path class="st6" d="M194,405.6c3.9-5.7,9.1-9.6,15.9-11.1c1-0.8,2.2-0.9,3.5-0.8c3.7,1.8,0.8,3.2-0.4,4.2c-2.3,2-2.8,4-0.8,6.4
		c0.2,0.5,0.1,0.9-0.2,1.3C206,405.6,200,405.6,194,405.6z"/>
	<path class="st7" d="M291,394.6c6.1,2.2,11.3,5.7,15,11.1c-6,0-12,0-18,0c-0.3-0.3-0.5-0.7-0.3-1.1c0.6-1.2,1.6-1.9,2.7-2.5
		c0.4-0.4,1-0.7,0.9-1.5c-0.5,0.2-1,0.5-1.5,0.1c-0.6-0.3-1.1-0.7-1.6-1.2c-1.3-1.6-5.1-2.2-3.8-4.7
		C285.5,392.6,288.7,393.5,291,394.6z"/>
	<path class="st8" d="M307,387.6c5.3,4.5,12.4,6.5,17.5,12.6c-4.5,0.9-10.6-2.3-10.5,5.4c-1.7,0-3.3,0-5,0c-0.8-4.7,3.1-6.5,6-9.2
		c-3.4-2.8-7.6-4.3-10.3-7.7c0.4-0.3,0.9-0.7,1.3-1C306.2,387.4,306.6,387.3,307,387.6z"/>
	<path class="st9" d="M247.9,7.8c0-0.3,0-0.7,0.1-1c1,0,2,0,3,0c-0.1,0.4-0.1,0.7-0.2,1.1c0.4,10,0.1,20.1,0.2,30.1
		c0,1.3,0,2.7-0.8,3.8c-3.2-0.4-2.1-3-2.1-4.6C247.9,27.4,248.1,17.6,247.9,7.8z"/>
	<path class="st10" d="M364.9,405.6c0-0.3-0.1-0.7-0.1-1c-0.2-1.7,0.3-3.3,0.1-5c0.1-1.8-1.4-2.6-2.1-3.9c-0.1-1,0-1.7,1.3-1.2
		c3.1,2.2,5.2,8.5,3.7,11.1C366.9,405.6,365.9,405.6,364.9,405.6z"/>
	<path class="st11" d="M164,405.6c0.2-2.4,1.6-4.1,3.7-6.2c0.1,2.5,0.2,4.3,0.3,6.2C166.7,405.6,165.3,405.6,164,405.6z"/>
	<path class="st12" d="M332,405.6c0-1.8,0-3.6,0-5.7c2.5,1.4,3.2,3.6,4,5.7C334.6,405.6,333.3,405.6,332,405.6z"/>
	<path class="st13" d="M134,403.6c0.3,0.7,0.7,1.3,1,2c-1.3,0-2.7,0-4,0c-1.1-1.9-0.8-3.6,1-5C134.6,400.3,132.7,403,134,403.6z"/>
	<path class="st14" d="M212,405.6c-0.1-0.3-0.2-0.5-0.2-0.8c1.7-1.7,3.4-1.6,5.2-0.2c0,0.3,0,0.7,0,1
		C215.3,405.6,213.7,405.6,212,405.6z"/>
	<path class="st15" d="M288.1,404.8c0,0.3-0.1,0.6-0.1,0.9c-1.7,0-3.3,0-5,0c0.1-0.3,0-0.6-0.1-0.9
		C284.6,403.2,286.4,403.1,288.1,404.8z"/>
	<path class="st16" d="M81.7,228.6c-7.7,0.7-15.4,1.4-23.2,2c-2.8,0.2-5.6,0.8-8.4-0.2c-0.3-1.4-0.1-2.6,0.9-3.7
		c2.4-0.2,4.9,0,7.2-0.9c0.5-0.7,1.1-0.6,1.7-0.2c7-0.6,13.9-1.3,20.9-1.8c2.1-0.1,5.4-1.8,5.9,1.4
		C87.4,228.8,83.4,227.4,81.7,228.6z"/>
	<path class="st16" d="M449.8,229.5c-4.9,1.1-9.8,0-14.7-0.6c-7-0.8-14.1-1.6-21.1-2.4c-1.2-1.2-0.9-2.3,0-3.5
		c8.8-0.5,17.3,1.5,26,2c2.6,0.1,5.2,0.5,7.9,0.7C449.1,226.7,450.4,227.6,449.8,229.5z"/>
	<path class="st17" d="M328.7,374.7c-1.9-0.1-3.9-0.1-5.8-0.2c-3.8-3.9-8.5-1.2-12.8-1.8c-4.2,0.2-8.4-0.2-12.6-0.5
		c-2.2-0.5-4.4-0.8-6.6-1.4c-9.2-2.9-17.3-7.9-24.8-13.9c2.2-2.3,5.2-1.9,7.9-2.3c27.3-4.3,51.6-15.7,72.9-32.8
		c19.3-15.5,32.7-35.7,41.8-58.7c0.5-1.4,1.4-2.7,0.4-4.2c-1.6-1.4-3.4-0.3-5.1-0.2c-1.4,0.1-2.8-0.1-3.8-0.9
		c-5.2-4.4-11.6-5.4-18-6.6c-0.8-0.2-1.6-0.3-2.4-0.6c-1.5-0.7-3.3-1.4-3-3.4c0.2-1.8,1.9-2.1,3.4-2.4c1.8-0.3,3.6-1,5.4-0.9
		c7.7,0.6,13.5-4.1,19.9-7c2.3-1,1.5-2.6,0.8-4.1c-1.8-3.6-2.5-7.3-0.6-11c1.5-3,4-4.6,7.3-4.2c2.8,0.3,5.2,1.3,5.4,4.7
		c-0.5,1.7-1,3.3-2,4.7c-0.9,1.8-4,3.1-1.1,5.8c1-1.9,0-4.1,1.3-5.8c1-1.4,1.5-3,2-4.7c1.4-24.2-0.9-48-10.9-70.3
		c-23.5-52.8-63.8-83.7-121.3-91.8c-3.6-0.5-7.2-1-10.9-0.8c-3.6,0-7.1,0-10.6,0c-26.8,0.6-51.6,8-74.2,22.2
		c-38.4,24.1-61.4,58.7-69.5,103.2c-1.9,10.4-2,20.8-1.7,31.3c0.1,2.7,0.3,4.8,4,2.6c4.7-2.7,7.3-1.6,10.2,3.9
		c-0.1,2.5-0.4,5,0.2,7.5c0.1,0.8,0,1.7-0.4,2.4c-1.3,2.4-0.4,3.4,1.9,4.9c6.7,4.4,14,6.5,21.9,6.8c1,0,2,0.3,2.9,0.5
		c1.3,0.4,2.7,0.8,2.8,2.4c0.2,1.6-1.1,2.2-2.3,2.9c-0.3,0.2-0.6,0.3-0.9,0.4c-8.1,1.6-16,4.1-23.2,8.2c-2.1-0.3-4.3-0.7-6.4,0.1
		c-2.3,0.6-1.6,2-1,3.5c5.1,13.1,12.2,25,20.7,36.2c18.9,24.9,44.1,40.5,73,50.7c9,3.2,18.3,4.8,27.7,6.3c1.6,0.2,3.4-0.2,4.4,1.6
		c-5.9,5-12.5,8.9-19.7,11.7c-1.4,0.5-2.7,1.5-4.3,1.1c-0.6,0.3-1.1,0.7-1.7,1c-2.1,1.1-4.6,0.8-6.8,1.5c-4.8,1-9.6-0.3-14.3-0.4
		c-15.8-0.8-28.4-7.5-37.6-21.4c-2.1,2.9-4,5.5-5.9,8.1c-2.8,3.9-5.6,7.9-8.4,11.8c-1,1.4-2.1,2.8-4.1,1.3c-1.8-1.4-1.2-2.8-0.1-4.3
		c4.3-5.7,8.3-11.7,12.8-17.2c2.3-2.9,2.3-5.2,0.8-8.5c-7.3-16.4-15.8-31.9-29.2-44.2c-2.4-2.2-4.3-5.1-7.3-6.7
		c-0.7-0.5-2.3,0.1-1.9-1.7c-4.3-5.6-10.2-9.8-14.1-15.9c-4.9-7.6-4.9-7.5-13.8-4.7c-2.2,0.7-5.6,3.4-6.9-0.1
		c-1.5-4.1,3.2-3.6,5.4-4.8c1.1-0.6,2.5-1.1,3.8-1.3c4.6-0.6,6.4-3,6.6-7.9c0.4-7.9,0.9-7.9-5.2-12.6c-0.9-0.7-1.8-1.5-1.9-2.8
		c0.1-1.4,0.2-2.8-0.1-4.1c3.1-5.1,6.2-5.5,9.3-1c-0.2,1.3,0,2.7-0.3,4c-0.3,0.6-0.5,1.1-0.8,1.7c1,1.6,2.6,0.6,3.9,0.9
		c0.6,0.1-0.6-0.3-0.3-0.7c1.5-0.9,3.5-1.2,2.6-3.9c-0.7-2.1,0.1-4.8-3.4-5.1c-1.7-0.1-2.9-1.5-3.9-2.8c-0.5-3.2,0-6.1,3.4-7.5
		c2.7-1.1,1.7-3.3,1.6-5.2c-0.5-23.7,2.5-47,12.7-68.6c22.6-48.3,59.2-79.8,111.9-91.5c0.5-0.1,1-0.1,1.5-0.1
		c0.5,0.4,1.2,0.4,1.8,0.4c0.5,0,1,0,1.5,0.2c-0.5-0.4-1.3-0.1-1.6-0.8c12.7-3.1,25.7-3.4,38.6-2.6c26.5,1.6,51.4,8.9,73.6,23.8
		c37.3,25,61.9,58.8,70.5,103.4c0.3,1.8,0.4,3.6,0.5,5.4c-0.7,0.6-0.5,1.5-0.6,2.3c-0.1,0.7,0.7,0.4,0,0.3c0.1-0.9-0.2-1.9,0.5-2.7
		c1.7,5.9,1.5,12,1.9,18.1c-0.7,4.7-0.7,9.3,0,13.9c0,1.8,0.8,2.9,2.6,3.6c1.9,0.7,3.5,1.9,3.6,4.2c0.5,0.8,0.4,1.5-0.1,2.2
		c-0.4,1-0.7,1.9-1.1,2.9c-0.3,0.8-0.8,1.4-1.6,1.8c-4.8,2.5-4.8,2.5-2.2,7.2c0.3,0.3-0.2,1.1,0.4,1.1s1.3-0.3,1.5-1.1
		c-1.2-3.5-1.1-6.5,3-7.9c2.8-0.2,5.5-0.1,6.9,3c0,2,0.1,4-0.1,5.9c-1.4,3-4.3,3.2-7,3.9c-1,0.3-3.1,0.1-2.5,1.6
		c1.4,3.5,2,7.4,3.4,10.8c1,2.3,4,1.9,6.1,2.7c2.6,1,5.4,1.7,8,2.7c2.1,0.8,3.3,2.2,1.2,4.3c-1,0.1-2-0.8-3-0.1
		c-4.3-0.1-8.8-4.4-12.1-2.5c-3.2,1.8-4.2,7.2-6.6,10.7c-3.3,4.9-7.4,9.2-12.1,12.9c-1.7,0.3,0.3,3.4-2.3,3
		c-13.5,11.9-25.5,24.8-32.2,41.9c-0.4,1.1-0.8,2.3-1.5,3.1c-6.2,7.6-4.1,14.1,2.1,20.6c3.2,3.3,5.6,7.4,8.3,11.2c1,1.4,2,3,0.1,4.3
		c-2,1.4-3-0.3-4-1.6c-4.2-5.6-8.3-11.2-12.4-16.9c-1.4-2-2.3-2.3-3.9-0.1c-5.2,7.1-11.6,12.7-19.8,16.3
		C324.5,370.5,328.7,372.7,328.7,374.7z"/>
	<path class="st18" d="M184.2,55.9c0.1,1.2-0.4,2-1.5,2.2c-1.7,0.4-2.4-0.8-2.9-2c-2.6-5.7-5.3-11.4-7.9-17.1
		c-1.7-3.6-3.4-7.2-4.9-10.9c-0.5-1.2-0.6-2.7,0.8-3.5c1.5-0.9,2.6,0.1,3.2,1.4c4.4,9.6,8.7,19.3,13,29
		C184.1,55.3,184.1,55.6,184.2,55.9z"/>
	<path class="st18" d="M317,57.8c-1.9-0.4-2.4-1.5-1.6-3.2c4.2-9.7,8.4-19.4,12.7-29.1c0.6-1.3,1.6-2.3,3.2-1.5s1.8,2.1,1,3.7
		c-4.4,9.4-8.7,18.9-13.1,28.4C318.8,57,318.2,57.8,317,57.8z"/>
	<path class="st19" d="M128.2,97c-0.4,2.2-1.9,2.4-3.6,1.4c-1.4-0.8-2.5-2.1-3.8-3.2c-6.2-5.6-12.4-11.1-18.5-16.7
		c-1.4-1.3-3.6-3-1.8-5c1.7-1.9,3.3,0.4,4.5,1.5c7,6.2,13.9,12.4,20.7,18.7C126.8,94.6,128.1,95.3,128.2,97z"/>
	<path class="st20" d="M371.9,97.8c-2.3-1.8-0.3-2.9,0.8-3.9c7.2-6.6,14.5-13.2,21.8-19.7c1.4-1.2,3.1-2.7,4.7-0.7
		c1.7,2-0.6,2.9-1.7,3.9c-7.5,6.8-15.1,13.5-22.7,20.2C373.9,97.3,372.9,97.9,371.9,97.8z"/>
	<path class="st18" d="M409,157.9c-1.7,0-2.9-0.1-3.2-1.6c-0.2-1.2,0.7-1.8,1.7-2.2c10.2-3.5,20.4-6.9,30.6-10.3
		c1.2-0.4,2.4-0.1,2.9,1.2s0.1,2.4-1.2,2.8C429.3,151.3,418.9,154.7,409,157.9z"/>
	<path class="st20" d="M63.1,145.6c9.5,3,18.9,5.9,28.4,8.9c1.6,0.5,2.8,1.3,2.2,3.2c-0.5,1.4-1.7,1.5-2.9,1.1
		c-10.4-3.4-20.9-6.1-31.1-10.3c-0.2-0.1-0.3-0.5-0.5-0.8C59.9,145.8,61.6,145.8,63.1,145.6z"/>
	<path class="st21" d="M89.3,114.6c0.8,0.4,2,0.9,3.1,1.5c4.4,2.4,8.7,4.9,13,7.3c1.3,0.8,2.6,1.8,1.7,3.6c-0.8,1.5-2.3,1.2-3.5,0.6
		c-5.2-2.9-10.4-5.9-15.5-9c-1-0.6-1.8-1.6-1.3-2.9C87.1,114.7,87.9,114.5,89.3,114.6z"/>
	<path class="st20" d="M153.3,74.1c-0.1,1.2-0.8,1.9-1.7,2.4c-1.1,0.6-2-0.1-2.6-0.9c-3.7-4.9-7.3-9.9-10.8-14.8
		c-0.8-1.2-0.9-2.6,0.4-3.5c1-0.7,2-0.2,2.6,0.7c3.9,5,7.7,9.9,11.6,14.9C153,73.2,153.1,73.7,153.3,74.1z"/>
	<path class="st18" d="M209.6,24.9c1.9,0.1,2.4,1.6,2.7,3.1c1.2,5.3,2.4,10.7,3.6,16c0.4,1.6,0.4,3.2-1.5,3.6
		c-1.6,0.3-2.4-0.9-2.7-2.3c-1.3-5.8-2.6-11.6-3.9-17.5C207.5,26.4,207.7,25.1,209.6,24.9z"/>
	<path class="st9" d="M359.9,57.1c-0.4,0.8-0.7,1.6-1.2,2.3c-3.3,4.6-6.6,9.1-9.9,13.6c-0.8,1.1-1.8,2.4-3.2,1.5
		c-1.7-1-1.1-2.6-0.2-3.9c3.3-4.8,6.5-9.5,10-14.2c0.7-1,1.7-2.3,3.3-1.4C359.2,55.4,359.4,56.4,359.9,57.1z"/>
	<path class="st22" d="M284,28.8c0.1-0.8,0.1-1.7,0.3-2.4c0.4-1.2,0.7-2.9,2.5-2.4c1.4,0.4,2.1,1.7,1.9,3.1
		c-1.2,6.2-2.5,12.3-3.8,18.4c-0.2,1-0.8,2-2,1.8c-1.8-0.3-2.4-1.8-2.1-3.4c0.9-4.5,1.9-9,2.9-13.5c0.4,0.2,0.6,0.6,0.6,1
		C284.5,30.6,284.6,29.6,284,28.8z"/>
	<path class="st9" d="M411,114.8c-4.9,4.5-11.2,7-16.7,10.5c-1.1,0.7-2.3,0.6-3-0.6c-0.8-1.3,0.1-2.4,1-3c5.9-3.3,11.1-7.8,17.6-9.9
		C410.7,112.7,410.9,113.7,411,114.8z"/>
	<path class="st23" d="M81,193.8c-4.8-0.4-9.6-0.7-14.4-1.2c-1.5-0.1-3.3-0.7-3.3-2.4c0-1.9,1.8-2.1,3.4-2
		c5.8,0.6,11.6,1.1,17.3,1.9c2.3,0.3,4.7,1.4,0.9,3.6C83.7,193.5,82.3,193.3,81,193.8z"/>
	<path class="st16" d="M418.7,186.6c4.7-1.7,9.8-1.5,14.7-2.2c1.2-0.2,2.5,0.3,2.7,1.6c0.2,2-1.3,2.5-2.9,2.7
		c-5.4,0.7-10.9,1.4-16.3,2c-1.6,0.2-3.9,0.6-4-1.7c-0.1-2.5,2.1-2.5,4-2.3c0.5,0.5,1.2,0.5,1.8,0.5c0.5,0,1,0,1.4,0.1
		C419.7,187,419,187.3,418.7,186.6z"/>
	<path class="st24" d="M247.9,7.8c1.7,1.4,1,3.4,1,5.1c0.1,8.1,0,16.2,0.1,24.3c0,1.6-0.6,3.3,1,4.6c0.4,0.2,0.7,0.5,0.9,1
		c-2.1,1.9-3.6,0.7-3.6-1.4C247.5,30.2,246.2,19,247.9,7.8z"/>
	<path class="st25" d="M250.9,42.8c-0.3-0.3-0.6-0.7-0.9-1c0-9.7,0-19.5,0-29.2c0-1.6-0.5-3.3,0.8-4.7c1.5,5.5,0.7,11.1,0.6,16.7
		C251.4,30.6,252.3,36.8,250.9,42.8z"/>
	<path class="st26" d="M405.9,216.7c-1.5-4.6-1.5-9.3,0-13.9C406.3,207.4,406.3,212.1,405.9,216.7z"/>
	<path class="st27" d="M63.1,145.6c-0.8,1.5-2.8,1.1-3.9,2.1C59.2,144.6,59.4,144.5,63.1,145.6z"/>
	<path class="st28" d="M411.9,226.7c0-0.7,0.1-1.5,0.1-2.2c0.7-0.5,1.3-1,2-1.6c0,1.2,0,2.3,0,3.5
		C413.4,226.6,412.7,226.6,411.9,226.7z"/>
	<path class="st29" d="M81,193.8c1.3-1.5,2.6-1.4,4-0.1C83.7,194.7,82.4,194.4,81,193.8z"/>
	<path class="st30" d="M411,114.8c-1.2-0.7-1.1-1.9-1.1-3C412.2,112.1,412,113.3,411,114.8z"/>
	<path class="st31" d="M371.9,97.8c0.9-1.2,1.9-1.3,2.9-0.2C374,98.5,373,99.2,371.9,97.8z"/>
	<path class="st32" d="M418.7,186.6c0.7,0.1,1.5,0.3,3,0.5c-2.2,0.7-3.5,1-4.7-0.4C417.5,186.7,418.1,186.7,418.7,186.6z"/>
	<path class="st27" d="M284,28.8c1.4,1.1,0.8,2.5,0.9,4.1c-1.3-0.7-0.7-1.8-1.1-2.4C283.9,29.9,283.9,29.4,284,28.8z"/>
	<path class="st33" d="M220.8,54.7c0.8,0.1,1.5,0.2,3.2,0.5c-2.4,0.8-3.7,1-4.9-0.3C219.6,54.8,220.2,54.7,220.8,54.7z"/>
	<path class="st18" d="M107.1,288.8c0.6,0.6,1.3,1.1,1.9,1.7c-1.1,2-2.5,3.5-4.6,4.7c-8,4.4-15.9,9-23.9,13.4c-1.4,0.8-3,2.2-4.2,0
		c-0.9-1.7,0.3-2.9,1.6-3.6C87.6,299.6,96.9,293.5,107.1,288.8z"/>
	<path class="st34" d="M127.6,318.2c0.9-0.2,1.3,0.3,1.6,0.9c0.6,0.9,0.7,1.9-0.2,2.7c-4.8,4.3-9.6,8.7-14.4,12.9
		c-1,0.9-2.2,0.5-3.1-0.5c-0.8-1-0.4-1.9,0.4-2.6c4.8-4.3,9.6-8.6,14.4-12.8C126.7,318.5,127.2,318.4,127.6,318.2z"/>
	<path class="st35" d="M188,371.8c5-0.1,10-0.2,15-0.2c1-0.3,1.2,0.1,0.9,1c-2.5,1.3-5.2,1.1-7.9,1
		C193.6,371.5,190.3,373.9,188,371.8z"/>
	<path class="st36" d="M80.9,234.6c1.6,1.3,1.6,2.7,0.1,4.1C79.8,237.4,79.9,236,80.9,234.6z"/>
	<path class="st37" d="M89.9,237.7c-1.2-1.4-1.2-2.7,0.3-4C91.2,235.1,91.2,236.4,89.9,237.7z"/>
	<path class="st38" d="M92.7,239.5c0.3,0.1,0.7,0.1,0.9,0.3c0.5,0.3,0.5,0.8-0.2,0.8c-1.5-0.1-3.4,0.8-4.3-1.3
		C90.3,239.4,91.5,239.5,92.7,239.5z"/>
	<path class="st20" d="M391.8,289.8c1.1-0.7,0.3-3,2.3-3c-0.6,2.1,1.4,2,2.3,2.6c8.2,4.9,16.4,9.6,24.5,14.4c1.6,1,4.3,2,2.8,4.3
		c-1.3,2-3.3,0.3-4.8-0.6c-7.9-4.6-15.8-9.2-23.7-13.8C393.7,292.7,391.8,292,391.8,289.8z"/>
	<path class="st21" d="M391.1,330.3c-0.9,2-1.9,3.2-3.8,1.6c-4.6-3.9-9.1-7.8-13.6-11.8c-1.1-1-1.4-2.4-0.5-3.6s2.2-0.6,3.1,0.1
		c4.7,4,9.3,8,14,12.1C390.6,329.2,390.8,329.9,391.1,330.3z"/>
	<path class="st33" d="M418.8,239.7c-1.3-2-1.3-4,0.1-5.9C420.3,235.7,420.3,237.7,418.8,239.7z"/>
	<path class="st36" d="M424.9,265.6c1.1-1.3,2.1-1.2,3,0.1C426.9,267.1,425.9,266.1,424.9,265.6z"/>
	<path class="st39" d="M234.9,357c-35.4-3.8-66.3-17.8-92-42.3c-15.7-15-27.9-32.5-35.4-53.1c-1.1-2.9-1-4.3,2.5-3.8
		c2-0.2,4,0,6-0.1c7.2-5,15.5-7.1,23.9-8.7c1.1-0.2,2.6-0.6,2.5-2s-1.7-1.3-2.8-1.4c-2.3-0.3-4.6-0.6-6.9-0.8
		c-5.2-0.5-10.7-0.4-14.5-5c-0.3-0.4-0.8-0.7-1.3-0.7c-7-0.8-6.9-4.5-3.9-9.4c0.2-2.3-0.4-4.6-0.1-6.9c-3.3-5.6-6.2-6.2-10.4-2
		c-2.4,2.4-3.3,1.2-4-1c-0.4-1.2-0.4-2.6-0.4-3.9C95.3,140.6,145.7,76,219.4,60.7c8.2-1.7,16.4-2.9,24.7-2.8c4,0.7,8,0.7,11.9,0
		c36.7,1.5,68.5,15,95.5,39.7c28,25.7,43.8,57.8,48.1,95.4c1.1,9.8,1.4,19.9-0.6,29.7c-0.4,0.3-0.8,0.3-1.2,0
		c-0.5-3.2-2.6-4.6-5.6-4.4c-3.4,0.2-5.3,2.6-6.1,5.7c-0.9,3.8,0.4,7.2,2.5,10.4c1.3,2,0.9,2.9-1.4,3.2c-1.1,0.2-2.5,0.3-3.3,1
		c-6.8,6.1-15.4,6.2-23.7,7c-1.2,0.1-2.5,0.2-2.9,1.5c-0.2,0.8,0.7,1.5,1.6,1.7c9.2,1.4,17.7,4.7,25.9,9c1.7-0.1,3.4-0.1,5.1,0
		c3.7,0.9,0.9,3,0.5,4.1c-5.6,15-13.4,28.9-23.6,41.3c-26.2,31.7-60.5,48.2-100.8,53.6C255.7,357,245.3,357.9,234.9,357z"/>
	<path class="st40" d="M288.1,404.8c-1.7,0-3.5,0-5.2-0.1c-3.6-1.6-4.3-4.8-4.1-8.2c0.1-3.3,0-7.1,5.4-4.2c1.6,0.8,3.9,0.3,5.8,0.4
		c0.3,0.6,0.6,1.2,1,1.8c-2,0.1-4-0.5-6.3,0.4c2,2.1,5.4,2.8,6.3,5.8c0.6,0.6,0.7,1.1-0.1,1.6C289.9,403.2,289,404,288.1,404.8z"/>
	<path class="st41" d="M217,404.6c-1.7,0.1-3.4,0.1-5.2,0.2c-3.7-3-3.7-4.9-0.1-7.5c1-0.7,2.7-0.6,2.9-2.2c0-0.2-0.4-0.4-0.6-0.7
		c-0.6-1.1,0.4-1.3,1-1.7c4.9-2.3,6.1-1.5,6,4C221,400.1,220.1,402.9,217,404.6z"/>
	<path class="st42" d="M233.6,371.1c-1,6.1-3.9,7.5-12.8,6.2C225.4,376.1,229.2,373.4,233.6,371.1z"/>
	<path class="st43" d="M266,371.1c4.2,2.3,7.7,4.6,12.6,6.2C269.8,378.4,267.4,377.2,266,371.1z"/>
	<path class="st44" d="M238.2,384.3c-2.6,3.3-4.5,5.7-6.4,8.1C231.2,388.1,233,385.7,238.2,384.3z"/>
	<path class="st13" d="M268.7,393.4c-2.8-3.5-4.7-5.9-7-8.9C266.4,385.6,268.8,387.8,268.7,393.4z"/>
	<path class="st45" d="M261,368.4c-0.7-0.8-2-1.2-2-2.6c0.9-1,1.8-0.9,2.8-0.1c0.5,1.5,4.2-0.8,3.1,2.6
		C263.7,369.6,262.4,369.5,261,368.4z"/>
	<path class="st46" d="M284.1,385.4c-1.5-2.8-1.4-4.5,0.2-6.3C285.5,381,285.1,382.7,284.1,385.4z"/>
	<path class="st47" d="M235,368.6c-0.7-3.7,2.4-1.9,3.7-2.2c1.7-0.4,1.4,0.7,0.3,1.5C237.9,369.2,236.6,369.7,235,368.6z"/>
	<path class="st48" d="M296,372.9c-2.3,2.1-5.2,1.7-8,1.7c1.7-1.8,4.3-0.5,6.1-2C294.8,372.1,295.5,372.1,296,372.9z"/>
	<path class="st49" d="M215,392.8c-0.3,0.6-0.6,1.2-1,1.7c-1.4,0-2.7,0-4.1,0c0-0.6,0-1.1,0-1.7C211.6,392.8,213.3,392.8,215,392.8z
		"/>
	<path class="st50" d="M203.9,372.5c-0.3-0.3-0.6-0.7-0.9-1c2-1.1,4.1-1,6.2-0.9c-0.8,0.6-1.6,1.1-2.3,1.7c-0.4,1.1-1.1,0.8-1.8,0.5
		C204.7,372.7,204.3,372.6,203.9,372.5z"/>
	<path class="st51" d="M227.8,379.5c-2.2,0-4.4,0-6.6,0c0-0.2,0-0.3,0-0.5c2.2,0,4.4,0,6.6,0C227.8,379.2,227.8,379.3,227.8,379.5z"
		/>
	<path class="st52" d="M296,372.9c-0.7-0.1-1.3-0.2-1.9-0.3c-1-0.6-2.1-1.2-3.1-1.9c2.1-0.1,4.2-0.3,6.1,0.8c-0.1,0.7-0.7,0.7-1.1,1
		V372.9z"/>
	<path class="st53" d="M216.2,381.7c0.5-0.4,0.9-0.8,1.4-1.1c0.1,0.7,0.3,1.5,0.4,2.2c0.1,1.5-0.8,1.4-1.8,0.9
		C215.4,382.9,215.3,382.3,216.2,381.7z"/>
	<path class="st54" d="M216.2,381.7c0,0.7,0,1.3-0.1,2c-0.2,0.6-0.3,1.6-0.8,1.7c-0.8,0.3-0.9-0.3-0.7-1.1c0.4-1.4,0.5-2.8,0.7-4.2
		C216.3,380.3,216,381.1,216.2,381.7z"/>
	<path class="st53" d="M235,368.6c1.5,0.4,2.7-0.2,4-0.8c-0.1,1-0.2,1.9-0.3,2.9C237.4,370,236.2,369.3,235,368.6z"/>
	<path class="st55" d="M205,372.8c0.6-0.2,1.2-0.3,1.8-0.5c0.5,1.6,2.5,1,3.1,2.3C208.1,374.6,206.1,375,205,372.8z"/>
	<path class="st56" d="M261,368.4c1.3,0,2.6-0.1,3.9-0.1c-0.6,1.6-2.5,1.4-3.5,2.4C261.3,370,261.2,369.2,261,368.4z"/>
	<path class="st57" d="M210.9,369.7c1.4-0.7,2.8-1.3,4.3-1.1C213.9,369.5,212.8,371.3,210.9,369.7z"/>
	<path class="st58" d="M261.8,365.7c-0.9,0-1.9,0.1-2.8,0.1c0.7-1.5,2.1-1.2,3.4-1.2c0.5,0,0.9,0.3,0.4,0.8
		C262.5,365.7,262.1,365.6,261.8,365.7z"/>
	<path class="st59" d="M142,391.6c1.7-1.6,3.8-0.9,5.7-0.9c1.6,0,2.8-0.4,2.9-1.9c0.6-6.3,3.8-4.6,7.2-2.5
		C153.8,392.1,148.9,394.9,142,391.6L142,391.6z"/>
	<path class="st60" d="M158.9,398.7c0.3,1.2-0.8,2.5-1.2,2.4c-4.2-1.1-8.3,0.6-12.5,0.5c-0.7,0-1.3-0.4-1.2-1.2
		c0.3-1.8,2.3-1.6,3.3-2.6C151.3,396.6,155.1,396.8,158.9,398.7z"/>
	<path class="st61" d="M178.4,388.3c-3.1,2.4-6.2,4.8-9.4,7.2c-0.9,0.6-2,1.8-3,0.7c-1.2-1.4,0.3-2.4,1.2-3.2
		C170.2,390.1,174,388.5,178.4,388.3z"/>
	<path class="st62" d="M135.1,387.7c3.1-0.2,5.4-2.3,8.3-3c1.2-0.3,2.7-1.8,3.5-0.3c0.9,1.6-1.1,2-2,2.8c-0.6,0.5-1.3,1-1.9,1.5
		C140.3,388.8,137.4,390.7,135.1,387.7z"/>
	<path class="st63" d="M157.9,395.7c-0.5-4.9,3.3-5.6,6.9-6.7c-1.3,2.4-2.6,4.8-3.9,7.1C159.5,398.1,158.8,396.8,157.9,395.7z"/>
	<path class="st64" d="M134,403.6c-0.7-1-1.3-2-2-3c-0.5-4.5,1.9-6.5,6-7.1c0.3,0.2,0.4,0.5,0.3,0.7c-0.1,0.2-0.2,0.3-0.3,0.3
		C135.7,397.2,133.4,399.8,134,403.6z"/>
	<path class="st65" d="M157.9,395.7c0.9,0.5,1.9,1.1,3,0.5c-0.1,1.3-0.9,2.1-2,2.6c-3.8-0.7-7.7-1.1-11.6-0.9c-0.5-2.3,1.3-1,2-1.1
		C152.2,396.3,155.2,397.3,157.9,395.7z"/>
	<path class="st66" d="M162.7,379.9c0.9,3.3-2,3.1-3.8,3.8c-0.3,0.1-1.2-0.5-1.4-1c-0.5-0.9,0.1-1.7,0.9-2c1.2-0.4,2.5-0.6,3.8-0.9
		L162.7,379.9z"/>
	<path class="st67" d="M118.7,402.5c-0.5,0-1.1,0.1-1.4-0.1c-0.9-0.7-0.1-1.2,0.4-1.3c2.6-0.4,5.1-0.7,7.7-1c0.2,0,0.6,0.6,0.8,1
		c-0.8,0.3-1.5,0.5-2.3,0.8C122.3,402.5,120.4,401.7,118.7,402.5z"/>
	<path class="st44" d="M172.9,381.7c-0.2,1-1.1,1.1-1.8,1.4c-0.9,0.3-2.2,1-2.7,0c-0.8-1.6,1.6-1.3,1.8-2.4
		C171.6,379.6,172.3,380.4,172.9,381.7z"/>
	<path class="st68" d="M135.1,387.7c2.3,2.6,5.3,0.1,7.9,1c-2.5,1.8-5.3,1-7.9,0.7C134,389.3,134.4,388.3,135.1,387.7z"/>
	<path class="st69" d="M172.9,381.7c-0.9-0.4-1.6-1.3-2.7-1c0.5-2,2-1.1,2.9-0.8C174.1,380.4,173.5,381.2,172.9,381.7z"/>
	<path class="st70" d="M138,394.6c0-0.3,0-0.7,0-1c1-1.5,2.5-1.6,4-1.9l-0.1-0.1C142.1,394.5,139.4,393.7,138,394.6z"/>
	<path class="st71" d="M162.7,379.9l-0.2,0.1l-0.2-0.1c-1.1-0.1-2.2-0.3-3.7-0.5c1.8-0.9,3.1-0.9,4.5-0.3c0.1,0,0,0.3,0,0.4
		C163,379.6,162.8,379.7,162.7,379.9z"/>
	<path class="st72" d="M118.7,402.5c1.7-0.9,3.5-0.7,5.3-0.7C122.4,403.2,120.5,402.6,118.7,402.5z"/>
	<path class="st73" d="M356,392.5c-5.8,1.1-10.8,0.1-13.5-5.9c4.2-3.5,4.9-3.5,6.4,1.7c0.6,2.2,1.6,2.5,3.5,2.4
		c1.6-0.1,3.3-0.4,4.8,0.8C357,392.1,356.4,392.2,356,392.5z"/>
	<path class="st74" d="M352.6,397.9c1,1,2.8,1,3.7,3.5c-5.6,0.1-10.6,0.5-15.3-2.7C344.7,396.4,348.7,396.7,352.6,397.9z"/>
	<path class="st75" d="M310.9,371.8c2.1-0.3,4.3-0.4,6.4-0.9c3.3-0.8,5.1,0.3,5.6,3.6c-6.3-0.3-12.6-0.7-18.9-1
		C305.8,370.6,308.8,373.2,310.9,371.8z"/>
	<path class="st76" d="M363.1,388.4c-3.2,0-5.8,0.2-8.3-0.1c-1.9-0.2-2.7-2.2-2.3-3.7c0.5-1.9,2.1-0.5,3.3-0.3
		C358.3,385,360.5,386.4,363.1,388.4z"/>
	<path class="st77" d="M327,389.6c3,1.1,5.8,2.4,6.9,5.7c0.1,0.3-0.5,1.1-0.6,1.1c-3-0.3-4.6-3-7-4.3c-0.5-0.3-0.9-0.9-1.4-1.4
		C324.8,388.8,325.8,389,327,389.6z"/>
	<path class="st63" d="M339.2,396.5c-1.8-2.4-2.7-5.3-4.7-7.6c3.8,0.7,7.7,1.4,7.4,6.8C341.3,396.9,340.6,397.8,339.2,396.5z"/>
	<path class="st78" d="M339.2,396.5c0.9-0.3,1.8-0.6,2.7-0.9c3.4,1.9,7.2,0.6,10.7,1.1c0.1,0,0.3,0.2,0.3,0.3
		c-0.1,0.3-0.2,0.6-0.3,0.8c-3.9-0.2-7.8,0-11.6,0.8C340.5,397.8,338.2,398.6,339.2,396.5z"/>
	<path class="st79" d="M310.9,371.8c-2,2-4.9-0.2-6.9,1.7c-2.7-0.3-5.4-0.6-8-0.9c0.4-0.3,0.7-0.7,1.1-1
		C301.7,371.6,306.3,371.7,310.9,371.8z"/>
	<path class="st80" d="M336.2,380.9c2.4-0.8,4.4-1.3,5.9,0.5c0.6,0.6,0.4,1.8-0.4,2.1C339.4,384.3,338.1,382.7,336.2,380.9z"/>
	<path class="st81" d="M330,381.3c0.9,0.4,2.7,1.3,1.1,1.9c-1.5,0.5-4.6,0.8-5.1-2.4C327.5,379.6,328.8,380.2,330,381.3z"/>
	<path class="st82" d="M307,387.6c-0.3,0.1-0.7,0.1-1,0.2c-0.9-0.8-1.9-1.7-3-2.7c2.8-1.2,4.4,0.2,6.1,1.5
		C308.3,386.7,307.4,386.7,307,387.6z"/>
	<path class="st83" d="M327,389.6c-0.9,0.1-1.7,0.2-2.1,1.1c-1.3-0.7-2.6-1.3-3.3-2.9C323.8,387.6,325.4,388.5,327,389.6z"/>
	<path class="st84" d="M365,399.6c1.1,1.7,0.8,3.4-0.1,5C363.5,402.9,363.4,401.2,365,399.6z"/>
	<path class="st85" d="M375,401.5c-1.7,0.1-3-0.4-4.1-2c1.6-1.2,2.7,0.4,3.9,0.2c0.4,0.1,0.6,0.4,0.7,0.8
		C375.5,400.9,375.3,401.3,375,401.5z"/>
	<path class="st86" d="M381.7,400.9c0.8,0.4,1.6,1.2,0.3,1.5c-1.7,0.5-3.6,0.4-5.2-0.6C378.1,399.8,380.1,401.3,381.7,400.9z"/>
	<path class="st87" d="M381.7,400.9c-1.4,1.4-3.3,0.3-4.9,0.9c-0.6-0.1-1.2-0.2-1.8-0.3c0-0.3,0-0.7,0-1c2-0.5,4-0.5,5.9,0
		C381.2,400.7,381.5,400.8,381.7,400.9z"/>
	<path class="st88" d="M356,392.5c0.4-0.3,0.8-0.7,1.2-1c1.4-0.1,2.5,0.8,3.6,1.4c0.1,0.8,0.1,1.4-1,0.8
		C358.6,393.3,357.3,392.9,356,392.5z"/>
	<path class="st53" d="M330,381.3c-1.3-0.2-2.7-0.4-4-0.5C327.5,379.4,329,378.6,330,381.3z"/>
	<path class="st89" d="M380.9,400.5c-2,0-4,0-5.9,0c0-0.3-0.1-0.5-0.2-0.8C376.8,399.9,379,398.9,380.9,400.5z"/>
	<path class="st90" d="M359.9,393.7c0.3-0.3,0.6-0.5,1-0.8c1.1,0.5,2.2,1.1,3.4,1.6c-0.4,0.4-0.9,0.8-1.3,1.2
		C361.9,395,360.9,394.4,359.9,393.7z"/>
	<path class="st71" d="M340.3,379.1c-1.4,0.6-2.3,0.6-3.5,0.1C337.9,378.5,338.9,378.5,340.3,379.1z"/>
	<path class="st91" d="M290.8,402.4c0-0.5,0.1-1.1,0.1-1.6c0.2-0.4,0.4-0.8,0.6-1.2c0.2,0.3,0.6,0.8,0.5,1
		C291.5,401.2,293.1,403,290.8,402.4z"/>
	<path class="st92" d="M102,225.3c7.6,5.1,7.6,5.1,1.1,10.1C102.8,231.9,103.4,228.7,102,225.3z"/>
	<path class="st93" d="M397.1,226.7c-0.2,2.8-0.3,5.6-0.5,8.8c-2.6-0.9-4.2-2.9-4.8-5.2c-0.6-2.7,2.7-2.4,3.9-3.8
		C396.3,226.2,396.7,226.3,397.1,226.7z"/>
	<path class="st94" d="M255.9,57.9c-4,1.4-8,1.5-11.9,0C248,57.9,252,57.9,255.9,57.9z"/>
	<path class="st95" d="M111.9,247.8c-1.5-0.2-2.1-0.8-2.1-1.9c0-0.9,0.6-1.6,1.5-1.7c1-0.1,1.9,0.5,2,1.7
		C113.4,247.1,112.5,247.4,111.9,247.8z"/>
	<path class="st96" d="M390.4,246c-0.2,1.1-0.8,1.8-2,1.7c-0.9,0-1.5-0.7-1.6-1.5c-0.1-1.1,0.6-1.9,1.7-2
		C389.6,244.1,390.2,244.9,390.4,246z"/>
	<path class="st97" d="M112.8,222.8c1.1,2.3,1.3,4.6,0.1,6.9C111.5,227.4,111.6,225.1,112.8,222.8z"/>
	<path class="st98" d="M390,257.8c-1.7,0.9-3.4,0.9-5.1,0C386.6,256.2,388.3,256.2,390,257.8z"/>
	<path class="st99" d="M116,257.6c-2,1.1-4,0.9-6,0.1C112,256.2,114,256.2,116,257.6z"/>
	<path class="st100" d="M397.1,226.7c-0.4-0.1-0.9-0.1-1.3-0.2c0.7-1.3,1.4-2.5,2-3.8c0.4,0,0.8,0,1.2,0
		C398.8,224.3,398.1,225.6,397.1,226.7z"/>
	<path class="st38" d="M404,184.7c-0.1,1.3-0.1,2.6-0.2,4.8C402.7,187.2,402.6,185.9,404,184.7L404,184.7z"/>
	<path class="st33" d="M407.3,239.5c1.2,0,2.4,0,3.6,0C409.7,240.7,408.5,241.9,407.3,239.5z"/>
	<path class="st17" d="M141.9,213.7c2.7-1.6,5.8-1.2,8.6-1.7c1.1-0.2,2.3-0.3,3.5-0.3c4.1-0.2,4.1-3.7,3.6-5.8
		c-1-4.2,5.2-9.5-1.6-12.7c-3-1.4-6.2-2.3-9.4-3.2c-2.6-0.7-3.1-1.9-2.3-4.3c1.7-4.9,3.3-9.8,4.8-14.7c0.6-2.1,1.6-2.5,3.7-1.8
		c3.1,1.2,6.4,1.9,9.4,3.3c2.4,1.1,3.8,0.4,4.7-1.8c0.1-0.2,0.1-0.3,0.2-0.5c2.1-4,6-8,5.8-11.9c-0.2-3.7-5.8-5.9-8.9-8.8
		c-1.9-1.8-2-2.9-0.2-4.7c3.6-3.7,7-7.5,10.4-11.4c1.5-1.7,2.8-2.1,4.4-0.2c0.2,0.3,0.5,0.5,0.7,0.7c3.1,2.4,5.9,7.9,8.9,7.1
		c4.6-1.2,8.5-5.5,12.7-8.5c1.2-0.8,1.3-1.8,0.7-3c-0.2-0.4-0.5-0.9-0.7-1.3c-1.4-4-6-8.1-4.3-11.6c1.4-2.9,7-3.8,10.8-5.4
		c8-3.5,8-3.4,11.3,4.3c0.1,0.3,0.3,0.6,0.4,0.9c1,5.8,4.3,6.1,9.3,4.7c10.4-2.8,10.6-2.5,10.4-13.2c-0.1-4,0.8-5.7,5.1-5.3
		c5,0.4,10,0.2,14.9,0.3c1.5,4.8-0.6,10,1.1,14.8c5.1,2.3,10.7,2.4,15.9,3.8c1.9,0.5,2.3-1,2.8-2.2c1.5-3.2,3-6.3,4.2-9.6
		c0.9-2.6,2.3-2.7,4.5-1.6c4.2,2.1,8.4,4.2,12.7,5.8c3.4,1.3,3.4,2.9,2,5.9c-4.8,10.4-4.5,10.2,4.6,17.2c3.8,2.9,6.1,2.8,9.6-0.5
		c7.4-7,7.6-6.8,14.6,0.6c7.7,8.1,7.8,8.3-0.8,15.7c-3,2.6-3.2,4.5-1.2,7.8c6.3,10.7,6.2,11,18,7c3.3-1.1,4.7-0.7,5.6,2.7
		c1.2,4.7,2.8,9.2,4.4,13.8c0.7,2,0.4,3.1-1.8,3.6c-1.6,0.4-3.2,0.9-4.8,1.4c-9.9,3.3-8.2,0.8-7.2,11c0.9,8.7,1.1,8.7,9.7,9.8
		c7.5,1,7.5,1,6.9,8.5c-0.3,3.6-0.9,7.3-1.1,10.9c-0.2,2.7-1.3,3.1-3.9,2.9c-4.2-0.3-9.2-3.6-12.4-0.6c-2.7,2.5-2.7,7.6-4.2,11.5
		c-1.2,3-0.5,4.7,2.4,6.3c3.5,1.9,8.9,3.2,9.4,6.5c0.5,3.1-3.2,7-5.1,10.4c-4.4,7.9-4.6,8.2-12.4,3.2c-4.8-3.1-7.5-2.4-10.9,2
		c-6.4,8.1-6.9,8-0.4,16.3c3.1,3.9,3.3,6.3-1.4,8.5c-0.3,0.1-0.5,0.4-0.8,0.6c-3.9,2.6-7.7,7.2-11.6,7.2c-3.7,0-5.5-6.4-8.3-9.8
		c-1.2-1.5-2.3-2.4-4.1-1c-0.1,0.1-0.3,0.1-0.4,0.2c-4,2-9.3,3-11.7,6.2c-2.6,3.4,0.9,8.4,1.6,12.8c0.3,2,0.5,3.5-2.2,4
		c-5.2,0.9-10.5,1.9-15.7,3.1c-2.3,0.5-3.4-0.2-3.7-2.6c-0.2-1.8-0.7-3.6-1-5.4c-1.2-7.1-1.1-7.1-8.1-7c-10.9,0.1-11.1,0.1-13,11
		c-0.7,4-2,5.4-6.1,4.1c-4.3-1.3-8.7-2.1-13.2-2.8c-2.6-0.4-2.9-1.6-2.4-3.8c0.7-3.1,1.1-6.2,2.1-9.2c0.9-2.9-0.2-4.1-2.8-5.2
		c-12.3-5.4-12.4-5.5-20.1,5.2c-1.6,2.2-2.7,2.8-5,0.9c-3.9-3.1-8-6-12.1-8.8c-2.1-1.4-2.6-2.4-0.9-4.7c2.5-3.4,7.3-6.6,6.6-10.5
		c-0.7-3.5-5.3-6.2-7.7-9.5c-2.2-3.1-4.1-3.2-7.3-1.2c-10.1,6.3-10.2,6.2-15.9-4c-4.8-8.4-4.9-8.7,3.5-13.1c4.2-2.2,5.5-4.2,3.7-9.2
		c-4.1-11.2-3.7-11.5-15.4-9.5c-3.8,0.6-5.1-0.1-5.2-4c-0.1-4.1-1.3-8.2-1-12.4C142.7,216.4,141.7,215,141.9,213.7z"/>
	<path class="st101" d="M161.9,113.8c-1.4,0-2.7-0.8-1.5-2c2.7-2.9-0.6-3.7-1.6-5c-1.5-1.8-2.5,0.4-3.5,1.2c-4.7,3.9-4.6,3.9,0,8.1
		c2.3,2.1,4.5,4.3,6.8,6.4c0.3,0.5,0.3,1-0.2,1.4c-1,0-2-0.4-2.5-1.2c-2.1-3.2-4.1-2.2-6.1,0.1c-0.9,0.5-1.3,0-1.6-0.7
		c0.6-6.1-0.4-6.7-6.3-4c-0.8-0.1-1.3-0.6-1.5-1.4c8.8-10.8,19.6-19.4,31.7-27.8c-3,8.9,5.8,11.3,7.2,17.5c-2.8,0.7-3.2-2.1-4.6-3.2
		c-1.5-1.2-1.5-4.3-4.6-3.6c-3.1,0.8-3.5,3.1-3.6,5.7c0.5,0.5,0.5,0.9-0.1,1.3c-4.1-2.4-1.9-4.6,0.2-6.9c1-1.1,4.2-1.7,2.1-4
		c-1.8-2-2.9,0.9-4.4,1.5c-0.9,0.4-1.6,1.2-2.4,1.8c-3.5,2.7-8,5.1-1.9,9.8c1.1,0.8,1.1,2.3,0.5,3.7
		C164.3,114.4,163.3,114.4,161.9,113.8z"/>
	<path class="st102" d="M321.6,93c-0.5-0.1-1.1-0.1-1.3-0.4c-3.4-3.7-6.1-2.9-8.2,1.3c-1.7,0.1-1.8-0.7-1-2c0.5-1.9,3.5-3.7-0.2-5.7
		c-1.9-1-3.1-1.5-4.3,0.9c-1.6,3.3-3.5,6.4-5.3,9.6c-0.4,0.8-0.7,2.3-1.9,1.7c-1.6-0.7-0.5-2,0-2.9c1.8-3.2,3.5-6.4,5.5-9.5
		c1.5-2.4,0-3.1-1.6-4.1c-2-1.3-2.6,0-3.3,1.4c-2.1,4-3.2,8.6-6.7,13.1c-0.2-4,2.7-8.1-2.4-9.5c0.3-0.4,0.6-0.7,1.1-0.9
		c5.3-1.9,5.8-3.4,2.9-8.7c0.6-1.1,1.4-1.2,2.3-0.6c6.6,1.9,11.9,6.3,18,9.1l-0.1-0.1c1.9,3,5.6,3.7,8,6.2
		C322.9,92.8,322.7,93.5,321.6,93z"/>
	<path class="st103" d="M259,65.7c6.3,1.4,13,1.2,19.1,4c-0.4,0.9-0.9,1.4-1.9,1c-2.8-0.5-4.1,0.3-4.5,3.4
		c-0.5,3.9-0.2,8.2-3.5,12.2c-0.6-5,0.9-9,1.5-13c0.4-2.4,0-3.7-2.6-4.2c-2.7-0.5-3.6,0.6-3.8,3c-0.1,1.3-0.3,2.6-0.6,3.9
		c-0.3,1-0.1,2.7-1.7,2.5c-0.8-0.1-1.5-1.2-2-1.9c-0.7-1-0.9-1.6,0.4-2.8c3.2-2.9,2.7-4.7-1.3-6.3c-0.6-0.6-0.6-1.2-0.3-1.9
		C258.2,65.4,258.6,65.4,259,65.7z"/>
	<path class="st104" d="M328.1,103.7c3-0.9,4-2,1.1-4.5c-1.7-1.5-4.1-2.1-5.4-4.3c-0.2-1.2,0.3-1.7,1.5-1.4c3.3,3,7.6,4.8,10.6,8.3
		c0.6,0.7,0.6,1.5,0,2.2c-1.7-1-3-1.2-4.5,0.8c-2.2,3.1-4.8,5.8-7.2,8.8c-0.5,0.7-0.9,1.5-1.8,0.8s-0.3-1.4,0.3-2.1
		c1.2-1.5,2.4-3.2,3.7-4.6c1.1-1.3,1.7-2.4,0.3-3.8C327.1,103.4,327.6,103.3,328.1,103.7z"/>
	<path class="st104" d="M202.8,74.7c2.5-1.4,5.1-2.5,7.9-3.1c1-0.2,2.3-0.9,2.3,1.1c-1.9,1.5-0.3,3,0.1,4.4
		c1.1,3.8,3.4,7.3,3.9,11.6c-3.8-0.1-2.2-7-7-4.9c-0.6-0.3-1.2-0.6-1.3-1.5c1.7-5.1,1.5-5.4-3.7-6C204,76.1,203.2,75.6,202.8,74.7z"
		/>
	<path class="st105" d="M352.1,118.8c3.4,1.8,5.2,4.4,7.4,7.3c-6.3,0.2-8.7,5.5-12.8,8.3c-0.9,0.6-1.7,2.8-3,1.3
		c-1.2-1.4,0.6-2.2,1.5-3.1c1.3-1.3,2.7-2.4,4.1-3.6C352.2,126.3,356.4,124.1,352.1,118.8z"/>
	<path class="st106" d="M276.1,70.7c0.6-0.3,1.3-0.6,1.9-1c3.2,0.4,6.1,1.4,9,2.8c0.3,1.1-0.1,1.7-1.3,1.4c-3.5,3-4.8,7.2-6.7,11.4
		c-1.5-1.3-1.8-3.4-2.5-5.3c-0.3-1,0-2.7,0.9-2.2c3.9,1.9,3.3-1.6,3.7-3.1c0.7-2.9-2.1-2.2-3.5-2.9C277.2,71.4,276.7,71,276.1,70.7z
		"/>
	<path class="st107" d="M214,70.8c6.1-2,12-4.2,18.5-4.1c2.2,0,4.6-1.6,6.4,1c-0.6,0.1-1.1,0.1-1.7,0.2c-1.5,1.3-0.4,3-0.8,4.4
		c0,0.5,0,0.9-0.2,1.4c-0.4,0.4-0.8,0.4-1.2,0.1c-0.1-0.9-0.2-1.8-0.3-2.7c-0.4-3.3-2.4-3.3-4.9-2.4c-1,0.5-2.9,0.3-2.8,2.1
		c0.4,3.8-2.1,3.1-4.3,3l0.1,0.1c0.6-0.7,1.7-1.5,1.6-2.1c-0.3-1.6-1.8-0.6-2.8-0.8c-2.3-0.6-4.3,1.1-6.5,1.1
		C214.1,72.4,213.9,71.8,214,70.8z"/>
	<path class="st108" d="M208.7,82.6c0.4,0.4,0.9,0.8,1.3,1.2c-0.8,1-2.7,0.7-2.8,2.4c-0.1,1.8-1.1,1.8-2.3,1.3c-1-0.5-2.8-0.7-2.4-2
		c1.4-5.6,0.2-8.7-7.5-6.5c0.3-0.6,0.6-1.1,0.9-1.7c2.3-0.9,4.6-1.8,6.9-2.6c0.9,0.1,1.7,0.2,2.2,1.1
		C204.7,78.8,206.5,80.8,208.7,82.6z"/>
	<path class="st109" d="M152,122c0.4,0.3,0.8,0.6,1.2,0.9c-1.2,1.2-3.9,1.2-3.4,3.9c-1,1.7-2.3,1.8-4,1c1.1-3.4-1-7.3-3.4-6.4
		c-1.8,0.7-2.3,3.7-5.4,3.1c1.8-3.3,4.2-5.6,6.8-7.8c0.4,0.4,0.7,0.8,1.1,1.1C147,119.8,149.3,121.3,152,122z"/>
	<path class="st110" d="M253,83.8c-0.4-0.3-0.7-0.6-1.1-0.9c-1-1.2-1-2.7-0.9-4.2c0.4-4-1.1-5.4-5-4.2c-1,0.6-1.9,2.2-3.2,0.4
		c-0.3-0.4-0.7-0.9-0.6-1.2c0.4-1.6,1.8-1,2.8-1.2c2.3-0.4,5,1,6.8-1.5c0.1-3.1-1.5-4.2-4.5-3.9c-1.9,0.2-3.9,0.1-5.8,0
		c-1-0.1-2-0.3-1.4-1.7c4.9-1.2,9.7-1.1,14.6,0C252.2,71.4,254.4,77.8,253,83.8z"/>
	<path class="st111" d="M340.9,115.9c1.4-1.2,2.6-2.9,4.7-2.8c0.8,2.1-1.4,1.5-1.8,2.4c-0.7,1.5-4.8,3.1,0.4,4.2
		c2.1,0.4,2,2.3,1.5,4c-0.4,0.4-0.7,0.3-1.1-0.1c-1.4-3.9-4-3.4-6.8-1.9c-0.9,0-1.6-0.2-1-1.4c-1.2-0.9-3.2-0.7-3.8-2.6
		c0.3-0.4,0.6-0.6,1.1-0.8c1.3-0.4,2.6-0.3,3.9-0.4C338.9,116.3,340,116.3,340.9,115.9z"/>
	<path class="st112" d="M163,122.8c3.3,0,6.5,0,9.8,0c1,0,2,0.3,1.9,1.7c-0.1,1-1,1.3-1.8,1.2c-1.9-0.1-3.6,0.1-4.6,2.1
		c-0.5,0.1-0.9,0.3-1.2,0.7c-1.1,1.1-2.5,2.7-4,1.3c-1.7-1.6-1.3-3.5,0.7-4.8c2.7-0.9,5.4-0.7,8.1-0.5c-2.2-0.3-4.4-0.2-6.6-0.1
		C164.1,124.3,162.8,124.6,163,122.8z"/>
	<path class="st113" d="M311,91.9c0,0.8,0.2,1.6,1,2c-1.4,2.4-2.8,4.8-4.3,7.2c-0.5,0.7-0.9,2.1-2.1,1.2c-1-0.7-0.4-1.8,0.2-2.6
		C307.5,97,309.2,94.5,311,91.9z"/>
	<path class="st114" d="M163.9,125.5c-1.2,1.2-1.6,2.9-0.2,3.8c1,0.7,1.8-0.9,2.4-1.9c0.8-1.3,1.6-0.7,2.2,0.3
		c-0.8,2.6-2.1,4.8-5.1,3.4c-2.9-1.4-3.3-3.8-1.4-6.5C162.8,124.2,163.8,123.7,163.9,125.5z"/>
	<path class="st113" d="M253,83.8c0-4.4,0.1-8.8,0-13.3c-0.1-2,0.5-3.5,2-4.7c1.1-0.8,2.1-1,3.1,0.1c0,0.5,0,1.1,0,1.6
		c-3.3-0.4-4.3,1-4.1,4.2c0.2,4-0.1,7.9-0.2,11.9c0,0.1-0.2,0.2-0.3,0.2C253.3,84,253.1,83.9,253,83.8z"/>
	<path class="st115" d="M224.9,78.7c-2.5,1.8-2.9,4.2-0.5,7.4c-5.3-0.9-3.8-4.6-4.5-7c-0.2-0.3-0.2-0.7,0.1-1c1.1,0.4,2,0.2,3-0.4
		C224,77.3,225,76.8,224.9,78.7z"/>
	<path class="st116" d="M340.9,115.9c-0.4,1-1.1,1.6-2.1,1.9c-1.3-2.6-3.2-4.3-6.1-4.9c-0.1-0.5-0.1-0.9,0.1-1.3
		C337.1,108.7,339,109.7,340.9,115.9z"/>
	<path class="st117" d="M335.9,104c0-0.7,0-1.5,0-2.2c3.1,2.3,6.1,4.8,8.8,9.3C340,109.6,338.1,106.6,335.9,104z"/>
	<path class="st118" d="M240,65.9c2.5,1.8,5.4,0.8,8.1,0.8c3.3,0,4.5,1.2,3.8,4.4c-0.4-2.3-1.4-3.7-4.1-3.4c-2.9,0.3-5.8,0-8.8-0.1
		c-1.9-1.6-4.3-0.4-6.4-1c2.1-0.4,4.2-0.7,6.3-1.1C239.3,65.4,239.7,65.5,240,65.9z"/>
	<path class="st119" d="M320.9,98.8c-2.5-0.5-4.1,0.6-5.1,2.9c-2,0-1.1-1.3-1.1-2.2c1.8-3.3,3.8-5.5,7.2-1.7
		C322.3,98.8,321.8,99.1,320.9,98.8z"/>
	<path class="st120" d="M315,85.8c-0.7-2.7,0.5-4.1,3.2-4.4c3.6-0.4,5.1,1.8,6.4,4.7c-3.2-3.2-6.4-2.8-9.7-0.4
		C314.9,85.7,315,85.8,315,85.8z"/>
	<path class="st121" d="M258.9,101.5c-6.2,0-12.5,0-18.7,0c0-0.2,0-0.3,0-0.5c6.2,0,12.5,0,18.7,0
		C258.9,101.2,258.9,101.4,258.9,101.5z"/>
	<path class="st122" d="M320.9,98.8c0.4-0.3,0.7-0.7,1.1-1c0.1,4,4.8,3.3,6.2,5.9c-0.5,0.1-1,0.1-1.5,0.2c-1.8,0.2-3.5,0.5-5.7,0.8
		C321,102.6,322.9,100.6,320.9,98.8z"/>
	<path class="st123" d="M240,65.9c-0.4-0.1-0.8-0.2-1.2-0.3c0.1-0.3,0.1-0.5,0.1-0.8c5.3-0.9,10.6-0.7,15.9-0.1c1.4,0.3,3-0.3,4.1,1
		c-0.3,0.1-0.7,0.2-1,0.3c-1,0-2-0.1-3.1-0.1C250,65.9,245,65.9,240,65.9z"/>
	<path class="st124" d="M254.9,64.7c-5.3,0-10.6,0.1-15.9,0.1C244.3,63,249.6,63.3,254.9,64.7z"/>
	<path class="st125" d="M289.9,85.9c-1.6-1.7-1.2-3.5-0.4-5.4c0.6-1.5,1.9-2.8,1.1-4.6c1.8-0.8,2,0.8,2.8,1.7
		c0.6,2.1-0.6,3.8-1.5,5.5C291.3,84,291,85.2,289.9,85.9z"/>
	<path class="st126" d="M260.1,117.6c-2.3-0.6-1-2.5-1-3.6c-0.2-3.7-0.1-7.4-0.1-11.2C261.6,107.5,259.7,112.7,260.1,117.6z"/>
	<path class="st127" d="M228.9,77.8c1.2,0.5,1.8,1.4,2,2.6c0.2,1.3-0.4,2.2-1.4,2.9c-0.5,0.4-1.2,0.5-1.7-0.1
		c-0.9-1.1,0.5-1.7,0.5-2.6c0.1-0.6-0.2-1.2-0.4-1.8C227.7,77.9,227.9,77.4,228.9,77.8z"/>
	<path class="st128" d="M236,73.8c0-0.3,0-0.7,0-1c0.3-0.4,0.6-0.4,0.9,0c0.1,0.6,0.1,1.1,0.2,1.7c0.9,2-0.3,4.3,0.8,6.3
		c0.1,1.2,0.7,2.5-0.3,3.7c-2.4-0.8-1.6-2.8-1.8-4.5C235.3,77.9,235.2,75.9,236,73.8z"/>
	<path class="st129" d="M344.7,123.7c0.4,0,0.7,0,1.1,0.1c-0.2,0.4-0.3,0.9-0.5,1.3c-1,2.1-2.8,3.2-5,3.4c-1.6,0.1-1.3-1.5,0.7-2.6
		c0.9-0.5,1.8-0.8,2.6-1.3C343.9,124.3,344.3,124,344.7,123.7z"/>
	<path class="st130" d="M145.9,127.8c1.4,0.1,2.7-0.2,4-1c2.4,2.2,5.7-0.1,8.2,1.8C154,128.6,149.9,129.9,145.9,127.8z"/>
	<path class="st131" d="M163.9,125.5c-0.7-0.3-1.4-0.5-2.1-0.8c-0.1-0.2,0-0.5,0.1-0.7c0.1-0.5,0.1-1,0.2-1.4c0.3,0,0.6,0.1,0.9,0.2
		c3.2,2.4,7-0.3,10.7,1.5C170.3,125.4,166.9,124.2,163.9,125.5z"/>
	<path class="st106" d="M293.2,77.9c-0.8-0.7-1.6-1.3-2.5-2c-0.7,0-1.5,0.1-1.9-0.7c-0.3-1.2,0.1-1.8,1.4-1.5c2.3,1,4.5,2.1,6.8,3.1
		c-0.8,0.1-1.6,0.2-2.1,1C294.4,78.3,293.8,78.4,293.2,77.9z"/>
	<path class="st113" d="M246,74.6c5.4-1.6,6-1.2,6,4c0,1.5-0.1,2.9-0.2,4.4c-0.2-0.2-0.5-0.3-0.7-0.4c-1.7-2.4,0.3-5.3-1.2-7.7
		C248.7,74.8,247.3,74.7,246,74.6z"/>
	<path class="st132" d="M219.9,78.1c0,0.3,0,0.6-0.1,1c-1.6-0.9-2.7-2.2-1.8-4.1c1.1-2.2,3.4-0.3,4.9-1.2l-0.1-0.1
		C223.1,76,219.3,75.5,219.9,78.1z"/>
	<path class="st133" d="M161.9,113.8c1-0.1,1.8-0.4,2.3-1.3c2,1,4.5,0,6.9,2.1C167.6,114.9,164.7,115.1,161.9,113.8z"/>
	<path class="st134" d="M170,106.6c0-0.4,0.1-0.8,0.1-1.3c2.3,1.1,4.6,2.3,6.9,3.4C174.2,109.3,171.9,108.7,170,106.6z"/>
	<path class="st135" d="M314.7,99.5c0.4,0.7,0.7,1.5,1.1,2.2c-0.1,1.8,0.5,3.6-1,5.2C313.9,104.4,313.3,102,314.7,99.5z"/>
	<path class="st125" d="M336.8,120.4c0.3,0.5,0.7,0.9,1,1.4c-0.6,1.8-2.1,2.7-4,4.2C333,122.7,335.4,121.8,336.8,120.4z"/>
	<path class="st129" d="M350.9,116.3c-0.1,0.7-0.2,1.4-1.1,1.3c-1.4-0.3-2.2-1.4-2.8-2.5c-0.3-0.5,0.1-1.4,1-1.2
		C349.5,114.1,350.1,115.3,350.9,116.3z"/>
	<path class="st136" d="M332.8,111.4c0.1,0.5,0.2,1.1,0.3,1.6c1.3,1.3,2,2.8,1,4.6c-0.4,0-0.7,0-1.1,0.1
		C330.9,115.7,331,113.6,332.8,111.4z"/>
	<path class="st137" d="M228.9,77.8c-0.3,0.3-0.7,0.7-1,1c-1,0-2-0.1-3-0.1c-0.4-0.8-1.2-0.9-2-1C224.9,76.2,227,76.2,228.9,77.8z"
		/>
	<path class="st124" d="M250,74.8c2.8,2.2,0.8,5.1,1.2,7.7C248.8,80.3,250.5,77.4,250,74.8z"/>
	<path class="st118" d="M230,68.7c2.7-1.3,5-2,4.9,2.4C234.3,68.2,231.9,68.9,230,68.7z"/>
	<path class="st138" d="M141.9,213.7c1.5,1.4,1.5,2.7,0,4.1C141.5,216.4,140.6,215,141.9,213.7z"/>
	<path class="st125" d="M290.2,73.7c-0.5,0.5-0.9,1-1.4,1.5c-1-0.4-2-0.8-3.1-1.2c0.4-0.5,0.9-0.9,1.3-1.4
		C288.1,72.9,289.2,73.3,290.2,73.7z"/>
	<path class="st139" d="M236,73.8c0,2.1-0.1,4.1-0.1,6.2c-1-2-0.8-4.1-0.7-6.3C235.4,73.8,235.7,73.8,236,73.8z"/>
	<path class="st139" d="M237.9,80.8c-1.6-1.9-0.7-4.2-0.8-6.3C238.1,76.5,238,78.6,237.9,80.8z"/>
	<path class="st140" d="M228.5,87.2c-1.2,0.9-2.4,0.9-3.5-0.4C226.4,85.5,227.4,86.7,228.5,87.2z"/>
	<path class="st141" d="M325.4,93.6c-0.5,0.5-1,0.9-1.5,1.4c-0.8-0.7-1.5-1.3-2.3-2c0.4-0.3,0.9-0.7,1.3-1
		C324.1,92,324.7,92.8,325.4,93.6z"/>
	<path class="st142" d="M289.9,85.9c0.1-1.1-0.2-2.3,1-3.1c1.3,1,1.6,2.3,1.4,3.8c-0.5,0.1-1.1,0.2-1.6,0.3
		C290.5,86.5,290.2,86.2,289.9,85.9z"/>
	<path class="st132" d="M214,70.8c0.4,0.4,0.9,0.8,1.3,1.2c-0.8,0.2-1.5,0.5-2.3,0.7c-0.5-0.9-1.4-0.9-2.3-1.1
		C211.6,70.6,212.8,70.8,214,70.8z"/>
	<path class="st118" d="M236.9,72.8c-0.3,0-0.6,0-0.9,0c0.3-1.7-0.9-3.7,1.3-4.9C237.1,69.5,237,71.1,236.9,72.8z"/>
	<path class="st143" d="M184.4,211.2c0-36,30-65.8,66.4-65.8c36.6,0,66.1,29.4,66.1,65.9c0,36.4-29.8,66.3-65.9,66.3
		C214.6,277.6,184.4,247.5,184.4,211.2z"/>
	<path class="st144" d="M259.7,303.4c-5.2,0-10.4,0-15.6,0c0-0.2,0-0.3,0-0.5c5.2,0,10.5,0,15.7,0
		C259.8,303.1,259.7,303.2,259.7,303.4z"/>
	<path class="st145" d="M152,122c-4.2,1.8-5.7-0.9-7-4.1c2.2-0.4,2.5-4.9,5.6-3C153.5,116.6,155,119,152,122z"/>
	<path class="st146" d="M292.3,86.5c-1.3-1-1.7-2.2-1.4-3.8c0.7-1.6,1.5-3.3,2.2-4.9c0.6,0,1.2-0.1,1.8-0.1c1.1,1.3,4.4,0.7,3.2,3.8
		C297.1,84.3,296.4,87.4,292.3,86.5z"/>
	<path class="st147" d="M208.7,82.6c-4-0.3-5.6-3.1-3.7-6.9c1.9,0.1,4.2-2.7,5.6,1.2C211.6,79.6,211.9,81.6,208.7,82.6z"/>
	<path class="st148" d="M334.1,117.7c-0.2-1.6-1.5-2.9-1-4.6c4.9-2.2,5.7,0.9,5.8,4.6C337.2,117.7,335.7,117.7,334.1,117.7z"/>
	<path class="st149" d="M239.6,202.6c2.3-1.2,1.6-3.4,1.6-5.3c0-13.9,0-27.8,0-41.7c0-1.7-0.9-4.4,2.6-3.9c4.3,0.5,8.7,0.2,13,0
		c16.7,1.2,30,8.7,40.9,21.1c1.5,1.7,1.3,2.8-0.4,4c-0.1,0.1-0.3,0.2-0.4,0.3c-3.5,3-6.6,7.6-10.7,8.7c-4.3,1.1-6-5.3-9.6-7.6
		c-4.2-2.7-8.4-5.3-13.2-7c-2.4-0.8-3.7-1-3.6,2.2c0.1,8.5,0.2,17,0,25.4c-0.1,3.4,1.8,3.2,4.1,3.2c13.3,0,26.6,0,39.9,0
		c1.8,0,3.6,0.3,5.4,0.4c-0.8,0.9-1.8,0.6-2.8,0.6c-14.2,0-28.3,0-42.5,0c-0.7,0-1.6,0.2-1.7,0c2.5,0,5.5,0,8.5,0
		c11.2,0,22.3,0,33.5,0c5.4,0,5.3,0,5.5,5.6c0.2,4.3-0.6,8.6-0.1,12.9c-1.8,15.2-9.7,26.9-20.8,36.9c-1.2,1.1-2.1,1.5-3.2,0
		c-0.3-0.4-0.6-0.8-1-1.1c-3.1-3.5-7.7-6.6-8.7-10.7c-1-4.2,5.4-6,7.8-9.6c3.3-5,6.5-9.9,7.7-16.3c-9.9,0-19.3,0.1-28.8-0.1
		c-3.2-0.1-2.9,1.8-2.9,3.9c0,13.6,0.1,27.3,0,40.9c0,1.7,1,3.7-0.9,5c-1.1-5.9-0.4-11.9-0.4-17.9c-0.1-8.5-0.1-17,0-25.5
		c0-1.5-0.5-3.1-0.1-3.8c0,1.7,0,4.2,0,6.8c0,11.5,0,23,0,34.5c0,5.9,0,5.7-6.2,6c-5.8,0.3-11.5-1-17.3-1.2
		c-12.6-3-22.7-9.9-31.2-19.4c-1.5-1.7-1.2-2.6,0.4-4c3.4-2.9,6.8-5.9,10-9c1.9-1.9,2.9-1.2,4.2,0.6c5.1,6.4,11.4,11.1,19.2,13.7
		c2.6,0.8,3.6,0.5,3.6-2.5c-0.1-8-0.2-16,0-24c0.1-3.3-0.9-4.2-4.2-4.2c-13.5,0.2-27-0.1-40.5,0.2c-4.2,0.1-5.9-0.9-6.2-5.3
		c-1.4-20.8,6.7-37.5,21.5-51.5c1.4-1.3,2.4-1.7,3.6,0c0.2,0.3,0.5,0.5,0.7,0.7c3.2,3.6,8.2,6.7,9.2,10.9c1.2,4.4-5.6,6.2-8,10
		c-2.6,4.1-5,8.2-6.7,12.8c-1.1,3.1-0.4,3.7,2.6,3.8c7.6,0.1,15.3-0.6,22.9,0.4c-7.3,1.5-14.6,0.2-21.9,0.7
		C222.8,202.8,231.2,204.1,239.6,202.6z"/>
	<path class="st150" d="M235.4,190.5c-0.2,3-2.2,5-5.6,5.3c-3.2,0.3-6.3-2.7-6-5.9c0.3-3.4,2.1-5.6,5.6-5.9
		C232.4,183.7,235.4,186.8,235.4,190.5z"/>
	<path class="st151" d="M235.4,233.3c-0.3,3-2.5,4.8-5.8,5.2c-2.9,0.4-6.2-3.1-5.9-6.2c0.4-3.4,2.2-5.5,5.8-5.6
		C232.8,226.6,235.5,229.4,235.4,233.3z"/>
	<path class="st152" d="M266.8,230.6c1-3.3,3.4-4.4,6.5-3.8c2.8,0.6,4.6,2.5,4.8,5.5c0.1,3.1-1.8,4.9-4.5,5.8
		c-3.2,1-5.4-0.5-6.6-3.4C267,233.4,267,232,266.8,230.6z"/>
	<path class="st153" d="M267,187.8c1.1-2.9,3.2-4.3,6.2-3.6c2.7,0.7,4.6,2.5,4.9,5.6c0.2,2.9-1.5,4.7-3.9,5.7c-3,1.2-5.5,0.2-7-2.8
		C267.4,191,266.8,189.4,267,187.8z"/>
	<path class="st154" d="M235,269.6c4.2-2.1,8.3,0.5,12.6,0.3c10.4-0.5,10.4-0.2,10.4-10.6c0-12.4,0-24.8,0-37.3c0.3,0,0.7,0,1,0
		c0,16.2,0,32.4,0,48.6C250.9,272.8,242.9,272.1,235,269.6z"/>
	<path class="st155" d="M309.9,221.7c-2.1-4.3-0.8-8.8-0.8-13.2c0-3.7-1-4.9-4.8-4.9c-12.8,0.2-25.7,0.1-38.5,0.1
		c-1.6,0-3.3,0.5-5.9-1.1c17.2,0,33.4,0,49.5,0c3,4.9,1.1,10.2,1.3,15.3C310.7,219.1,310.2,220.4,309.9,221.7z"/>
	<path class="st156" d="M239.6,202.6c0.3,0.3,2,0.9,0.6,1c-9.7,0.3-19.5,0.2-29.3-1c8.4,0,16.9,0,25.3,0
		C237.4,202.6,238.5,202.6,239.6,202.6z"/>
	<path class="st157" d="M257,151.7c-4.3,1.7-8.7,1.7-13,0C248.3,150.9,252.6,150.8,257,151.7z"/>
	<path class="st158" d="M267,187.8c1.4,1.6,1.3,3.2,0.1,4.9C265.8,191.1,265.6,189.4,267,187.8z"/>
	<path class="st159" d="M266.8,230.6c1.6,1.3,1.6,2.7,0.1,4.1C265.8,233.4,265.8,232,266.8,230.6z"/>
	<path class="st160" d="M242.8,154.1c0,15.4,0,30.9,0,46.3c-0.2,0-0.3,0-0.5,0c0-15.5,0-31,0-46.5C242.5,154,242.7,154,242.8,154.1z
		"/>
	<ellipse class="st161" cx="242.5" cy="236.6" rx="0.3" ry="20.9"/>
</g>
<text transform="matrix(1 0 0 1 118.1396 452.2051)"><tspan x="0" y="0" class="st162 st163">SURAT MUNICIPAL </tspan><tspan x="28.6" y="39.6" class="st162 st163">CORPORATION</tspan></text>
</svg>
