<svg xmlns="http://www.w3.org/2000/svg" viewBox="0 0 177.501 222.916"><defs><style>.a{fill:#fdd4bb;}.b{fill:#f7c4a8;}.c{fill:#e5907b;}.d{fill:#ffa6d5;}.e{fill:#ff90d1;}.f{fill:#adf0ff;}.g{fill:#8deaf5;}.h{fill:#ebf2f8;}.i{fill:#d6e3ed;}</style></defs><g transform="translate(-52.155 -0.001)"><g transform="translate(55.595 3.484)"><path class="a" d="M230.317,183.348v17.026c12.334-11.984,26.709-17.479,39.318-13.412a20.075,20.075,0,0,1,4.44,2.075V172.91l-16.769-27.446a14.063,14.063,0,1,0-13.14-21.507l-9.757-15.97c-14.242,1.088-25.159-2.17-33.494-7.409v50.17A32.776,32.776,0,0,0,230.317,183.348Z" transform="translate(-139.587 -60.271)"/><g transform="translate(90.73 117.526)"><path class="b" d="M268.448,292.678v7.837c12.334-11.984,26.709-17.479,39.318-13.412a20.073,20.073,0,0,1,4.44,2.076v-7.837a20.087,20.087,0,0,0-4.44-2.075C295.157,275.2,280.781,280.694,268.448,292.678Z" transform="translate(-268.448 -277.937)"/></g><path class="c" d="M234.264,8.064c-29.019-1.073-33.4,11.66-47.446,15.234-6.487,1.65-12.842.26-18.324-2.2a6.532,6.532,0,0,0-8.307,9.322,53.753,53.753,0,0,0,17.177,17.89h0c8.335,5.239,19.252,8.5,33.494,7.409l9.757,15.97a14.063,14.063,0,1,1,13.141,21.507l16.769,27.446s32.624-21.107,35.782-50.5C289.6,39.529,269.545,9.368,234.264,8.064Z" transform="translate(-116.038 -8)"/><path class="d" d="M300.1,386.523s-.952-79.737-30.467-89.258-68.721,33.323-68.721,89.258Z" transform="translate(-139.587 -170.574)"/><path class="e" d="M201.172,486q-.255,3.871-.258,7.837H300.1s-.036-2.973-.305-7.837Z" transform="translate(-139.587 -277.888)"/><path class="a" d="M273.47,457.492h40.625v20.249H273.47Z" transform="translate(-180.554 -261.792)"/><path class="b" d="M273.47,486h40.625v7.837H273.47Z" transform="translate(-180.554 -277.888)"/><path class="f" d="M133.519,203.04s-9.605-1.921-14.683,3.156a8.151,8.151,0,1,0,11.527,11.527C135.44,212.646,133.519,203.04,133.519,203.04Z" transform="translate(-91.897 -117.922)"/><path class="f" d="M77.127,276.28s-9.605-1.921-14.683,3.156a8.151,8.151,0,0,0,11.527,11.527C79.048,285.885,77.127,276.28,77.127,276.28Z" transform="translate(-60.057 -159.275)"/><path class="g" d="M130.368,210.589a8.138,8.138,0,0,1-12.906-1.845,8.148,8.148,0,0,0,12.906,9.682c4.668-4.668,3.421-13.157,3.19-14.5A12.34,12.34,0,0,1,130.368,210.589Z" transform="translate(-91.902 -118.625)"/><path class="g" d="M73.976,283.829a8.138,8.138,0,0,1-12.906-1.845,8.148,8.148,0,0,0,12.906,9.682c4.668-4.668,3.421-13.157,3.19-14.5A12.335,12.335,0,0,1,73.976,283.829Z" transform="translate(-60.062 -159.978)"/><path class="h" d="M87.511,338.669s23.249-55.712,40.011-55.712,13.441,65.437,13.441,65.437-12.955,8.738-19.919,3.555c0,0-8.287,4.118-19.624.879A20.171,20.171,0,0,1,87.511,338.669Z" transform="translate(-75.558 -163.246)"/><path class="h" d="M87.511,338.669s23.249-55.712,40.011-55.712,13.441,65.437,13.441,65.437-12.955,8.738-19.919,3.555c0,0-8.287,4.118-19.624.879A20.171,20.171,0,0,1,87.511,338.669Z" transform="translate(-75.558 -163.246)"/><path class="i" d="M121.045,411.549s-8.287,4.118-19.624.879a19.767,19.767,0,0,1-12.294-10.034c-1.037,2.328-1.614,3.712-1.614,3.712a20.17,20.17,0,0,0,13.908,14.159c11.337,3.239,19.624-.879,19.624-.879,6.964,5.182,19.919-3.555,19.919-3.555s.139-2.744.216-7.105C137.469,410.712,126.743,415.79,121.045,411.549Z" transform="translate(-75.559 -230.682)"/><path class="a" d="M152.262,433.256s-12.955,8.738-19.919,3.555c0,0-8.287,4.118-19.624.879a20.234,20.234,0,0,1-5.19-2.292l-.005,0s11.154,28.655,40.66,28.655a117.83,117.83,0,0,1,4.079-30.8Z" transform="translate(-86.858 -248.108)"/><path class="b" d="M148.446,458.967a46.642,46.642,0,0,1-34.919-18.281c-.268-.069-.536-.139-.808-.216a20.234,20.234,0,0,1-5.19-2.292l-.005,0s11.154,28.655,40.66,28.655Q148.184,462.854,148.446,458.967Z" transform="translate(-86.858 -250.886)"/></g><g transform="translate(52.155 0.001)"><path d="M244.813,65.88A61.721,61.721,0,0,0,234.329,23.8a3.272,3.272,0,0,0-5.36,3.754,55.182,55.182,0,0,1,9.338,37.625c-2.433,22.642-23.915,40.515-31.633,46.256l-12.64-20.688A17.364,17.364,0,1,0,176.2,61.555l-7.441-12.179a3.276,3.276,0,0,0-3.041-1.556c-12.151.928-22.773-1.4-31.569-6.931a50.349,50.349,0,0,1-16.154-16.851,3.149,3.149,0,0,1,.333-3.843,3.213,3.213,0,0,1,3.851-.816c7.177,3.224,14.077,4.029,20.507,2.393,5.313-1.352,9.4-3.906,13.356-6.377,7.442-4.649,15.145-9.46,33.255-8.787,12.081.447,22.968,4.555,31.484,11.88a3.272,3.272,0,1,0,4.268-4.96C215.394,5.223,203.115.569,189.537.068c-20.126-.742-29.071,4.846-36.964,9.777-3.851,2.406-7.177,4.484-11.5,5.585-4.963,1.263-10.418.583-16.214-2.021A9.816,9.816,0,0,0,112.4,27.429a57.385,57.385,0,0,0,16.737,18v48.5a35.983,35.983,0,0,0,29.46,35.5v12.868A96.691,96.691,0,0,0,140.3,168.924c-.114.241-.219.487-.331.728-.054-2.636-.145-5.417-.291-8.267-1.031-20.119-4.076-32.577-9.31-38.083a10.034,10.034,0,0,0-7.343-3.356c-8.444,0-18.122,9.9-29.589,30.275a3.272,3.272,0,1,0,5.7,3.21c13.685-24.316,21.263-26.941,23.886-26.941a3.442,3.442,0,0,1,2.6,1.321c2.28,2.4,6.288,9.985,7.516,33.859.567,11.03.3,21.306.154,25.249-3.283,1.906-9.409,4.7-13.314,3.536l2.409-28.011a3.272,3.272,0,0,0-6.52-.561l-2.421,28.144a23.992,23.992,0,0,1-3.312.8,27.81,27.81,0,0,1-12.368-.745A16.814,16.814,0,0,1,86.4,179.255c.957-2.22,3.394-7.752,6.708-14.407a3.272,3.272,0,0,0-5.858-2.916c-4.405,8.847-7.217,15.566-7.335,15.848a3.273,3.273,0,0,0-.178,1.951,23.77,23.77,0,0,0,9.31,13.4,57.05,57.05,0,0,0,9.474,14.351c9.128,10.1,20.845,15.433,33.884,15.433h99.381a3.291,3.291,0,0,0,3.271-3.311c-.015-1.291-.464-31.917-7.989-57.775a3.272,3.272,0,0,0-6.283,1.829c5.869,20.166,7.3,44.081,7.631,52.714H208.032V174.262a3.272,3.272,0,0,0-6.544,0v21.822H167.328V174.262a3.272,3.272,0,0,0-6.544,0v42.111H135.723a112.63,112.63,0,0,1,10.495-44.655c6.249-13.243,15.026-24.421,24.712-31.475,10.051-7.318,20.466-9.775,29.326-6.917,6.059,1.954,11.35,7.745,15.729,17.21a3.271,3.271,0,1,0,5.938-2.747c-3.629-7.844-7.965-13.607-12.943-17.229v-12.7c6.674-4.679,32.9-24.681,35.834-51.984ZM167.328,202.627h34.161v13.745H167.328Zm-63.8.63a50.705,50.705,0,0,1-4.829-6.221,34.763,34.763,0,0,0,6.937.706,32.06,32.06,0,0,0,10.61-1.752c4.531,2.253,10.021,1.087,14.034-.414.472-.177.931-.362,1.378-.55a121.986,121.986,0,0,0-2.471,21.22c-9.868-.772-18.488-5.131-25.658-12.99Zm98.913-76.1-.172-.059c-10.9-3.517-23.4-.728-35.187,7.854q-.977.711-1.941,1.472v-9.835a3.272,3.272,0,0,0-2.939-3.255,29.446,29.446,0,0,1-26.374-26.462c2.717-.02,6.669.645,8.16,4.406a3.272,3.272,0,1,0,6.082-2.412c-2.693-6.792-9.3-8.559-14.389-8.538V49.188C144.06,53.221,153.619,55,164.2,54.471l8.748,14.317a3.293,3.293,0,0,0,5.557.042A10.819,10.819,0,1,1,188.62,85.372a3.3,3.3,0,0,0-2.506,4.965l16.322,26.715v10.1Z" transform="translate(-67.687 -0.001)"/><path d="M244.4,171.318l-3.15-1.773,3.045-1.571a3.272,3.272,0,1,0-3-5.815l-8.438,4.353a3.271,3.271,0,0,0-.1,5.759l8.438,4.749a3.272,3.272,0,1,0,3.209-5.7Z" transform="translate(-153.184 -91.352)"/><path d="M120.094,219.069a11.361,11.361,0,0,0,8.088-3.35c2.662-2.662,4.2-6.608,4.443-11.41a27.857,27.857,0,0,0-.386-6.256,3.272,3.272,0,0,0-2.567-2.567,27.871,27.871,0,0,0-6.256-.386c-4.8.244-8.749,1.78-11.411,4.443a11.439,11.439,0,0,0,8.088,19.526Zm-3.461-14.9c2.039-2.039,5.481-2.565,8.243-2.565.418,0,.821.012,1.2.033.155,2.656-.042,6.974-2.523,9.454a4.895,4.895,0,1,1-6.922-6.922Z" transform="translate(-84.057 -110.138)"/><path d="M76.124,277.691a27.914,27.914,0,0,0-.386-6.256,3.273,3.273,0,0,0-2.567-2.567,27.934,27.934,0,0,0-6.256-.386c-4.8.244-8.748,1.781-11.41,4.443a11.438,11.438,0,0,0,0,16.176,11.492,11.492,0,0,0,16.176,0c2.662-2.662,4.2-6.608,4.443-11.41Zm-9.07,6.784a4.895,4.895,0,0,1-6.922-6.922c2.039-2.039,5.481-2.565,8.242-2.565.422,0,.829.012,1.211.034.159,2.887-.181,7.1-2.532,9.453Z" transform="translate(-52.155 -151.571)"/></g></g></svg>