<svg xmlns="http://www.w3.org/2000/svg" viewBox="0 0 108.241 108.189"><defs><style>.a{fill:#e5e8ec;}.b{fill:#fbd670;}.c{fill:#b3dc7e;}.d{fill:#fe816e;}.e{fill:#cbd0d8;}.f{fill:#fb806c;}.g{fill:#fefefe;}</style></defs><g transform="translate(-63.969 -64.847)"><path d="M105.876,77.05q20.387,0,40.774.012c.736,0,1.088-.045,1.154-.986A12.182,12.182,0,1,1,162.479,88.96c-.629.143-.8.328-.8.957q.03,16.352,0,32.7a1.435,1.435,0,0,0,.563,1.188c8.528,7.676,11.835,17.206,8.933,28.3-2.884,11.021-10.332,17.867-21.483,20.325-15.142,3.336-30.673-7.5-32.945-22.793-.048-.323-.119-.643-.162-.967-.242-1.84-.24-1.84-2.14-1.84q-24.639,0-49.278.027c-1.038,0-1.2-.315-1.2-1.251q.038-33.685-.006-67.37c0-1.02.288-1.21,1.242-1.207Q85.543,77.075,105.876,77.05Z"/><path class="a" d="M166.692,158.991a28.009,28.009,0,0,0-34.893,5.758c0-1.68.025-3.179-.009-4.675-.023-1,.443-2.339-.2-2.911-.553-.493-1.864-.149-2.839-.152-2.217-.008-4.434.019-6.651-.017-.613-.01-.785.159-.783.778q.033,9.7,0,19.407c0,.62.17.812.785.776.869-.051,1.745.015,2.616-.023.522-.023.627.19.527.636-.056.248-.085.5-.14.749-.149.67.191,1.653-.324,1.962a4.766,4.766,0,0,1-2.226.149q-22.735.007-45.469.024c-.869,0-1.141-.148-1.14-1.093q.049-30.311,0-60.621c0-.879.166-1.134,1.1-1.133q39.309.045,78.617,0c.835,0,1.224.229,1.45,1.016a4.173,4.173,0,0,0,.82,1.641c.876.96.428,1.527-.331,2.267-2.993,2.916-5.937,5.884-8.874,8.858a1.256,1.256,0,0,1-1.576.43,3.931,3.931,0,0,0-2.984.046.947.947,0,0,1-1.216-.306c-.774-.818-1.561-1.628-2.393-2.385a1.074,1.074,0,0,1-.3-1.317,5.159,5.159,0,0,0-3.842-6.6,5.221,5.221,0,0,0-6.278,4.121,4.484,4.484,0,0,0,.189,2.574.893.893,0,0,1-.238,1.133c-2.612,2.578-5.22,5.162-7.78,7.792-.492.505-.877.283-1.35.152a5.208,5.208,0,1,0,3.846,4.826,1.069,1.069,0,0,0-.032-.431c-.77-1.44.095-2.263,1.054-3.179,2.233-2.133,4.392-4.345,6.562-6.543a1.1,1.1,0,0,1,1.394-.376,4.131,4.131,0,0,0,3.092-.02.882.882,0,0,1,1.134.234q1.228,1.313,2.545,2.541a.924.924,0,0,1,.242,1.133,5.209,5.209,0,1,0,9.892,0,1.014,1.014,0,0,1,.34-1.208q4.793-4.767,9.557-9.563c.4-.4.645-.5,1.152-.131a10.714,10.714,0,0,0,4.285,1.781c.478.091.674.2.673.727C166.688,138.169,166.692,148.522,166.692,158.991Z" transform="translate(-8.486 -38.09)"/><path class="b" d="M290.836,389.779a24.258,24.258,0,0,1-19.408-9.562c-.88-1.112-.861-1.126.336-1.817,1.382-.8,2.778-1.573,4.136-2.411.564-.348.847-.322,1.3.232a17.348,17.348,0,0,0,27.174.047c.464-.567.751-.657,1.383-.259,1.472.928,2.989,1.786,4.52,2.615.585.316.715.539.278,1.117a24.285,24.285,0,0,1-16.787,9.865c-.54.071-1.082.133-1.625.168C291.71,389.8,291.272,389.779,290.836,389.779Z" transform="translate(-146.558 -220.297)"/><path class="c" d="M278.262,260.355c0,.872-.04,1.746.013,2.615.039.646-.191.843-.828.951a17.028,17.028,0,0,0-13.734,11.047A16.4,16.4,0,0,0,263.8,287.5c.253.635.189.927-.419,1.255-1.532.826-3.05,1.683-4.52,2.613-.715.453-.913.221-1.211-.439a24.4,24.4,0,0,1,19.766-34.034c.654-.069.914.013.86.74C278.211,258.535,278.262,259.447,278.262,260.355Z" transform="translate(-135.758 -136.059)"/><path class="d" d="M368.039,281.847a24.33,24.33,0,0,1-2.067,9.083c-.285.662-.5.894-1.205.451-1.474-.924-2.988-1.787-4.518-2.615-.6-.323-.688-.6-.436-1.247a17.33,17.33,0,0,0-7.5-21.47,15.916,15.916,0,0,0-6.124-2.114c-.637-.078-.856-.285-.84-.94.044-1.778.05-3.56,0-5.338-.021-.706.183-.8.853-.752,9.507.7,18.357,8.178,20.958,17.745A26,26,0,0,1,368.039,281.847Z" transform="translate(-199.365 -136.074)"/><path class="e" d="M291.534,306.147a13.956,13.956,0,1,1,13.823,14.035A13.993,13.993,0,0,1,291.534,306.147Z" transform="translate(-161.241 -161.141)"/><path class="d" d="M363.373,85.523a8.72,8.72,0,1,1,8.753,8.714A8.738,8.738,0,0,1,363.373,85.523Z" transform="translate(-212.142 -8.469)"/><path class="b" d="M243.565,269.248c0-2.066.022-4.132-.014-6.2-.01-.611.162-.779.779-.788,2.724-.041,2.724-.062,2.724,2.635a15.783,15.783,0,0,0,.016,2.281c.462,3.129-.687,5.868-1.921,8.615-.3.667-.762.4-1.172.428-.637.047-.4-.481-.4-.776C243.555,273.38,243.565,271.314,243.565,269.248Z" transform="translate(-127.231 -139.872)"/><path class="f" d="M277.064,144.344a1.739,1.739,0,1,1-1.755-1.694A1.757,1.757,0,0,1,277.064,144.344Z" transform="translate(-148.524 -55.127)"/><path class="f" d="M311.16,182.036a1.74,1.74,0,1,1,1.821-1.628A1.757,1.757,0,0,1,311.16,182.036Z" transform="translate(-173.975 -80.569)"/><path class="f" d="M221.448,199.994a1.739,1.739,0,1,1,1.746-1.7A1.752,1.752,0,0,1,221.448,199.994Z" transform="translate(-110.356 -93.294)"/><path d="M194.207,240.45c0,4.323-.017,8.647.017,12.97.006.71-.177.9-.892.894q-4.359-.063-8.719,0c-.717.01-.892-.189-.89-.9q.037-13.079,0-26.158c0-.709.177-.9.891-.894q4.359.063,8.719,0c.717-.01.9.188.89.9C194.191,231.657,194.207,236.053,194.207,240.45Z" transform="translate(-84.852 -114.444)"/><path d="M87.967,271.03c0-2.652.019-5.3-.014-7.955-.008-.612.158-.79.778-.783q4.468.048,8.937,0c.615-.006.784.163.781.78q-.036,7.955,0,15.911c0,.611-.157.79-.778.783q-4.468-.048-8.936,0c-.615.006-.79-.162-.782-.78C87.986,276.334,87.967,273.682,87.967,271.03Z" transform="translate(-16.993 -139.899)"/><path d="M135.854,281.257c0-2.07.023-4.142-.014-6.211-.011-.614.16-.789.779-.783q4.467.048,8.936,0c.615-.006.785.163.781.78q-.04,6.211,0,12.423c0,.613-.159.789-.778.782q-4.467-.048-8.936,0c-.615.006-.793-.162-.782-.78C135.878,285.4,135.854,283.327,135.854,281.257Z" transform="translate(-50.924 -148.382)"/><path d="M124.044,134.093c-3.742,0-7.484-.025-11.226.02-.78.009-.95-.209-.941-.959.034-2.549,0-2.55,2.6-2.55,6.939,0,13.878.018,20.816-.022.871-.005,1.068.238,1.05,1.07-.052,2.44-.015,2.441-2.49,2.441Z" transform="translate(-33.946 -46.576)"/><path d="M124.02,158.049c-3.742,0-7.484-.015-11.226.014-.663,0-.929-.1-.923-.863.018-2.639-.017-2.64,2.62-2.64,6.939,0,13.878.012,20.817-.017.762,0,1.056.106,1.036.976-.057,2.529-.01,2.53-2.515,2.53Z" transform="translate(-33.941 -63.554)"/><path d="M124.065,181.989c-3.778,0-7.557-.015-11.335.015-.647.005-.856-.122-.856-.822,0-2.683-.031-2.683,2.685-2.683,6.939,0,13.878.012,20.817-.017.741,0,.977.146.966.933-.036,2.573,0,2.573-2.577,2.573Z" transform="translate(-33.944 -80.517)"/><path d="M124.195,202.448c3.742,0,7.484.017,11.226-.015.685-.006.915.137.91.876-.017,2.628.015,2.628-2.63,2.628-6.939,0-13.878-.014-20.816.019-.785,0-1.041-.143-1.023-.989.054-2.518.01-2.519,2.525-2.519Z" transform="translate(-33.933 -97.486)"/><path d="M91.491,132.455c0,1.692,0,1.692-1.688,1.692-1.8,0-1.8,0-1.8-1.8,0-1.692,0-1.692,1.688-1.692C91.491,130.658,91.491,130.658,91.491,132.455Z" transform="translate(-17.029 -46.63)"/><path d="M89.852,154.6c1.639,0,1.639,0,1.639,1.632,0,1.857,0,1.857-1.85,1.857-1.639,0-1.639,0-1.639-1.632C88,154.6,88,154.6,89.852,154.6Z" transform="translate(-17.029 -63.595)"/><path d="M89.66,182.032c-1.658,0-1.658,0-1.658-1.722,0-1.767,0-1.767,1.722-1.767,1.767,0,1.767,0,1.767,1.722C91.491,182.032,91.491,182.032,89.66,182.032Z" transform="translate(-17.029 -80.559)"/><path d="M91.491,204.282c0,1.692,0,1.692-1.688,1.692-1.8,0-1.8,0-1.8-1.8,0-1.692,0-1.692,1.688-1.692C91.491,202.485,91.491,202.485,91.491,204.282Z" transform="translate(-17.029 -97.523)"/><path d="M313.944,325.18a10.464,10.464,0,1,1,10.5-10.433A10.5,10.5,0,0,1,313.944,325.18Z" transform="translate(-169.728 -169.63)"/><path class="b" d="M199.194,248.8c0,3.194-.02,6.389.016,9.583.008.693-.155.912-.885.908-2.62-.012-2.621.019-2.621-2.641,0-5.772.017-11.544-.019-17.315,0-.8.161-1.038,1-1.021,2.511.049,2.511.008,2.511,2.536Z" transform="translate(-93.327 -122.912)"/><path class="b" d="M103.428,279.583c0,1.414-.032,2.83.014,4.243.022.67-.113.927-.868.924-2.635-.013-2.635.021-2.635-2.624,0-2.321.023-4.643-.014-6.963-.011-.669.114-.927.868-.923,2.635.013,2.635-.021,2.635,2.624Z" transform="translate(-25.476 -148.365)"/><path class="b" d="M147.613,289.621c0-.326-.018-.653,0-.978.054-.818-.369-2.061.174-2.358.756-.415,1.891-.13,2.863-.165.422-.015.453.224.452.548-.006,1.957-.012,3.914,0,5.871,0,.409-.117.536-.544.576-2.952.277-2.951.29-2.951-2.623Z" transform="translate(-59.193 -156.738)"/><path class="g" d="M322.509,330.171a6.975,6.975,0,1,1,6.925-7.054A7,7,0,0,1,322.509,330.171Z" transform="translate(-178.21 -178.111)"/></g></svg>