<svg xmlns="http://www.w3.org/2000/svg" viewBox="0 0 86.626 86.593"><defs><style>.a{fill:#3d99e1;}.b{fill:#fec377;}.c{fill:#57565c;}.d{fill:#fdc276;}.e{fill:#feb555;}.f{fill:#fab253;}.g{fill:#fe5023;}</style></defs><g transform="translate(433.837 -63.761)"><path d="M-190.435,300.266q-6.943,0-13.886,0c-1.58,0-1.957-.438-2.02-2.043a10.987,10.987,0,0,1,2.187-7.61,10.341,10.341,0,0,1,6.111-3.695c.908-.2,1.8-.457,2.713-.635.446-.087.613-.286.547-.717a.661.661,0,0,1,0-.18,2.877,2.877,0,0,0-1.375-3.229,5.959,5.959,0,0,1-2.186-2.916.856.856,0,0,0-.889-.647,4.3,4.3,0,0,1-4.2-3.928,4.272,4.272,0,0,1,3.484-4.566c.605-.124.828-.3.894-.975a8.638,8.638,0,0,1,8.71-7.824,8.648,8.648,0,0,1,8.51,7.949c.047.556.2.707.74.809a4.3,4.3,0,0,1,3.62,4.556,4.319,4.319,0,0,1-4.245,3.983.8.8,0,0,0-.827.6,7.8,7.8,0,0,1-2.856,3.518,1.469,1.469,0,0,0-.734,1.452c.04,1.953.012,1.964,1.924,2.409a13.206,13.206,0,0,1,6.053,2.58,10.082,10.082,0,0,1,3.577,7.579c.016.541.007,1.082.005,1.623-.006,1.418-.478,1.9-1.88,1.9Q-183.447,300.269-190.435,300.266Z" transform="translate(-172.636 -149.912)"/><path d="M-304.173,102.726h-12.984c-2.745,0-2.837-.119-2.867-2.906a10.39,10.39,0,0,1,1.842-6.28,10.232,10.232,0,0,1,6.415-4.155c.907-.2,1.812-.415,2.71-.649.185-.048.514.013.536-.225.058-.625,0-1.261.061-1.886a1.385,1.385,0,0,0-.733-1.454,7.614,7.614,0,0,1-2.818-3.434.92.92,0,0,0-.959-.683,4.3,4.3,0,0,1-4.148-3.889,4.271,4.271,0,0,1,3.443-4.6c.631-.133.866-.308.941-1.033a8.621,8.621,0,0,1,8.752-7.773,8.643,8.643,0,0,1,8.46,8c.044.54.2.653.7.748a4.31,4.31,0,0,1,3.659,4.528,4.316,4.316,0,0,1-4.3,4.021.747.747,0,0,0-.759.568,8.285,8.285,0,0,1-3.055,3.7.981.981,0,0,0-.548,1c.061.744-.209,1.678.15,2.187.315.446,1.3.437,1.992.6a13.242,13.242,0,0,1,5.231,2.051,10.018,10.018,0,0,1,4.173,7.915c.027.6.012,1.2.009,1.8-.007,1.354-.494,1.85-1.841,1.851Q-297.14,102.73-304.173,102.726Z" transform="translate(-86.372)"/><path d="M-417.932,300.265q-6.988,0-13.976,0c-1.418,0-1.85-.478-1.911-1.879a11.089,11.089,0,0,1,2.252-7.857,10.382,10.382,0,0,1,5.972-3.6,15.563,15.563,0,0,1,2.1-.481c1.087-.088,1.289-.616,1.27-1.623a2.506,2.506,0,0,0-1.155-2.439,6.763,6.763,0,0,1-2.483-3.246.742.742,0,0,0-.777-.542,4.319,4.319,0,0,1-4.275-3.951,4.309,4.309,0,0,1,3.674-4.6c.519-.1.644-.243.685-.762a8.657,8.657,0,0,1,8.566-7.986,8.647,8.647,0,0,1,8.667,7.877c.053.572.166.777.762.889a4.288,4.288,0,0,1,3.6,4.566,4.317,4.317,0,0,1-4.262,3.965c-.489.021-.643.23-.814.62a8.115,8.115,0,0,1-3.01,3.618,1.122,1.122,0,0,0-.57,1.172c.052.686-.2,1.532.122,2.021s1.239.423,1.9.576a13,13,0,0,1,5.892,2.508,10.072,10.072,0,0,1,3.634,7.643c.017.6.012,1.2,0,1.8-.017,1.17-.54,1.7-1.715,1.7q-6.538.011-13.075,0Z" transform="translate(0 -149.912)"/><path d="M-281.981,249.547c.069-.118.114-.161.12-.209.081-.642-.292-1.635.167-1.855a6.358,6.358,0,0,1,2.39-.106c.384-.01.337.242.337.48,0,1.772.022,3.545-.015,5.317a1.318,1.318,0,0,1-1.354,1.4c-1.8.051-3.6.01-5.407.029-.368,0-.485-.135-.44-.471a.659.659,0,0,0,0-.09c0-.721-.247-1.6.076-2.121.36-.583,1.319-.065,2.012-.252.034-.287-.233-.381-.381-.53-1.84-1.856-3.7-3.691-5.531-5.557-.369-.377-.57-.451-.984-.027-1.971,2.022-3.981,4-6.13,6.155.7,0,1.24.024,1.782-.008.4-.023.488.115.508.5.127,2.391.138,2.39-2.221,2.39-1.142,0-2.283.015-3.425-.005a1.435,1.435,0,0,1-1.576-1.562c-.021-1.682.007-3.365-.015-5.047-.006-.445.079-.647.582-.613.718.048,1.605-.238,2.118.09.555.356.048,1.323.3,2.19.349-.381.628-.71.931-1.015,1.886-1.895,3.767-3.8,5.676-5.667a1.534,1.534,0,0,0,.515-1.253c-.036-1.261.008-2.524-.022-3.785-.012-.48.082-.662.622-.668,2.276-.029,2.421-.039,2.233,2.246a5.461,5.461,0,0,0,2.091,5.049C-285.23,246.079-283.662,247.862-281.981,249.547Z" transform="translate(-100 -131.665)"/><path d="M-154.635,97.463c-.24,0-.481,0-.721,0-.4.007-.822-.123-.977.5-.139.553-.628,1.079.133,1.536a.374.374,0,0,1,.065.062c1.678,1.688,1.67,1.678-.128,3.27-.3.266-.463.263-.721-.017-.406-.442-.875-.828-1.261-1.285a.92.92,0,0,0-1.224-.264,1.127,1.127,0,0,0-.826,1.317c.044,2.119.015,2.089-2.12,2.12-.658.009-.822-.194-.762-.8.053-.535-.022-1.083.021-1.62.039-.5-.154-.675-.6-.913-.746-.4-1.148-.163-1.66.376-1.379,1.452-1.379,1.4-2.81.047-.525-.5-.661-.833-.017-1.3a7.5,7.5,0,0,0,.835-.82,1.3,1.3,0,0,0,.183-1.99.454.454,0,0,0-.447-.212c-.18,0-.36,0-.541,0-2.194,0-2.172,0-2.184-2.158,0-.576.128-.812.732-.738a10.629,10.629,0,0,1,1.256.026c1.083.273,1.292-.5,1.592-1.212a.432.432,0,0,0-.138-.552,5.176,5.176,0,0,1-.443-.448c-.445-.516-1.432-.992-1.283-1.484.208-.688,1.051-1.178,1.6-1.769.254-.272.4-.111.582.071a13.663,13.663,0,0,1,1.074,1.09,1.156,1.156,0,0,0,1.737.356c.362-.212.582-.353.521-.779a2.523,2.523,0,0,1,0-.36c0-2.392,0-2.381,2.453-2.159.366.033.451.15.439.481-.02.54.043,1.087-.017,1.62a1.091,1.091,0,0,0,.9,1.353c.468.145.779.2,1.068-.224a1.453,1.453,0,0,1,.19-.191c1.712-1.693,1.7-1.686,3.263.223.242.3.184.438-.046.655-.371.35-.693.76-1.093,1.071A1.144,1.144,0,0,0-156.376,94c.234.467.44.654.92.582a1.212,1.212,0,0,1,.18,0c2.288,0,2.274,0,2.226,2.294-.01.459-.109.657-.595.6A8.527,8.527,0,0,0-154.635,97.463Z" transform="translate(-199.925 -17.829)"/><path d="M-408.251,94.7c.24,0,.481,0,.721,0,.4-.007.825.125.977-.494.135-.549.64-1.077-.123-1.538a.376.376,0,0,1-.065-.062c-1.668-1.681-1.661-1.672.124-3.263.292-.261.459-.285.72.005.361.4.789.745,1.132,1.159a1.04,1.04,0,0,0,1.515.316c.463-.246.743-.426.648-.964a1.046,1.046,0,0,1,0-.18c0-2.364,0-2.351,2.4-2.208.408.024.505.149.489.524-.026.6.033,1.2-.018,1.8-.049.568.175.779.683,1.041.7.362,1.063.131,1.515-.345.471-.495.924-1.368,1.491-1.315.536.05.975.895,1.507,1.329s.429.734-.038,1.109a11.632,11.632,0,0,0-.9.884c-.749.75-.776,1.115-.189,1.988a.452.452,0,0,0,.446.214,5.389,5.389,0,0,1,.541,0c.708.054,1.648-.316,2.059.155.346.4.066,1.315.124,2,.048.575-.117.817-.725.741a11,11,0,0,1-1.256-.026c-1.079-.27-1.3.491-1.6,1.209a.43.43,0,0,0,.14.551c.135.119.255.254.382.381,1.689,1.695,1.682,1.687-.188,3.268-.271.229-.42.243-.655-.013-.344-.377-.755-.7-1.071-1.093a1.159,1.159,0,0,0-1.739-.358c-.358.214-.584.35-.522.778a2.527,2.527,0,0,1,0,.36c0,2.391,0,2.379-2.45,2.161-.362-.032-.453-.142-.443-.478.021-.63-.026-1.263.016-1.891.034-.522-.162-.724-.638-.979-.73-.391-1.1-.148-1.587.361-1.428,1.488-1.43,1.451-2.936-.015-.435-.423-.548-.7-.023-1.106.33-.255.556-.663.906-.87.995-.589.482-1.29.227-1.992-.112-.309-.363-.257-.6-.257-.691,0-1.382-.02-2.072.007-.383.015-.558-.087-.511-.5a7.319,7.319,0,0,0,.006-.81C-409.82,94.7-409.82,94.7-408.251,94.7Z" transform="translate(-18.217 -17.955)"/><path class="a" d="M-181.422,384.987c-4.025,0-8.05-.017-12.075.017-.675.006-.857-.158-.83-.841a7.29,7.29,0,0,1,5.68-6.724c.379-.092.767-.152,1.139-.264,1.226-.372,2.166-.63,3.253.746,1.663,2.106,5,1.639,6.495-.646a.9.9,0,0,1,1.224-.451c1,.307,2.043.481,3.05.773a7.208,7.208,0,0,1,5.158,6.663c.013.6-.167.743-.746.74C-173.191,384.976-177.307,384.987-181.422,384.987Z" transform="translate(-181.762 -237.521)"/><path class="b" d="M-152.842,305.687a7.282,7.282,0,0,1-.345,2.719,5.808,5.808,0,0,1-6.174,3.788,5.791,5.791,0,0,1-5.018-5.508c-.027-.84.019-1.682-.02-2.521-.022-.479.142-.6.606-.6a19.487,19.487,0,0,0,3.235-.077,5.334,5.334,0,0,0,2.94-1.446c.4-.391.6-.266.933.046a5.264,5.264,0,0,0,3.137,1.429c.581.054.779.225.714.792C-152.877,304.692-152.842,305.086-152.842,305.687Z" transform="translate(-204.476 -180.645)"/><path class="c" d="M-158.537,273.27a5.826,5.826,0,0,1,5.741,5.086c.072.582-.088.768-.688.6a3.006,3.006,0,0,1-2.167-2.6c-.109-1.084-.572-1.62-1.415-1.639-.88-.02-1.364.521-1.483,1.661a2.875,2.875,0,0,1-2.807,2.656c-.781.026-1.564-.021-2.344.016-.566.027-.65-.232-.589-.71A5.826,5.826,0,0,1-158.537,273.27Z" transform="translate(-204.548 -158.996)"/><path class="d" d="M-143.533,361.962c.008.564.054,1.131.015,1.692a1.422,1.422,0,0,1-1.473,1.365,1.418,1.418,0,0,1-1.383-1.365c-.036-.561.007-1.128.016-1.692A8.734,8.734,0,0,1-143.533,361.962Z" transform="translate(-218.146 -226.217)"/><path class="e" d="M-143.637,358.038a5.186,5.186,0,0,1-2.825,0c-.01-.148-.01-.3-.033-.445-.108-.689.046-1.081.866-.85a2.837,2.837,0,0,0,.8.021C-143.567,356.74-143.567,356.738-143.637,358.038Z" transform="translate(-218.042 -222.293)"/><path class="f" d="M-180.845,312.172a1.374,1.374,0,0,1-1.426-1.277,1.343,1.343,0,0,1,.936-1.465c.317-.136.5-.126.494.3C-180.855,310.53-180.845,311.333-180.845,312.172Z" transform="translate(-190.905 -186.38)"/><path class="f" d="M-104.618,310.739a2.089,2.089,0,0,1,.006-.447c.066-.3-.211-.759.166-.864s.726.206.97.526a1.315,1.315,0,0,1,.2,1.348,1.144,1.144,0,0,1-1.124.869c-.481-.071-.131-.646-.215-.986A1.915,1.915,0,0,1-104.618,310.739Z" transform="translate(-249.815 -186.422)"/><path class="a" d="M-295.112,187.335c-4.055,0-8.111-.014-12.166.015-.636,0-.8-.165-.781-.8a7.263,7.263,0,0,1,5.553-6.73c.958-.247,1.93-.437,2.884-.7a.659.659,0,0,1,.876.319,4.257,4.257,0,0,0,7.381-.01c.224-.331.41-.446.795-.343,1.129.3,2.277.536,3.4.865a7.233,7.233,0,0,1,5.1,6.34c.058.766-.066,1.077-.962,1.065C-287.061,187.3-291.087,187.335-295.112,187.335Z" transform="translate(-95.452 -87.496)"/><path class="b" d="M-266.979,108.237a6.062,6.062,0,0,1-1.331,4.42,5.784,5.784,0,0,1-6.18,1.818,5.748,5.748,0,0,1-4.016-5.127c-.048-1.018-.381-2.3.1-2.991.51-.744,1.87-.2,2.855-.259a5.861,5.861,0,0,0,3.692-1.444c.392-.351.621-.495,1.075-.042a4.9,4.9,0,0,0,3.136,1.417c.638.048.723.306.681.822C-267,107.238-266.979,107.631-266.979,108.237Z" transform="translate(-117.761 -30.785)"/><path class="c" d="M-276.317,81.462h-.361c-1.67,0-1.7-.033-1.256-1.623a5.858,5.858,0,0,1,6.052-4.137,5.861,5.861,0,0,1,5.254,5.117c.054.532-.094.713-.649.572a3.021,3.021,0,0,1-2.211-2.566c-.128-1.171-.578-1.693-1.458-1.687s-1.31.522-1.443,1.7a2.9,2.9,0,0,1-2.846,2.618C-275.6,81.471-275.957,81.461-276.317,81.462Z" transform="translate(-118.132 -9.045)"/><path class="d" d="M-257.269,164.42c.008.564.053,1.131.015,1.692a1.422,1.422,0,0,1-1.473,1.365,1.419,1.419,0,0,1-1.383-1.365c-.036-.561.008-1.127.016-1.692A8.735,8.735,0,0,1-257.269,164.42Z" transform="translate(-131.831 -76.303)"/><path class="e" d="M-257.373,160.5a5.184,5.184,0,0,1-2.825,0c-.01-.149-.009-.3-.032-.445-.108-.69.046-1.081.866-.85a2.846,2.846,0,0,0,.8.021C-257.3,159.2-257.3,159.2-257.373,160.5Z" transform="translate(-131.727 -72.379)"/><path class="f" d="M-294.576,111.513c0,.888-.02,1.664.007,2.439.019.555-.236.5-.6.332a1.345,1.345,0,0,1-.844-1.354C-295.97,112.121-295.443,111.745-294.576,111.513Z" transform="translate(-104.595 -36.239)"/><path class="f" d="M-218.255,111.572c.889.21,1.388.619,1.431,1.415a1.336,1.336,0,0,1-.851,1.347c-.383.181-.606.182-.587-.349C-218.235,113.213-218.255,112.44-218.255,111.572Z" transform="translate(-163.6 -36.284)"/><path class="a" d="M-408.827,384.965c-4.025,0-8.051-.025-12.076.021-.8.009-.93-.244-.89-.961a7.3,7.3,0,0,1,5.7-6.614c.437-.1.884-.183,1.309-.324a2.3,2.3,0,0,1,3,.773,4.1,4.1,0,0,0,6.566-.627.842.842,0,0,1,1.145-.447c1.03.316,2.1.493,3.137.794a7.211,7.211,0,0,1,5.131,6.592c.021.619-.119.813-.77.808C-400.657,384.95-404.742,384.965-408.827,384.965Z" transform="translate(-9.136 -237.498)"/><path class="b" d="M-380.317,305.666a6.116,6.116,0,0,1-1.207,4.285,5.759,5.759,0,0,1-6.28,1.991,5.765,5.765,0,0,1-4.05-5.29c-.026-.84.021-1.682-.02-2.521-.024-.49.151-.6.612-.6a27.259,27.259,0,0,0,3.146-.074,5.083,5.083,0,0,0,3.031-1.451c.331-.32.519-.351.866-.013a5.209,5.209,0,0,0,3.2,1.488c.591.054.768.24.708.8C-380.35,304.668-380.317,305.062-380.317,305.666Z" transform="translate(-31.844 -180.615)"/><path class="c" d="M-385.99,273.27a5.83,5.83,0,0,1,5.722,5.108c.07.621-.15.732-.713.569a2.993,2.993,0,0,1-2.147-2.613c-.105-1.074-.582-1.61-1.436-1.617s-1.356.536-1.459,1.593a2.871,2.871,0,0,1-2.921,2.727c-.721.015-1.444-.027-2.164.013-.575.032-.734-.179-.656-.733A5.829,5.829,0,0,1-385.99,273.27Z" transform="translate(-31.917 -158.996)"/><path class="d" d="M-371,361.962c.008.564.053,1.131.015,1.692a1.422,1.422,0,0,1-1.473,1.365,1.419,1.419,0,0,1-1.383-1.365c-.036-.561.008-1.128.016-1.692A8.736,8.736,0,0,1-371,361.962Z" transform="translate(-45.517 -226.217)"/><path class="e" d="M-371.107,358.028a5.187,5.187,0,0,1-2.826,0c-.01-.148-.01-.3-.032-.446-.1-.686.041-1.087.866-.852a2.812,2.812,0,0,0,.8.022C-371.037,356.727-371.037,356.725-371.107,358.028Z" transform="translate(-45.415 -222.283)"/><path class="f" d="M-408.314,309.323c0,.845-.011,1.647,0,2.45.008.427-.188.43-.5.3a1.348,1.348,0,0,1-.931-1.47A1.388,1.388,0,0,1-408.314,309.323Z" transform="translate(-18.279 -186.357)"/><path class="f" d="M-331.991,309.112c.89.211,1.388.621,1.431,1.417a1.336,1.336,0,0,1-.852,1.346c-.385.182-.6.178-.587-.35C-331.971,310.753-331.991,309.98-331.991,309.112Z" transform="translate(-77.285 -186.197)"/><path class="g" d="M-140.613,114.54a2.9,2.9,0,0,1-2.868,2.875,2.891,2.891,0,0,1-2.9-2.936,2.886,2.886,0,0,1,2.91-2.828A2.892,2.892,0,0,1-140.613,114.54Z" transform="translate(-218.153 -36.344)"/><path class="g" d="M-382.912,111.651a2.892,2.892,0,0,1,2.853,2.889,2.9,2.9,0,0,1-2.959,2.874,2.893,2.893,0,0,1-2.806-2.936A2.886,2.886,0,0,1-382.912,111.651Z" transform="translate(-36.438 -36.344)"/></g></svg>