<svg width="93" height="73" viewBox="0 0 93 73" fill="none" xmlns="http://www.w3.org/2000/svg">
<path d="M10.4 55.4H7V59.4H12.9C12 58.1 11.2 56.8 10.4 55.4Z" fill="#0080C8"/>
<path d="M44.8 63.4C29.9 63.4 17.8 51.3 17.8 36.4C17.8 21.5 29.9 9.39999 44.8 9.39999C59.7001 9.39999 71.8001 21.5 71.8001 36.4C71.8001 41.8 70.2 47 67.2 51.4H69.6C72.3 46.9 73.8001 41.8 73.8001 36.4C73.8001 20.4 60.8 7.39999 44.8 7.39999C28.8 7.39999 15.8 20.4 15.8 36.4C15.8 52.4 28.8 65.4 44.8 65.4H80.7V63.4H44.8Z" fill="#A3D1EB"/>
<path d="M84.3001 55.4H80.0001H75.8001H71.0001H58.6001H49.2001H47.0001H44.8001C34.1001 55.4 25.4001 46.7 25.4001 36.1C25.5001 25.4 34.0001 16.8 45.0001 16.7V16.9C56.0001 16.9 64.4001 25.6 64.4001 36.4C64.4001 42.3 61.6001 47.8 57.3001 51.4H62.9001C66.3001 47.3 68.4001 42 68.4001 36.4C68.4001 23.5 58.0001 13 45.0001 12.9V12.7C32.0001 12.7 21.4001 23.2 21.4001 36C21.4001 48.9 31.9001 59.4 44.8001 59.4H49.5001C49.5001 59.4 49.5001 59.4 49.6001 59.4H82.6001L86.8001 63.6L83.3001 68.4H45.0001C27.0001 68.4 12.6001 54.2 12.6001 36.4C12.6001 18.6 27.0001 4 44.8001 4C62.6001 4 77.2001 18.6 77.2001 36.4C77.2001 41.7 75.9001 46.8 73.5001 51.4H78.0001C80.1001 46.7 81.3001 41.7 81.3001 36.4C81.3001 16.3 65.0001 0 45.0001 0C25.0001 0 8.6001 16.3 8.6001 36.4C8.6001 56.5 25.0001 72.4 45.0001 72.4H85.3001L92.1001 63.3L84.3001 55.4Z" fill="#0080C8"/>
<path d="M16.2 63.4H7V65.4H18V65.1C17.4 64.6 16.8 64 16.2 63.4Z" fill="#A3D1EB"/>
<path d="M5 55.4H0V59.4H5V55.4Z" fill="#0080C8"/>
<path d="M5 68.4H0V72.4H5V68.4Z" fill="#0080C8"/>
<path d="M5 63.4H0V65.4H5V63.4Z" fill="#A3D1EB"/>
<path d="M22 68.4H7V72.4H29C26.5 71.3 24.2 70 22 68.4Z" fill="#0080C8"/>
</svg>
